<?xml version="1.0"?>
<!-- Generated by SVGo and Plotinum VG -->
<svg width="432pt" height="432pt" viewBox="0 0 432 432"
	xmlns="http://www.w3.org/2000/svg"
	xmlns:xlink="http://www.w3.org/1999/xlink">
<g transform="scale(1, -1) translate(0, -432)">
<path d="M0,0L432,0L432,432L0,432Z" style="fill:#FFFFFF" />
<text x="159.28" y="-420.45" transform="scale(1, -1)"
	style="font-family:Times;font-weight:normal;font-style:normal;font-size:12px">Scheduling Throughput</text>
<text x="230.58" y="-3.8613" transform="scale(1, -1)"
	style="font-family:Times;font-weight:normal;font-style:normal;font-size:12px">Seconds</text>
<text x="69.166" y="-15.602" transform="scale(1, -1)"
	style="font-family:Times;font-weight:normal;font-style:normal;font-size:10px">0</text>
<text x="235.38" y="-15.602" transform="scale(1, -1)"
	style="font-family:Times;font-weight:normal;font-style:normal;font-size:10px">200</text>
<text x="406.59" y="-15.602" transform="scale(1, -1)"
	style="font-family:Times;font-weight:normal;font-style:normal;font-size:10px">400</text>
<path d="M71.666,25.23L71.666,33.23" style="fill:none;stroke:#000000;stroke-width:0.5" />
<path d="M242.88,25.23L242.88,33.23" style="fill:none;stroke:#000000;stroke-width:0.5" />
<path d="M414.09,25.23L414.09,33.23" style="fill:none;stroke:#000000;stroke-width:0.5" />
<path d="M157.27,29.23L157.27,33.23" style="fill:none;stroke:#000000;stroke-width:0.5" />
<path d="M328.48,29.23L328.48,33.23" style="fill:none;stroke:#000000;stroke-width:0.5" />
<path d="M71.666,33.23L429.5,33.23" style="fill:none;stroke:#000000;stroke-width:0.5" />
<g transform="rotate(90)">
<text x="187" y="11.555" transform="scale(1, -1)"
	style="font-family:Times;font-weight:normal;font-style:normal;font-size:12px">Number of Pods</text>
</g>
<text x="35.416" y="-36.259" transform="scale(1, -1)"
	style="font-family:Times;font-weight:normal;font-style:normal;font-size:10px">0.00</text>
<text x="15.416" y="-221.61" transform="scale(1, -1)"
	style="font-family:Times;font-weight:normal;font-style:normal;font-size:10px">25000.00</text>
<text x="15.416" y="-406.96" transform="scale(1, -1)"
	style="font-family:Times;font-weight:normal;font-style:normal;font-size:10px">50000.00</text>
<path d="M55.416,40.98L63.416,40.98" style="fill:none;stroke:#000000;stroke-width:0.5" />
<path d="M55.416,226.33L63.416,226.33" style="fill:none;stroke:#000000;stroke-width:0.5" />
<path d="M55.416,411.68L63.416,411.68" style="fill:none;stroke:#000000;stroke-width:0.5" />
<path d="M59.416,78.05L63.416,78.05" style="fill:none;stroke:#000000;stroke-width:0.5" />
<path d="M59.416,115.12L63.416,115.12" style="fill:none;stroke:#000000;stroke-width:0.5" />
<path d="M59.416,152.19L63.416,152.19" style="fill:none;stroke:#000000;stroke-width:0.5" />
<path d="M59.416,189.26L63.416,189.26" style="fill:none;stroke:#000000;stroke-width:0.5" />
<path d="M59.416,263.4L63.416,263.4" style="fill:none;stroke:#000000;stroke-width:0.5" />
<path d="M59.416,300.47L63.416,300.47" style="fill:none;stroke:#000000;stroke-width:0.5" />
<path d="M59.416,337.54L63.416,337.54" style="fill:none;stroke:#000000;stroke-width:0.5" />
<path d="M59.416,374.61L63.416,374.61" style="fill:none;stroke:#000000;stroke-width:0.5" />
<path d="M63.416,40.98L63.416,411.68" style="fill:none;stroke:#000000;stroke-width:0.5" />
<path d="M71.666,40.98L72.522,40.98L73.378,40.98L74.234,40.98L75.09,40.98L75.946,40.98L76.802,40.98L77.658,40.98L78.515,40.98L79.371,40.98L80.227,40.98L81.083,40.98L81.939,40.98L82.795,40.98L83.651,40.98L84.507,40.98L85.363,40.98L86.219,40.98L87.075,40.98L87.931,40.98L88.787,40.98L89.643,41.121L90.499,43.271L91.355,44.102L92.212,45.444L93.068,46.489L93.924,47.497L94.78,48.424L95.636,49.329L96.492,50.166L97.348,51.049L98.204,51.998L99.06,53.028L99.916,53.495L100.77,54.644L101.63,55.527L102.48,56.283L103.34,57.195L104.2,58.21L105.05,59.108L105.91,59.93L106.76,60.85L107.62,61.747L108.48,62.562L109.33,63.356L110.19,64.112L111.04,64.935L111.9,65.654L112.76,66.551L113.61,67.367L114.47,68.249L115.33,69.116L116.18,69.969L117.04,70.77L117.89,71.57L118.75,72.423L119.61,73.32L120.46,74.18L121.32,74.899L122.17,75.626L123.03,76.523L123.89,77.294L124.74,78.117L125.6,78.955L126.45,79.74L127.31,80.578L128.17,81.372L129.02,82.18L129.88,83.143L130.73,83.959L131.59,84.849L132.45,85.783L133.3,86.65L134.16,87.229L135.01,88.066L135.87,88.808L136.73,89.727L137.58,90.505L138.44,91.343L139.29,92.226L140.15,93.071L141.01,93.864L141.86,94.761L142.72,95.806L143.58,96.615L144.43,97.438L145.29,98.127L146.14,98.891L147,99.884L147.86,100.68L148.71,101.57L149.57,102.44L150.42,103.29L151.28,104.13L152.14,105.04L152.99,105.84L153.85,106.55L154.7,107.55L155.56,108.44L156.42,109.4L157.27,110.18L158.13,110.91L158.98,111.69L159.84,112.6L160.7,113.44L161.55,114.26L162.41,115.16L163.26,116.02L164.12,116.82L164.98,117.7L165.83,118.6L166.69,119.54L167.54,120.29L168.4,121.19L169.26,122.01L170.11,122.9L170.97,123.3L171.83,124.22L172.68,125.08L173.54,126.09L174.39,126.91L175.25,127.85L176.11,128.71L176.96,129.69L177.82,130.41L178.67,131.44L179.53,132.31L180.39,133.12L181.24,134.05L182.1,134.97L182.95,135.95L183.81,136.55L184.67,137.44L185.52,138.21L186.38,139.27L187.23,140.02L188.09,140.96L188.95,141.77L189.8,142.76L190.66,143.65L191.51,144.59L192.37,145.35L193.23,146.44L194.08,147.13L194.94,148.13L195.8,149.01L196.65,149.76L197.51,150.46L198.36,151.34L199.22,152.26L200.08,153.06L200.93,153.95L201.79,154.81L202.64,155.8L203.5,156.7L204.36,157.66L205.21,158.47L206.07,159.4L206.92,160.23L207.78,161.12L208.64,162.05L209.49,162.69L210.35,163.62L211.2,164.44L212.06,165.32L212.92,166.35L213.77,167.27L214.63,168.12L215.48,168.91L216.34,169.9L217.2,170.73L218.05,171.55L218.91,172.53L219.76,173.36L220.62,174.26L221.48,174.94L222.33,175.72L223.19,176.46L224.05,177.43L224.9,178.43L225.76,179.17L226.61,180.17L227.47,181.04L228.33,181.87L229.18,182.71L230.04,183.72L230.89,184.63L231.75,185.6L232.61,186.37L233.46,187.26L234.32,187.99L235.17,188.35L236.03,189.3L236.89,189.98L237.74,190.38L238.6,190.62L239.45,191.08L240.31,191.77L241.17,192.46L242.02,193.64L242.88,194.2L243.73,194.84L244.59,194.96L245.45,195.78L246.3,196.29L247.16,196.82L248.01,197.12L248.87,197.96L249.73,198.64L250.58,199.58L251.44,200.08L252.3,200.77L253.15,201.52L254.01,202.07L254.86,203L255.72,204.26L256.58,204.62L257.43,205.18L258.29,205.81L259.14,206.27L260,209.63L260.86,212L261.71,217.15L262.57,219.24L263.42,221.13L264.28,223.42L265.14,224.76L265.99,225.54L266.85,226.96L267.7,227.81L268.56,228.73L269.42,228.97L270.27,229.8L271.13,231.32L271.98,233.04L272.84,233.98L273.7,235.11L274.55,235.88L275.41,236.98L276.26,237.51L277.12,238.87L277.98,240.13L278.83,240.88L279.69,241.87L280.55,243.43L281.4,244.68L282.26,245.49L283.11,246.97L283.97,247.84L284.83,248.74L285.68,249.8L286.54,250.59L287.39,251.54L288.25,252.43L289.11,253.26L289.96,254.06L290.82,254.96L291.67,255.76L292.53,256.73L293.39,257.62L294.24,258.62L295.1,259.48L295.95,260.44L296.81,261.33L297.67,262.4L298.52,263.35L299.38,264.14L300.23,265.16L301.09,266.13L301.95,267.02L302.8,267.81L303.66,268.66L304.51,269.53L305.37,270.44L306.23,271.36L307.08,272.29L307.94,273.19L308.8,274.1L309.65,275.11L310.51,276.01L311.36,276.99L312.22,278.08L313.08,279.04L313.93,279.96L314.79,281.01L315.64,282.19L316.5,282.97L317.36,283.88L318.21,284.68L319.07,285.8L319.92,286.8L320.78,287.86L321.64,288.66L322.49,289.66L323.35,290.73L324.2,291.59L325.06,292.61L325.92,293.61L326.77,294.5L327.63,295.58L328.48,296.51L329.34,297.44L330.2,298.25L331.05,299.18L331.91,300.12L332.76,300.91L333.62,301.94L334.48,303.07L335.33,304L336.19,304.82L337.05,305.91L337.9,306.79L338.76,307.79L339.61,308.86L340.47,309.71L341.33,310.63L342.18,311.7L343.04,312.55L343.89,313.15L344.75,314.18L345.61,315.17L346.46,316.11L347.32,317.22L348.17,318.09L349.03,319.06L349.89,320.19L350.74,321.2L351.6,322.03L352.45,323.04L353.31,324.1L354.17,325.22L355.02,326.05L355.88,327.13L356.73,327.7L357.59,328.69L358.45,329.78L359.3,330.8L360.16,331.84L361.02,332.92L361.87,333.95L362.73,334.74L363.58,335.88L364.44,336.99L365.3,338L366.15,338.74L367.01,339.81L367.86,340.84L368.72,341.92L369.58,342.72L370.43,343.39L371.29,344.56L372.14,345.61L373,346.78L373.86,347.61L374.71,348.6L375.57,349.62L376.42,350.54L377.28,351.56L378.14,352.57L378.99,353.63L379.85,354.72L380.7,355.71L381.56,356.72L382.42,357.55L383.27,358.44L384.13,359.33L384.98,360.21L385.84,361.14L386.7,362.35L387.55,363.38L388.41,364.32L389.27,365.24L390.12,366.33L390.98,367.28L391.83,368.3L392.69,369.19L393.55,370.38L394.4,371.4L395.26,372.2L396.11,373.13L396.97,373.97L397.83,375.01L398.68,376.1L399.54,377.08L400.39,377.91L401.25,379.06L402.11,380.09L402.96,381.17L403.82,382.06L404.67,383.09L405.53,384.13L406.39,385.36L407.24,386.37L408.1,387.18L408.95,388.08L409.81,389.22L410.67,390.09L411.52,391.15L412.38,392.16L413.23,393.07L414.09,394.17L414.95,395.31L415.8,396.15L416.66,397.39L417.52,398.38L418.37,399.57L419.23,400.43L420.08,401.5L420.94,402.54L421.8,403.42L422.65,404.4L423.51,405.35L424.36,406.41L425.22,407.44L426.08,408.68L426.93,409.54L427.79,410.43L428.64,411.63L429.5,411.68" style="fill:none;stroke:#F15A60" />
<path d="M74.166,40.98A2.5,2.5 0 1 1 69.166,40.98A2.5,2.5 0 1 1 74.166,40.98Z" style="fill:none;stroke:#F15A60;stroke-width:0.5" />
<path d="M75.022,40.98A2.5,2.5 0 1 1 70.022,40.98A2.5,2.5 0 1 1 75.022,40.98Z" style="fill:none;stroke:#F15A60;stroke-width:0.5" />
<path d="M75.878,40.98A2.5,2.5 0 1 1 70.878,40.98A2.5,2.5 0 1 1 75.878,40.98Z" style="fill:none;stroke:#F15A60;stroke-width:0.5" />
<path d="M76.734,40.98A2.5,2.5 0 1 1 71.734,40.98A2.5,2.5 0 1 1 76.734,40.98Z" style="fill:none;stroke:#F15A60;stroke-width:0.5" />
<path d="M77.59,40.98A2.5,2.5 0 1 1 72.59,40.98A2.5,2.5 0 1 1 77.59,40.98Z" style="fill:none;stroke:#F15A60;stroke-width:0.5" />
<path d="M78.446,40.98A2.5,2.5 0 1 1 73.446,40.98A2.5,2.5 0 1 1 78.446,40.98Z" style="fill:none;stroke:#F15A60;stroke-width:0.5" />
<path d="M79.302,40.98A2.5,2.5 0 1 1 74.302,40.98A2.5,2.5 0 1 1 79.302,40.98Z" style="fill:none;stroke:#F15A60;stroke-width:0.5" />
<path d="M80.158,40.98A2.5,2.5 0 1 1 75.158,40.98A2.5,2.5 0 1 1 80.158,40.98Z" style="fill:none;stroke:#F15A60;stroke-width:0.5" />
<path d="M81.015,40.98A2.5,2.5 0 1 1 76.015,40.98A2.5,2.5 0 1 1 81.015,40.98Z" style="fill:none;stroke:#F15A60;stroke-width:0.5" />
<path d="M81.871,40.98A2.5,2.5 0 1 1 76.871,40.98A2.5,2.5 0 1 1 81.871,40.98Z" style="fill:none;stroke:#F15A60;stroke-width:0.5" />
<path d="M82.727,40.98A2.5,2.5 0 1 1 77.727,40.98A2.5,2.5 0 1 1 82.727,40.98Z" style="fill:none;stroke:#F15A60;stroke-width:0.5" />
<path d="M83.583,40.98A2.5,2.5 0 1 1 78.583,40.98A2.5,2.5 0 1 1 83.583,40.98Z" style="fill:none;stroke:#F15A60;stroke-width:0.5" />
<path d="M84.439,40.98A2.5,2.5 0 1 1 79.439,40.98A2.5,2.5 0 1 1 84.439,40.98Z" style="fill:none;stroke:#F15A60;stroke-width:0.5" />
<path d="M85.295,40.98A2.5,2.5 0 1 1 80.295,40.98A2.5,2.5 0 1 1 85.295,40.98Z" style="fill:none;stroke:#F15A60;stroke-width:0.5" />
<path d="M86.151,40.98A2.5,2.5 0 1 1 81.151,40.98A2.5,2.5 0 1 1 86.151,40.98Z" style="fill:none;stroke:#F15A60;stroke-width:0.5" />
<path d="M87.007,40.98A2.5,2.5 0 1 1 82.007,40.98A2.5,2.5 0 1 1 87.007,40.98Z" style="fill:none;stroke:#F15A60;stroke-width:0.5" />
<path d="M87.863,40.98A2.5,2.5 0 1 1 82.863,40.98A2.5,2.5 0 1 1 87.863,40.98Z" style="fill:none;stroke:#F15A60;stroke-width:0.5" />
<path d="M88.719,40.98A2.5,2.5 0 1 1 83.719,40.98A2.5,2.5 0 1 1 88.719,40.98Z" style="fill:none;stroke:#F15A60;stroke-width:0.5" />
<path d="M89.575,40.98A2.5,2.5 0 1 1 84.575,40.98A2.5,2.5 0 1 1 89.575,40.98Z" style="fill:none;stroke:#F15A60;stroke-width:0.5" />
<path d="M90.431,40.98A2.5,2.5 0 1 1 85.431,40.98A2.5,2.5 0 1 1 90.431,40.98Z" style="fill:none;stroke:#F15A60;stroke-width:0.5" />
<path d="M91.287,40.98A2.5,2.5 0 1 1 86.287,40.98A2.5,2.5 0 1 1 91.287,40.98Z" style="fill:none;stroke:#F15A60;stroke-width:0.5" />
<path d="M92.143,41.121A2.5,2.5 0 1 1 87.143,41.121A2.5,2.5 0 1 1 92.143,41.121Z" style="fill:none;stroke:#F15A60;stroke-width:0.5" />
<path d="M92.999,43.271A2.5,2.5 0 1 1 87.999,43.271A2.5,2.5 0 1 1 92.999,43.271Z" style="fill:none;stroke:#F15A60;stroke-width:0.5" />
<path d="M93.855,44.102A2.5,2.5 0 1 1 88.855,44.102A2.5,2.5 0 1 1 93.855,44.102Z" style="fill:none;stroke:#F15A60;stroke-width:0.5" />
<path d="M94.712,45.444A2.5,2.5 0 1 1 89.712,45.444A2.5,2.5 0 1 1 94.712,45.444Z" style="fill:none;stroke:#F15A60;stroke-width:0.5" />
<path d="M95.568,46.489A2.5,2.5 0 1 1 90.568,46.489A2.5,2.5 0 1 1 95.568,46.489Z" style="fill:none;stroke:#F15A60;stroke-width:0.5" />
<path d="M96.424,47.497A2.5,2.5 0 1 1 91.424,47.497A2.5,2.5 0 1 1 96.424,47.497Z" style="fill:none;stroke:#F15A60;stroke-width:0.5" />
<path d="M97.28,48.424A2.5,2.5 0 1 1 92.28,48.424A2.5,2.5 0 1 1 97.28,48.424Z" style="fill:none;stroke:#F15A60;stroke-width:0.5" />
<path d="M98.136,49.329A2.5,2.5 0 1 1 93.136,49.329A2.5,2.5 0 1 1 98.136,49.329Z" style="fill:none;stroke:#F15A60;stroke-width:0.5" />
<path d="M98.992,50.166A2.5,2.5 0 1 1 93.992,50.166A2.5,2.5 0 1 1 98.992,50.166Z" style="fill:none;stroke:#F15A60;stroke-width:0.5" />
<path d="M99.848,51.049A2.5,2.5 0 1 1 94.848,51.049A2.5,2.5 0 1 1 99.848,51.049Z" style="fill:none;stroke:#F15A60;stroke-width:0.5" />
<path d="M100.7,51.998A2.5,2.5 0 1 1 95.704,51.998A2.5,2.5 0 1 1 100.7,51.998Z" style="fill:none;stroke:#F15A60;stroke-width:0.5" />
<path d="M101.56,53.028A2.5,2.5 0 1 1 96.56,53.028A2.5,2.5 0 1 1 101.56,53.028Z" style="fill:none;stroke:#F15A60;stroke-width:0.5" />
<path d="M102.42,53.495A2.5,2.5 0 1 1 97.416,53.495A2.5,2.5 0 1 1 102.42,53.495Z" style="fill:none;stroke:#F15A60;stroke-width:0.5" />
<path d="M103.27,54.644A2.5,2.5 0 1 1 98.272,54.644A2.5,2.5 0 1 1 103.27,54.644Z" style="fill:none;stroke:#F15A60;stroke-width:0.5" />
<path d="M104.13,55.527A2.5,2.5 0 1 1 99.128,55.527A2.5,2.5 0 1 1 104.13,55.527Z" style="fill:none;stroke:#F15A60;stroke-width:0.5" />
<path d="M104.98,56.283A2.5,2.5 0 1 1 99.984,56.283A2.5,2.5 0 1 1 104.98,56.283Z" style="fill:none;stroke:#F15A60;stroke-width:0.5" />
<path d="M105.84,57.195A2.5,2.5 0 1 1 100.84,57.195A2.5,2.5 0 1 1 105.84,57.195Z" style="fill:none;stroke:#F15A60;stroke-width:0.5" />
<path d="M106.7,58.21A2.5,2.5 0 1 1 101.7,58.21A2.5,2.5 0 1 1 106.7,58.21Z" style="fill:none;stroke:#F15A60;stroke-width:0.5" />
<path d="M107.55,59.108A2.5,2.5 0 1 1 102.55,59.108A2.5,2.5 0 1 1 107.55,59.108Z" style="fill:none;stroke:#F15A60;stroke-width:0.5" />
<path d="M108.41,59.93A2.5,2.5 0 1 1 103.41,59.93A2.5,2.5 0 1 1 108.41,59.93Z" style="fill:none;stroke:#F15A60;stroke-width:0.5" />
<path d="M109.26,60.85A2.5,2.5 0 1 1 104.26,60.85A2.5,2.5 0 1 1 109.26,60.85Z" style="fill:none;stroke:#F15A60;stroke-width:0.5" />
<path d="M110.12,61.747A2.5,2.5 0 1 1 105.12,61.747A2.5,2.5 0 1 1 110.12,61.747Z" style="fill:none;stroke:#F15A60;stroke-width:0.5" />
<path d="M110.98,62.562A2.5,2.5 0 1 1 105.98,62.562A2.5,2.5 0 1 1 110.98,62.562Z" style="fill:none;stroke:#F15A60;stroke-width:0.5" />
<path d="M111.83,63.356A2.5,2.5 0 1 1 106.83,63.356A2.5,2.5 0 1 1 111.83,63.356Z" style="fill:none;stroke:#F15A60;stroke-width:0.5" />
<path d="M112.69,64.112A2.5,2.5 0 1 1 107.69,64.112A2.5,2.5 0 1 1 112.69,64.112Z" style="fill:none;stroke:#F15A60;stroke-width:0.5" />
<path d="M113.54,64.935A2.5,2.5 0 1 1 108.54,64.935A2.5,2.5 0 1 1 113.54,64.935Z" style="fill:none;stroke:#F15A60;stroke-width:0.5" />
<path d="M114.4,65.654A2.5,2.5 0 1 1 109.4,65.654A2.5,2.5 0 1 1 114.4,65.654Z" style="fill:none;stroke:#F15A60;stroke-width:0.5" />
<path d="M115.26,66.551A2.5,2.5 0 1 1 110.26,66.551A2.5,2.5 0 1 1 115.26,66.551Z" style="fill:none;stroke:#F15A60;stroke-width:0.5" />
<path d="M116.11,67.367A2.5,2.5 0 1 1 111.11,67.367A2.5,2.5 0 1 1 116.11,67.367Z" style="fill:none;stroke:#F15A60;stroke-width:0.5" />
<path d="M116.97,68.249A2.5,2.5 0 1 1 111.97,68.249A2.5,2.5 0 1 1 116.97,68.249Z" style="fill:none;stroke:#F15A60;stroke-width:0.5" />
<path d="M117.83,69.116A2.5,2.5 0 1 1 112.83,69.116A2.5,2.5 0 1 1 117.83,69.116Z" style="fill:none;stroke:#F15A60;stroke-width:0.5" />
<path d="M118.68,69.969A2.5,2.5 0 1 1 113.68,69.969A2.5,2.5 0 1 1 118.68,69.969Z" style="fill:none;stroke:#F15A60;stroke-width:0.5" />
<path d="M119.54,70.77A2.5,2.5 0 1 1 114.54,70.77A2.5,2.5 0 1 1 119.54,70.77Z" style="fill:none;stroke:#F15A60;stroke-width:0.5" />
<path d="M120.39,71.57A2.5,2.5 0 1 1 115.39,71.57A2.5,2.5 0 1 1 120.39,71.57Z" style="fill:none;stroke:#F15A60;stroke-width:0.5" />
<path d="M121.25,72.423A2.5,2.5 0 1 1 116.25,72.423A2.5,2.5 0 1 1 121.25,72.423Z" style="fill:none;stroke:#F15A60;stroke-width:0.5" />
<path d="M122.11,73.32A2.5,2.5 0 1 1 117.11,73.32A2.5,2.5 0 1 1 122.11,73.32Z" style="fill:none;stroke:#F15A60;stroke-width:0.5" />
<path d="M122.96,74.18A2.5,2.5 0 1 1 117.96,74.18A2.5,2.5 0 1 1 122.96,74.18Z" style="fill:none;stroke:#F15A60;stroke-width:0.5" />
<path d="M123.82,74.899A2.5,2.5 0 1 1 118.82,74.899A2.5,2.5 0 1 1 123.82,74.899Z" style="fill:none;stroke:#F15A60;stroke-width:0.5" />
<path d="M124.67,75.626A2.5,2.5 0 1 1 119.67,75.626A2.5,2.5 0 1 1 124.67,75.626Z" style="fill:none;stroke:#F15A60;stroke-width:0.5" />
<path d="M125.53,76.523A2.5,2.5 0 1 1 120.53,76.523A2.5,2.5 0 1 1 125.53,76.523Z" style="fill:none;stroke:#F15A60;stroke-width:0.5" />
<path d="M126.39,77.294A2.5,2.5 0 1 1 121.39,77.294A2.5,2.5 0 1 1 126.39,77.294Z" style="fill:none;stroke:#F15A60;stroke-width:0.5" />
<path d="M127.24,78.117A2.5,2.5 0 1 1 122.24,78.117A2.5,2.5 0 1 1 127.24,78.117Z" style="fill:none;stroke:#F15A60;stroke-width:0.5" />
<path d="M128.1,78.955A2.5,2.5 0 1 1 123.1,78.955A2.5,2.5 0 1 1 128.1,78.955Z" style="fill:none;stroke:#F15A60;stroke-width:0.5" />
<path d="M128.95,79.74A2.5,2.5 0 1 1 123.95,79.74A2.5,2.5 0 1 1 128.95,79.74Z" style="fill:none;stroke:#F15A60;stroke-width:0.5" />
<path d="M129.81,80.578A2.5,2.5 0 1 1 124.81,80.578A2.5,2.5 0 1 1 129.81,80.578Z" style="fill:none;stroke:#F15A60;stroke-width:0.5" />
<path d="M130.67,81.372A2.5,2.5 0 1 1 125.67,81.372A2.5,2.5 0 1 1 130.67,81.372Z" style="fill:none;stroke:#F15A60;stroke-width:0.5" />
<path d="M131.52,82.18A2.5,2.5 0 1 1 126.52,82.18A2.5,2.5 0 1 1 131.52,82.18Z" style="fill:none;stroke:#F15A60;stroke-width:0.5" />
<path d="M132.38,83.143A2.5,2.5 0 1 1 127.38,83.143A2.5,2.5 0 1 1 132.38,83.143Z" style="fill:none;stroke:#F15A60;stroke-width:0.5" />
<path d="M133.23,83.959A2.5,2.5 0 1 1 128.23,83.959A2.5,2.5 0 1 1 133.23,83.959Z" style="fill:none;stroke:#F15A60;stroke-width:0.5" />
<path d="M134.09,84.849A2.5,2.5 0 1 1 129.09,84.849A2.5,2.5 0 1 1 134.09,84.849Z" style="fill:none;stroke:#F15A60;stroke-width:0.5" />
<path d="M134.95,85.783A2.5,2.5 0 1 1 129.95,85.783A2.5,2.5 0 1 1 134.95,85.783Z" style="fill:none;stroke:#F15A60;stroke-width:0.5" />
<path d="M135.8,86.65A2.5,2.5 0 1 1 130.8,86.65A2.5,2.5 0 1 1 135.8,86.65Z" style="fill:none;stroke:#F15A60;stroke-width:0.5" />
<path d="M136.66,87.229A2.5,2.5 0 1 1 131.66,87.229A2.5,2.5 0 1 1 136.66,87.229Z" style="fill:none;stroke:#F15A60;stroke-width:0.5" />
<path d="M137.51,88.066A2.5,2.5 0 1 1 132.51,88.066A2.5,2.5 0 1 1 137.51,88.066Z" style="fill:none;stroke:#F15A60;stroke-width:0.5" />
<path d="M138.37,88.808A2.5,2.5 0 1 1 133.37,88.808A2.5,2.5 0 1 1 138.37,88.808Z" style="fill:none;stroke:#F15A60;stroke-width:0.5" />
<path d="M139.23,89.727A2.5,2.5 0 1 1 134.23,89.727A2.5,2.5 0 1 1 139.23,89.727Z" style="fill:none;stroke:#F15A60;stroke-width:0.5" />
<path d="M140.08,90.505A2.5,2.5 0 1 1 135.08,90.505A2.5,2.5 0 1 1 140.08,90.505Z" style="fill:none;stroke:#F15A60;stroke-width:0.5" />
<path d="M140.94,91.343A2.5,2.5 0 1 1 135.94,91.343A2.5,2.5 0 1 1 140.94,91.343Z" style="fill:none;stroke:#F15A60;stroke-width:0.5" />
<path d="M141.79,92.226A2.5,2.5 0 1 1 136.79,92.226A2.5,2.5 0 1 1 141.79,92.226Z" style="fill:none;stroke:#F15A60;stroke-width:0.5" />
<path d="M142.65,93.071A2.5,2.5 0 1 1 137.65,93.071A2.5,2.5 0 1 1 142.65,93.071Z" style="fill:none;stroke:#F15A60;stroke-width:0.5" />
<path d="M143.51,93.864A2.5,2.5 0 1 1 138.51,93.864A2.5,2.5 0 1 1 143.51,93.864Z" style="fill:none;stroke:#F15A60;stroke-width:0.5" />
<path d="M144.36,94.761A2.5,2.5 0 1 1 139.36,94.761A2.5,2.5 0 1 1 144.36,94.761Z" style="fill:none;stroke:#F15A60;stroke-width:0.5" />
<path d="M145.22,95.806A2.5,2.5 0 1 1 140.22,95.806A2.5,2.5 0 1 1 145.22,95.806Z" style="fill:none;stroke:#F15A60;stroke-width:0.5" />
<path d="M146.08,96.615A2.5,2.5 0 1 1 141.08,96.615A2.5,2.5 0 1 1 146.08,96.615Z" style="fill:none;stroke:#F15A60;stroke-width:0.5" />
<path d="M146.93,97.438A2.5,2.5 0 1 1 141.93,97.438A2.5,2.5 0 1 1 146.93,97.438Z" style="fill:none;stroke:#F15A60;stroke-width:0.5" />
<path d="M147.79,98.127A2.5,2.5 0 1 1 142.79,98.127A2.5,2.5 0 1 1 147.79,98.127Z" style="fill:none;stroke:#F15A60;stroke-width:0.5" />
<path d="M148.64,98.891A2.5,2.5 0 1 1 143.64,98.891A2.5,2.5 0 1 1 148.64,98.891Z" style="fill:none;stroke:#F15A60;stroke-width:0.5" />
<path d="M149.5,99.884A2.5,2.5 0 1 1 144.5,99.884A2.5,2.5 0 1 1 149.5,99.884Z" style="fill:none;stroke:#F15A60;stroke-width:0.5" />
<path d="M150.36,100.68A2.5,2.5 0 1 1 145.36,100.68A2.5,2.5 0 1 1 150.36,100.68Z" style="fill:none;stroke:#F15A60;stroke-width:0.5" />
<path d="M151.21,101.57A2.5,2.5 0 1 1 146.21,101.57A2.5,2.5 0 1 1 151.21,101.57Z" style="fill:none;stroke:#F15A60;stroke-width:0.5" />
<path d="M152.07,102.44A2.5,2.5 0 1 1 147.07,102.44A2.5,2.5 0 1 1 152.07,102.44Z" style="fill:none;stroke:#F15A60;stroke-width:0.5" />
<path d="M152.92,103.29A2.5,2.5 0 1 1 147.92,103.29A2.5,2.5 0 1 1 152.92,103.29Z" style="fill:none;stroke:#F15A60;stroke-width:0.5" />
<path d="M153.78,104.13A2.5,2.5 0 1 1 148.78,104.13A2.5,2.5 0 1 1 153.78,104.13Z" style="fill:none;stroke:#F15A60;stroke-width:0.5" />
<path d="M154.64,105.04A2.5,2.5 0 1 1 149.64,105.04A2.5,2.5 0 1 1 154.64,105.04Z" style="fill:none;stroke:#F15A60;stroke-width:0.5" />
<path d="M155.49,105.84A2.5,2.5 0 1 1 150.49,105.84A2.5,2.5 0 1 1 155.49,105.84Z" style="fill:none;stroke:#F15A60;stroke-width:0.5" />
<path d="M156.35,106.55A2.5,2.5 0 1 1 151.35,106.55A2.5,2.5 0 1 1 156.35,106.55Z" style="fill:none;stroke:#F15A60;stroke-width:0.5" />
<path d="M157.2,107.55A2.5,2.5 0 1 1 152.2,107.55A2.5,2.5 0 1 1 157.2,107.55Z" style="fill:none;stroke:#F15A60;stroke-width:0.5" />
<path d="M158.06,108.44A2.5,2.5 0 1 1 153.06,108.44A2.5,2.5 0 1 1 158.06,108.44Z" style="fill:none;stroke:#F15A60;stroke-width:0.5" />
<path d="M158.92,109.4A2.5,2.5 0 1 1 153.92,109.4A2.5,2.5 0 1 1 158.92,109.4Z" style="fill:none;stroke:#F15A60;stroke-width:0.5" />
<path d="M159.77,110.18A2.5,2.5 0 1 1 154.77,110.18A2.5,2.5 0 1 1 159.77,110.18Z" style="fill:none;stroke:#F15A60;stroke-width:0.5" />
<path d="M160.63,110.91A2.5,2.5 0 1 1 155.63,110.91A2.5,2.5 0 1 1 160.63,110.91Z" style="fill:none;stroke:#F15A60;stroke-width:0.5" />
<path d="M161.48,111.69A2.5,2.5 0 1 1 156.48,111.69A2.5,2.5 0 1 1 161.48,111.69Z" style="fill:none;stroke:#F15A60;stroke-width:0.5" />
<path d="M162.34,112.6A2.5,2.5 0 1 1 157.34,112.6A2.5,2.5 0 1 1 162.34,112.6Z" style="fill:none;stroke:#F15A60;stroke-width:0.5" />
<path d="M163.2,113.44A2.5,2.5 0 1 1 158.2,113.44A2.5,2.5 0 1 1 163.2,113.44Z" style="fill:none;stroke:#F15A60;stroke-width:0.5" />
<path d="M164.05,114.26A2.5,2.5 0 1 1 159.05,114.26A2.5,2.5 0 1 1 164.05,114.26Z" style="fill:none;stroke:#F15A60;stroke-width:0.5" />
<path d="M164.91,115.16A2.5,2.5 0 1 1 159.91,115.16A2.5,2.5 0 1 1 164.91,115.16Z" style="fill:none;stroke:#F15A60;stroke-width:0.5" />
<path d="M165.76,116.02A2.5,2.5 0 1 1 160.76,116.02A2.5,2.5 0 1 1 165.76,116.02Z" style="fill:none;stroke:#F15A60;stroke-width:0.5" />
<path d="M166.62,116.82A2.5,2.5 0 1 1 161.62,116.82A2.5,2.5 0 1 1 166.62,116.82Z" style="fill:none;stroke:#F15A60;stroke-width:0.5" />
<path d="M167.48,117.7A2.5,2.5 0 1 1 162.48,117.7A2.5,2.5 0 1 1 167.48,117.7Z" style="fill:none;stroke:#F15A60;stroke-width:0.5" />
<path d="M168.33,118.6A2.5,2.5 0 1 1 163.33,118.6A2.5,2.5 0 1 1 168.33,118.6Z" style="fill:none;stroke:#F15A60;stroke-width:0.5" />
<path d="M169.19,119.54A2.5,2.5 0 1 1 164.19,119.54A2.5,2.5 0 1 1 169.19,119.54Z" style="fill:none;stroke:#F15A60;stroke-width:0.5" />
<path d="M170.04,120.29A2.5,2.5 0 1 1 165.04,120.29A2.5,2.5 0 1 1 170.04,120.29Z" style="fill:none;stroke:#F15A60;stroke-width:0.5" />
<path d="M170.9,121.19A2.5,2.5 0 1 1 165.9,121.19A2.5,2.5 0 1 1 170.9,121.19Z" style="fill:none;stroke:#F15A60;stroke-width:0.5" />
<path d="M171.76,122.01A2.5,2.5 0 1 1 166.76,122.01A2.5,2.5 0 1 1 171.76,122.01Z" style="fill:none;stroke:#F15A60;stroke-width:0.5" />
<path d="M172.61,122.9A2.5,2.5 0 1 1 167.61,122.9A2.5,2.5 0 1 1 172.61,122.9Z" style="fill:none;stroke:#F15A60;stroke-width:0.5" />
<path d="M173.47,123.3A2.5,2.5 0 1 1 168.47,123.3A2.5,2.5 0 1 1 173.47,123.3Z" style="fill:none;stroke:#F15A60;stroke-width:0.5" />
<path d="M174.33,124.22A2.5,2.5 0 1 1 169.33,124.22A2.5,2.5 0 1 1 174.33,124.22Z" style="fill:none;stroke:#F15A60;stroke-width:0.5" />
<path d="M175.18,125.08A2.5,2.5 0 1 1 170.18,125.08A2.5,2.5 0 1 1 175.18,125.08Z" style="fill:none;stroke:#F15A60;stroke-width:0.5" />
<path d="M176.04,126.09A2.5,2.5 0 1 1 171.04,126.09A2.5,2.5 0 1 1 176.04,126.09Z" style="fill:none;stroke:#F15A60;stroke-width:0.5" />
<path d="M176.89,126.91A2.5,2.5 0 1 1 171.89,126.91A2.5,2.5 0 1 1 176.89,126.91Z" style="fill:none;stroke:#F15A60;stroke-width:0.5" />
<path d="M177.75,127.85A2.5,2.5 0 1 1 172.75,127.85A2.5,2.5 0 1 1 177.75,127.85Z" style="fill:none;stroke:#F15A60;stroke-width:0.5" />
<path d="M178.61,128.71A2.5,2.5 0 1 1 173.61,128.71A2.5,2.5 0 1 1 178.61,128.71Z" style="fill:none;stroke:#F15A60;stroke-width:0.5" />
<path d="M179.46,129.69A2.5,2.5 0 1 1 174.46,129.69A2.5,2.5 0 1 1 179.46,129.69Z" style="fill:none;stroke:#F15A60;stroke-width:0.5" />
<path d="M180.32,130.41A2.5,2.5 0 1 1 175.32,130.41A2.5,2.5 0 1 1 180.32,130.41Z" style="fill:none;stroke:#F15A60;stroke-width:0.5" />
<path d="M181.17,131.44A2.5,2.5 0 1 1 176.17,131.44A2.5,2.5 0 1 1 181.17,131.44Z" style="fill:none;stroke:#F15A60;stroke-width:0.5" />
<path d="M182.03,132.31A2.5,2.5 0 1 1 177.03,132.31A2.5,2.5 0 1 1 182.03,132.31Z" style="fill:none;stroke:#F15A60;stroke-width:0.5" />
<path d="M182.89,133.12A2.5,2.5 0 1 1 177.89,133.12A2.5,2.5 0 1 1 182.89,133.12Z" style="fill:none;stroke:#F15A60;stroke-width:0.5" />
<path d="M183.74,134.05A2.5,2.5 0 1 1 178.74,134.05A2.5,2.5 0 1 1 183.74,134.05Z" style="fill:none;stroke:#F15A60;stroke-width:0.5" />
<path d="M184.6,134.97A2.5,2.5 0 1 1 179.6,134.97A2.5,2.5 0 1 1 184.6,134.97Z" style="fill:none;stroke:#F15A60;stroke-width:0.5" />
<path d="M185.45,135.95A2.5,2.5 0 1 1 180.45,135.95A2.5,2.5 0 1 1 185.45,135.95Z" style="fill:none;stroke:#F15A60;stroke-width:0.5" />
<path d="M186.31,136.55A2.5,2.5 0 1 1 181.31,136.55A2.5,2.5 0 1 1 186.31,136.55Z" style="fill:none;stroke:#F15A60;stroke-width:0.5" />
<path d="M187.17,137.44A2.5,2.5 0 1 1 182.17,137.44A2.5,2.5 0 1 1 187.17,137.44Z" style="fill:none;stroke:#F15A60;stroke-width:0.5" />
<path d="M188.02,138.21A2.5,2.5 0 1 1 183.02,138.21A2.5,2.5 0 1 1 188.02,138.21Z" style="fill:none;stroke:#F15A60;stroke-width:0.5" />
<path d="M188.88,139.27A2.5,2.5 0 1 1 183.88,139.27A2.5,2.5 0 1 1 188.88,139.27Z" style="fill:none;stroke:#F15A60;stroke-width:0.5" />
<path d="M189.73,140.02A2.5,2.5 0 1 1 184.73,140.02A2.5,2.5 0 1 1 189.73,140.02Z" style="fill:none;stroke:#F15A60;stroke-width:0.5" />
<path d="M190.59,140.96A2.5,2.5 0 1 1 185.59,140.96A2.5,2.5 0 1 1 190.59,140.96Z" style="fill:none;stroke:#F15A60;stroke-width:0.5" />
<path d="M191.45,141.77A2.5,2.5 0 1 1 186.45,141.77A2.5,2.5 0 1 1 191.45,141.77Z" style="fill:none;stroke:#F15A60;stroke-width:0.5" />
<path d="M192.3,142.76A2.5,2.5 0 1 1 187.3,142.76A2.5,2.5 0 1 1 192.3,142.76Z" style="fill:none;stroke:#F15A60;stroke-width:0.5" />
<path d="M193.16,143.65A2.5,2.5 0 1 1 188.16,143.65A2.5,2.5 0 1 1 193.16,143.65Z" style="fill:none;stroke:#F15A60;stroke-width:0.5" />
<path d="M194.01,144.59A2.5,2.5 0 1 1 189.01,144.59A2.5,2.5 0 1 1 194.01,144.59Z" style="fill:none;stroke:#F15A60;stroke-width:0.5" />
<path d="M194.87,145.35A2.5,2.5 0 1 1 189.87,145.35A2.5,2.5 0 1 1 194.87,145.35Z" style="fill:none;stroke:#F15A60;stroke-width:0.5" />
<path d="M195.73,146.44A2.5,2.5 0 1 1 190.73,146.44A2.5,2.5 0 1 1 195.73,146.44Z" style="fill:none;stroke:#F15A60;stroke-width:0.5" />
<path d="M196.58,147.13A2.5,2.5 0 1 1 191.58,147.13A2.5,2.5 0 1 1 196.58,147.13Z" style="fill:none;stroke:#F15A60;stroke-width:0.5" />
<path d="M197.44,148.13A2.5,2.5 0 1 1 192.44,148.13A2.5,2.5 0 1 1 197.44,148.13Z" style="fill:none;stroke:#F15A60;stroke-width:0.5" />
<path d="M198.3,149.01A2.5,2.5 0 1 1 193.3,149.01A2.5,2.5 0 1 1 198.3,149.01Z" style="fill:none;stroke:#F15A60;stroke-width:0.5" />
<path d="M199.15,149.76A2.5,2.5 0 1 1 194.15,149.76A2.5,2.5 0 1 1 199.15,149.76Z" style="fill:none;stroke:#F15A60;stroke-width:0.5" />
<path d="M200.01,150.46A2.5,2.5 0 1 1 195.01,150.46A2.5,2.5 0 1 1 200.01,150.46Z" style="fill:none;stroke:#F15A60;stroke-width:0.5" />
<path d="M200.86,151.34A2.5,2.5 0 1 1 195.86,151.34A2.5,2.5 0 1 1 200.86,151.34Z" style="fill:none;stroke:#F15A60;stroke-width:0.5" />
<path d="M201.72,152.26A2.5,2.5 0 1 1 196.72,152.26A2.5,2.5 0 1 1 201.72,152.26Z" style="fill:none;stroke:#F15A60;stroke-width:0.5" />
<path d="M202.58,153.06A2.5,2.5 0 1 1 197.58,153.06A2.5,2.5 0 1 1 202.58,153.06Z" style="fill:none;stroke:#F15A60;stroke-width:0.5" />
<path d="M203.43,153.95A2.5,2.5 0 1 1 198.43,153.95A2.5,2.5 0 1 1 203.43,153.95Z" style="fill:none;stroke:#F15A60;stroke-width:0.5" />
<path d="M204.29,154.81A2.5,2.5 0 1 1 199.29,154.81A2.5,2.5 0 1 1 204.29,154.81Z" style="fill:none;stroke:#F15A60;stroke-width:0.5" />
<path d="M205.14,155.8A2.5,2.5 0 1 1 200.14,155.8A2.5,2.5 0 1 1 205.14,155.8Z" style="fill:none;stroke:#F15A60;stroke-width:0.5" />
<path d="M206,156.7A2.5,2.5 0 1 1 201,156.7A2.5,2.5 0 1 1 206,156.7Z" style="fill:none;stroke:#F15A60;stroke-width:0.5" />
<path d="M206.86,157.66A2.5,2.5 0 1 1 201.86,157.66A2.5,2.5 0 1 1 206.86,157.66Z" style="fill:none;stroke:#F15A60;stroke-width:0.5" />
<path d="M207.71,158.47A2.5,2.5 0 1 1 202.71,158.47A2.5,2.5 0 1 1 207.71,158.47Z" style="fill:none;stroke:#F15A60;stroke-width:0.5" />
<path d="M208.57,159.4A2.5,2.5 0 1 1 203.57,159.4A2.5,2.5 0 1 1 208.57,159.4Z" style="fill:none;stroke:#F15A60;stroke-width:0.5" />
<path d="M209.42,160.23A2.5,2.5 0 1 1 204.42,160.23A2.5,2.5 0 1 1 209.42,160.23Z" style="fill:none;stroke:#F15A60;stroke-width:0.5" />
<path d="M210.28,161.12A2.5,2.5 0 1 1 205.28,161.12A2.5,2.5 0 1 1 210.28,161.12Z" style="fill:none;stroke:#F15A60;stroke-width:0.5" />
<path d="M211.14,162.05A2.5,2.5 0 1 1 206.14,162.05A2.5,2.5 0 1 1 211.14,162.05Z" style="fill:none;stroke:#F15A60;stroke-width:0.5" />
<path d="M211.99,162.69A2.5,2.5 0 1 1 206.99,162.69A2.5,2.5 0 1 1 211.99,162.69Z" style="fill:none;stroke:#F15A60;stroke-width:0.5" />
<path d="M212.85,163.62A2.5,2.5 0 1 1 207.85,163.62A2.5,2.5 0 1 1 212.85,163.62Z" style="fill:none;stroke:#F15A60;stroke-width:0.5" />
<path d="M213.7,164.44A2.5,2.5 0 1 1 208.7,164.44A2.5,2.5 0 1 1 213.7,164.44Z" style="fill:none;stroke:#F15A60;stroke-width:0.5" />
<path d="M214.56,165.32A2.5,2.5 0 1 1 209.56,165.32A2.5,2.5 0 1 1 214.56,165.32Z" style="fill:none;stroke:#F15A60;stroke-width:0.5" />
<path d="M215.42,166.35A2.5,2.5 0 1 1 210.42,166.35A2.5,2.5 0 1 1 215.42,166.35Z" style="fill:none;stroke:#F15A60;stroke-width:0.5" />
<path d="M216.27,167.27A2.5,2.5 0 1 1 211.27,167.27A2.5,2.5 0 1 1 216.27,167.27Z" style="fill:none;stroke:#F15A60;stroke-width:0.5" />
<path d="M217.13,168.12A2.5,2.5 0 1 1 212.13,168.12A2.5,2.5 0 1 1 217.13,168.12Z" style="fill:none;stroke:#F15A60;stroke-width:0.5" />
<path d="M217.98,168.91A2.5,2.5 0 1 1 212.98,168.91A2.5,2.5 0 1 1 217.98,168.91Z" style="fill:none;stroke:#F15A60;stroke-width:0.5" />
<path d="M218.84,169.9A2.5,2.5 0 1 1 213.84,169.9A2.5,2.5 0 1 1 218.84,169.9Z" style="fill:none;stroke:#F15A60;stroke-width:0.5" />
<path d="M219.7,170.73A2.5,2.5 0 1 1 214.7,170.73A2.5,2.5 0 1 1 219.7,170.73Z" style="fill:none;stroke:#F15A60;stroke-width:0.5" />
<path d="M220.55,171.55A2.5,2.5 0 1 1 215.55,171.55A2.5,2.5 0 1 1 220.55,171.55Z" style="fill:none;stroke:#F15A60;stroke-width:0.5" />
<path d="M221.41,172.53A2.5,2.5 0 1 1 216.41,172.53A2.5,2.5 0 1 1 221.41,172.53Z" style="fill:none;stroke:#F15A60;stroke-width:0.5" />
<path d="M222.26,173.36A2.5,2.5 0 1 1 217.26,173.36A2.5,2.5 0 1 1 222.26,173.36Z" style="fill:none;stroke:#F15A60;stroke-width:0.5" />
<path d="M223.12,174.26A2.5,2.5 0 1 1 218.12,174.26A2.5,2.5 0 1 1 223.12,174.26Z" style="fill:none;stroke:#F15A60;stroke-width:0.5" />
<path d="M223.98,174.94A2.5,2.5 0 1 1 218.98,174.94A2.5,2.5 0 1 1 223.98,174.94Z" style="fill:none;stroke:#F15A60;stroke-width:0.5" />
<path d="M224.83,175.72A2.5,2.5 0 1 1 219.83,175.72A2.5,2.5 0 1 1 224.83,175.72Z" style="fill:none;stroke:#F15A60;stroke-width:0.5" />
<path d="M225.69,176.46A2.5,2.5 0 1 1 220.69,176.46A2.5,2.5 0 1 1 225.69,176.46Z" style="fill:none;stroke:#F15A60;stroke-width:0.5" />
<path d="M226.55,177.43A2.5,2.5 0 1 1 221.55,177.43A2.5,2.5 0 1 1 226.55,177.43Z" style="fill:none;stroke:#F15A60;stroke-width:0.5" />
<path d="M227.4,178.43A2.5,2.5 0 1 1 222.4,178.43A2.5,2.5 0 1 1 227.4,178.43Z" style="fill:none;stroke:#F15A60;stroke-width:0.5" />
<path d="M228.26,179.17A2.5,2.5 0 1 1 223.26,179.17A2.5,2.5 0 1 1 228.26,179.17Z" style="fill:none;stroke:#F15A60;stroke-width:0.5" />
<path d="M229.11,180.17A2.5,2.5 0 1 1 224.11,180.17A2.5,2.5 0 1 1 229.11,180.17Z" style="fill:none;stroke:#F15A60;stroke-width:0.5" />
<path d="M229.97,181.04A2.5,2.5 0 1 1 224.97,181.04A2.5,2.5 0 1 1 229.97,181.04Z" style="fill:none;stroke:#F15A60;stroke-width:0.5" />
<path d="M230.83,181.87A2.5,2.5 0 1 1 225.83,181.87A2.5,2.5 0 1 1 230.83,181.87Z" style="fill:none;stroke:#F15A60;stroke-width:0.5" />
<path d="M231.68,182.71A2.5,2.5 0 1 1 226.68,182.71A2.5,2.5 0 1 1 231.68,182.71Z" style="fill:none;stroke:#F15A60;stroke-width:0.5" />
<path d="M232.54,183.72A2.5,2.5 0 1 1 227.54,183.72A2.5,2.5 0 1 1 232.54,183.72Z" style="fill:none;stroke:#F15A60;stroke-width:0.5" />
<path d="M233.39,184.63A2.5,2.5 0 1 1 228.39,184.63A2.5,2.5 0 1 1 233.39,184.63Z" style="fill:none;stroke:#F15A60;stroke-width:0.5" />
<path d="M234.25,185.6A2.5,2.5 0 1 1 229.25,185.6A2.5,2.5 0 1 1 234.25,185.6Z" style="fill:none;stroke:#F15A60;stroke-width:0.5" />
<path d="M235.11,186.37A2.5,2.5 0 1 1 230.11,186.37A2.5,2.5 0 1 1 235.11,186.37Z" style="fill:none;stroke:#F15A60;stroke-width:0.5" />
<path d="M235.96,187.26A2.5,2.5 0 1 1 230.96,187.26A2.5,2.5 0 1 1 235.96,187.26Z" style="fill:none;stroke:#F15A60;stroke-width:0.5" />
<path d="M236.82,187.99A2.5,2.5 0 1 1 231.82,187.99A2.5,2.5 0 1 1 236.82,187.99Z" style="fill:none;stroke:#F15A60;stroke-width:0.5" />
<path d="M237.67,188.35A2.5,2.5 0 1 1 232.67,188.35A2.5,2.5 0 1 1 237.67,188.35Z" style="fill:none;stroke:#F15A60;stroke-width:0.5" />
<path d="M238.53,189.3A2.5,2.5 0 1 1 233.53,189.3A2.5,2.5 0 1 1 238.53,189.3Z" style="fill:none;stroke:#F15A60;stroke-width:0.5" />
<path d="M239.39,189.98A2.5,2.5 0 1 1 234.39,189.98A2.5,2.5 0 1 1 239.39,189.98Z" style="fill:none;stroke:#F15A60;stroke-width:0.5" />
<path d="M240.24,190.38A2.5,2.5 0 1 1 235.24,190.38A2.5,2.5 0 1 1 240.24,190.38Z" style="fill:none;stroke:#F15A60;stroke-width:0.5" />
<path d="M241.1,190.62A2.5,2.5 0 1 1 236.1,190.62A2.5,2.5 0 1 1 241.1,190.62Z" style="fill:none;stroke:#F15A60;stroke-width:0.5" />
<path d="M241.95,191.08A2.5,2.5 0 1 1 236.95,191.08A2.5,2.5 0 1 1 241.95,191.08Z" style="fill:none;stroke:#F15A60;stroke-width:0.5" />
<path d="M242.81,191.77A2.5,2.5 0 1 1 237.81,191.77A2.5,2.5 0 1 1 242.81,191.77Z" style="fill:none;stroke:#F15A60;stroke-width:0.5" />
<path d="M243.67,192.46A2.5,2.5 0 1 1 238.67,192.46A2.5,2.5 0 1 1 243.67,192.46Z" style="fill:none;stroke:#F15A60;stroke-width:0.5" />
<path d="M244.52,193.64A2.5,2.5 0 1 1 239.52,193.64A2.5,2.5 0 1 1 244.52,193.64Z" style="fill:none;stroke:#F15A60;stroke-width:0.5" />
<path d="M245.38,194.2A2.5,2.5 0 1 1 240.38,194.2A2.5,2.5 0 1 1 245.38,194.2Z" style="fill:none;stroke:#F15A60;stroke-width:0.5" />
<path d="M246.23,194.84A2.5,2.5 0 1 1 241.23,194.84A2.5,2.5 0 1 1 246.23,194.84Z" style="fill:none;stroke:#F15A60;stroke-width:0.5" />
<path d="M247.09,194.96A2.5,2.5 0 1 1 242.09,194.96A2.5,2.5 0 1 1 247.09,194.96Z" style="fill:none;stroke:#F15A60;stroke-width:0.5" />
<path d="M247.95,195.78A2.5,2.5 0 1 1 242.95,195.78A2.5,2.5 0 1 1 247.95,195.78Z" style="fill:none;stroke:#F15A60;stroke-width:0.5" />
<path d="M248.8,196.29A2.5,2.5 0 1 1 243.8,196.29A2.5,2.5 0 1 1 248.8,196.29Z" style="fill:none;stroke:#F15A60;stroke-width:0.5" />
<path d="M249.66,196.82A2.5,2.5 0 1 1 244.66,196.82A2.5,2.5 0 1 1 249.66,196.82Z" style="fill:none;stroke:#F15A60;stroke-width:0.5" />
<path d="M250.51,197.12A2.5,2.5 0 1 1 245.51,197.12A2.5,2.5 0 1 1 250.51,197.12Z" style="fill:none;stroke:#F15A60;stroke-width:0.5" />
<path d="M251.37,197.96A2.5,2.5 0 1 1 246.37,197.96A2.5,2.5 0 1 1 251.37,197.96Z" style="fill:none;stroke:#F15A60;stroke-width:0.5" />
<path d="M252.23,198.64A2.5,2.5 0 1 1 247.23,198.64A2.5,2.5 0 1 1 252.23,198.64Z" style="fill:none;stroke:#F15A60;stroke-width:0.5" />
<path d="M253.08,199.58A2.5,2.5 0 1 1 248.08,199.58A2.5,2.5 0 1 1 253.08,199.58Z" style="fill:none;stroke:#F15A60;stroke-width:0.5" />
<path d="M253.94,200.08A2.5,2.5 0 1 1 248.94,200.08A2.5,2.5 0 1 1 253.94,200.08Z" style="fill:none;stroke:#F15A60;stroke-width:0.5" />
<path d="M254.8,200.77A2.5,2.5 0 1 1 249.8,200.77A2.5,2.5 0 1 1 254.8,200.77Z" style="fill:none;stroke:#F15A60;stroke-width:0.5" />
<path d="M255.65,201.52A2.5,2.5 0 1 1 250.65,201.52A2.5,2.5 0 1 1 255.65,201.52Z" style="fill:none;stroke:#F15A60;stroke-width:0.5" />
<path d="M256.51,202.07A2.5,2.5 0 1 1 251.51,202.07A2.5,2.5 0 1 1 256.51,202.07Z" style="fill:none;stroke:#F15A60;stroke-width:0.5" />
<path d="M257.36,203A2.5,2.5 0 1 1 252.36,203A2.5,2.5 0 1 1 257.36,203Z" style="fill:none;stroke:#F15A60;stroke-width:0.5" />
<path d="M258.22,204.26A2.5,2.5 0 1 1 253.22,204.26A2.5,2.5 0 1 1 258.22,204.26Z" style="fill:none;stroke:#F15A60;stroke-width:0.5" />
<path d="M259.08,204.62A2.5,2.5 0 1 1 254.08,204.62A2.5,2.5 0 1 1 259.08,204.62Z" style="fill:none;stroke:#F15A60;stroke-width:0.5" />
<path d="M259.93,205.18A2.5,2.5 0 1 1 254.93,205.18A2.5,2.5 0 1 1 259.93,205.18Z" style="fill:none;stroke:#F15A60;stroke-width:0.5" />
<path d="M260.79,205.81A2.5,2.5 0 1 1 255.79,205.81A2.5,2.5 0 1 1 260.79,205.81Z" style="fill:none;stroke:#F15A60;stroke-width:0.5" />
<path d="M261.64,206.27A2.5,2.5 0 1 1 256.64,206.27A2.5,2.5 0 1 1 261.64,206.27Z" style="fill:none;stroke:#F15A60;stroke-width:0.5" />
<path d="M262.5,209.63A2.5,2.5 0 1 1 257.5,209.63A2.5,2.5 0 1 1 262.5,209.63Z" style="fill:none;stroke:#F15A60;stroke-width:0.5" />
<path d="M263.36,212A2.5,2.5 0 1 1 258.36,212A2.5,2.5 0 1 1 263.36,212Z" style="fill:none;stroke:#F15A60;stroke-width:0.5" />
<path d="M264.21,217.15A2.5,2.5 0 1 1 259.21,217.15A2.5,2.5 0 1 1 264.21,217.15Z" style="fill:none;stroke:#F15A60;stroke-width:0.5" />
<path d="M265.07,219.24A2.5,2.5 0 1 1 260.07,219.24A2.5,2.5 0 1 1 265.07,219.24Z" style="fill:none;stroke:#F15A60;stroke-width:0.5" />
<path d="M265.92,221.13A2.5,2.5 0 1 1 260.92,221.13A2.5,2.5 0 1 1 265.92,221.13Z" style="fill:none;stroke:#F15A60;stroke-width:0.5" />
<path d="M266.78,223.42A2.5,2.5 0 1 1 261.78,223.42A2.5,2.5 0 1 1 266.78,223.42Z" style="fill:none;stroke:#F15A60;stroke-width:0.5" />
<path d="M267.64,224.76A2.5,2.5 0 1 1 262.64,224.76A2.5,2.5 0 1 1 267.64,224.76Z" style="fill:none;stroke:#F15A60;stroke-width:0.5" />
<path d="M268.49,225.54A2.5,2.5 0 1 1 263.49,225.54A2.5,2.5 0 1 1 268.49,225.54Z" style="fill:none;stroke:#F15A60;stroke-width:0.5" />
<path d="M269.35,226.96A2.5,2.5 0 1 1 264.35,226.96A2.5,2.5 0 1 1 269.35,226.96Z" style="fill:none;stroke:#F15A60;stroke-width:0.5" />
<path d="M270.2,227.81A2.5,2.5 0 1 1 265.2,227.81A2.5,2.5 0 1 1 270.2,227.81Z" style="fill:none;stroke:#F15A60;stroke-width:0.5" />
<path d="M271.06,228.73A2.5,2.5 0 1 1 266.06,228.73A2.5,2.5 0 1 1 271.06,228.73Z" style="fill:none;stroke:#F15A60;stroke-width:0.5" />
<path d="M271.92,228.97A2.5,2.5 0 1 1 266.92,228.97A2.5,2.5 0 1 1 271.92,228.97Z" style="fill:none;stroke:#F15A60;stroke-width:0.5" />
<path d="M272.77,229.8A2.5,2.5 0 1 1 267.77,229.8A2.5,2.5 0 1 1 272.77,229.8Z" style="fill:none;stroke:#F15A60;stroke-width:0.5" />
<path d="M273.63,231.32A2.5,2.5 0 1 1 268.63,231.32A2.5,2.5 0 1 1 273.63,231.32Z" style="fill:none;stroke:#F15A60;stroke-width:0.5" />
<path d="M274.48,233.04A2.5,2.5 0 1 1 269.48,233.04A2.5,2.5 0 1 1 274.48,233.04Z" style="fill:none;stroke:#F15A60;stroke-width:0.5" />
<path d="M275.34,233.98A2.5,2.5 0 1 1 270.34,233.98A2.5,2.5 0 1 1 275.34,233.98Z" style="fill:none;stroke:#F15A60;stroke-width:0.5" />
<path d="M276.2,235.11A2.5,2.5 0 1 1 271.2,235.11A2.5,2.5 0 1 1 276.2,235.11Z" style="fill:none;stroke:#F15A60;stroke-width:0.5" />
<path d="M277.05,235.88A2.5,2.5 0 1 1 272.05,235.88A2.5,2.5 0 1 1 277.05,235.88Z" style="fill:none;stroke:#F15A60;stroke-width:0.5" />
<path d="M277.91,236.98A2.5,2.5 0 1 1 272.91,236.98A2.5,2.5 0 1 1 277.91,236.98Z" style="fill:none;stroke:#F15A60;stroke-width:0.5" />
<path d="M278.76,237.51A2.5,2.5 0 1 1 273.76,237.51A2.5,2.5 0 1 1 278.76,237.51Z" style="fill:none;stroke:#F15A60;stroke-width:0.5" />
<path d="M279.62,238.87A2.5,2.5 0 1 1 274.62,238.87A2.5,2.5 0 1 1 279.62,238.87Z" style="fill:none;stroke:#F15A60;stroke-width:0.5" />
<path d="M280.48,240.13A2.5,2.5 0 1 1 275.48,240.13A2.5,2.5 0 1 1 280.48,240.13Z" style="fill:none;stroke:#F15A60;stroke-width:0.5" />
<path d="M281.33,240.88A2.5,2.5 0 1 1 276.33,240.88A2.5,2.5 0 1 1 281.33,240.88Z" style="fill:none;stroke:#F15A60;stroke-width:0.5" />
<path d="M282.19,241.87A2.5,2.5 0 1 1 277.19,241.87A2.5,2.5 0 1 1 282.19,241.87Z" style="fill:none;stroke:#F15A60;stroke-width:0.5" />
<path d="M283.05,243.43A2.5,2.5 0 1 1 278.05,243.43A2.5,2.5 0 1 1 283.05,243.43Z" style="fill:none;stroke:#F15A60;stroke-width:0.5" />
<path d="M283.9,244.68A2.5,2.5 0 1 1 278.9,244.68A2.5,2.5 0 1 1 283.9,244.68Z" style="fill:none;stroke:#F15A60;stroke-width:0.5" />
<path d="M284.76,245.49A2.5,2.5 0 1 1 279.76,245.49A2.5,2.5 0 1 1 284.76,245.49Z" style="fill:none;stroke:#F15A60;stroke-width:0.5" />
<path d="M285.61,246.97A2.5,2.5 0 1 1 280.61,246.97A2.5,2.5 0 1 1 285.61,246.97Z" style="fill:none;stroke:#F15A60;stroke-width:0.5" />
<path d="M286.47,247.84A2.5,2.5 0 1 1 281.47,247.84A2.5,2.5 0 1 1 286.47,247.84Z" style="fill:none;stroke:#F15A60;stroke-width:0.5" />
<path d="M287.33,248.74A2.5,2.5 0 1 1 282.33,248.74A2.5,2.5 0 1 1 287.33,248.74Z" style="fill:none;stroke:#F15A60;stroke-width:0.5" />
<path d="M288.18,249.8A2.5,2.5 0 1 1 283.18,249.8A2.5,2.5 0 1 1 288.18,249.8Z" style="fill:none;stroke:#F15A60;stroke-width:0.5" />
<path d="M289.04,250.59A2.5,2.5 0 1 1 284.04,250.59A2.5,2.5 0 1 1 289.04,250.59Z" style="fill:none;stroke:#F15A60;stroke-width:0.5" />
<path d="M289.89,251.54A2.5,2.5 0 1 1 284.89,251.54A2.5,2.5 0 1 1 289.89,251.54Z" style="fill:none;stroke:#F15A60;stroke-width:0.5" />
<path d="M290.75,252.43A2.5,2.5 0 1 1 285.75,252.43A2.5,2.5 0 1 1 290.75,252.43Z" style="fill:none;stroke:#F15A60;stroke-width:0.5" />
<path d="M291.61,253.26A2.5,2.5 0 1 1 286.61,253.26A2.5,2.5 0 1 1 291.61,253.26Z" style="fill:none;stroke:#F15A60;stroke-width:0.5" />
<path d="M292.46,254.06A2.5,2.5 0 1 1 287.46,254.06A2.5,2.5 0 1 1 292.46,254.06Z" style="fill:none;stroke:#F15A60;stroke-width:0.5" />
<path d="M293.32,254.96A2.5,2.5 0 1 1 288.32,254.96A2.5,2.5 0 1 1 293.32,254.96Z" style="fill:none;stroke:#F15A60;stroke-width:0.5" />
<path d="M294.17,255.76A2.5,2.5 0 1 1 289.17,255.76A2.5,2.5 0 1 1 294.17,255.76Z" style="fill:none;stroke:#F15A60;stroke-width:0.5" />
<path d="M295.03,256.73A2.5,2.5 0 1 1 290.03,256.73A2.5,2.5 0 1 1 295.03,256.73Z" style="fill:none;stroke:#F15A60;stroke-width:0.5" />
<path d="M295.89,257.62A2.5,2.5 0 1 1 290.89,257.62A2.5,2.5 0 1 1 295.89,257.62Z" style="fill:none;stroke:#F15A60;stroke-width:0.5" />
<path d="M296.74,258.62A2.5,2.5 0 1 1 291.74,258.62A2.5,2.5 0 1 1 296.74,258.62Z" style="fill:none;stroke:#F15A60;stroke-width:0.5" />
<path d="M297.6,259.48A2.5,2.5 0 1 1 292.6,259.48A2.5,2.5 0 1 1 297.6,259.48Z" style="fill:none;stroke:#F15A60;stroke-width:0.5" />
<path d="M298.45,260.44A2.5,2.5 0 1 1 293.45,260.44A2.5,2.5 0 1 1 298.45,260.44Z" style="fill:none;stroke:#F15A60;stroke-width:0.5" />
<path d="M299.31,261.33A2.5,2.5 0 1 1 294.31,261.33A2.5,2.5 0 1 1 299.31,261.33Z" style="fill:none;stroke:#F15A60;stroke-width:0.5" />
<path d="M300.17,262.4A2.5,2.5 0 1 1 295.17,262.4A2.5,2.5 0 1 1 300.17,262.4Z" style="fill:none;stroke:#F15A60;stroke-width:0.5" />
<path d="M301.02,263.35A2.5,2.5 0 1 1 296.02,263.35A2.5,2.5 0 1 1 301.02,263.35Z" style="fill:none;stroke:#F15A60;stroke-width:0.5" />
<path d="M301.88,264.14A2.5,2.5 0 1 1 296.88,264.14A2.5,2.5 0 1 1 301.88,264.14Z" style="fill:none;stroke:#F15A60;stroke-width:0.5" />
<path d="M302.73,265.16A2.5,2.5 0 1 1 297.73,265.16A2.5,2.5 0 1 1 302.73,265.16Z" style="fill:none;stroke:#F15A60;stroke-width:0.5" />
<path d="M303.59,266.13A2.5,2.5 0 1 1 298.59,266.13A2.5,2.5 0 1 1 303.59,266.13Z" style="fill:none;stroke:#F15A60;stroke-width:0.5" />
<path d="M304.45,267.02A2.5,2.5 0 1 1 299.45,267.02A2.5,2.5 0 1 1 304.45,267.02Z" style="fill:none;stroke:#F15A60;stroke-width:0.5" />
<path d="M305.3,267.81A2.5,2.5 0 1 1 300.3,267.81A2.5,2.5 0 1 1 305.3,267.81Z" style="fill:none;stroke:#F15A60;stroke-width:0.5" />
<path d="M306.16,268.66A2.5,2.5 0 1 1 301.16,268.66A2.5,2.5 0 1 1 306.16,268.66Z" style="fill:none;stroke:#F15A60;stroke-width:0.5" />
<path d="M307.01,269.53A2.5,2.5 0 1 1 302.01,269.53A2.5,2.5 0 1 1 307.01,269.53Z" style="fill:none;stroke:#F15A60;stroke-width:0.5" />
<path d="M307.87,270.44A2.5,2.5 0 1 1 302.87,270.44A2.5,2.5 0 1 1 307.87,270.44Z" style="fill:none;stroke:#F15A60;stroke-width:0.5" />
<path d="M308.73,271.36A2.5,2.5 0 1 1 303.73,271.36A2.5,2.5 0 1 1 308.73,271.36Z" style="fill:none;stroke:#F15A60;stroke-width:0.5" />
<path d="M309.58,272.29A2.5,2.5 0 1 1 304.58,272.29A2.5,2.5 0 1 1 309.58,272.29Z" style="fill:none;stroke:#F15A60;stroke-width:0.5" />
<path d="M310.44,273.19A2.5,2.5 0 1 1 305.44,273.19A2.5,2.5 0 1 1 310.44,273.19Z" style="fill:none;stroke:#F15A60;stroke-width:0.5" />
<path d="M311.3,274.1A2.5,2.5 0 1 1 306.3,274.1A2.5,2.5 0 1 1 311.3,274.1Z" style="fill:none;stroke:#F15A60;stroke-width:0.5" />
<path d="M312.15,275.11A2.5,2.5 0 1 1 307.15,275.11A2.5,2.5 0 1 1 312.15,275.11Z" style="fill:none;stroke:#F15A60;stroke-width:0.5" />
<path d="M313.01,276.01A2.5,2.5 0 1 1 308.01,276.01A2.5,2.5 0 1 1 313.01,276.01Z" style="fill:none;stroke:#F15A60;stroke-width:0.5" />
<path d="M313.86,276.99A2.5,2.5 0 1 1 308.86,276.99A2.5,2.5 0 1 1 313.86,276.99Z" style="fill:none;stroke:#F15A60;stroke-width:0.5" />
<path d="M314.72,278.08A2.5,2.5 0 1 1 309.72,278.08A2.5,2.5 0 1 1 314.72,278.08Z" style="fill:none;stroke:#F15A60;stroke-width:0.5" />
<path d="M315.58,279.04A2.5,2.5 0 1 1 310.58,279.04A2.5,2.5 0 1 1 315.58,279.04Z" style="fill:none;stroke:#F15A60;stroke-width:0.5" />
<path d="M316.43,279.96A2.5,2.5 0 1 1 311.43,279.96A2.5,2.5 0 1 1 316.43,279.96Z" style="fill:none;stroke:#F15A60;stroke-width:0.5" />
<path d="M317.29,281.01A2.5,2.5 0 1 1 312.29,281.01A2.5,2.5 0 1 1 317.29,281.01Z" style="fill:none;stroke:#F15A60;stroke-width:0.5" />
<path d="M318.14,282.19A2.5,2.5 0 1 1 313.14,282.19A2.5,2.5 0 1 1 318.14,282.19Z" style="fill:none;stroke:#F15A60;stroke-width:0.5" />
<path d="M319,282.97A2.5,2.5 0 1 1 314,282.97A2.5,2.5 0 1 1 319,282.97Z" style="fill:none;stroke:#F15A60;stroke-width:0.5" />
<path d="M319.86,283.88A2.5,2.5 0 1 1 314.86,283.88A2.5,2.5 0 1 1 319.86,283.88Z" style="fill:none;stroke:#F15A60;stroke-width:0.5" />
<path d="M320.71,284.68A2.5,2.5 0 1 1 315.71,284.68A2.5,2.5 0 1 1 320.71,284.68Z" style="fill:none;stroke:#F15A60;stroke-width:0.5" />
<path d="M321.57,285.8A2.5,2.5 0 1 1 316.57,285.8A2.5,2.5 0 1 1 321.57,285.8Z" style="fill:none;stroke:#F15A60;stroke-width:0.5" />
<path d="M322.42,286.8A2.5,2.5 0 1 1 317.42,286.8A2.5,2.5 0 1 1 322.42,286.8Z" style="fill:none;stroke:#F15A60;stroke-width:0.5" />
<path d="M323.28,287.86A2.5,2.5 0 1 1 318.28,287.86A2.5,2.5 0 1 1 323.28,287.86Z" style="fill:none;stroke:#F15A60;stroke-width:0.5" />
<path d="M324.14,288.66A2.5,2.5 0 1 1 319.14,288.66A2.5,2.5 0 1 1 324.14,288.66Z" style="fill:none;stroke:#F15A60;stroke-width:0.5" />
<path d="M324.99,289.66A2.5,2.5 0 1 1 319.99,289.66A2.5,2.5 0 1 1 324.99,289.66Z" style="fill:none;stroke:#F15A60;stroke-width:0.5" />
<path d="M325.85,290.73A2.5,2.5 0 1 1 320.85,290.73A2.5,2.5 0 1 1 325.85,290.73Z" style="fill:none;stroke:#F15A60;stroke-width:0.5" />
<path d="M326.7,291.59A2.5,2.5 0 1 1 321.7,291.59A2.5,2.5 0 1 1 326.7,291.59Z" style="fill:none;stroke:#F15A60;stroke-width:0.5" />
<path d="M327.56,292.61A2.5,2.5 0 1 1 322.56,292.61A2.5,2.5 0 1 1 327.56,292.61Z" style="fill:none;stroke:#F15A60;stroke-width:0.5" />
<path d="M328.42,293.61A2.5,2.5 0 1 1 323.42,293.61A2.5,2.5 0 1 1 328.42,293.61Z" style="fill:none;stroke:#F15A60;stroke-width:0.5" />
<path d="M329.27,294.5A2.5,2.5 0 1 1 324.27,294.5A2.5,2.5 0 1 1 329.27,294.5Z" style="fill:none;stroke:#F15A60;stroke-width:0.5" />
<path d="M330.13,295.58A2.5,2.5 0 1 1 325.13,295.58A2.5,2.5 0 1 1 330.13,295.58Z" style="fill:none;stroke:#F15A60;stroke-width:0.5" />
<path d="M330.98,296.51A2.5,2.5 0 1 1 325.98,296.51A2.5,2.5 0 1 1 330.98,296.51Z" style="fill:none;stroke:#F15A60;stroke-width:0.5" />
<path d="M331.84,297.44A2.5,2.5 0 1 1 326.84,297.44A2.5,2.5 0 1 1 331.84,297.44Z" style="fill:none;stroke:#F15A60;stroke-width:0.5" />
<path d="M332.7,298.25A2.5,2.5 0 1 1 327.7,298.25A2.5,2.5 0 1 1 332.7,298.25Z" style="fill:none;stroke:#F15A60;stroke-width:0.5" />
<path d="M333.55,299.18A2.5,2.5 0 1 1 328.55,299.18A2.5,2.5 0 1 1 333.55,299.18Z" style="fill:none;stroke:#F15A60;stroke-width:0.5" />
<path d="M334.41,300.12A2.5,2.5 0 1 1 329.41,300.12A2.5,2.5 0 1 1 334.41,300.12Z" style="fill:none;stroke:#F15A60;stroke-width:0.5" />
<path d="M335.26,300.91A2.5,2.5 0 1 1 330.26,300.91A2.5,2.5 0 1 1 335.26,300.91Z" style="fill:none;stroke:#F15A60;stroke-width:0.5" />
<path d="M336.12,301.94A2.5,2.5 0 1 1 331.12,301.94A2.5,2.5 0 1 1 336.12,301.94Z" style="fill:none;stroke:#F15A60;stroke-width:0.5" />
<path d="M336.98,303.07A2.5,2.5 0 1 1 331.98,303.07A2.5,2.5 0 1 1 336.98,303.07Z" style="fill:none;stroke:#F15A60;stroke-width:0.5" />
<path d="M337.83,304A2.5,2.5 0 1 1 332.83,304A2.5,2.5 0 1 1 337.83,304Z" style="fill:none;stroke:#F15A60;stroke-width:0.5" />
<path d="M338.69,304.82A2.5,2.5 0 1 1 333.69,304.82A2.5,2.5 0 1 1 338.69,304.82Z" style="fill:none;stroke:#F15A60;stroke-width:0.5" />
<path d="M339.55,305.91A2.5,2.5 0 1 1 334.55,305.91A2.5,2.5 0 1 1 339.55,305.91Z" style="fill:none;stroke:#F15A60;stroke-width:0.5" />
<path d="M340.4,306.79A2.5,2.5 0 1 1 335.4,306.79A2.5,2.5 0 1 1 340.4,306.79Z" style="fill:none;stroke:#F15A60;stroke-width:0.5" />
<path d="M341.26,307.79A2.5,2.5 0 1 1 336.26,307.79A2.5,2.5 0 1 1 341.26,307.79Z" style="fill:none;stroke:#F15A60;stroke-width:0.5" />
<path d="M342.11,308.86A2.5,2.5 0 1 1 337.11,308.86A2.5,2.5 0 1 1 342.11,308.86Z" style="fill:none;stroke:#F15A60;stroke-width:0.5" />
<path d="M342.97,309.71A2.5,2.5 0 1 1 337.97,309.71A2.5,2.5 0 1 1 342.97,309.71Z" style="fill:none;stroke:#F15A60;stroke-width:0.5" />
<path d="M343.83,310.63A2.5,2.5 0 1 1 338.83,310.63A2.5,2.5 0 1 1 343.83,310.63Z" style="fill:none;stroke:#F15A60;stroke-width:0.5" />
<path d="M344.68,311.7A2.5,2.5 0 1 1 339.68,311.7A2.5,2.5 0 1 1 344.68,311.7Z" style="fill:none;stroke:#F15A60;stroke-width:0.5" />
<path d="M345.54,312.55A2.5,2.5 0 1 1 340.54,312.55A2.5,2.5 0 1 1 345.54,312.55Z" style="fill:none;stroke:#F15A60;stroke-width:0.5" />
<path d="M346.39,313.15A2.5,2.5 0 1 1 341.39,313.15A2.5,2.5 0 1 1 346.39,313.15Z" style="fill:none;stroke:#F15A60;stroke-width:0.5" />
<path d="M347.25,314.18A2.5,2.5 0 1 1 342.25,314.18A2.5,2.5 0 1 1 347.25,314.18Z" style="fill:none;stroke:#F15A60;stroke-width:0.5" />
<path d="M348.11,315.17A2.5,2.5 0 1 1 343.11,315.17A2.5,2.5 0 1 1 348.11,315.17Z" style="fill:none;stroke:#F15A60;stroke-width:0.5" />
<path d="M348.96,316.11A2.5,2.5 0 1 1 343.96,316.11A2.5,2.5 0 1 1 348.96,316.11Z" style="fill:none;stroke:#F15A60;stroke-width:0.5" />
<path d="M349.82,317.22A2.5,2.5 0 1 1 344.82,317.22A2.5,2.5 0 1 1 349.82,317.22Z" style="fill:none;stroke:#F15A60;stroke-width:0.5" />
<path d="M350.67,318.09A2.5,2.5 0 1 1 345.67,318.09A2.5,2.5 0 1 1 350.67,318.09Z" style="fill:none;stroke:#F15A60;stroke-width:0.5" />
<path d="M351.53,319.06A2.5,2.5 0 1 1 346.53,319.06A2.5,2.5 0 1 1 351.53,319.06Z" style="fill:none;stroke:#F15A60;stroke-width:0.5" />
<path d="M352.39,320.19A2.5,2.5 0 1 1 347.39,320.19A2.5,2.5 0 1 1 352.39,320.19Z" style="fill:none;stroke:#F15A60;stroke-width:0.5" />
<path d="M353.24,321.2A2.5,2.5 0 1 1 348.24,321.2A2.5,2.5 0 1 1 353.24,321.2Z" style="fill:none;stroke:#F15A60;stroke-width:0.5" />
<path d="M354.1,322.03A2.5,2.5 0 1 1 349.1,322.03A2.5,2.5 0 1 1 354.1,322.03Z" style="fill:none;stroke:#F15A60;stroke-width:0.5" />
<path d="M354.95,323.04A2.5,2.5 0 1 1 349.95,323.04A2.5,2.5 0 1 1 354.95,323.04Z" style="fill:none;stroke:#F15A60;stroke-width:0.5" />
<path d="M355.81,324.1A2.5,2.5 0 1 1 350.81,324.1A2.5,2.5 0 1 1 355.81,324.1Z" style="fill:none;stroke:#F15A60;stroke-width:0.5" />
<path d="M356.67,325.22A2.5,2.5 0 1 1 351.67,325.22A2.5,2.5 0 1 1 356.67,325.22Z" style="fill:none;stroke:#F15A60;stroke-width:0.5" />
<path d="M357.52,326.05A2.5,2.5 0 1 1 352.52,326.05A2.5,2.5 0 1 1 357.52,326.05Z" style="fill:none;stroke:#F15A60;stroke-width:0.5" />
<path d="M358.38,327.13A2.5,2.5 0 1 1 353.38,327.13A2.5,2.5 0 1 1 358.38,327.13Z" style="fill:none;stroke:#F15A60;stroke-width:0.5" />
<path d="M359.23,327.7A2.5,2.5 0 1 1 354.23,327.7A2.5,2.5 0 1 1 359.23,327.7Z" style="fill:none;stroke:#F15A60;stroke-width:0.5" />
<path d="M360.09,328.69A2.5,2.5 0 1 1 355.09,328.69A2.5,2.5 0 1 1 360.09,328.69Z" style="fill:none;stroke:#F15A60;stroke-width:0.5" />
<path d="M360.95,329.78A2.5,2.5 0 1 1 355.95,329.78A2.5,2.5 0 1 1 360.95,329.78Z" style="fill:none;stroke:#F15A60;stroke-width:0.5" />
<path d="M361.8,330.8A2.5,2.5 0 1 1 356.8,330.8A2.5,2.5 0 1 1 361.8,330.8Z" style="fill:none;stroke:#F15A60;stroke-width:0.5" />
<path d="M362.66,331.84A2.5,2.5 0 1 1 357.66,331.84A2.5,2.5 0 1 1 362.66,331.84Z" style="fill:none;stroke:#F15A60;stroke-width:0.5" />
<path d="M363.52,332.92A2.5,2.5 0 1 1 358.52,332.92A2.5,2.5 0 1 1 363.52,332.92Z" style="fill:none;stroke:#F15A60;stroke-width:0.5" />
<path d="M364.37,333.95A2.5,2.5 0 1 1 359.37,333.95A2.5,2.5 0 1 1 364.37,333.95Z" style="fill:none;stroke:#F15A60;stroke-width:0.5" />
<path d="M365.23,334.74A2.5,2.5 0 1 1 360.23,334.74A2.5,2.5 0 1 1 365.23,334.74Z" style="fill:none;stroke:#F15A60;stroke-width:0.5" />
<path d="M366.08,335.88A2.5,2.5 0 1 1 361.08,335.88A2.5,2.5 0 1 1 366.08,335.88Z" style="fill:none;stroke:#F15A60;stroke-width:0.5" />
<path d="M366.94,336.99A2.5,2.5 0 1 1 361.94,336.99A2.5,2.5 0 1 1 366.94,336.99Z" style="fill:none;stroke:#F15A60;stroke-width:0.5" />
<path d="M367.8,338A2.5,2.5 0 1 1 362.8,338A2.5,2.5 0 1 1 367.8,338Z" style="fill:none;stroke:#F15A60;stroke-width:0.5" />
<path d="M368.65,338.74A2.5,2.5 0 1 1 363.65,338.74A2.5,2.5 0 1 1 368.65,338.74Z" style="fill:none;stroke:#F15A60;stroke-width:0.5" />
<path d="M369.51,339.81A2.5,2.5 0 1 1 364.51,339.81A2.5,2.5 0 1 1 369.51,339.81Z" style="fill:none;stroke:#F15A60;stroke-width:0.5" />
<path d="M370.36,340.84A2.5,2.5 0 1 1 365.36,340.84A2.5,2.5 0 1 1 370.36,340.84Z" style="fill:none;stroke:#F15A60;stroke-width:0.5" />
<path d="M371.22,341.92A2.5,2.5 0 1 1 366.22,341.92A2.5,2.5 0 1 1 371.22,341.92Z" style="fill:none;stroke:#F15A60;stroke-width:0.5" />
<path d="M372.08,342.72A2.5,2.5 0 1 1 367.08,342.72A2.5,2.5 0 1 1 372.08,342.72Z" style="fill:none;stroke:#F15A60;stroke-width:0.5" />
<path d="M372.93,343.39A2.5,2.5 0 1 1 367.93,343.39A2.5,2.5 0 1 1 372.93,343.39Z" style="fill:none;stroke:#F15A60;stroke-width:0.5" />
<path d="M373.79,344.56A2.5,2.5 0 1 1 368.79,344.56A2.5,2.5 0 1 1 373.79,344.56Z" style="fill:none;stroke:#F15A60;stroke-width:0.5" />
<path d="M374.64,345.61A2.5,2.5 0 1 1 369.64,345.61A2.5,2.5 0 1 1 374.64,345.61Z" style="fill:none;stroke:#F15A60;stroke-width:0.5" />
<path d="M375.5,346.78A2.5,2.5 0 1 1 370.5,346.78A2.5,2.5 0 1 1 375.5,346.78Z" style="fill:none;stroke:#F15A60;stroke-width:0.5" />
<path d="M376.36,347.61A2.5,2.5 0 1 1 371.36,347.61A2.5,2.5 0 1 1 376.36,347.61Z" style="fill:none;stroke:#F15A60;stroke-width:0.5" />
<path d="M377.21,348.6A2.5,2.5 0 1 1 372.21,348.6A2.5,2.5 0 1 1 377.21,348.6Z" style="fill:none;stroke:#F15A60;stroke-width:0.5" />
<path d="M378.07,349.62A2.5,2.5 0 1 1 373.07,349.62A2.5,2.5 0 1 1 378.07,349.62Z" style="fill:none;stroke:#F15A60;stroke-width:0.5" />
<path d="M378.92,350.54A2.5,2.5 0 1 1 373.92,350.54A2.5,2.5 0 1 1 378.92,350.54Z" style="fill:none;stroke:#F15A60;stroke-width:0.5" />
<path d="M379.78,351.56A2.5,2.5 0 1 1 374.78,351.56A2.5,2.5 0 1 1 379.78,351.56Z" style="fill:none;stroke:#F15A60;stroke-width:0.5" />
<path d="M380.64,352.57A2.5,2.5 0 1 1 375.64,352.57A2.5,2.5 0 1 1 380.64,352.57Z" style="fill:none;stroke:#F15A60;stroke-width:0.5" />
<path d="M381.49,353.63A2.5,2.5 0 1 1 376.49,353.63A2.5,2.5 0 1 1 381.49,353.63Z" style="fill:none;stroke:#F15A60;stroke-width:0.5" />
<path d="M382.35,354.72A2.5,2.5 0 1 1 377.35,354.72A2.5,2.5 0 1 1 382.35,354.72Z" style="fill:none;stroke:#F15A60;stroke-width:0.5" />
<path d="M383.2,355.71A2.5,2.5 0 1 1 378.2,355.71A2.5,2.5 0 1 1 383.2,355.71Z" style="fill:none;stroke:#F15A60;stroke-width:0.5" />
<path d="M384.06,356.72A2.5,2.5 0 1 1 379.06,356.72A2.5,2.5 0 1 1 384.06,356.72Z" style="fill:none;stroke:#F15A60;stroke-width:0.5" />
<path d="M384.92,357.55A2.5,2.5 0 1 1 379.92,357.55A2.5,2.5 0 1 1 384.92,357.55Z" style="fill:none;stroke:#F15A60;stroke-width:0.5" />
<path d="M385.77,358.44A2.5,2.5 0 1 1 380.77,358.44A2.5,2.5 0 1 1 385.77,358.44Z" style="fill:none;stroke:#F15A60;stroke-width:0.5" />
<path d="M386.63,359.33A2.5,2.5 0 1 1 381.63,359.33A2.5,2.5 0 1 1 386.63,359.33Z" style="fill:none;stroke:#F15A60;stroke-width:0.5" />
<path d="M387.48,360.21A2.5,2.5 0 1 1 382.48,360.21A2.5,2.5 0 1 1 387.48,360.21Z" style="fill:none;stroke:#F15A60;stroke-width:0.5" />
<path d="M388.34,361.14A2.5,2.5 0 1 1 383.34,361.14A2.5,2.5 0 1 1 388.34,361.14Z" style="fill:none;stroke:#F15A60;stroke-width:0.5" />
<path d="M389.2,362.35A2.5,2.5 0 1 1 384.2,362.35A2.5,2.5 0 1 1 389.2,362.35Z" style="fill:none;stroke:#F15A60;stroke-width:0.5" />
<path d="M390.05,363.38A2.5,2.5 0 1 1 385.05,363.38A2.5,2.5 0 1 1 390.05,363.38Z" style="fill:none;stroke:#F15A60;stroke-width:0.5" />
<path d="M390.91,364.32A2.5,2.5 0 1 1 385.91,364.32A2.5,2.5 0 1 1 390.91,364.32Z" style="fill:none;stroke:#F15A60;stroke-width:0.5" />
<path d="M391.77,365.24A2.5,2.5 0 1 1 386.77,365.24A2.5,2.5 0 1 1 391.77,365.24Z" style="fill:none;stroke:#F15A60;stroke-width:0.5" />
<path d="M392.62,366.33A2.5,2.5 0 1 1 387.62,366.33A2.5,2.5 0 1 1 392.62,366.33Z" style="fill:none;stroke:#F15A60;stroke-width:0.5" />
<path d="M393.48,367.28A2.5,2.5 0 1 1 388.48,367.28A2.5,2.5 0 1 1 393.48,367.28Z" style="fill:none;stroke:#F15A60;stroke-width:0.5" />
<path d="M394.33,368.3A2.5,2.5 0 1 1 389.33,368.3A2.5,2.5 0 1 1 394.33,368.3Z" style="fill:none;stroke:#F15A60;stroke-width:0.5" />
<path d="M395.19,369.19A2.5,2.5 0 1 1 390.19,369.19A2.5,2.5 0 1 1 395.19,369.19Z" style="fill:none;stroke:#F15A60;stroke-width:0.5" />
<path d="M396.05,370.38A2.5,2.5 0 1 1 391.05,370.38A2.5,2.5 0 1 1 396.05,370.38Z" style="fill:none;stroke:#F15A60;stroke-width:0.5" />
<path d="M396.9,371.4A2.5,2.5 0 1 1 391.9,371.4A2.5,2.5 0 1 1 396.9,371.4Z" style="fill:none;stroke:#F15A60;stroke-width:0.5" />
<path d="M397.76,372.2A2.5,2.5 0 1 1 392.76,372.2A2.5,2.5 0 1 1 397.76,372.2Z" style="fill:none;stroke:#F15A60;stroke-width:0.5" />
<path d="M398.61,373.13A2.5,2.5 0 1 1 393.61,373.13A2.5,2.5 0 1 1 398.61,373.13Z" style="fill:none;stroke:#F15A60;stroke-width:0.5" />
<path d="M399.47,373.97A2.5,2.5 0 1 1 394.47,373.97A2.5,2.5 0 1 1 399.47,373.97Z" style="fill:none;stroke:#F15A60;stroke-width:0.5" />
<path d="M400.33,375.01A2.5,2.5 0 1 1 395.33,375.01A2.5,2.5 0 1 1 400.33,375.01Z" style="fill:none;stroke:#F15A60;stroke-width:0.5" />
<path d="M401.18,376.1A2.5,2.5 0 1 1 396.18,376.1A2.5,2.5 0 1 1 401.18,376.1Z" style="fill:none;stroke:#F15A60;stroke-width:0.5" />
<path d="M402.04,377.08A2.5,2.5 0 1 1 397.04,377.08A2.5,2.5 0 1 1 402.04,377.08Z" style="fill:none;stroke:#F15A60;stroke-width:0.5" />
<path d="M402.89,377.91A2.5,2.5 0 1 1 397.89,377.91A2.5,2.5 0 1 1 402.89,377.91Z" style="fill:none;stroke:#F15A60;stroke-width:0.5" />
<path d="M403.75,379.06A2.5,2.5 0 1 1 398.75,379.06A2.5,2.5 0 1 1 403.75,379.06Z" style="fill:none;stroke:#F15A60;stroke-width:0.5" />
<path d="M404.61,380.09A2.5,2.5 0 1 1 399.61,380.09A2.5,2.5 0 1 1 404.61,380.09Z" style="fill:none;stroke:#F15A60;stroke-width:0.5" />
<path d="M405.46,381.17A2.5,2.5 0 1 1 400.46,381.17A2.5,2.5 0 1 1 405.46,381.17Z" style="fill:none;stroke:#F15A60;stroke-width:0.5" />
<path d="M406.32,382.06A2.5,2.5 0 1 1 401.32,382.06A2.5,2.5 0 1 1 406.32,382.06Z" style="fill:none;stroke:#F15A60;stroke-width:0.5" />
<path d="M407.17,383.09A2.5,2.5 0 1 1 402.17,383.09A2.5,2.5 0 1 1 407.17,383.09Z" style="fill:none;stroke:#F15A60;stroke-width:0.5" />
<path d="M408.03,384.13A2.5,2.5 0 1 1 403.03,384.13A2.5,2.5 0 1 1 408.03,384.13Z" style="fill:none;stroke:#F15A60;stroke-width:0.5" />
<path d="M408.89,385.36A2.5,2.5 0 1 1 403.89,385.36A2.5,2.5 0 1 1 408.89,385.36Z" style="fill:none;stroke:#F15A60;stroke-width:0.5" />
<path d="M409.74,386.37A2.5,2.5 0 1 1 404.74,386.37A2.5,2.5 0 1 1 409.74,386.37Z" style="fill:none;stroke:#F15A60;stroke-width:0.5" />
<path d="M410.6,387.18A2.5,2.5 0 1 1 405.6,387.18A2.5,2.5 0 1 1 410.6,387.18Z" style="fill:none;stroke:#F15A60;stroke-width:0.5" />
<path d="M411.45,388.08A2.5,2.5 0 1 1 406.45,388.08A2.5,2.5 0 1 1 411.45,388.08Z" style="fill:none;stroke:#F15A60;stroke-width:0.5" />
<path d="M412.31,389.22A2.5,2.5 0 1 1 407.31,389.22A2.5,2.5 0 1 1 412.31,389.22Z" style="fill:none;stroke:#F15A60;stroke-width:0.5" />
<path d="M413.17,390.09A2.5,2.5 0 1 1 408.17,390.09A2.5,2.5 0 1 1 413.17,390.09Z" style="fill:none;stroke:#F15A60;stroke-width:0.5" />
<path d="M414.02,391.15A2.5,2.5 0 1 1 409.02,391.15A2.5,2.5 0 1 1 414.02,391.15Z" style="fill:none;stroke:#F15A60;stroke-width:0.5" />
<path d="M414.88,392.16A2.5,2.5 0 1 1 409.88,392.16A2.5,2.5 0 1 1 414.88,392.16Z" style="fill:none;stroke:#F15A60;stroke-width:0.5" />
<path d="M415.73,393.07A2.5,2.5 0 1 1 410.73,393.07A2.5,2.5 0 1 1 415.73,393.07Z" style="fill:none;stroke:#F15A60;stroke-width:0.5" />
<path d="M416.59,394.17A2.5,2.5 0 1 1 411.59,394.17A2.5,2.5 0 1 1 416.59,394.17Z" style="fill:none;stroke:#F15A60;stroke-width:0.5" />
<path d="M417.45,395.31A2.5,2.5 0 1 1 412.45,395.31A2.5,2.5 0 1 1 417.45,395.31Z" style="fill:none;stroke:#F15A60;stroke-width:0.5" />
<path d="M418.3,396.15A2.5,2.5 0 1 1 413.3,396.15A2.5,2.5 0 1 1 418.3,396.15Z" style="fill:none;stroke:#F15A60;stroke-width:0.5" />
<path d="M419.16,397.39A2.5,2.5 0 1 1 414.16,397.39A2.5,2.5 0 1 1 419.16,397.39Z" style="fill:none;stroke:#F15A60;stroke-width:0.5" />
<path d="M420.02,398.38A2.5,2.5 0 1 1 415.02,398.38A2.5,2.5 0 1 1 420.02,398.38Z" style="fill:none;stroke:#F15A60;stroke-width:0.5" />
<path d="M420.87,399.57A2.5,2.5 0 1 1 415.87,399.57A2.5,2.5 0 1 1 420.87,399.57Z" style="fill:none;stroke:#F15A60;stroke-width:0.5" />
<path d="M421.73,400.43A2.5,2.5 0 1 1 416.73,400.43A2.5,2.5 0 1 1 421.73,400.43Z" style="fill:none;stroke:#F15A60;stroke-width:0.5" />
<path d="M422.58,401.5A2.5,2.5 0 1 1 417.58,401.5A2.5,2.5 0 1 1 422.58,401.5Z" style="fill:none;stroke:#F15A60;stroke-width:0.5" />
<path d="M423.44,402.54A2.5,2.5 0 1 1 418.44,402.54A2.5,2.5 0 1 1 423.44,402.54Z" style="fill:none;stroke:#F15A60;stroke-width:0.5" />
<path d="M424.3,403.42A2.5,2.5 0 1 1 419.3,403.42A2.5,2.5 0 1 1 424.3,403.42Z" style="fill:none;stroke:#F15A60;stroke-width:0.5" />
<path d="M425.15,404.4A2.5,2.5 0 1 1 420.15,404.4A2.5,2.5 0 1 1 425.15,404.4Z" style="fill:none;stroke:#F15A60;stroke-width:0.5" />
<path d="M426.01,405.35A2.5,2.5 0 1 1 421.01,405.35A2.5,2.5 0 1 1 426.01,405.35Z" style="fill:none;stroke:#F15A60;stroke-width:0.5" />
<path d="M426.86,406.41A2.5,2.5 0 1 1 421.86,406.41A2.5,2.5 0 1 1 426.86,406.41Z" style="fill:none;stroke:#F15A60;stroke-width:0.5" />
<path d="M427.72,407.44A2.5,2.5 0 1 1 422.72,407.44A2.5,2.5 0 1 1 427.72,407.44Z" style="fill:none;stroke:#F15A60;stroke-width:0.5" />
<path d="M428.58,408.68A2.5,2.5 0 1 1 423.58,408.68A2.5,2.5 0 1 1 428.58,408.68Z" style="fill:none;stroke:#F15A60;stroke-width:0.5" />
<path d="M429.43,409.54A2.5,2.5 0 1 1 424.43,409.54A2.5,2.5 0 1 1 429.43,409.54Z" style="fill:none;stroke:#F15A60;stroke-width:0.5" />
<path d="M430.29,410.43A2.5,2.5 0 1 1 425.29,410.43A2.5,2.5 0 1 1 430.29,410.43Z" style="fill:none;stroke:#F15A60;stroke-width:0.5" />
<path d="M431.14,411.63A2.5,2.5 0 1 1 426.14,411.63A2.5,2.5 0 1 1 431.14,411.63Z" style="fill:none;stroke:#F15A60;stroke-width:0.5" />
<path d="M432,411.68A2.5,2.5 0 1 1 427,411.68A2.5,2.5 0 1 1 432,411.68Z" style="fill:none;stroke:#F15A60;stroke-width:0.5" />
<path d="M412,44.369L432,44.369" style="fill:none;stroke:#F15A60" />
<path d="M424.5,44.369A2.5,2.5 0 1 1 419.5,44.369A2.5,2.5 0 1 1 424.5,44.369Z" style="fill:none;stroke:#F15A60;stroke-width:0.5" />
<text x="365.67" y="-38.703" transform="scale(1, -1)"
	style="font-family:Times;font-weight:normal;font-style:normal;font-size:12px">yunikorn</text>
</g>
</svg>
