<?xml version="1.0"?>
<!-- Generated by SVGo and Plotinum VG -->
<svg width="432pt" height="432pt" viewBox="0 0 432 432"
	xmlns="http://www.w3.org/2000/svg"
	xmlns:xlink="http://www.w3.org/1999/xlink">
<g transform="scale(1, -1) translate(0, -432)">
<path d="M0,0L432,0L432,432L0,432Z" style="fill:#FFFFFF" />
<text x="159.28" y="-420.45" transform="scale(1, -1)"
	style="font-family:Times;font-weight:normal;font-style:normal;font-size:12px">Scheduling Throughput</text>
<text x="223.05" y="-3.8613" transform="scale(1, -1)"
	style="font-family:Times;font-weight:normal;font-style:normal;font-size:12px">Seconds</text>
<text x="56.666" y="-15.602" transform="scale(1, -1)"
	style="font-family:Times;font-weight:normal;font-style:normal;font-size:10px">0</text>
<text x="173.44" y="-15.602" transform="scale(1, -1)"
	style="font-family:Times;font-weight:normal;font-style:normal;font-size:10px">100</text>
<text x="295.22" y="-15.602" transform="scale(1, -1)"
	style="font-family:Times;font-weight:normal;font-style:normal;font-size:10px">200</text>
<text x="417" y="-15.602" transform="scale(1, -1)"
	style="font-family:Times;font-weight:normal;font-style:normal;font-size:10px">300</text>
<path d="M59.166,25.23L59.166,33.23" style="fill:none;stroke:#000000;stroke-width:0.5" />
<path d="M180.94,25.23L180.94,33.23" style="fill:none;stroke:#000000;stroke-width:0.5" />
<path d="M302.72,25.23L302.72,33.23" style="fill:none;stroke:#000000;stroke-width:0.5" />
<path d="M424.5,25.23L424.5,33.23" style="fill:none;stroke:#000000;stroke-width:0.5" />
<path d="M83.522,29.23L83.522,33.23" style="fill:none;stroke:#000000;stroke-width:0.5" />
<path d="M107.88,29.23L107.88,33.23" style="fill:none;stroke:#000000;stroke-width:0.5" />
<path d="M132.23,29.23L132.23,33.23" style="fill:none;stroke:#000000;stroke-width:0.5" />
<path d="M156.59,29.23L156.59,33.23" style="fill:none;stroke:#000000;stroke-width:0.5" />
<path d="M205.3,29.23L205.3,33.23" style="fill:none;stroke:#000000;stroke-width:0.5" />
<path d="M229.66,29.23L229.66,33.23" style="fill:none;stroke:#000000;stroke-width:0.5" />
<path d="M254.01,29.23L254.01,33.23" style="fill:none;stroke:#000000;stroke-width:0.5" />
<path d="M278.37,29.23L278.37,33.23" style="fill:none;stroke:#000000;stroke-width:0.5" />
<path d="M327.08,29.23L327.08,33.23" style="fill:none;stroke:#000000;stroke-width:0.5" />
<path d="M351.43,29.23L351.43,33.23" style="fill:none;stroke:#000000;stroke-width:0.5" />
<path d="M375.79,29.23L375.79,33.23" style="fill:none;stroke:#000000;stroke-width:0.5" />
<path d="M400.14,29.23L400.14,33.23" style="fill:none;stroke:#000000;stroke-width:0.5" />
<path d="M59.166,33.23L426.94,33.23" style="fill:none;stroke:#000000;stroke-width:0.5" />
<g transform="rotate(90)">
<text x="187" y="11.555" transform="scale(1, -1)"
	style="font-family:Times;font-weight:normal;font-style:normal;font-size:12px">Number of Pods</text>
</g>
<text x="15.416" y="-109.84" transform="scale(1, -1)"
	style="font-family:Times;font-weight:normal;font-style:normal;font-size:10px">10000</text>
<text x="15.416" y="-258.4" transform="scale(1, -1)"
	style="font-family:Times;font-weight:normal;font-style:normal;font-size:10px">30000</text>
<text x="15.416" y="-406.96" transform="scale(1, -1)"
	style="font-family:Times;font-weight:normal;font-style:normal;font-size:10px">50000</text>
<path d="M42.916,114.56L50.916,114.56" style="fill:none;stroke:#000000;stroke-width:0.5" />
<path d="M42.916,263.12L50.916,263.12" style="fill:none;stroke:#000000;stroke-width:0.5" />
<path d="M42.916,411.68L50.916,411.68" style="fill:none;stroke:#000000;stroke-width:0.5" />
<path d="M46.916,188.84L50.916,188.84" style="fill:none;stroke:#000000;stroke-width:0.5" />
<path d="M46.916,337.4L50.916,337.4" style="fill:none;stroke:#000000;stroke-width:0.5" />
<path d="M50.916,40.98L50.916,411.68" style="fill:none;stroke:#000000;stroke-width:0.5" />
<path d="M59.166,40.98L60.384,43.833L61.602,44.806L62.819,47.049L64.037,48.178L65.255,50.904L66.473,51.654L67.69,52.367L68.908,55.138L70.126,56.052L71.344,58.228L72.562,58.852L73.779,60.464L74.997,62.714L76.215,63.494L77.433,66.272L78.65,66.889L79.868,69.964L81.086,71.398L82.304,73.745L83.522,74.733L84.739,78.38L85.957,80.289L87.175,81.418L88.393,84.426L89.611,86.172L90.828,88.088L92.046,90.911L93.264,92.315L94.482,95.739L95.699,98.792L96.917,99.289L98.135,102.92L99.353,106.23L100.57,108.13L101.79,110L103.01,111.96L104.22,115.52L105.44,118.26L106.66,119.71L107.88,123.45L109.09,126.19L110.31,127.61L111.53,129.46L112.75,131.64L113.97,135.09L115.18,138.74L116.4,140.27L117.62,143.04L118.84,146.39L120.06,148.11L121.27,151.99L122.49,153.39L123.71,155.33L124.93,157.72L126.14,159.31L127.36,160.62L128.58,163.02L129.8,164.53L131.02,166.55L132.23,169.77L133.45,171.3L134.67,173.99L135.89,175.37L137.1,178.54L138.32,181.2L139.54,182.73L140.76,186.18L141.98,187.3L143.19,189.33L144.41,191.45L145.63,193.52L146.85,195.68L148.06,197.81L149.28,200.14L150.5,202.4L151.72,204.28L152.94,207.14L154.15,209.98L155.37,212.65L156.59,214.58L157.81,217.11L159.02,219.02L160.24,221.57L161.46,223.86L162.68,225.69L163.9,227.15L165.11,228.59L166.33,230.1L167.55,231.32L168.77,232.06L169.98,232.94L171.2,233.97L172.42,235.7L173.64,237.23L174.86,238.41L176.07,240.03L177.29,241.47L178.51,242.94L179.73,244.27L180.94,245.37L182.16,246.33L183.38,247.78L184.6,248.7L185.82,249.36L187.03,250.39L188.25,251.18L189.47,252.14L190.69,252.94L191.9,253.48L193.12,254.44L194.34,254.68L195.56,255.21L196.78,256.06L197.99,256.55L199.21,258.27L200.43,258.77L201.65,259.24L202.86,259.7L204.08,260.22L205.3,260.65L206.52,260.89L207.74,262.23L208.95,263.04L210.17,263.51L211.39,264.06L212.61,264.58L213.82,265.03L215.04,265.32L216.26,265.64L217.48,266.54L218.7,267.02L219.91,267.4L221.13,267.6L222.35,268.31L223.57,268.43L224.78,268.77L226,269.11L227.22,269.41L228.44,269.7L229.66,269.7L230.87,269.89L232.09,270.2L233.31,270.46L234.53,270.83L235.74,271.5L236.96,273.62L238.18,274.08L239.4,274.85L240.62,275.48L241.83,276.07L243.05,276.62L244.27,277.24L245.49,277.74L246.7,278.34L247.92,278.8L249.14,279.36L250.36,279.94L251.58,280.52L252.79,281.11L254.01,281.76L255.23,282.38L256.45,282.98L257.66,283.58L258.88,284.16L260.1,284.62L261.32,285.22L262.54,285.8L263.75,286.47L264.97,287.09L266.19,287.79L267.41,288.44L268.62,289.04L269.84,289.52L271.06,290.12L272.28,290.51L273.5,291.29L274.71,291.97L275.93,292.47L277.15,292.87L278.37,293.34L279.58,293.62L280.8,294.46L282.02,295.1L283.24,295.92L284.46,296.17L285.67,297.11L286.89,297.85L288.11,298.26L289.33,298.54L290.54,299.29L291.76,299.94L292.98,300.53L294.2,300.76L295.42,301.11L296.63,301.7L297.85,302.17L299.07,303.57L300.29,305.86L301.5,306.56L302.72,307.85L303.94,309.22L305.16,309.94L306.38,310.7L307.59,311.05L308.81,312.43L310.03,313.38L311.25,314.13L312.46,314.86L313.68,315.72L314.9,316.49L316.12,317.28L317.34,317.98L318.55,318.68L319.77,319.47L320.99,320.35L322.21,321.04L323.42,321.9L324.64,322.53L325.86,323.36L327.08,324.19L328.3,324.89L329.51,325.71L330.73,326.58L331.95,327.28L333.17,328.06L334.38,328.66L335.6,329.49L336.82,330.31L338.04,331.13L339.26,331.94L340.47,332.82L341.69,333.53L342.91,334.31L344.13,335.01L345.34,336.05L346.56,336.86L347.78,337.72L349,338.6L350.22,339.41L351.43,340.27L352.65,341.25L353.87,342.14L355.09,342.96L356.3,343.93L357.52,344.8L358.74,345.64L359.96,346.47L361.18,347.43L362.39,348.33L363.61,349.34L364.83,350.3L366.05,351.24L367.26,352.19L368.48,353.2L369.7,354.18L370.92,355.09L372.14,355.85L373.35,356.88L374.57,357.9L375.79,358.95L377.01,360.03L378.22,361.09L379.44,362.08L380.66,363.1L381.88,364.06L383.1,365.42L384.31,366.57L385.53,367.7L386.75,368.57L387.97,369.59L389.18,370.61L390.4,371.72L391.62,372.82L392.84,374.03L394.06,375.12L395.27,376.35L396.49,377.57L397.71,378.8L398.93,380.08L400.14,381.4L401.36,382.6L402.58,383.6L403.8,384.92L405.02,386.18L406.23,387.39L407.45,388.8L408.67,390.16L409.89,391.48L411.1,392.94L412.32,394.2L413.54,395.71L414.76,397.12L415.98,398.14L417.19,399.52L418.41,401.08L419.63,402.27L420.85,404L422.06,405.59L423.28,407.06L424.5,408.71L425.72,410.24L426.94,411.68" style="fill:none;stroke:#F15A60" />
<path d="M61.666,40.98A2.5,2.5 0 1 1 56.666,40.98A2.5,2.5 0 1 1 61.666,40.98Z" style="fill:none;stroke:#F15A60;stroke-width:0.5" />
<path d="M62.884,43.833A2.5,2.5 0 1 1 57.884,43.833A2.5,2.5 0 1 1 62.884,43.833Z" style="fill:none;stroke:#F15A60;stroke-width:0.5" />
<path d="M64.102,44.806A2.5,2.5 0 1 1 59.102,44.806A2.5,2.5 0 1 1 64.102,44.806Z" style="fill:none;stroke:#F15A60;stroke-width:0.5" />
<path d="M65.319,47.049A2.5,2.5 0 1 1 60.319,47.049A2.5,2.5 0 1 1 65.319,47.049Z" style="fill:none;stroke:#F15A60;stroke-width:0.5" />
<path d="M66.537,48.178A2.5,2.5 0 1 1 61.537,48.178A2.5,2.5 0 1 1 66.537,48.178Z" style="fill:none;stroke:#F15A60;stroke-width:0.5" />
<path d="M67.755,50.904A2.5,2.5 0 1 1 62.755,50.904A2.5,2.5 0 1 1 67.755,50.904Z" style="fill:none;stroke:#F15A60;stroke-width:0.5" />
<path d="M68.973,51.654A2.5,2.5 0 1 1 63.973,51.654A2.5,2.5 0 1 1 68.973,51.654Z" style="fill:none;stroke:#F15A60;stroke-width:0.5" />
<path d="M70.19,52.367A2.5,2.5 0 1 1 65.19,52.367A2.5,2.5 0 1 1 70.19,52.367Z" style="fill:none;stroke:#F15A60;stroke-width:0.5" />
<path d="M71.408,55.138A2.5,2.5 0 1 1 66.408,55.138A2.5,2.5 0 1 1 71.408,55.138Z" style="fill:none;stroke:#F15A60;stroke-width:0.5" />
<path d="M72.626,56.052A2.5,2.5 0 1 1 67.626,56.052A2.5,2.5 0 1 1 72.626,56.052Z" style="fill:none;stroke:#F15A60;stroke-width:0.5" />
<path d="M73.844,58.228A2.5,2.5 0 1 1 68.844,58.228A2.5,2.5 0 1 1 73.844,58.228Z" style="fill:none;stroke:#F15A60;stroke-width:0.5" />
<path d="M75.062,58.852A2.5,2.5 0 1 1 70.062,58.852A2.5,2.5 0 1 1 75.062,58.852Z" style="fill:none;stroke:#F15A60;stroke-width:0.5" />
<path d="M76.279,60.464A2.5,2.5 0 1 1 71.279,60.464A2.5,2.5 0 1 1 76.279,60.464Z" style="fill:none;stroke:#F15A60;stroke-width:0.5" />
<path d="M77.497,62.714A2.5,2.5 0 1 1 72.497,62.714A2.5,2.5 0 1 1 77.497,62.714Z" style="fill:none;stroke:#F15A60;stroke-width:0.5" />
<path d="M78.715,63.494A2.5,2.5 0 1 1 73.715,63.494A2.5,2.5 0 1 1 78.715,63.494Z" style="fill:none;stroke:#F15A60;stroke-width:0.5" />
<path d="M79.933,66.272A2.5,2.5 0 1 1 74.933,66.272A2.5,2.5 0 1 1 79.933,66.272Z" style="fill:none;stroke:#F15A60;stroke-width:0.5" />
<path d="M81.15,66.889A2.5,2.5 0 1 1 76.15,66.889A2.5,2.5 0 1 1 81.15,66.889Z" style="fill:none;stroke:#F15A60;stroke-width:0.5" />
<path d="M82.368,69.964A2.5,2.5 0 1 1 77.368,69.964A2.5,2.5 0 1 1 82.368,69.964Z" style="fill:none;stroke:#F15A60;stroke-width:0.5" />
<path d="M83.586,71.398A2.5,2.5 0 1 1 78.586,71.398A2.5,2.5 0 1 1 83.586,71.398Z" style="fill:none;stroke:#F15A60;stroke-width:0.5" />
<path d="M84.804,73.745A2.5,2.5 0 1 1 79.804,73.745A2.5,2.5 0 1 1 84.804,73.745Z" style="fill:none;stroke:#F15A60;stroke-width:0.5" />
<path d="M86.022,74.733A2.5,2.5 0 1 1 81.022,74.733A2.5,2.5 0 1 1 86.022,74.733Z" style="fill:none;stroke:#F15A60;stroke-width:0.5" />
<path d="M87.239,78.38A2.5,2.5 0 1 1 82.239,78.38A2.5,2.5 0 1 1 87.239,78.38Z" style="fill:none;stroke:#F15A60;stroke-width:0.5" />
<path d="M88.457,80.289A2.5,2.5 0 1 1 83.457,80.289A2.5,2.5 0 1 1 88.457,80.289Z" style="fill:none;stroke:#F15A60;stroke-width:0.5" />
<path d="M89.675,81.418A2.5,2.5 0 1 1 84.675,81.418A2.5,2.5 0 1 1 89.675,81.418Z" style="fill:none;stroke:#F15A60;stroke-width:0.5" />
<path d="M90.893,84.426A2.5,2.5 0 1 1 85.893,84.426A2.5,2.5 0 1 1 90.893,84.426Z" style="fill:none;stroke:#F15A60;stroke-width:0.5" />
<path d="M92.111,86.172A2.5,2.5 0 1 1 87.111,86.172A2.5,2.5 0 1 1 92.111,86.172Z" style="fill:none;stroke:#F15A60;stroke-width:0.5" />
<path d="M93.328,88.088A2.5,2.5 0 1 1 88.328,88.088A2.5,2.5 0 1 1 93.328,88.088Z" style="fill:none;stroke:#F15A60;stroke-width:0.5" />
<path d="M94.546,90.911A2.5,2.5 0 1 1 89.546,90.911A2.5,2.5 0 1 1 94.546,90.911Z" style="fill:none;stroke:#F15A60;stroke-width:0.5" />
<path d="M95.764,92.315A2.5,2.5 0 1 1 90.764,92.315A2.5,2.5 0 1 1 95.764,92.315Z" style="fill:none;stroke:#F15A60;stroke-width:0.5" />
<path d="M96.982,95.739A2.5,2.5 0 1 1 91.982,95.739A2.5,2.5 0 1 1 96.982,95.739Z" style="fill:none;stroke:#F15A60;stroke-width:0.5" />
<path d="M98.199,98.792A2.5,2.5 0 1 1 93.199,98.792A2.5,2.5 0 1 1 98.199,98.792Z" style="fill:none;stroke:#F15A60;stroke-width:0.5" />
<path d="M99.417,99.289A2.5,2.5 0 1 1 94.417,99.289A2.5,2.5 0 1 1 99.417,99.289Z" style="fill:none;stroke:#F15A60;stroke-width:0.5" />
<path d="M100.63,102.92A2.5,2.5 0 1 1 95.635,102.92A2.5,2.5 0 1 1 100.63,102.92Z" style="fill:none;stroke:#F15A60;stroke-width:0.5" />
<path d="M101.85,106.23A2.5,2.5 0 1 1 96.853,106.23A2.5,2.5 0 1 1 101.85,106.23Z" style="fill:none;stroke:#F15A60;stroke-width:0.5" />
<path d="M103.07,108.13A2.5,2.5 0 1 1 98.071,108.13A2.5,2.5 0 1 1 103.07,108.13Z" style="fill:none;stroke:#F15A60;stroke-width:0.5" />
<path d="M104.29,110A2.5,2.5 0 1 1 99.288,110A2.5,2.5 0 1 1 104.29,110Z" style="fill:none;stroke:#F15A60;stroke-width:0.5" />
<path d="M105.51,111.96A2.5,2.5 0 1 1 100.51,111.96A2.5,2.5 0 1 1 105.51,111.96Z" style="fill:none;stroke:#F15A60;stroke-width:0.5" />
<path d="M106.72,115.52A2.5,2.5 0 1 1 101.72,115.52A2.5,2.5 0 1 1 106.72,115.52Z" style="fill:none;stroke:#F15A60;stroke-width:0.5" />
<path d="M107.94,118.26A2.5,2.5 0 1 1 102.94,118.26A2.5,2.5 0 1 1 107.94,118.26Z" style="fill:none;stroke:#F15A60;stroke-width:0.5" />
<path d="M109.16,119.71A2.5,2.5 0 1 1 104.16,119.71A2.5,2.5 0 1 1 109.16,119.71Z" style="fill:none;stroke:#F15A60;stroke-width:0.5" />
<path d="M110.38,123.45A2.5,2.5 0 1 1 105.38,123.45A2.5,2.5 0 1 1 110.38,123.45Z" style="fill:none;stroke:#F15A60;stroke-width:0.5" />
<path d="M111.59,126.19A2.5,2.5 0 1 1 106.59,126.19A2.5,2.5 0 1 1 111.59,126.19Z" style="fill:none;stroke:#F15A60;stroke-width:0.5" />
<path d="M112.81,127.61A2.5,2.5 0 1 1 107.81,127.61A2.5,2.5 0 1 1 112.81,127.61Z" style="fill:none;stroke:#F15A60;stroke-width:0.5" />
<path d="M114.03,129.46A2.5,2.5 0 1 1 109.03,129.46A2.5,2.5 0 1 1 114.03,129.46Z" style="fill:none;stroke:#F15A60;stroke-width:0.5" />
<path d="M115.25,131.64A2.5,2.5 0 1 1 110.25,131.64A2.5,2.5 0 1 1 115.25,131.64Z" style="fill:none;stroke:#F15A60;stroke-width:0.5" />
<path d="M116.47,135.09A2.5,2.5 0 1 1 111.47,135.09A2.5,2.5 0 1 1 116.47,135.09Z" style="fill:none;stroke:#F15A60;stroke-width:0.5" />
<path d="M117.68,138.74A2.5,2.5 0 1 1 112.68,138.74A2.5,2.5 0 1 1 117.68,138.74Z" style="fill:none;stroke:#F15A60;stroke-width:0.5" />
<path d="M118.9,140.27A2.5,2.5 0 1 1 113.9,140.27A2.5,2.5 0 1 1 118.9,140.27Z" style="fill:none;stroke:#F15A60;stroke-width:0.5" />
<path d="M120.12,143.04A2.5,2.5 0 1 1 115.12,143.04A2.5,2.5 0 1 1 120.12,143.04Z" style="fill:none;stroke:#F15A60;stroke-width:0.5" />
<path d="M121.34,146.39A2.5,2.5 0 1 1 116.34,146.39A2.5,2.5 0 1 1 121.34,146.39Z" style="fill:none;stroke:#F15A60;stroke-width:0.5" />
<path d="M122.56,148.11A2.5,2.5 0 1 1 117.56,148.11A2.5,2.5 0 1 1 122.56,148.11Z" style="fill:none;stroke:#F15A60;stroke-width:0.5" />
<path d="M123.77,151.99A2.5,2.5 0 1 1 118.77,151.99A2.5,2.5 0 1 1 123.77,151.99Z" style="fill:none;stroke:#F15A60;stroke-width:0.5" />
<path d="M124.99,153.39A2.5,2.5 0 1 1 119.99,153.39A2.5,2.5 0 1 1 124.99,153.39Z" style="fill:none;stroke:#F15A60;stroke-width:0.5" />
<path d="M126.21,155.33A2.5,2.5 0 1 1 121.21,155.33A2.5,2.5 0 1 1 126.21,155.33Z" style="fill:none;stroke:#F15A60;stroke-width:0.5" />
<path d="M127.43,157.72A2.5,2.5 0 1 1 122.43,157.72A2.5,2.5 0 1 1 127.43,157.72Z" style="fill:none;stroke:#F15A60;stroke-width:0.5" />
<path d="M128.64,159.31A2.5,2.5 0 1 1 123.64,159.31A2.5,2.5 0 1 1 128.64,159.31Z" style="fill:none;stroke:#F15A60;stroke-width:0.5" />
<path d="M129.86,160.62A2.5,2.5 0 1 1 124.86,160.62A2.5,2.5 0 1 1 129.86,160.62Z" style="fill:none;stroke:#F15A60;stroke-width:0.5" />
<path d="M131.08,163.02A2.5,2.5 0 1 1 126.08,163.02A2.5,2.5 0 1 1 131.08,163.02Z" style="fill:none;stroke:#F15A60;stroke-width:0.5" />
<path d="M132.3,164.53A2.5,2.5 0 1 1 127.3,164.53A2.5,2.5 0 1 1 132.3,164.53Z" style="fill:none;stroke:#F15A60;stroke-width:0.5" />
<path d="M133.52,166.55A2.5,2.5 0 1 1 128.52,166.55A2.5,2.5 0 1 1 133.52,166.55Z" style="fill:none;stroke:#F15A60;stroke-width:0.5" />
<path d="M134.73,169.77A2.5,2.5 0 1 1 129.73,169.77A2.5,2.5 0 1 1 134.73,169.77Z" style="fill:none;stroke:#F15A60;stroke-width:0.5" />
<path d="M135.95,171.3A2.5,2.5 0 1 1 130.95,171.3A2.5,2.5 0 1 1 135.95,171.3Z" style="fill:none;stroke:#F15A60;stroke-width:0.5" />
<path d="M137.17,173.99A2.5,2.5 0 1 1 132.17,173.99A2.5,2.5 0 1 1 137.17,173.99Z" style="fill:none;stroke:#F15A60;stroke-width:0.5" />
<path d="M138.39,175.37A2.5,2.5 0 1 1 133.39,175.37A2.5,2.5 0 1 1 138.39,175.37Z" style="fill:none;stroke:#F15A60;stroke-width:0.5" />
<path d="M139.6,178.54A2.5,2.5 0 1 1 134.6,178.54A2.5,2.5 0 1 1 139.6,178.54Z" style="fill:none;stroke:#F15A60;stroke-width:0.5" />
<path d="M140.82,181.2A2.5,2.5 0 1 1 135.82,181.2A2.5,2.5 0 1 1 140.82,181.2Z" style="fill:none;stroke:#F15A60;stroke-width:0.5" />
<path d="M142.04,182.73A2.5,2.5 0 1 1 137.04,182.73A2.5,2.5 0 1 1 142.04,182.73Z" style="fill:none;stroke:#F15A60;stroke-width:0.5" />
<path d="M143.26,186.18A2.5,2.5 0 1 1 138.26,186.18A2.5,2.5 0 1 1 143.26,186.18Z" style="fill:none;stroke:#F15A60;stroke-width:0.5" />
<path d="M144.48,187.3A2.5,2.5 0 1 1 139.48,187.3A2.5,2.5 0 1 1 144.48,187.3Z" style="fill:none;stroke:#F15A60;stroke-width:0.5" />
<path d="M145.69,189.33A2.5,2.5 0 1 1 140.69,189.33A2.5,2.5 0 1 1 145.69,189.33Z" style="fill:none;stroke:#F15A60;stroke-width:0.5" />
<path d="M146.91,191.45A2.5,2.5 0 1 1 141.91,191.45A2.5,2.5 0 1 1 146.91,191.45Z" style="fill:none;stroke:#F15A60;stroke-width:0.5" />
<path d="M148.13,193.52A2.5,2.5 0 1 1 143.13,193.52A2.5,2.5 0 1 1 148.13,193.52Z" style="fill:none;stroke:#F15A60;stroke-width:0.5" />
<path d="M149.35,195.68A2.5,2.5 0 1 1 144.35,195.68A2.5,2.5 0 1 1 149.35,195.68Z" style="fill:none;stroke:#F15A60;stroke-width:0.5" />
<path d="M150.56,197.81A2.5,2.5 0 1 1 145.56,197.81A2.5,2.5 0 1 1 150.56,197.81Z" style="fill:none;stroke:#F15A60;stroke-width:0.5" />
<path d="M151.78,200.14A2.5,2.5 0 1 1 146.78,200.14A2.5,2.5 0 1 1 151.78,200.14Z" style="fill:none;stroke:#F15A60;stroke-width:0.5" />
<path d="M153,202.4A2.5,2.5 0 1 1 148,202.4A2.5,2.5 0 1 1 153,202.4Z" style="fill:none;stroke:#F15A60;stroke-width:0.5" />
<path d="M154.22,204.28A2.5,2.5 0 1 1 149.22,204.28A2.5,2.5 0 1 1 154.22,204.28Z" style="fill:none;stroke:#F15A60;stroke-width:0.5" />
<path d="M155.44,207.14A2.5,2.5 0 1 1 150.44,207.14A2.5,2.5 0 1 1 155.44,207.14Z" style="fill:none;stroke:#F15A60;stroke-width:0.5" />
<path d="M156.65,209.98A2.5,2.5 0 1 1 151.65,209.98A2.5,2.5 0 1 1 156.65,209.98Z" style="fill:none;stroke:#F15A60;stroke-width:0.5" />
<path d="M157.87,212.65A2.5,2.5 0 1 1 152.87,212.65A2.5,2.5 0 1 1 157.87,212.65Z" style="fill:none;stroke:#F15A60;stroke-width:0.5" />
<path d="M159.09,214.58A2.5,2.5 0 1 1 154.09,214.58A2.5,2.5 0 1 1 159.09,214.58Z" style="fill:none;stroke:#F15A60;stroke-width:0.5" />
<path d="M160.31,217.11A2.5,2.5 0 1 1 155.31,217.11A2.5,2.5 0 1 1 160.31,217.11Z" style="fill:none;stroke:#F15A60;stroke-width:0.5" />
<path d="M161.52,219.02A2.5,2.5 0 1 1 156.52,219.02A2.5,2.5 0 1 1 161.52,219.02Z" style="fill:none;stroke:#F15A60;stroke-width:0.5" />
<path d="M162.74,221.57A2.5,2.5 0 1 1 157.74,221.57A2.5,2.5 0 1 1 162.74,221.57Z" style="fill:none;stroke:#F15A60;stroke-width:0.5" />
<path d="M163.96,223.86A2.5,2.5 0 1 1 158.96,223.86A2.5,2.5 0 1 1 163.96,223.86Z" style="fill:none;stroke:#F15A60;stroke-width:0.5" />
<path d="M165.18,225.69A2.5,2.5 0 1 1 160.18,225.69A2.5,2.5 0 1 1 165.18,225.69Z" style="fill:none;stroke:#F15A60;stroke-width:0.5" />
<path d="M166.4,227.15A2.5,2.5 0 1 1 161.4,227.15A2.5,2.5 0 1 1 166.4,227.15Z" style="fill:none;stroke:#F15A60;stroke-width:0.5" />
<path d="M167.61,228.59A2.5,2.5 0 1 1 162.61,228.59A2.5,2.5 0 1 1 167.61,228.59Z" style="fill:none;stroke:#F15A60;stroke-width:0.5" />
<path d="M168.83,230.1A2.5,2.5 0 1 1 163.83,230.1A2.5,2.5 0 1 1 168.83,230.1Z" style="fill:none;stroke:#F15A60;stroke-width:0.5" />
<path d="M170.05,231.32A2.5,2.5 0 1 1 165.05,231.32A2.5,2.5 0 1 1 170.05,231.32Z" style="fill:none;stroke:#F15A60;stroke-width:0.5" />
<path d="M171.27,232.06A2.5,2.5 0 1 1 166.27,232.06A2.5,2.5 0 1 1 171.27,232.06Z" style="fill:none;stroke:#F15A60;stroke-width:0.5" />
<path d="M172.48,232.94A2.5,2.5 0 1 1 167.48,232.94A2.5,2.5 0 1 1 172.48,232.94Z" style="fill:none;stroke:#F15A60;stroke-width:0.5" />
<path d="M173.7,233.97A2.5,2.5 0 1 1 168.7,233.97A2.5,2.5 0 1 1 173.7,233.97Z" style="fill:none;stroke:#F15A60;stroke-width:0.5" />
<path d="M174.92,235.7A2.5,2.5 0 1 1 169.92,235.7A2.5,2.5 0 1 1 174.92,235.7Z" style="fill:none;stroke:#F15A60;stroke-width:0.5" />
<path d="M176.14,237.23A2.5,2.5 0 1 1 171.14,237.23A2.5,2.5 0 1 1 176.14,237.23Z" style="fill:none;stroke:#F15A60;stroke-width:0.5" />
<path d="M177.36,238.41A2.5,2.5 0 1 1 172.36,238.41A2.5,2.5 0 1 1 177.36,238.41Z" style="fill:none;stroke:#F15A60;stroke-width:0.5" />
<path d="M178.57,240.03A2.5,2.5 0 1 1 173.57,240.03A2.5,2.5 0 1 1 178.57,240.03Z" style="fill:none;stroke:#F15A60;stroke-width:0.5" />
<path d="M179.79,241.47A2.5,2.5 0 1 1 174.79,241.47A2.5,2.5 0 1 1 179.79,241.47Z" style="fill:none;stroke:#F15A60;stroke-width:0.5" />
<path d="M181.01,242.94A2.5,2.5 0 1 1 176.01,242.94A2.5,2.5 0 1 1 181.01,242.94Z" style="fill:none;stroke:#F15A60;stroke-width:0.5" />
<path d="M182.23,244.27A2.5,2.5 0 1 1 177.23,244.27A2.5,2.5 0 1 1 182.23,244.27Z" style="fill:none;stroke:#F15A60;stroke-width:0.5" />
<path d="M183.44,245.37A2.5,2.5 0 1 1 178.44,245.37A2.5,2.5 0 1 1 183.44,245.37Z" style="fill:none;stroke:#F15A60;stroke-width:0.5" />
<path d="M184.66,246.33A2.5,2.5 0 1 1 179.66,246.33A2.5,2.5 0 1 1 184.66,246.33Z" style="fill:none;stroke:#F15A60;stroke-width:0.5" />
<path d="M185.88,247.78A2.5,2.5 0 1 1 180.88,247.78A2.5,2.5 0 1 1 185.88,247.78Z" style="fill:none;stroke:#F15A60;stroke-width:0.5" />
<path d="M187.1,248.7A2.5,2.5 0 1 1 182.1,248.7A2.5,2.5 0 1 1 187.1,248.7Z" style="fill:none;stroke:#F15A60;stroke-width:0.5" />
<path d="M188.32,249.36A2.5,2.5 0 1 1 183.32,249.36A2.5,2.5 0 1 1 188.32,249.36Z" style="fill:none;stroke:#F15A60;stroke-width:0.5" />
<path d="M189.53,250.39A2.5,2.5 0 1 1 184.53,250.39A2.5,2.5 0 1 1 189.53,250.39Z" style="fill:none;stroke:#F15A60;stroke-width:0.5" />
<path d="M190.75,251.18A2.5,2.5 0 1 1 185.75,251.18A2.5,2.5 0 1 1 190.75,251.18Z" style="fill:none;stroke:#F15A60;stroke-width:0.5" />
<path d="M191.97,252.14A2.5,2.5 0 1 1 186.97,252.14A2.5,2.5 0 1 1 191.97,252.14Z" style="fill:none;stroke:#F15A60;stroke-width:0.5" />
<path d="M193.19,252.94A2.5,2.5 0 1 1 188.19,252.94A2.5,2.5 0 1 1 193.19,252.94Z" style="fill:none;stroke:#F15A60;stroke-width:0.5" />
<path d="M194.4,253.48A2.5,2.5 0 1 1 189.4,253.48A2.5,2.5 0 1 1 194.4,253.48Z" style="fill:none;stroke:#F15A60;stroke-width:0.5" />
<path d="M195.62,254.44A2.5,2.5 0 1 1 190.62,254.44A2.5,2.5 0 1 1 195.62,254.44Z" style="fill:none;stroke:#F15A60;stroke-width:0.5" />
<path d="M196.84,254.68A2.5,2.5 0 1 1 191.84,254.68A2.5,2.5 0 1 1 196.84,254.68Z" style="fill:none;stroke:#F15A60;stroke-width:0.5" />
<path d="M198.06,255.21A2.5,2.5 0 1 1 193.06,255.21A2.5,2.5 0 1 1 198.06,255.21Z" style="fill:none;stroke:#F15A60;stroke-width:0.5" />
<path d="M199.28,256.06A2.5,2.5 0 1 1 194.28,256.06A2.5,2.5 0 1 1 199.28,256.06Z" style="fill:none;stroke:#F15A60;stroke-width:0.5" />
<path d="M200.49,256.55A2.5,2.5 0 1 1 195.49,256.55A2.5,2.5 0 1 1 200.49,256.55Z" style="fill:none;stroke:#F15A60;stroke-width:0.5" />
<path d="M201.71,258.27A2.5,2.5 0 1 1 196.71,258.27A2.5,2.5 0 1 1 201.71,258.27Z" style="fill:none;stroke:#F15A60;stroke-width:0.5" />
<path d="M202.93,258.77A2.5,2.5 0 1 1 197.93,258.77A2.5,2.5 0 1 1 202.93,258.77Z" style="fill:none;stroke:#F15A60;stroke-width:0.5" />
<path d="M204.15,259.24A2.5,2.5 0 1 1 199.15,259.24A2.5,2.5 0 1 1 204.15,259.24Z" style="fill:none;stroke:#F15A60;stroke-width:0.5" />
<path d="M205.36,259.7A2.5,2.5 0 1 1 200.36,259.7A2.5,2.5 0 1 1 205.36,259.7Z" style="fill:none;stroke:#F15A60;stroke-width:0.5" />
<path d="M206.58,260.22A2.5,2.5 0 1 1 201.58,260.22A2.5,2.5 0 1 1 206.58,260.22Z" style="fill:none;stroke:#F15A60;stroke-width:0.5" />
<path d="M207.8,260.65A2.5,2.5 0 1 1 202.8,260.65A2.5,2.5 0 1 1 207.8,260.65Z" style="fill:none;stroke:#F15A60;stroke-width:0.5" />
<path d="M209.02,260.89A2.5,2.5 0 1 1 204.02,260.89A2.5,2.5 0 1 1 209.02,260.89Z" style="fill:none;stroke:#F15A60;stroke-width:0.5" />
<path d="M210.24,262.23A2.5,2.5 0 1 1 205.24,262.23A2.5,2.5 0 1 1 210.24,262.23Z" style="fill:none;stroke:#F15A60;stroke-width:0.5" />
<path d="M211.45,263.04A2.5,2.5 0 1 1 206.45,263.04A2.5,2.5 0 1 1 211.45,263.04Z" style="fill:none;stroke:#F15A60;stroke-width:0.5" />
<path d="M212.67,263.51A2.5,2.5 0 1 1 207.67,263.51A2.5,2.5 0 1 1 212.67,263.51Z" style="fill:none;stroke:#F15A60;stroke-width:0.5" />
<path d="M213.89,264.06A2.5,2.5 0 1 1 208.89,264.06A2.5,2.5 0 1 1 213.89,264.06Z" style="fill:none;stroke:#F15A60;stroke-width:0.5" />
<path d="M215.11,264.58A2.5,2.5 0 1 1 210.11,264.58A2.5,2.5 0 1 1 215.11,264.58Z" style="fill:none;stroke:#F15A60;stroke-width:0.5" />
<path d="M216.32,265.03A2.5,2.5 0 1 1 211.32,265.03A2.5,2.5 0 1 1 216.32,265.03Z" style="fill:none;stroke:#F15A60;stroke-width:0.5" />
<path d="M217.54,265.32A2.5,2.5 0 1 1 212.54,265.32A2.5,2.5 0 1 1 217.54,265.32Z" style="fill:none;stroke:#F15A60;stroke-width:0.5" />
<path d="M218.76,265.64A2.5,2.5 0 1 1 213.76,265.64A2.5,2.5 0 1 1 218.76,265.64Z" style="fill:none;stroke:#F15A60;stroke-width:0.5" />
<path d="M219.98,266.54A2.5,2.5 0 1 1 214.98,266.54A2.5,2.5 0 1 1 219.98,266.54Z" style="fill:none;stroke:#F15A60;stroke-width:0.5" />
<path d="M221.2,267.02A2.5,2.5 0 1 1 216.2,267.02A2.5,2.5 0 1 1 221.2,267.02Z" style="fill:none;stroke:#F15A60;stroke-width:0.5" />
<path d="M222.41,267.4A2.5,2.5 0 1 1 217.41,267.4A2.5,2.5 0 1 1 222.41,267.4Z" style="fill:none;stroke:#F15A60;stroke-width:0.5" />
<path d="M223.63,267.6A2.5,2.5 0 1 1 218.63,267.6A2.5,2.5 0 1 1 223.63,267.6Z" style="fill:none;stroke:#F15A60;stroke-width:0.5" />
<path d="M224.85,268.31A2.5,2.5 0 1 1 219.85,268.31A2.5,2.5 0 1 1 224.85,268.31Z" style="fill:none;stroke:#F15A60;stroke-width:0.5" />
<path d="M226.07,268.43A2.5,2.5 0 1 1 221.07,268.43A2.5,2.5 0 1 1 226.07,268.43Z" style="fill:none;stroke:#F15A60;stroke-width:0.5" />
<path d="M227.28,268.77A2.5,2.5 0 1 1 222.28,268.77A2.5,2.5 0 1 1 227.28,268.77Z" style="fill:none;stroke:#F15A60;stroke-width:0.5" />
<path d="M228.5,269.11A2.5,2.5 0 1 1 223.5,269.11A2.5,2.5 0 1 1 228.5,269.11Z" style="fill:none;stroke:#F15A60;stroke-width:0.5" />
<path d="M229.72,269.41A2.5,2.5 0 1 1 224.72,269.41A2.5,2.5 0 1 1 229.72,269.41Z" style="fill:none;stroke:#F15A60;stroke-width:0.5" />
<path d="M230.94,269.7A2.5,2.5 0 1 1 225.94,269.7A2.5,2.5 0 1 1 230.94,269.7Z" style="fill:none;stroke:#F15A60;stroke-width:0.5" />
<path d="M232.16,269.7A2.5,2.5 0 1 1 227.16,269.7A2.5,2.5 0 1 1 232.16,269.7Z" style="fill:none;stroke:#F15A60;stroke-width:0.5" />
<path d="M233.37,269.89A2.5,2.5 0 1 1 228.37,269.89A2.5,2.5 0 1 1 233.37,269.89Z" style="fill:none;stroke:#F15A60;stroke-width:0.5" />
<path d="M234.59,270.2A2.5,2.5 0 1 1 229.59,270.2A2.5,2.5 0 1 1 234.59,270.2Z" style="fill:none;stroke:#F15A60;stroke-width:0.5" />
<path d="M235.81,270.46A2.5,2.5 0 1 1 230.81,270.46A2.5,2.5 0 1 1 235.81,270.46Z" style="fill:none;stroke:#F15A60;stroke-width:0.5" />
<path d="M237.03,270.83A2.5,2.5 0 1 1 232.03,270.83A2.5,2.5 0 1 1 237.03,270.83Z" style="fill:none;stroke:#F15A60;stroke-width:0.5" />
<path d="M238.24,271.5A2.5,2.5 0 1 1 233.24,271.5A2.5,2.5 0 1 1 238.24,271.5Z" style="fill:none;stroke:#F15A60;stroke-width:0.5" />
<path d="M239.46,273.62A2.5,2.5 0 1 1 234.46,273.62A2.5,2.5 0 1 1 239.46,273.62Z" style="fill:none;stroke:#F15A60;stroke-width:0.5" />
<path d="M240.68,274.08A2.5,2.5 0 1 1 235.68,274.08A2.5,2.5 0 1 1 240.68,274.08Z" style="fill:none;stroke:#F15A60;stroke-width:0.5" />
<path d="M241.9,274.85A2.5,2.5 0 1 1 236.9,274.85A2.5,2.5 0 1 1 241.9,274.85Z" style="fill:none;stroke:#F15A60;stroke-width:0.5" />
<path d="M243.12,275.48A2.5,2.5 0 1 1 238.12,275.48A2.5,2.5 0 1 1 243.12,275.48Z" style="fill:none;stroke:#F15A60;stroke-width:0.5" />
<path d="M244.33,276.07A2.5,2.5 0 1 1 239.33,276.07A2.5,2.5 0 1 1 244.33,276.07Z" style="fill:none;stroke:#F15A60;stroke-width:0.5" />
<path d="M245.55,276.62A2.5,2.5 0 1 1 240.55,276.62A2.5,2.5 0 1 1 245.55,276.62Z" style="fill:none;stroke:#F15A60;stroke-width:0.5" />
<path d="M246.77,277.24A2.5,2.5 0 1 1 241.77,277.24A2.5,2.5 0 1 1 246.77,277.24Z" style="fill:none;stroke:#F15A60;stroke-width:0.5" />
<path d="M247.99,277.74A2.5,2.5 0 1 1 242.99,277.74A2.5,2.5 0 1 1 247.99,277.74Z" style="fill:none;stroke:#F15A60;stroke-width:0.5" />
<path d="M249.2,278.34A2.5,2.5 0 1 1 244.2,278.34A2.5,2.5 0 1 1 249.2,278.34Z" style="fill:none;stroke:#F15A60;stroke-width:0.5" />
<path d="M250.42,278.8A2.5,2.5 0 1 1 245.42,278.8A2.5,2.5 0 1 1 250.42,278.8Z" style="fill:none;stroke:#F15A60;stroke-width:0.5" />
<path d="M251.64,279.36A2.5,2.5 0 1 1 246.64,279.36A2.5,2.5 0 1 1 251.64,279.36Z" style="fill:none;stroke:#F15A60;stroke-width:0.5" />
<path d="M252.86,279.94A2.5,2.5 0 1 1 247.86,279.94A2.5,2.5 0 1 1 252.86,279.94Z" style="fill:none;stroke:#F15A60;stroke-width:0.5" />
<path d="M254.08,280.52A2.5,2.5 0 1 1 249.08,280.52A2.5,2.5 0 1 1 254.08,280.52Z" style="fill:none;stroke:#F15A60;stroke-width:0.5" />
<path d="M255.29,281.11A2.5,2.5 0 1 1 250.29,281.11A2.5,2.5 0 1 1 255.29,281.11Z" style="fill:none;stroke:#F15A60;stroke-width:0.5" />
<path d="M256.51,281.76A2.5,2.5 0 1 1 251.51,281.76A2.5,2.5 0 1 1 256.51,281.76Z" style="fill:none;stroke:#F15A60;stroke-width:0.5" />
<path d="M257.73,282.38A2.5,2.5 0 1 1 252.73,282.38A2.5,2.5 0 1 1 257.73,282.38Z" style="fill:none;stroke:#F15A60;stroke-width:0.5" />
<path d="M258.95,282.98A2.5,2.5 0 1 1 253.95,282.98A2.5,2.5 0 1 1 258.95,282.98Z" style="fill:none;stroke:#F15A60;stroke-width:0.5" />
<path d="M260.16,283.58A2.5,2.5 0 1 1 255.16,283.58A2.5,2.5 0 1 1 260.16,283.58Z" style="fill:none;stroke:#F15A60;stroke-width:0.5" />
<path d="M261.38,284.16A2.5,2.5 0 1 1 256.38,284.16A2.5,2.5 0 1 1 261.38,284.16Z" style="fill:none;stroke:#F15A60;stroke-width:0.5" />
<path d="M262.6,284.62A2.5,2.5 0 1 1 257.6,284.62A2.5,2.5 0 1 1 262.6,284.62Z" style="fill:none;stroke:#F15A60;stroke-width:0.5" />
<path d="M263.82,285.22A2.5,2.5 0 1 1 258.82,285.22A2.5,2.5 0 1 1 263.82,285.22Z" style="fill:none;stroke:#F15A60;stroke-width:0.5" />
<path d="M265.04,285.8A2.5,2.5 0 1 1 260.04,285.8A2.5,2.5 0 1 1 265.04,285.8Z" style="fill:none;stroke:#F15A60;stroke-width:0.5" />
<path d="M266.25,286.47A2.5,2.5 0 1 1 261.25,286.47A2.5,2.5 0 1 1 266.25,286.47Z" style="fill:none;stroke:#F15A60;stroke-width:0.5" />
<path d="M267.47,287.09A2.5,2.5 0 1 1 262.47,287.09A2.5,2.5 0 1 1 267.47,287.09Z" style="fill:none;stroke:#F15A60;stroke-width:0.5" />
<path d="M268.69,287.79A2.5,2.5 0 1 1 263.69,287.79A2.5,2.5 0 1 1 268.69,287.79Z" style="fill:none;stroke:#F15A60;stroke-width:0.5" />
<path d="M269.91,288.44A2.5,2.5 0 1 1 264.91,288.44A2.5,2.5 0 1 1 269.91,288.44Z" style="fill:none;stroke:#F15A60;stroke-width:0.5" />
<path d="M271.12,289.04A2.5,2.5 0 1 1 266.12,289.04A2.5,2.5 0 1 1 271.12,289.04Z" style="fill:none;stroke:#F15A60;stroke-width:0.5" />
<path d="M272.34,289.52A2.5,2.5 0 1 1 267.34,289.52A2.5,2.5 0 1 1 272.34,289.52Z" style="fill:none;stroke:#F15A60;stroke-width:0.5" />
<path d="M273.56,290.12A2.5,2.5 0 1 1 268.56,290.12A2.5,2.5 0 1 1 273.56,290.12Z" style="fill:none;stroke:#F15A60;stroke-width:0.5" />
<path d="M274.78,290.51A2.5,2.5 0 1 1 269.78,290.51A2.5,2.5 0 1 1 274.78,290.51Z" style="fill:none;stroke:#F15A60;stroke-width:0.5" />
<path d="M276,291.29A2.5,2.5 0 1 1 271,291.29A2.5,2.5 0 1 1 276,291.29Z" style="fill:none;stroke:#F15A60;stroke-width:0.5" />
<path d="M277.21,291.97A2.5,2.5 0 1 1 272.21,291.97A2.5,2.5 0 1 1 277.21,291.97Z" style="fill:none;stroke:#F15A60;stroke-width:0.5" />
<path d="M278.43,292.47A2.5,2.5 0 1 1 273.43,292.47A2.5,2.5 0 1 1 278.43,292.47Z" style="fill:none;stroke:#F15A60;stroke-width:0.5" />
<path d="M279.65,292.87A2.5,2.5 0 1 1 274.65,292.87A2.5,2.5 0 1 1 279.65,292.87Z" style="fill:none;stroke:#F15A60;stroke-width:0.5" />
<path d="M280.87,293.34A2.5,2.5 0 1 1 275.87,293.34A2.5,2.5 0 1 1 280.87,293.34Z" style="fill:none;stroke:#F15A60;stroke-width:0.5" />
<path d="M282.08,293.62A2.5,2.5 0 1 1 277.08,293.62A2.5,2.5 0 1 1 282.08,293.62Z" style="fill:none;stroke:#F15A60;stroke-width:0.5" />
<path d="M283.3,294.46A2.5,2.5 0 1 1 278.3,294.46A2.5,2.5 0 1 1 283.3,294.46Z" style="fill:none;stroke:#F15A60;stroke-width:0.5" />
<path d="M284.52,295.1A2.5,2.5 0 1 1 279.52,295.1A2.5,2.5 0 1 1 284.52,295.1Z" style="fill:none;stroke:#F15A60;stroke-width:0.5" />
<path d="M285.74,295.92A2.5,2.5 0 1 1 280.74,295.92A2.5,2.5 0 1 1 285.74,295.92Z" style="fill:none;stroke:#F15A60;stroke-width:0.5" />
<path d="M286.96,296.17A2.5,2.5 0 1 1 281.96,296.17A2.5,2.5 0 1 1 286.96,296.17Z" style="fill:none;stroke:#F15A60;stroke-width:0.5" />
<path d="M288.17,297.11A2.5,2.5 0 1 1 283.17,297.11A2.5,2.5 0 1 1 288.17,297.11Z" style="fill:none;stroke:#F15A60;stroke-width:0.5" />
<path d="M289.39,297.85A2.5,2.5 0 1 1 284.39,297.85A2.5,2.5 0 1 1 289.39,297.85Z" style="fill:none;stroke:#F15A60;stroke-width:0.5" />
<path d="M290.61,298.26A2.5,2.5 0 1 1 285.61,298.26A2.5,2.5 0 1 1 290.61,298.26Z" style="fill:none;stroke:#F15A60;stroke-width:0.5" />
<path d="M291.83,298.54A2.5,2.5 0 1 1 286.83,298.54A2.5,2.5 0 1 1 291.83,298.54Z" style="fill:none;stroke:#F15A60;stroke-width:0.5" />
<path d="M293.04,299.29A2.5,2.5 0 1 1 288.04,299.29A2.5,2.5 0 1 1 293.04,299.29Z" style="fill:none;stroke:#F15A60;stroke-width:0.5" />
<path d="M294.26,299.94A2.5,2.5 0 1 1 289.26,299.94A2.5,2.5 0 1 1 294.26,299.94Z" style="fill:none;stroke:#F15A60;stroke-width:0.5" />
<path d="M295.48,300.53A2.5,2.5 0 1 1 290.48,300.53A2.5,2.5 0 1 1 295.48,300.53Z" style="fill:none;stroke:#F15A60;stroke-width:0.5" />
<path d="M296.7,300.76A2.5,2.5 0 1 1 291.7,300.76A2.5,2.5 0 1 1 296.7,300.76Z" style="fill:none;stroke:#F15A60;stroke-width:0.5" />
<path d="M297.92,301.11A2.5,2.5 0 1 1 292.92,301.11A2.5,2.5 0 1 1 297.92,301.11Z" style="fill:none;stroke:#F15A60;stroke-width:0.5" />
<path d="M299.13,301.7A2.5,2.5 0 1 1 294.13,301.7A2.5,2.5 0 1 1 299.13,301.7Z" style="fill:none;stroke:#F15A60;stroke-width:0.5" />
<path d="M300.35,302.17A2.5,2.5 0 1 1 295.35,302.17A2.5,2.5 0 1 1 300.35,302.17Z" style="fill:none;stroke:#F15A60;stroke-width:0.5" />
<path d="M301.57,303.57A2.5,2.5 0 1 1 296.57,303.57A2.5,2.5 0 1 1 301.57,303.57Z" style="fill:none;stroke:#F15A60;stroke-width:0.5" />
<path d="M302.79,305.86A2.5,2.5 0 1 1 297.79,305.86A2.5,2.5 0 1 1 302.79,305.86Z" style="fill:none;stroke:#F15A60;stroke-width:0.5" />
<path d="M304,306.56A2.5,2.5 0 1 1 299,306.56A2.5,2.5 0 1 1 304,306.56Z" style="fill:none;stroke:#F15A60;stroke-width:0.5" />
<path d="M305.22,307.85A2.5,2.5 0 1 1 300.22,307.85A2.5,2.5 0 1 1 305.22,307.85Z" style="fill:none;stroke:#F15A60;stroke-width:0.5" />
<path d="M306.44,309.22A2.5,2.5 0 1 1 301.44,309.22A2.5,2.5 0 1 1 306.44,309.22Z" style="fill:none;stroke:#F15A60;stroke-width:0.5" />
<path d="M307.66,309.94A2.5,2.5 0 1 1 302.66,309.94A2.5,2.5 0 1 1 307.66,309.94Z" style="fill:none;stroke:#F15A60;stroke-width:0.5" />
<path d="M308.88,310.7A2.5,2.5 0 1 1 303.88,310.7A2.5,2.5 0 1 1 308.88,310.7Z" style="fill:none;stroke:#F15A60;stroke-width:0.5" />
<path d="M310.09,311.05A2.5,2.5 0 1 1 305.09,311.05A2.5,2.5 0 1 1 310.09,311.05Z" style="fill:none;stroke:#F15A60;stroke-width:0.5" />
<path d="M311.31,312.43A2.5,2.5 0 1 1 306.31,312.43A2.5,2.5 0 1 1 311.31,312.43Z" style="fill:none;stroke:#F15A60;stroke-width:0.5" />
<path d="M312.53,313.38A2.5,2.5 0 1 1 307.53,313.38A2.5,2.5 0 1 1 312.53,313.38Z" style="fill:none;stroke:#F15A60;stroke-width:0.5" />
<path d="M313.75,314.13A2.5,2.5 0 1 1 308.75,314.13A2.5,2.5 0 1 1 313.75,314.13Z" style="fill:none;stroke:#F15A60;stroke-width:0.5" />
<path d="M314.96,314.86A2.5,2.5 0 1 1 309.96,314.86A2.5,2.5 0 1 1 314.96,314.86Z" style="fill:none;stroke:#F15A60;stroke-width:0.5" />
<path d="M316.18,315.72A2.5,2.5 0 1 1 311.18,315.72A2.5,2.5 0 1 1 316.18,315.72Z" style="fill:none;stroke:#F15A60;stroke-width:0.5" />
<path d="M317.4,316.49A2.5,2.5 0 1 1 312.4,316.49A2.5,2.5 0 1 1 317.4,316.49Z" style="fill:none;stroke:#F15A60;stroke-width:0.5" />
<path d="M318.62,317.28A2.5,2.5 0 1 1 313.62,317.28A2.5,2.5 0 1 1 318.62,317.28Z" style="fill:none;stroke:#F15A60;stroke-width:0.5" />
<path d="M319.84,317.98A2.5,2.5 0 1 1 314.84,317.98A2.5,2.5 0 1 1 319.84,317.98Z" style="fill:none;stroke:#F15A60;stroke-width:0.5" />
<path d="M321.05,318.68A2.5,2.5 0 1 1 316.05,318.68A2.5,2.5 0 1 1 321.05,318.68Z" style="fill:none;stroke:#F15A60;stroke-width:0.5" />
<path d="M322.27,319.47A2.5,2.5 0 1 1 317.27,319.47A2.5,2.5 0 1 1 322.27,319.47Z" style="fill:none;stroke:#F15A60;stroke-width:0.5" />
<path d="M323.49,320.35A2.5,2.5 0 1 1 318.49,320.35A2.5,2.5 0 1 1 323.49,320.35Z" style="fill:none;stroke:#F15A60;stroke-width:0.5" />
<path d="M324.71,321.04A2.5,2.5 0 1 1 319.71,321.04A2.5,2.5 0 1 1 324.71,321.04Z" style="fill:none;stroke:#F15A60;stroke-width:0.5" />
<path d="M325.92,321.9A2.5,2.5 0 1 1 320.92,321.9A2.5,2.5 0 1 1 325.92,321.9Z" style="fill:none;stroke:#F15A60;stroke-width:0.5" />
<path d="M327.14,322.53A2.5,2.5 0 1 1 322.14,322.53A2.5,2.5 0 1 1 327.14,322.53Z" style="fill:none;stroke:#F15A60;stroke-width:0.5" />
<path d="M328.36,323.36A2.5,2.5 0 1 1 323.36,323.36A2.5,2.5 0 1 1 328.36,323.36Z" style="fill:none;stroke:#F15A60;stroke-width:0.5" />
<path d="M329.58,324.19A2.5,2.5 0 1 1 324.58,324.19A2.5,2.5 0 1 1 329.58,324.19Z" style="fill:none;stroke:#F15A60;stroke-width:0.5" />
<path d="M330.8,324.89A2.5,2.5 0 1 1 325.8,324.89A2.5,2.5 0 1 1 330.8,324.89Z" style="fill:none;stroke:#F15A60;stroke-width:0.5" />
<path d="M332.01,325.71A2.5,2.5 0 1 1 327.01,325.71A2.5,2.5 0 1 1 332.01,325.71Z" style="fill:none;stroke:#F15A60;stroke-width:0.5" />
<path d="M333.23,326.58A2.5,2.5 0 1 1 328.23,326.58A2.5,2.5 0 1 1 333.23,326.58Z" style="fill:none;stroke:#F15A60;stroke-width:0.5" />
<path d="M334.45,327.28A2.5,2.5 0 1 1 329.45,327.28A2.5,2.5 0 1 1 334.45,327.28Z" style="fill:none;stroke:#F15A60;stroke-width:0.5" />
<path d="M335.67,328.06A2.5,2.5 0 1 1 330.67,328.06A2.5,2.5 0 1 1 335.67,328.06Z" style="fill:none;stroke:#F15A60;stroke-width:0.5" />
<path d="M336.88,328.66A2.5,2.5 0 1 1 331.88,328.66A2.5,2.5 0 1 1 336.88,328.66Z" style="fill:none;stroke:#F15A60;stroke-width:0.5" />
<path d="M338.1,329.49A2.5,2.5 0 1 1 333.1,329.49A2.5,2.5 0 1 1 338.1,329.49Z" style="fill:none;stroke:#F15A60;stroke-width:0.5" />
<path d="M339.32,330.31A2.5,2.5 0 1 1 334.32,330.31A2.5,2.5 0 1 1 339.32,330.31Z" style="fill:none;stroke:#F15A60;stroke-width:0.5" />
<path d="M340.54,331.13A2.5,2.5 0 1 1 335.54,331.13A2.5,2.5 0 1 1 340.54,331.13Z" style="fill:none;stroke:#F15A60;stroke-width:0.5" />
<path d="M341.76,331.94A2.5,2.5 0 1 1 336.76,331.94A2.5,2.5 0 1 1 341.76,331.94Z" style="fill:none;stroke:#F15A60;stroke-width:0.5" />
<path d="M342.97,332.82A2.5,2.5 0 1 1 337.97,332.82A2.5,2.5 0 1 1 342.97,332.82Z" style="fill:none;stroke:#F15A60;stroke-width:0.5" />
<path d="M344.19,333.53A2.5,2.5 0 1 1 339.19,333.53A2.5,2.5 0 1 1 344.19,333.53Z" style="fill:none;stroke:#F15A60;stroke-width:0.5" />
<path d="M345.41,334.31A2.5,2.5 0 1 1 340.41,334.31A2.5,2.5 0 1 1 345.41,334.31Z" style="fill:none;stroke:#F15A60;stroke-width:0.5" />
<path d="M346.63,335.01A2.5,2.5 0 1 1 341.63,335.01A2.5,2.5 0 1 1 346.63,335.01Z" style="fill:none;stroke:#F15A60;stroke-width:0.5" />
<path d="M347.84,336.05A2.5,2.5 0 1 1 342.84,336.05A2.5,2.5 0 1 1 347.84,336.05Z" style="fill:none;stroke:#F15A60;stroke-width:0.5" />
<path d="M349.06,336.86A2.5,2.5 0 1 1 344.06,336.86A2.5,2.5 0 1 1 349.06,336.86Z" style="fill:none;stroke:#F15A60;stroke-width:0.5" />
<path d="M350.28,337.72A2.5,2.5 0 1 1 345.28,337.72A2.5,2.5 0 1 1 350.28,337.72Z" style="fill:none;stroke:#F15A60;stroke-width:0.5" />
<path d="M351.5,338.6A2.5,2.5 0 1 1 346.5,338.6A2.5,2.5 0 1 1 351.5,338.6Z" style="fill:none;stroke:#F15A60;stroke-width:0.5" />
<path d="M352.72,339.41A2.5,2.5 0 1 1 347.72,339.41A2.5,2.5 0 1 1 352.72,339.41Z" style="fill:none;stroke:#F15A60;stroke-width:0.5" />
<path d="M353.93,340.27A2.5,2.5 0 1 1 348.93,340.27A2.5,2.5 0 1 1 353.93,340.27Z" style="fill:none;stroke:#F15A60;stroke-width:0.5" />
<path d="M355.15,341.25A2.5,2.5 0 1 1 350.15,341.25A2.5,2.5 0 1 1 355.15,341.25Z" style="fill:none;stroke:#F15A60;stroke-width:0.5" />
<path d="M356.37,342.14A2.5,2.5 0 1 1 351.37,342.14A2.5,2.5 0 1 1 356.37,342.14Z" style="fill:none;stroke:#F15A60;stroke-width:0.5" />
<path d="M357.59,342.96A2.5,2.5 0 1 1 352.59,342.96A2.5,2.5 0 1 1 357.59,342.96Z" style="fill:none;stroke:#F15A60;stroke-width:0.5" />
<path d="M358.8,343.93A2.5,2.5 0 1 1 353.8,343.93A2.5,2.5 0 1 1 358.8,343.93Z" style="fill:none;stroke:#F15A60;stroke-width:0.5" />
<path d="M360.02,344.8A2.5,2.5 0 1 1 355.02,344.8A2.5,2.5 0 1 1 360.02,344.8Z" style="fill:none;stroke:#F15A60;stroke-width:0.5" />
<path d="M361.24,345.64A2.5,2.5 0 1 1 356.24,345.64A2.5,2.5 0 1 1 361.24,345.64Z" style="fill:none;stroke:#F15A60;stroke-width:0.5" />
<path d="M362.46,346.47A2.5,2.5 0 1 1 357.46,346.47A2.5,2.5 0 1 1 362.46,346.47Z" style="fill:none;stroke:#F15A60;stroke-width:0.5" />
<path d="M363.68,347.43A2.5,2.5 0 1 1 358.68,347.43A2.5,2.5 0 1 1 363.68,347.43Z" style="fill:none;stroke:#F15A60;stroke-width:0.5" />
<path d="M364.89,348.33A2.5,2.5 0 1 1 359.89,348.33A2.5,2.5 0 1 1 364.89,348.33Z" style="fill:none;stroke:#F15A60;stroke-width:0.5" />
<path d="M366.11,349.34A2.5,2.5 0 1 1 361.11,349.34A2.5,2.5 0 1 1 366.11,349.34Z" style="fill:none;stroke:#F15A60;stroke-width:0.5" />
<path d="M367.33,350.3A2.5,2.5 0 1 1 362.33,350.3A2.5,2.5 0 1 1 367.33,350.3Z" style="fill:none;stroke:#F15A60;stroke-width:0.5" />
<path d="M368.55,351.24A2.5,2.5 0 1 1 363.55,351.24A2.5,2.5 0 1 1 368.55,351.24Z" style="fill:none;stroke:#F15A60;stroke-width:0.5" />
<path d="M369.76,352.19A2.5,2.5 0 1 1 364.76,352.19A2.5,2.5 0 1 1 369.76,352.19Z" style="fill:none;stroke:#F15A60;stroke-width:0.5" />
<path d="M370.98,353.2A2.5,2.5 0 1 1 365.98,353.2A2.5,2.5 0 1 1 370.98,353.2Z" style="fill:none;stroke:#F15A60;stroke-width:0.5" />
<path d="M372.2,354.18A2.5,2.5 0 1 1 367.2,354.18A2.5,2.5 0 1 1 372.2,354.18Z" style="fill:none;stroke:#F15A60;stroke-width:0.5" />
<path d="M373.42,355.09A2.5,2.5 0 1 1 368.42,355.09A2.5,2.5 0 1 1 373.42,355.09Z" style="fill:none;stroke:#F15A60;stroke-width:0.5" />
<path d="M374.64,355.85A2.5,2.5 0 1 1 369.64,355.85A2.5,2.5 0 1 1 374.64,355.85Z" style="fill:none;stroke:#F15A60;stroke-width:0.5" />
<path d="M375.85,356.88A2.5,2.5 0 1 1 370.85,356.88A2.5,2.5 0 1 1 375.85,356.88Z" style="fill:none;stroke:#F15A60;stroke-width:0.5" />
<path d="M377.07,357.9A2.5,2.5 0 1 1 372.07,357.9A2.5,2.5 0 1 1 377.07,357.9Z" style="fill:none;stroke:#F15A60;stroke-width:0.5" />
<path d="M378.29,358.95A2.5,2.5 0 1 1 373.29,358.95A2.5,2.5 0 1 1 378.29,358.95Z" style="fill:none;stroke:#F15A60;stroke-width:0.5" />
<path d="M379.51,360.03A2.5,2.5 0 1 1 374.51,360.03A2.5,2.5 0 1 1 379.51,360.03Z" style="fill:none;stroke:#F15A60;stroke-width:0.5" />
<path d="M380.72,361.09A2.5,2.5 0 1 1 375.72,361.09A2.5,2.5 0 1 1 380.72,361.09Z" style="fill:none;stroke:#F15A60;stroke-width:0.5" />
<path d="M381.94,362.08A2.5,2.5 0 1 1 376.94,362.08A2.5,2.5 0 1 1 381.94,362.08Z" style="fill:none;stroke:#F15A60;stroke-width:0.5" />
<path d="M383.16,363.1A2.5,2.5 0 1 1 378.16,363.1A2.5,2.5 0 1 1 383.16,363.1Z" style="fill:none;stroke:#F15A60;stroke-width:0.5" />
<path d="M384.38,364.06A2.5,2.5 0 1 1 379.38,364.06A2.5,2.5 0 1 1 384.38,364.06Z" style="fill:none;stroke:#F15A60;stroke-width:0.5" />
<path d="M385.6,365.42A2.5,2.5 0 1 1 380.6,365.42A2.5,2.5 0 1 1 385.6,365.42Z" style="fill:none;stroke:#F15A60;stroke-width:0.5" />
<path d="M386.81,366.57A2.5,2.5 0 1 1 381.81,366.57A2.5,2.5 0 1 1 386.81,366.57Z" style="fill:none;stroke:#F15A60;stroke-width:0.5" />
<path d="M388.03,367.7A2.5,2.5 0 1 1 383.03,367.7A2.5,2.5 0 1 1 388.03,367.7Z" style="fill:none;stroke:#F15A60;stroke-width:0.5" />
<path d="M389.25,368.57A2.5,2.5 0 1 1 384.25,368.57A2.5,2.5 0 1 1 389.25,368.57Z" style="fill:none;stroke:#F15A60;stroke-width:0.5" />
<path d="M390.47,369.59A2.5,2.5 0 1 1 385.47,369.59A2.5,2.5 0 1 1 390.47,369.59Z" style="fill:none;stroke:#F15A60;stroke-width:0.5" />
<path d="M391.68,370.61A2.5,2.5 0 1 1 386.68,370.61A2.5,2.5 0 1 1 391.68,370.61Z" style="fill:none;stroke:#F15A60;stroke-width:0.5" />
<path d="M392.9,371.72A2.5,2.5 0 1 1 387.9,371.72A2.5,2.5 0 1 1 392.9,371.72Z" style="fill:none;stroke:#F15A60;stroke-width:0.5" />
<path d="M394.12,372.82A2.5,2.5 0 1 1 389.12,372.82A2.5,2.5 0 1 1 394.12,372.82Z" style="fill:none;stroke:#F15A60;stroke-width:0.5" />
<path d="M395.34,374.03A2.5,2.5 0 1 1 390.34,374.03A2.5,2.5 0 1 1 395.34,374.03Z" style="fill:none;stroke:#F15A60;stroke-width:0.5" />
<path d="M396.56,375.12A2.5,2.5 0 1 1 391.56,375.12A2.5,2.5 0 1 1 396.56,375.12Z" style="fill:none;stroke:#F15A60;stroke-width:0.5" />
<path d="M397.77,376.35A2.5,2.5 0 1 1 392.77,376.35A2.5,2.5 0 1 1 397.77,376.35Z" style="fill:none;stroke:#F15A60;stroke-width:0.5" />
<path d="M398.99,377.57A2.5,2.5 0 1 1 393.99,377.57A2.5,2.5 0 1 1 398.99,377.57Z" style="fill:none;stroke:#F15A60;stroke-width:0.5" />
<path d="M400.21,378.8A2.5,2.5 0 1 1 395.21,378.8A2.5,2.5 0 1 1 400.21,378.8Z" style="fill:none;stroke:#F15A60;stroke-width:0.5" />
<path d="M401.43,380.08A2.5,2.5 0 1 1 396.43,380.08A2.5,2.5 0 1 1 401.43,380.08Z" style="fill:none;stroke:#F15A60;stroke-width:0.5" />
<path d="M402.64,381.4A2.5,2.5 0 1 1 397.64,381.4A2.5,2.5 0 1 1 402.64,381.4Z" style="fill:none;stroke:#F15A60;stroke-width:0.5" />
<path d="M403.86,382.6A2.5,2.5 0 1 1 398.86,382.6A2.5,2.5 0 1 1 403.86,382.6Z" style="fill:none;stroke:#F15A60;stroke-width:0.5" />
<path d="M405.08,383.6A2.5,2.5 0 1 1 400.08,383.6A2.5,2.5 0 1 1 405.08,383.6Z" style="fill:none;stroke:#F15A60;stroke-width:0.5" />
<path d="M406.3,384.92A2.5,2.5 0 1 1 401.3,384.92A2.5,2.5 0 1 1 406.3,384.92Z" style="fill:none;stroke:#F15A60;stroke-width:0.5" />
<path d="M407.52,386.18A2.5,2.5 0 1 1 402.52,386.18A2.5,2.5 0 1 1 407.52,386.18Z" style="fill:none;stroke:#F15A60;stroke-width:0.5" />
<path d="M408.73,387.39A2.5,2.5 0 1 1 403.73,387.39A2.5,2.5 0 1 1 408.73,387.39Z" style="fill:none;stroke:#F15A60;stroke-width:0.5" />
<path d="M409.95,388.8A2.5,2.5 0 1 1 404.95,388.8A2.5,2.5 0 1 1 409.95,388.8Z" style="fill:none;stroke:#F15A60;stroke-width:0.5" />
<path d="M411.17,390.16A2.5,2.5 0 1 1 406.17,390.16A2.5,2.5 0 1 1 411.17,390.16Z" style="fill:none;stroke:#F15A60;stroke-width:0.5" />
<path d="M412.39,391.48A2.5,2.5 0 1 1 407.39,391.48A2.5,2.5 0 1 1 412.39,391.48Z" style="fill:none;stroke:#F15A60;stroke-width:0.5" />
<path d="M413.6,392.94A2.5,2.5 0 1 1 408.6,392.94A2.5,2.5 0 1 1 413.6,392.94Z" style="fill:none;stroke:#F15A60;stroke-width:0.5" />
<path d="M414.82,394.2A2.5,2.5 0 1 1 409.82,394.2A2.5,2.5 0 1 1 414.82,394.2Z" style="fill:none;stroke:#F15A60;stroke-width:0.5" />
<path d="M416.04,395.71A2.5,2.5 0 1 1 411.04,395.71A2.5,2.5 0 1 1 416.04,395.71Z" style="fill:none;stroke:#F15A60;stroke-width:0.5" />
<path d="M417.26,397.12A2.5,2.5 0 1 1 412.26,397.12A2.5,2.5 0 1 1 417.26,397.12Z" style="fill:none;stroke:#F15A60;stroke-width:0.5" />
<path d="M418.48,398.14A2.5,2.5 0 1 1 413.48,398.14A2.5,2.5 0 1 1 418.48,398.14Z" style="fill:none;stroke:#F15A60;stroke-width:0.5" />
<path d="M419.69,399.52A2.5,2.5 0 1 1 414.69,399.52A2.5,2.5 0 1 1 419.69,399.52Z" style="fill:none;stroke:#F15A60;stroke-width:0.5" />
<path d="M420.91,401.08A2.5,2.5 0 1 1 415.91,401.08A2.5,2.5 0 1 1 420.91,401.08Z" style="fill:none;stroke:#F15A60;stroke-width:0.5" />
<path d="M422.13,402.27A2.5,2.5 0 1 1 417.13,402.27A2.5,2.5 0 1 1 422.13,402.27Z" style="fill:none;stroke:#F15A60;stroke-width:0.5" />
<path d="M423.35,404A2.5,2.5 0 1 1 418.35,404A2.5,2.5 0 1 1 423.35,404Z" style="fill:none;stroke:#F15A60;stroke-width:0.5" />
<path d="M424.56,405.59A2.5,2.5 0 1 1 419.56,405.59A2.5,2.5 0 1 1 424.56,405.59Z" style="fill:none;stroke:#F15A60;stroke-width:0.5" />
<path d="M425.78,407.06A2.5,2.5 0 1 1 420.78,407.06A2.5,2.5 0 1 1 425.78,407.06Z" style="fill:none;stroke:#F15A60;stroke-width:0.5" />
<path d="M427,408.71A2.5,2.5 0 1 1 422,408.71A2.5,2.5 0 1 1 427,408.71Z" style="fill:none;stroke:#F15A60;stroke-width:0.5" />
<path d="M428.22,410.24A2.5,2.5 0 1 1 423.22,410.24A2.5,2.5 0 1 1 428.22,410.24Z" style="fill:none;stroke:#F15A60;stroke-width:0.5" />
<path d="M429.44,411.68A2.5,2.5 0 1 1 424.44,411.68A2.5,2.5 0 1 1 429.44,411.68Z" style="fill:none;stroke:#F15A60;stroke-width:0.5" />
<path d="M412,44.369L432,44.369" style="fill:none;stroke:#F15A60" />
<path d="M424.5,44.369A2.5,2.5 0 1 1 419.5,44.369A2.5,2.5 0 1 1 424.5,44.369Z" style="fill:none;stroke:#F15A60;stroke-width:0.5" />
<text x="365.67" y="-38.703" transform="scale(1, -1)"
	style="font-family:Times;font-weight:normal;font-style:normal;font-size:12px">yunikorn</text>
</g>
</svg>
