<?xml version="1.0"?>
<!-- Generated by SVGo and Plotinum VG -->
<svg width="432pt" height="432pt" viewBox="0 0 432 432"
	xmlns="http://www.w3.org/2000/svg"
	xmlns:xlink="http://www.w3.org/1999/xlink">
<g transform="scale(1, -1) translate(0, -432)">
<path d="M0,0L432,0L432,432L0,432Z" style="fill:#FFFFFF" />
<text x="159.28" y="-420.45" transform="scale(1, -1)"
	style="font-family:Times;font-weight:normal;font-style:normal;font-size:12px">Scheduling Throughput</text>
<text x="230.58" y="-3.8613" transform="scale(1, -1)"
	style="font-family:Times;font-weight:normal;font-style:normal;font-size:12px">Seconds</text>
<text x="69.166" y="-15.602" transform="scale(1, -1)"
	style="font-family:Times;font-weight:normal;font-style:normal;font-size:10px">0</text>
<text x="179.9" y="-15.602" transform="scale(1, -1)"
	style="font-family:Times;font-weight:normal;font-style:normal;font-size:10px">50</text>
<text x="290.64" y="-15.602" transform="scale(1, -1)"
	style="font-family:Times;font-weight:normal;font-style:normal;font-size:10px">100</text>
<text x="403.88" y="-15.602" transform="scale(1, -1)"
	style="font-family:Times;font-weight:normal;font-style:normal;font-size:10px">150</text>
<path d="M71.666,25.23L71.666,33.23" style="fill:none;stroke:#000000;stroke-width:0.5" />
<path d="M184.9,25.23L184.9,33.23" style="fill:none;stroke:#000000;stroke-width:0.5" />
<path d="M298.14,25.23L298.14,33.23" style="fill:none;stroke:#000000;stroke-width:0.5" />
<path d="M411.38,25.23L411.38,33.23" style="fill:none;stroke:#000000;stroke-width:0.5" />
<path d="M94.314,29.23L94.314,33.23" style="fill:none;stroke:#000000;stroke-width:0.5" />
<path d="M116.96,29.23L116.96,33.23" style="fill:none;stroke:#000000;stroke-width:0.5" />
<path d="M139.61,29.23L139.61,33.23" style="fill:none;stroke:#000000;stroke-width:0.5" />
<path d="M162.26,29.23L162.26,33.23" style="fill:none;stroke:#000000;stroke-width:0.5" />
<path d="M207.55,29.23L207.55,33.23" style="fill:none;stroke:#000000;stroke-width:0.5" />
<path d="M230.2,29.23L230.2,33.23" style="fill:none;stroke:#000000;stroke-width:0.5" />
<path d="M252.85,29.23L252.85,33.23" style="fill:none;stroke:#000000;stroke-width:0.5" />
<path d="M275.5,29.23L275.5,33.23" style="fill:none;stroke:#000000;stroke-width:0.5" />
<path d="M320.79,29.23L320.79,33.23" style="fill:none;stroke:#000000;stroke-width:0.5" />
<path d="M343.44,29.23L343.44,33.23" style="fill:none;stroke:#000000;stroke-width:0.5" />
<path d="M366.09,29.23L366.09,33.23" style="fill:none;stroke:#000000;stroke-width:0.5" />
<path d="M388.73,29.23L388.73,33.23" style="fill:none;stroke:#000000;stroke-width:0.5" />
<path d="M71.666,33.23L429.5,33.23" style="fill:none;stroke:#000000;stroke-width:0.5" />
<g transform="rotate(90)">
<text x="187" y="11.555" transform="scale(1, -1)"
	style="font-family:Times;font-weight:normal;font-style:normal;font-size:12px">Number of Pods</text>
</g>
<text x="35.416" y="-36.259" transform="scale(1, -1)"
	style="font-family:Times;font-weight:normal;font-style:normal;font-size:10px">0.00</text>
<text x="15.416" y="-221.61" transform="scale(1, -1)"
	style="font-family:Times;font-weight:normal;font-style:normal;font-size:10px">25000.00</text>
<text x="15.416" y="-406.96" transform="scale(1, -1)"
	style="font-family:Times;font-weight:normal;font-style:normal;font-size:10px">50000.00</text>
<path d="M55.416,40.98L63.416,40.98" style="fill:none;stroke:#000000;stroke-width:0.5" />
<path d="M55.416,226.33L63.416,226.33" style="fill:none;stroke:#000000;stroke-width:0.5" />
<path d="M55.416,411.68L63.416,411.68" style="fill:none;stroke:#000000;stroke-width:0.5" />
<path d="M59.416,78.05L63.416,78.05" style="fill:none;stroke:#000000;stroke-width:0.5" />
<path d="M59.416,115.12L63.416,115.12" style="fill:none;stroke:#000000;stroke-width:0.5" />
<path d="M59.416,152.19L63.416,152.19" style="fill:none;stroke:#000000;stroke-width:0.5" />
<path d="M59.416,189.26L63.416,189.26" style="fill:none;stroke:#000000;stroke-width:0.5" />
<path d="M59.416,263.4L63.416,263.4" style="fill:none;stroke:#000000;stroke-width:0.5" />
<path d="M59.416,300.47L63.416,300.47" style="fill:none;stroke:#000000;stroke-width:0.5" />
<path d="M59.416,337.54L63.416,337.54" style="fill:none;stroke:#000000;stroke-width:0.5" />
<path d="M59.416,374.61L63.416,374.61" style="fill:none;stroke:#000000;stroke-width:0.5" />
<path d="M63.416,40.98L63.416,411.68" style="fill:none;stroke:#000000;stroke-width:0.5" />
<path d="M71.666,40.98L73.931,40.98L76.196,40.98L78.46,40.98L80.725,40.98L82.99,40.98L85.255,40.98L87.519,40.98L89.784,40.98L92.049,40.98L94.314,40.98L96.579,40.98L98.843,40.98L101.11,40.98L103.37,40.98L105.64,40.98L107.9,40.98L110.17,40.98L112.43,40.98L114.7,40.98L116.96,40.98L119.23,41.462L121.49,45.599L123.76,48.179L126.02,49.203L128.29,51.493L130.55,53.517L132.81,55.556L135.08,58.099L137.34,60.435L139.61,62.436L141.87,64.942L144.14,67.152L146.4,68.323L148.67,70.443L150.93,72.66L153.2,74.603L155.46,76.812L157.73,78.71L159.99,80.912L162.26,83.203L164.52,84.878L166.79,86.621L169.05,88.889L171.32,91.054L173.58,93.026L175.85,95.621L178.11,97.712L180.38,99.988L182.64,102.27L184.9,104.33L187.17,105.74L189.43,108.49L191.7,110.86L193.96,113.22L196.23,115.74L198.49,117.83L200.76,120.34L203.02,122.5L205.29,123.68L207.55,125.95L209.82,128.58L212.08,130.99L214.35,133.49L216.61,136.09L218.88,138.48L221.14,141.03L223.41,142.55L225.67,144.92L227.94,147.61L230.2,150.61L232.46,152.66L234.73,155.04L236.99,158.06L239.26,161.08L241.52,162.43L243.79,164.33L246.05,167.16L248.32,169.98L250.58,172.43L252.85,174.71L255.11,178.06L257.38,180.25L259.64,182.3L261.91,184.32L264.17,187.23L266.44,190.36L268.7,192.39L270.97,195.91L273.23,198.61L275.5,201.11L277.76,203.89L280.03,205.63L282.29,208.61L284.55,211.5L286.82,213.6L289.08,216.13L291.35,219.03L293.61,221.97L295.88,225.47L298.14,228.19L300.41,229.62L302.67,233.69L304.94,235.94L307.2,239.34L309.47,242.59L311.73,245.66L314,248.81L316.26,251.12L318.53,252.95L320.79,254.9L323.06,258.21L325.32,261.8L327.59,266.58L329.85,270.37L332.11,274.83L334.38,279.39L336.64,282.87L338.91,286.08L341.17,288.46L343.44,291.08L345.7,294.87L347.97,298.38L350.23,302.97L352.5,306.15L354.76,310.61L357.03,314.95L359.29,319.38L361.56,322.87L363.82,324.45L366.09,328.48L368.35,332.04L370.62,336.94L372.88,340L375.15,345.76L377.41,349.19L379.68,354.69L381.94,359.4L384.2,364.46L386.47,367.05L388.73,370.09L391,375.67L393.26,378.08L395.53,386.11L397.79,390.05L400.06,395.02L402.32,399.19L404.59,403.05L406.85,405.99L409.12,407.95L411.38,409.27L413.65,409.93L415.91,410.51L418.18,411.03L420.44,411.4L422.71,411.57L424.97,411.6L427.24,411.65L429.5,411.68" style="fill:none;stroke:#F15A60" />
<path d="M74.166,40.98A2.5,2.5 0 1 1 69.166,40.98A2.5,2.5 0 1 1 74.166,40.98Z" style="fill:none;stroke:#F15A60;stroke-width:0.5" />
<path d="M76.431,40.98A2.5,2.5 0 1 1 71.431,40.98A2.5,2.5 0 1 1 76.431,40.98Z" style="fill:none;stroke:#F15A60;stroke-width:0.5" />
<path d="M78.696,40.98A2.5,2.5 0 1 1 73.696,40.98A2.5,2.5 0 1 1 78.696,40.98Z" style="fill:none;stroke:#F15A60;stroke-width:0.5" />
<path d="M80.96,40.98A2.5,2.5 0 1 1 75.96,40.98A2.5,2.5 0 1 1 80.96,40.98Z" style="fill:none;stroke:#F15A60;stroke-width:0.5" />
<path d="M83.225,40.98A2.5,2.5 0 1 1 78.225,40.98A2.5,2.5 0 1 1 83.225,40.98Z" style="fill:none;stroke:#F15A60;stroke-width:0.5" />
<path d="M85.49,40.98A2.5,2.5 0 1 1 80.49,40.98A2.5,2.5 0 1 1 85.49,40.98Z" style="fill:none;stroke:#F15A60;stroke-width:0.5" />
<path d="M87.755,40.98A2.5,2.5 0 1 1 82.755,40.98A2.5,2.5 0 1 1 87.755,40.98Z" style="fill:none;stroke:#F15A60;stroke-width:0.5" />
<path d="M90.019,40.98A2.5,2.5 0 1 1 85.019,40.98A2.5,2.5 0 1 1 90.019,40.98Z" style="fill:none;stroke:#F15A60;stroke-width:0.5" />
<path d="M92.284,40.98A2.5,2.5 0 1 1 87.284,40.98A2.5,2.5 0 1 1 92.284,40.98Z" style="fill:none;stroke:#F15A60;stroke-width:0.5" />
<path d="M94.549,40.98A2.5,2.5 0 1 1 89.549,40.98A2.5,2.5 0 1 1 94.549,40.98Z" style="fill:none;stroke:#F15A60;stroke-width:0.5" />
<path d="M96.814,40.98A2.5,2.5 0 1 1 91.814,40.98A2.5,2.5 0 1 1 96.814,40.98Z" style="fill:none;stroke:#F15A60;stroke-width:0.5" />
<path d="M99.079,40.98A2.5,2.5 0 1 1 94.079,40.98A2.5,2.5 0 1 1 99.079,40.98Z" style="fill:none;stroke:#F15A60;stroke-width:0.5" />
<path d="M101.34,40.98A2.5,2.5 0 1 1 96.343,40.98A2.5,2.5 0 1 1 101.34,40.98Z" style="fill:none;stroke:#F15A60;stroke-width:0.5" />
<path d="M103.61,40.98A2.5,2.5 0 1 1 98.608,40.98A2.5,2.5 0 1 1 103.61,40.98Z" style="fill:none;stroke:#F15A60;stroke-width:0.5" />
<path d="M105.87,40.98A2.5,2.5 0 1 1 100.87,40.98A2.5,2.5 0 1 1 105.87,40.98Z" style="fill:none;stroke:#F15A60;stroke-width:0.5" />
<path d="M108.14,40.98A2.5,2.5 0 1 1 103.14,40.98A2.5,2.5 0 1 1 108.14,40.98Z" style="fill:none;stroke:#F15A60;stroke-width:0.5" />
<path d="M110.4,40.98A2.5,2.5 0 1 1 105.4,40.98A2.5,2.5 0 1 1 110.4,40.98Z" style="fill:none;stroke:#F15A60;stroke-width:0.5" />
<path d="M112.67,40.98A2.5,2.5 0 1 1 107.67,40.98A2.5,2.5 0 1 1 112.67,40.98Z" style="fill:none;stroke:#F15A60;stroke-width:0.5" />
<path d="M114.93,40.98A2.5,2.5 0 1 1 109.93,40.98A2.5,2.5 0 1 1 114.93,40.98Z" style="fill:none;stroke:#F15A60;stroke-width:0.5" />
<path d="M117.2,40.98A2.5,2.5 0 1 1 112.2,40.98A2.5,2.5 0 1 1 117.2,40.98Z" style="fill:none;stroke:#F15A60;stroke-width:0.5" />
<path d="M119.46,40.98A2.5,2.5 0 1 1 114.46,40.98A2.5,2.5 0 1 1 119.46,40.98Z" style="fill:none;stroke:#F15A60;stroke-width:0.5" />
<path d="M121.73,41.462A2.5,2.5 0 1 1 116.73,41.462A2.5,2.5 0 1 1 121.73,41.462Z" style="fill:none;stroke:#F15A60;stroke-width:0.5" />
<path d="M123.99,45.599A2.5,2.5 0 1 1 118.99,45.599A2.5,2.5 0 1 1 123.99,45.599Z" style="fill:none;stroke:#F15A60;stroke-width:0.5" />
<path d="M126.26,48.179A2.5,2.5 0 1 1 121.26,48.179A2.5,2.5 0 1 1 126.26,48.179Z" style="fill:none;stroke:#F15A60;stroke-width:0.5" />
<path d="M128.52,49.203A2.5,2.5 0 1 1 123.52,49.203A2.5,2.5 0 1 1 128.52,49.203Z" style="fill:none;stroke:#F15A60;stroke-width:0.5" />
<path d="M130.79,51.493A2.5,2.5 0 1 1 125.79,51.493A2.5,2.5 0 1 1 130.79,51.493Z" style="fill:none;stroke:#F15A60;stroke-width:0.5" />
<path d="M133.05,53.517A2.5,2.5 0 1 1 128.05,53.517A2.5,2.5 0 1 1 133.05,53.517Z" style="fill:none;stroke:#F15A60;stroke-width:0.5" />
<path d="M135.31,55.556A2.5,2.5 0 1 1 130.31,55.556A2.5,2.5 0 1 1 135.31,55.556Z" style="fill:none;stroke:#F15A60;stroke-width:0.5" />
<path d="M137.58,58.099A2.5,2.5 0 1 1 132.58,58.099A2.5,2.5 0 1 1 137.58,58.099Z" style="fill:none;stroke:#F15A60;stroke-width:0.5" />
<path d="M139.84,60.435A2.5,2.5 0 1 1 134.84,60.435A2.5,2.5 0 1 1 139.84,60.435Z" style="fill:none;stroke:#F15A60;stroke-width:0.5" />
<path d="M142.11,62.436A2.5,2.5 0 1 1 137.11,62.436A2.5,2.5 0 1 1 142.11,62.436Z" style="fill:none;stroke:#F15A60;stroke-width:0.5" />
<path d="M144.37,64.942A2.5,2.5 0 1 1 139.37,64.942A2.5,2.5 0 1 1 144.37,64.942Z" style="fill:none;stroke:#F15A60;stroke-width:0.5" />
<path d="M146.64,67.152A2.5,2.5 0 1 1 141.64,67.152A2.5,2.5 0 1 1 146.64,67.152Z" style="fill:none;stroke:#F15A60;stroke-width:0.5" />
<path d="M148.9,68.323A2.5,2.5 0 1 1 143.9,68.323A2.5,2.5 0 1 1 148.9,68.323Z" style="fill:none;stroke:#F15A60;stroke-width:0.5" />
<path d="M151.17,70.443A2.5,2.5 0 1 1 146.17,70.443A2.5,2.5 0 1 1 151.17,70.443Z" style="fill:none;stroke:#F15A60;stroke-width:0.5" />
<path d="M153.43,72.66A2.5,2.5 0 1 1 148.43,72.66A2.5,2.5 0 1 1 153.43,72.66Z" style="fill:none;stroke:#F15A60;stroke-width:0.5" />
<path d="M155.7,74.603A2.5,2.5 0 1 1 150.7,74.603A2.5,2.5 0 1 1 155.7,74.603Z" style="fill:none;stroke:#F15A60;stroke-width:0.5" />
<path d="M157.96,76.812A2.5,2.5 0 1 1 152.96,76.812A2.5,2.5 0 1 1 157.96,76.812Z" style="fill:none;stroke:#F15A60;stroke-width:0.5" />
<path d="M160.23,78.71A2.5,2.5 0 1 1 155.23,78.71A2.5,2.5 0 1 1 160.23,78.71Z" style="fill:none;stroke:#F15A60;stroke-width:0.5" />
<path d="M162.49,80.912A2.5,2.5 0 1 1 157.49,80.912A2.5,2.5 0 1 1 162.49,80.912Z" style="fill:none;stroke:#F15A60;stroke-width:0.5" />
<path d="M164.76,83.203A2.5,2.5 0 1 1 159.76,83.203A2.5,2.5 0 1 1 164.76,83.203Z" style="fill:none;stroke:#F15A60;stroke-width:0.5" />
<path d="M167.02,84.878A2.5,2.5 0 1 1 162.02,84.878A2.5,2.5 0 1 1 167.02,84.878Z" style="fill:none;stroke:#F15A60;stroke-width:0.5" />
<path d="M169.29,86.621A2.5,2.5 0 1 1 164.29,86.621A2.5,2.5 0 1 1 169.29,86.621Z" style="fill:none;stroke:#F15A60;stroke-width:0.5" />
<path d="M171.55,88.889A2.5,2.5 0 1 1 166.55,88.889A2.5,2.5 0 1 1 171.55,88.889Z" style="fill:none;stroke:#F15A60;stroke-width:0.5" />
<path d="M173.82,91.054A2.5,2.5 0 1 1 168.82,91.054A2.5,2.5 0 1 1 173.82,91.054Z" style="fill:none;stroke:#F15A60;stroke-width:0.5" />
<path d="M176.08,93.026A2.5,2.5 0 1 1 171.08,93.026A2.5,2.5 0 1 1 176.08,93.026Z" style="fill:none;stroke:#F15A60;stroke-width:0.5" />
<path d="M178.35,95.621A2.5,2.5 0 1 1 173.35,95.621A2.5,2.5 0 1 1 178.35,95.621Z" style="fill:none;stroke:#F15A60;stroke-width:0.5" />
<path d="M180.61,97.712A2.5,2.5 0 1 1 175.61,97.712A2.5,2.5 0 1 1 180.61,97.712Z" style="fill:none;stroke:#F15A60;stroke-width:0.5" />
<path d="M182.88,99.988A2.5,2.5 0 1 1 177.88,99.988A2.5,2.5 0 1 1 182.88,99.988Z" style="fill:none;stroke:#F15A60;stroke-width:0.5" />
<path d="M185.14,102.27A2.5,2.5 0 1 1 180.14,102.27A2.5,2.5 0 1 1 185.14,102.27Z" style="fill:none;stroke:#F15A60;stroke-width:0.5" />
<path d="M187.4,104.33A2.5,2.5 0 1 1 182.4,104.33A2.5,2.5 0 1 1 187.4,104.33Z" style="fill:none;stroke:#F15A60;stroke-width:0.5" />
<path d="M189.67,105.74A2.5,2.5 0 1 1 184.67,105.74A2.5,2.5 0 1 1 189.67,105.74Z" style="fill:none;stroke:#F15A60;stroke-width:0.5" />
<path d="M191.93,108.49A2.5,2.5 0 1 1 186.93,108.49A2.5,2.5 0 1 1 191.93,108.49Z" style="fill:none;stroke:#F15A60;stroke-width:0.5" />
<path d="M194.2,110.86A2.5,2.5 0 1 1 189.2,110.86A2.5,2.5 0 1 1 194.2,110.86Z" style="fill:none;stroke:#F15A60;stroke-width:0.5" />
<path d="M196.46,113.22A2.5,2.5 0 1 1 191.46,113.22A2.5,2.5 0 1 1 196.46,113.22Z" style="fill:none;stroke:#F15A60;stroke-width:0.5" />
<path d="M198.73,115.74A2.5,2.5 0 1 1 193.73,115.74A2.5,2.5 0 1 1 198.73,115.74Z" style="fill:none;stroke:#F15A60;stroke-width:0.5" />
<path d="M200.99,117.83A2.5,2.5 0 1 1 195.99,117.83A2.5,2.5 0 1 1 200.99,117.83Z" style="fill:none;stroke:#F15A60;stroke-width:0.5" />
<path d="M203.26,120.34A2.5,2.5 0 1 1 198.26,120.34A2.5,2.5 0 1 1 203.26,120.34Z" style="fill:none;stroke:#F15A60;stroke-width:0.5" />
<path d="M205.52,122.5A2.5,2.5 0 1 1 200.52,122.5A2.5,2.5 0 1 1 205.52,122.5Z" style="fill:none;stroke:#F15A60;stroke-width:0.5" />
<path d="M207.79,123.68A2.5,2.5 0 1 1 202.79,123.68A2.5,2.5 0 1 1 207.79,123.68Z" style="fill:none;stroke:#F15A60;stroke-width:0.5" />
<path d="M210.05,125.95A2.5,2.5 0 1 1 205.05,125.95A2.5,2.5 0 1 1 210.05,125.95Z" style="fill:none;stroke:#F15A60;stroke-width:0.5" />
<path d="M212.32,128.58A2.5,2.5 0 1 1 207.32,128.58A2.5,2.5 0 1 1 212.32,128.58Z" style="fill:none;stroke:#F15A60;stroke-width:0.5" />
<path d="M214.58,130.99A2.5,2.5 0 1 1 209.58,130.99A2.5,2.5 0 1 1 214.58,130.99Z" style="fill:none;stroke:#F15A60;stroke-width:0.5" />
<path d="M216.85,133.49A2.5,2.5 0 1 1 211.85,133.49A2.5,2.5 0 1 1 216.85,133.49Z" style="fill:none;stroke:#F15A60;stroke-width:0.5" />
<path d="M219.11,136.09A2.5,2.5 0 1 1 214.11,136.09A2.5,2.5 0 1 1 219.11,136.09Z" style="fill:none;stroke:#F15A60;stroke-width:0.5" />
<path d="M221.38,138.48A2.5,2.5 0 1 1 216.38,138.48A2.5,2.5 0 1 1 221.38,138.48Z" style="fill:none;stroke:#F15A60;stroke-width:0.5" />
<path d="M223.64,141.03A2.5,2.5 0 1 1 218.64,141.03A2.5,2.5 0 1 1 223.64,141.03Z" style="fill:none;stroke:#F15A60;stroke-width:0.5" />
<path d="M225.91,142.55A2.5,2.5 0 1 1 220.91,142.55A2.5,2.5 0 1 1 225.91,142.55Z" style="fill:none;stroke:#F15A60;stroke-width:0.5" />
<path d="M228.17,144.92A2.5,2.5 0 1 1 223.17,144.92A2.5,2.5 0 1 1 228.17,144.92Z" style="fill:none;stroke:#F15A60;stroke-width:0.5" />
<path d="M230.44,147.61A2.5,2.5 0 1 1 225.44,147.61A2.5,2.5 0 1 1 230.44,147.61Z" style="fill:none;stroke:#F15A60;stroke-width:0.5" />
<path d="M232.7,150.61A2.5,2.5 0 1 1 227.7,150.61A2.5,2.5 0 1 1 232.7,150.61Z" style="fill:none;stroke:#F15A60;stroke-width:0.5" />
<path d="M234.96,152.66A2.5,2.5 0 1 1 229.96,152.66A2.5,2.5 0 1 1 234.96,152.66Z" style="fill:none;stroke:#F15A60;stroke-width:0.5" />
<path d="M237.23,155.04A2.5,2.5 0 1 1 232.23,155.04A2.5,2.5 0 1 1 237.23,155.04Z" style="fill:none;stroke:#F15A60;stroke-width:0.5" />
<path d="M239.49,158.06A2.5,2.5 0 1 1 234.49,158.06A2.5,2.5 0 1 1 239.49,158.06Z" style="fill:none;stroke:#F15A60;stroke-width:0.5" />
<path d="M241.76,161.08A2.5,2.5 0 1 1 236.76,161.08A2.5,2.5 0 1 1 241.76,161.08Z" style="fill:none;stroke:#F15A60;stroke-width:0.5" />
<path d="M244.02,162.43A2.5,2.5 0 1 1 239.02,162.43A2.5,2.5 0 1 1 244.02,162.43Z" style="fill:none;stroke:#F15A60;stroke-width:0.5" />
<path d="M246.29,164.33A2.5,2.5 0 1 1 241.29,164.33A2.5,2.5 0 1 1 246.29,164.33Z" style="fill:none;stroke:#F15A60;stroke-width:0.5" />
<path d="M248.55,167.16A2.5,2.5 0 1 1 243.55,167.16A2.5,2.5 0 1 1 248.55,167.16Z" style="fill:none;stroke:#F15A60;stroke-width:0.5" />
<path d="M250.82,169.98A2.5,2.5 0 1 1 245.82,169.98A2.5,2.5 0 1 1 250.82,169.98Z" style="fill:none;stroke:#F15A60;stroke-width:0.5" />
<path d="M253.08,172.43A2.5,2.5 0 1 1 248.08,172.43A2.5,2.5 0 1 1 253.08,172.43Z" style="fill:none;stroke:#F15A60;stroke-width:0.5" />
<path d="M255.35,174.71A2.5,2.5 0 1 1 250.35,174.71A2.5,2.5 0 1 1 255.35,174.71Z" style="fill:none;stroke:#F15A60;stroke-width:0.5" />
<path d="M257.61,178.06A2.5,2.5 0 1 1 252.61,178.06A2.5,2.5 0 1 1 257.61,178.06Z" style="fill:none;stroke:#F15A60;stroke-width:0.5" />
<path d="M259.88,180.25A2.5,2.5 0 1 1 254.88,180.25A2.5,2.5 0 1 1 259.88,180.25Z" style="fill:none;stroke:#F15A60;stroke-width:0.5" />
<path d="M262.14,182.3A2.5,2.5 0 1 1 257.14,182.3A2.5,2.5 0 1 1 262.14,182.3Z" style="fill:none;stroke:#F15A60;stroke-width:0.5" />
<path d="M264.41,184.32A2.5,2.5 0 1 1 259.41,184.32A2.5,2.5 0 1 1 264.41,184.32Z" style="fill:none;stroke:#F15A60;stroke-width:0.5" />
<path d="M266.67,187.23A2.5,2.5 0 1 1 261.67,187.23A2.5,2.5 0 1 1 266.67,187.23Z" style="fill:none;stroke:#F15A60;stroke-width:0.5" />
<path d="M268.94,190.36A2.5,2.5 0 1 1 263.94,190.36A2.5,2.5 0 1 1 268.94,190.36Z" style="fill:none;stroke:#F15A60;stroke-width:0.5" />
<path d="M271.2,192.39A2.5,2.5 0 1 1 266.2,192.39A2.5,2.5 0 1 1 271.2,192.39Z" style="fill:none;stroke:#F15A60;stroke-width:0.5" />
<path d="M273.47,195.91A2.5,2.5 0 1 1 268.47,195.91A2.5,2.5 0 1 1 273.47,195.91Z" style="fill:none;stroke:#F15A60;stroke-width:0.5" />
<path d="M275.73,198.61A2.5,2.5 0 1 1 270.73,198.61A2.5,2.5 0 1 1 275.73,198.61Z" style="fill:none;stroke:#F15A60;stroke-width:0.5" />
<path d="M278,201.11A2.5,2.5 0 1 1 273,201.11A2.5,2.5 0 1 1 278,201.11Z" style="fill:none;stroke:#F15A60;stroke-width:0.5" />
<path d="M280.26,203.89A2.5,2.5 0 1 1 275.26,203.89A2.5,2.5 0 1 1 280.26,203.89Z" style="fill:none;stroke:#F15A60;stroke-width:0.5" />
<path d="M282.53,205.63A2.5,2.5 0 1 1 277.53,205.63A2.5,2.5 0 1 1 282.53,205.63Z" style="fill:none;stroke:#F15A60;stroke-width:0.5" />
<path d="M284.79,208.61A2.5,2.5 0 1 1 279.79,208.61A2.5,2.5 0 1 1 284.79,208.61Z" style="fill:none;stroke:#F15A60;stroke-width:0.5" />
<path d="M287.05,211.5A2.5,2.5 0 1 1 282.05,211.5A2.5,2.5 0 1 1 287.05,211.5Z" style="fill:none;stroke:#F15A60;stroke-width:0.5" />
<path d="M289.32,213.6A2.5,2.5 0 1 1 284.32,213.6A2.5,2.5 0 1 1 289.32,213.6Z" style="fill:none;stroke:#F15A60;stroke-width:0.5" />
<path d="M291.58,216.13A2.5,2.5 0 1 1 286.58,216.13A2.5,2.5 0 1 1 291.58,216.13Z" style="fill:none;stroke:#F15A60;stroke-width:0.5" />
<path d="M293.85,219.03A2.5,2.5 0 1 1 288.85,219.03A2.5,2.5 0 1 1 293.85,219.03Z" style="fill:none;stroke:#F15A60;stroke-width:0.5" />
<path d="M296.11,221.97A2.5,2.5 0 1 1 291.11,221.97A2.5,2.5 0 1 1 296.11,221.97Z" style="fill:none;stroke:#F15A60;stroke-width:0.5" />
<path d="M298.38,225.47A2.5,2.5 0 1 1 293.38,225.47A2.5,2.5 0 1 1 298.38,225.47Z" style="fill:none;stroke:#F15A60;stroke-width:0.5" />
<path d="M300.64,228.19A2.5,2.5 0 1 1 295.64,228.19A2.5,2.5 0 1 1 300.64,228.19Z" style="fill:none;stroke:#F15A60;stroke-width:0.5" />
<path d="M302.91,229.62A2.5,2.5 0 1 1 297.91,229.62A2.5,2.5 0 1 1 302.91,229.62Z" style="fill:none;stroke:#F15A60;stroke-width:0.5" />
<path d="M305.17,233.69A2.5,2.5 0 1 1 300.17,233.69A2.5,2.5 0 1 1 305.17,233.69Z" style="fill:none;stroke:#F15A60;stroke-width:0.5" />
<path d="M307.44,235.94A2.5,2.5 0 1 1 302.44,235.94A2.5,2.5 0 1 1 307.44,235.94Z" style="fill:none;stroke:#F15A60;stroke-width:0.5" />
<path d="M309.7,239.34A2.5,2.5 0 1 1 304.7,239.34A2.5,2.5 0 1 1 309.7,239.34Z" style="fill:none;stroke:#F15A60;stroke-width:0.5" />
<path d="M311.97,242.59A2.5,2.5 0 1 1 306.97,242.59A2.5,2.5 0 1 1 311.97,242.59Z" style="fill:none;stroke:#F15A60;stroke-width:0.5" />
<path d="M314.23,245.66A2.5,2.5 0 1 1 309.23,245.66A2.5,2.5 0 1 1 314.23,245.66Z" style="fill:none;stroke:#F15A60;stroke-width:0.5" />
<path d="M316.5,248.81A2.5,2.5 0 1 1 311.5,248.81A2.5,2.5 0 1 1 316.5,248.81Z" style="fill:none;stroke:#F15A60;stroke-width:0.5" />
<path d="M318.76,251.12A2.5,2.5 0 1 1 313.76,251.12A2.5,2.5 0 1 1 318.76,251.12Z" style="fill:none;stroke:#F15A60;stroke-width:0.5" />
<path d="M321.03,252.95A2.5,2.5 0 1 1 316.03,252.95A2.5,2.5 0 1 1 321.03,252.95Z" style="fill:none;stroke:#F15A60;stroke-width:0.5" />
<path d="M323.29,254.9A2.5,2.5 0 1 1 318.29,254.9A2.5,2.5 0 1 1 323.29,254.9Z" style="fill:none;stroke:#F15A60;stroke-width:0.5" />
<path d="M325.56,258.21A2.5,2.5 0 1 1 320.56,258.21A2.5,2.5 0 1 1 325.56,258.21Z" style="fill:none;stroke:#F15A60;stroke-width:0.5" />
<path d="M327.82,261.8A2.5,2.5 0 1 1 322.82,261.8A2.5,2.5 0 1 1 327.82,261.8Z" style="fill:none;stroke:#F15A60;stroke-width:0.5" />
<path d="M330.09,266.58A2.5,2.5 0 1 1 325.09,266.58A2.5,2.5 0 1 1 330.09,266.58Z" style="fill:none;stroke:#F15A60;stroke-width:0.5" />
<path d="M332.35,270.37A2.5,2.5 0 1 1 327.35,270.37A2.5,2.5 0 1 1 332.35,270.37Z" style="fill:none;stroke:#F15A60;stroke-width:0.5" />
<path d="M334.61,274.83A2.5,2.5 0 1 1 329.61,274.83A2.5,2.5 0 1 1 334.61,274.83Z" style="fill:none;stroke:#F15A60;stroke-width:0.5" />
<path d="M336.88,279.39A2.5,2.5 0 1 1 331.88,279.39A2.5,2.5 0 1 1 336.88,279.39Z" style="fill:none;stroke:#F15A60;stroke-width:0.5" />
<path d="M339.14,282.87A2.5,2.5 0 1 1 334.14,282.87A2.5,2.5 0 1 1 339.14,282.87Z" style="fill:none;stroke:#F15A60;stroke-width:0.5" />
<path d="M341.41,286.08A2.5,2.5 0 1 1 336.41,286.08A2.5,2.5 0 1 1 341.41,286.08Z" style="fill:none;stroke:#F15A60;stroke-width:0.5" />
<path d="M343.67,288.46A2.5,2.5 0 1 1 338.67,288.46A2.5,2.5 0 1 1 343.67,288.46Z" style="fill:none;stroke:#F15A60;stroke-width:0.5" />
<path d="M345.94,291.08A2.5,2.5 0 1 1 340.94,291.08A2.5,2.5 0 1 1 345.94,291.08Z" style="fill:none;stroke:#F15A60;stroke-width:0.5" />
<path d="M348.2,294.87A2.5,2.5 0 1 1 343.2,294.87A2.5,2.5 0 1 1 348.2,294.87Z" style="fill:none;stroke:#F15A60;stroke-width:0.5" />
<path d="M350.47,298.38A2.5,2.5 0 1 1 345.47,298.38A2.5,2.5 0 1 1 350.47,298.38Z" style="fill:none;stroke:#F15A60;stroke-width:0.5" />
<path d="M352.73,302.97A2.5,2.5 0 1 1 347.73,302.97A2.5,2.5 0 1 1 352.73,302.97Z" style="fill:none;stroke:#F15A60;stroke-width:0.5" />
<path d="M355,306.15A2.5,2.5 0 1 1 350,306.15A2.5,2.5 0 1 1 355,306.15Z" style="fill:none;stroke:#F15A60;stroke-width:0.5" />
<path d="M357.26,310.61A2.5,2.5 0 1 1 352.26,310.61A2.5,2.5 0 1 1 357.26,310.61Z" style="fill:none;stroke:#F15A60;stroke-width:0.5" />
<path d="M359.53,314.95A2.5,2.5 0 1 1 354.53,314.95A2.5,2.5 0 1 1 359.53,314.95Z" style="fill:none;stroke:#F15A60;stroke-width:0.5" />
<path d="M361.79,319.38A2.5,2.5 0 1 1 356.79,319.38A2.5,2.5 0 1 1 361.79,319.38Z" style="fill:none;stroke:#F15A60;stroke-width:0.5" />
<path d="M364.06,322.87A2.5,2.5 0 1 1 359.06,322.87A2.5,2.5 0 1 1 364.06,322.87Z" style="fill:none;stroke:#F15A60;stroke-width:0.5" />
<path d="M366.32,324.45A2.5,2.5 0 1 1 361.32,324.45A2.5,2.5 0 1 1 366.32,324.45Z" style="fill:none;stroke:#F15A60;stroke-width:0.5" />
<path d="M368.59,328.48A2.5,2.5 0 1 1 363.59,328.48A2.5,2.5 0 1 1 368.59,328.48Z" style="fill:none;stroke:#F15A60;stroke-width:0.5" />
<path d="M370.85,332.04A2.5,2.5 0 1 1 365.85,332.04A2.5,2.5 0 1 1 370.85,332.04Z" style="fill:none;stroke:#F15A60;stroke-width:0.5" />
<path d="M373.12,336.94A2.5,2.5 0 1 1 368.12,336.94A2.5,2.5 0 1 1 373.12,336.94Z" style="fill:none;stroke:#F15A60;stroke-width:0.5" />
<path d="M375.38,340A2.5,2.5 0 1 1 370.38,340A2.5,2.5 0 1 1 375.38,340Z" style="fill:none;stroke:#F15A60;stroke-width:0.5" />
<path d="M377.65,345.76A2.5,2.5 0 1 1 372.65,345.76A2.5,2.5 0 1 1 377.65,345.76Z" style="fill:none;stroke:#F15A60;stroke-width:0.5" />
<path d="M379.91,349.19A2.5,2.5 0 1 1 374.91,349.19A2.5,2.5 0 1 1 379.91,349.19Z" style="fill:none;stroke:#F15A60;stroke-width:0.5" />
<path d="M382.18,354.69A2.5,2.5 0 1 1 377.18,354.69A2.5,2.5 0 1 1 382.18,354.69Z" style="fill:none;stroke:#F15A60;stroke-width:0.5" />
<path d="M384.44,359.4A2.5,2.5 0 1 1 379.44,359.4A2.5,2.5 0 1 1 384.44,359.4Z" style="fill:none;stroke:#F15A60;stroke-width:0.5" />
<path d="M386.7,364.46A2.5,2.5 0 1 1 381.7,364.46A2.5,2.5 0 1 1 386.7,364.46Z" style="fill:none;stroke:#F15A60;stroke-width:0.5" />
<path d="M388.97,367.05A2.5,2.5 0 1 1 383.97,367.05A2.5,2.5 0 1 1 388.97,367.05Z" style="fill:none;stroke:#F15A60;stroke-width:0.5" />
<path d="M391.23,370.09A2.5,2.5 0 1 1 386.23,370.09A2.5,2.5 0 1 1 391.23,370.09Z" style="fill:none;stroke:#F15A60;stroke-width:0.5" />
<path d="M393.5,375.67A2.5,2.5 0 1 1 388.5,375.67A2.5,2.5 0 1 1 393.5,375.67Z" style="fill:none;stroke:#F15A60;stroke-width:0.5" />
<path d="M395.76,378.08A2.5,2.5 0 1 1 390.76,378.08A2.5,2.5 0 1 1 395.76,378.08Z" style="fill:none;stroke:#F15A60;stroke-width:0.5" />
<path d="M398.03,386.11A2.5,2.5 0 1 1 393.03,386.11A2.5,2.5 0 1 1 398.03,386.11Z" style="fill:none;stroke:#F15A60;stroke-width:0.5" />
<path d="M400.29,390.05A2.5,2.5 0 1 1 395.29,390.05A2.5,2.5 0 1 1 400.29,390.05Z" style="fill:none;stroke:#F15A60;stroke-width:0.5" />
<path d="M402.56,395.02A2.5,2.5 0 1 1 397.56,395.02A2.5,2.5 0 1 1 402.56,395.02Z" style="fill:none;stroke:#F15A60;stroke-width:0.5" />
<path d="M404.82,399.19A2.5,2.5 0 1 1 399.82,399.19A2.5,2.5 0 1 1 404.82,399.19Z" style="fill:none;stroke:#F15A60;stroke-width:0.5" />
<path d="M407.09,403.05A2.5,2.5 0 1 1 402.09,403.05A2.5,2.5 0 1 1 407.09,403.05Z" style="fill:none;stroke:#F15A60;stroke-width:0.5" />
<path d="M409.35,405.99A2.5,2.5 0 1 1 404.35,405.99A2.5,2.5 0 1 1 409.35,405.99Z" style="fill:none;stroke:#F15A60;stroke-width:0.5" />
<path d="M411.62,407.95A2.5,2.5 0 1 1 406.62,407.95A2.5,2.5 0 1 1 411.62,407.95Z" style="fill:none;stroke:#F15A60;stroke-width:0.5" />
<path d="M413.88,409.27A2.5,2.5 0 1 1 408.88,409.27A2.5,2.5 0 1 1 413.88,409.27Z" style="fill:none;stroke:#F15A60;stroke-width:0.5" />
<path d="M416.15,409.93A2.5,2.5 0 1 1 411.15,409.93A2.5,2.5 0 1 1 416.15,409.93Z" style="fill:none;stroke:#F15A60;stroke-width:0.5" />
<path d="M418.41,410.51A2.5,2.5 0 1 1 413.41,410.51A2.5,2.5 0 1 1 418.41,410.51Z" style="fill:none;stroke:#F15A60;stroke-width:0.5" />
<path d="M420.68,411.03A2.5,2.5 0 1 1 415.68,411.03A2.5,2.5 0 1 1 420.68,411.03Z" style="fill:none;stroke:#F15A60;stroke-width:0.5" />
<path d="M422.94,411.4A2.5,2.5 0 1 1 417.94,411.4A2.5,2.5 0 1 1 422.94,411.4Z" style="fill:none;stroke:#F15A60;stroke-width:0.5" />
<path d="M425.21,411.57A2.5,2.5 0 1 1 420.21,411.57A2.5,2.5 0 1 1 425.21,411.57Z" style="fill:none;stroke:#F15A60;stroke-width:0.5" />
<path d="M427.47,411.6A2.5,2.5 0 1 1 422.47,411.6A2.5,2.5 0 1 1 427.47,411.6Z" style="fill:none;stroke:#F15A60;stroke-width:0.5" />
<path d="M429.74,411.65A2.5,2.5 0 1 1 424.74,411.65A2.5,2.5 0 1 1 429.74,411.65Z" style="fill:none;stroke:#F15A60;stroke-width:0.5" />
<path d="M432,411.68A2.5,2.5 0 1 1 427,411.68A2.5,2.5 0 1 1 432,411.68Z" style="fill:none;stroke:#F15A60;stroke-width:0.5" />
<path d="M412,44.369L432,44.369" style="fill:none;stroke:#F15A60" />
<path d="M424.5,44.369A2.5,2.5 0 1 1 419.5,44.369A2.5,2.5 0 1 1 424.5,44.369Z" style="fill:none;stroke:#F15A60;stroke-width:0.5" />
<text x="365.67" y="-38.703" transform="scale(1, -1)"
	style="font-family:Times;font-weight:normal;font-style:normal;font-size:12px">yunikorn</text>
</g>
</svg>
