<?xml version="1.0"?>
<!-- Generated by SVGo and Plotinum VG -->
<svg width="432pt" height="432pt" viewBox="0 0 432 432"
	xmlns="http://www.w3.org/2000/svg"
	xmlns:xlink="http://www.w3.org/1999/xlink">
<g transform="scale(1, -1) translate(0, -432)">
<path d="M0,0L432,0L432,432L0,432Z" style="fill:#FFFFFF" />
<text x="159.28" y="-420.45" transform="scale(1, -1)"
	style="font-family:Times;font-weight:normal;font-style:normal;font-size:12px">Scheduling Throughput</text>
<text x="230.58" y="-3.8613" transform="scale(1, -1)"
	style="font-family:Times;font-weight:normal;font-style:normal;font-size:12px">Seconds</text>
<text x="62.916" y="-15.602" transform="scale(1, -1)"
	style="font-family:Times;font-weight:normal;font-style:normal;font-size:10px">0.00</text>
<text x="401.99" y="-15.602" transform="scale(1, -1)"
	style="font-family:Times;font-weight:normal;font-style:normal;font-size:10px">250.00</text>
<path d="M71.666,25.23L71.666,33.23" style="fill:none;stroke:#000000;stroke-width:0.5" />
<path d="M415.74,25.23L415.74,33.23" style="fill:none;stroke:#000000;stroke-width:0.5" />
<path d="M140.48,29.23L140.48,33.23" style="fill:none;stroke:#000000;stroke-width:0.5" />
<path d="M209.29,29.23L209.29,33.23" style="fill:none;stroke:#000000;stroke-width:0.5" />
<path d="M278.11,29.23L278.11,33.23" style="fill:none;stroke:#000000;stroke-width:0.5" />
<path d="M346.92,29.23L346.92,33.23" style="fill:none;stroke:#000000;stroke-width:0.5" />
<path d="M71.666,33.23L429.5,33.23" style="fill:none;stroke:#000000;stroke-width:0.5" />
<g transform="rotate(90)">
<text x="187" y="11.555" transform="scale(1, -1)"
	style="font-family:Times;font-weight:normal;font-style:normal;font-size:12px">Number of Pods</text>
</g>
<text x="35.416" y="-36.259" transform="scale(1, -1)"
	style="font-family:Times;font-weight:normal;font-style:normal;font-size:10px">0.00</text>
<text x="15.416" y="-221.61" transform="scale(1, -1)"
	style="font-family:Times;font-weight:normal;font-style:normal;font-size:10px">25000.00</text>
<text x="15.416" y="-406.96" transform="scale(1, -1)"
	style="font-family:Times;font-weight:normal;font-style:normal;font-size:10px">50000.00</text>
<path d="M55.416,40.98L63.416,40.98" style="fill:none;stroke:#000000;stroke-width:0.5" />
<path d="M55.416,226.33L63.416,226.33" style="fill:none;stroke:#000000;stroke-width:0.5" />
<path d="M55.416,411.68L63.416,411.68" style="fill:none;stroke:#000000;stroke-width:0.5" />
<path d="M59.416,78.05L63.416,78.05" style="fill:none;stroke:#000000;stroke-width:0.5" />
<path d="M59.416,115.12L63.416,115.12" style="fill:none;stroke:#000000;stroke-width:0.5" />
<path d="M59.416,152.19L63.416,152.19" style="fill:none;stroke:#000000;stroke-width:0.5" />
<path d="M59.416,189.26L63.416,189.26" style="fill:none;stroke:#000000;stroke-width:0.5" />
<path d="M59.416,263.4L63.416,263.4" style="fill:none;stroke:#000000;stroke-width:0.5" />
<path d="M59.416,300.47L63.416,300.47" style="fill:none;stroke:#000000;stroke-width:0.5" />
<path d="M59.416,337.54L63.416,337.54" style="fill:none;stroke:#000000;stroke-width:0.5" />
<path d="M59.416,374.61L63.416,374.61" style="fill:none;stroke:#000000;stroke-width:0.5" />
<path d="M63.416,40.98L63.416,411.68" style="fill:none;stroke:#000000;stroke-width:0.5" />
<path d="M71.666,40.98L73.042,40.98L74.419,40.98L75.795,40.98L77.171,40.98L78.547,40.98L79.924,40.98L81.3,40.98L82.676,40.98L84.053,40.98L85.429,40.98L86.805,40.98L88.181,40.98L89.558,40.98L90.934,40.98L92.31,40.98L93.687,40.98L95.063,40.98L96.439,41.136L97.815,43.583L99.192,45.629L100.57,46.926L101.94,48.276L103.32,49.618L104.7,50.923L106.07,52.168L107.45,53.354L108.83,54.644L110.2,55.905L111.58,57.269L112.95,58.692L114.33,60.086L115.71,61.428L117.08,62.829L118.46,64.067L119.84,65.172L121.21,66.499L122.59,67.685L123.96,69.02L125.34,70.273L126.72,71.518L128.09,72.927L129.47,74.158L130.85,75.663L132.22,76.716L133.6,77.939L134.98,79.221L136.35,80.467L137.73,81.802L139.1,83.188L140.48,84.5L141.86,85.761L143.23,86.954L144.61,88.266L145.99,89.519L147.36,89.742L148.74,91.084L150.11,92.529L151.49,93.471L152.87,94.168L154.24,94.294L155.62,94.694L157,95.287L158.37,95.643L159.75,95.873L161.12,97.111L162.5,97.816L163.88,99.009L165.25,99.691L166.63,100.81L168.01,106.82L169.38,111.69L170.76,114.98L172.13,117.13L173.51,119.43L174.89,121.06L176.26,123.36L177.64,124.86L179.02,125.99L180.39,127.31L181.77,128.12L183.15,129.95L184.52,130.41L185.9,131.91L187.27,135.09L188.65,136.51L190.03,137.84L191.4,139.85L192.78,140.65L194.16,142.54L195.53,143.67L196.91,145.48L198.28,147.29L199.66,148.95L201.04,150.28L202.41,151.26L203.79,152.78L205.17,154.2L206.54,155.74L207.92,157.16L209.29,158.68L210.67,159.91L212.05,161.57L213.42,163.01L214.8,164.24L216.18,165.67L217.55,167.14L218.93,168.61L220.3,169.97L221.68,171.42L223.06,172.75L224.43,174.39L225.81,175.71L227.19,177.03L228.56,178.49L229.94,179.94L231.32,181.25L232.69,182.68L234.07,184.21L235.44,185.34L236.82,186.91L238.2,188.54L239.57,189.89L240.95,190.86L242.33,192.37L243.7,193.79L245.08,195.19L246.45,196.66L247.83,198.22L249.21,199.65L250.58,201.27L251.96,202.36L253.34,204.03L254.71,205.44L256.09,206.91L257.46,208.36L258.84,210.18L260.22,211.64L261.59,213.08L262.97,214.55L264.35,216.02L265.72,217.75L267.1,219.24L268.47,220.53L269.85,222.17L271.23,223.57L272.6,225.06L273.98,226.76L275.36,228.55L276.73,229.84L278.11,231.5L279.48,233.1L280.86,234.66L282.24,235.66L283.61,237.26L284.99,238.69L286.37,240.21L287.74,241.76L289.12,243.55L290.5,244.94L291.87,245.93L293.25,247.44L294.62,248.93L296,250.65L297.38,251.94L298.75,253.37L300.13,255.15L301.51,256.63L302.88,258.05L304.26,259.87L305.63,261.26L307.01,263.09L308.39,264.27L309.76,265.79L311.14,267.56L312.52,269.14L313.89,270.29L315.27,272.17L316.64,273.87L318.02,275.16L319.4,277L320.77,278.61L322.15,280.21L323.53,281.6L324.9,283L326.28,284.53L327.65,286.33L329.03,287.74L330.41,289.37L331.78,291.06L333.16,292.76L334.54,294.22L335.91,295.73L337.29,297.95L338.67,299.53L340.04,300.88L341.42,302.56L342.79,304.12L344.17,306.01L345.55,307.71L346.92,309.49L348.3,311.17L349.68,312.7L351.05,314.54L352.43,316.27L353.8,317.82L355.18,319.58L356.56,321.06L357.93,322.6L359.31,324.27L360.69,326.05L362.06,327.86L363.44,329.58L364.81,331.16L366.19,333.07L367.57,334.81L368.94,336.45L370.32,338.27L371.7,339.72L373.07,341.46L374.45,343.11L375.82,345L377.2,346.72L378.58,348.63L379.95,350.17L381.33,352.03L382.71,353.88L384.08,355.52L385.46,357.04L386.84,359.51L388.21,361L389.59,362.46L390.96,364.09L392.34,366.02L393.72,367.88L395.09,369.51L396.47,371.44L397.85,373.45L399.22,375.09L400.6,376.76L401.97,378.83L403.35,380.6L404.73,381.68L406.1,383.54L407.48,385.52L408.86,387.3L410.23,389.16L411.61,390.95L412.98,392.81L414.36,394.5L415.74,396.41L417.11,398.25L418.49,400.19L419.87,401.08L421.24,403.14L422.62,404.9L423.99,406.86L425.37,408.51L426.75,410.18L428.12,411.66L429.5,411.68" style="fill:none;stroke:#F15A60" />
<path d="M74.166,40.98A2.5,2.5 0 1 1 69.166,40.98A2.5,2.5 0 1 1 74.166,40.98Z" style="fill:none;stroke:#F15A60;stroke-width:0.5" />
<path d="M75.542,40.98A2.5,2.5 0 1 1 70.542,40.98A2.5,2.5 0 1 1 75.542,40.98Z" style="fill:none;stroke:#F15A60;stroke-width:0.5" />
<path d="M76.919,40.98A2.5,2.5 0 1 1 71.919,40.98A2.5,2.5 0 1 1 76.919,40.98Z" style="fill:none;stroke:#F15A60;stroke-width:0.5" />
<path d="M78.295,40.98A2.5,2.5 0 1 1 73.295,40.98A2.5,2.5 0 1 1 78.295,40.98Z" style="fill:none;stroke:#F15A60;stroke-width:0.5" />
<path d="M79.671,40.98A2.5,2.5 0 1 1 74.671,40.98A2.5,2.5 0 1 1 79.671,40.98Z" style="fill:none;stroke:#F15A60;stroke-width:0.5" />
<path d="M81.047,40.98A2.5,2.5 0 1 1 76.047,40.98A2.5,2.5 0 1 1 81.047,40.98Z" style="fill:none;stroke:#F15A60;stroke-width:0.5" />
<path d="M82.424,40.98A2.5,2.5 0 1 1 77.424,40.98A2.5,2.5 0 1 1 82.424,40.98Z" style="fill:none;stroke:#F15A60;stroke-width:0.5" />
<path d="M83.8,40.98A2.5,2.5 0 1 1 78.8,40.98A2.5,2.5 0 1 1 83.8,40.98Z" style="fill:none;stroke:#F15A60;stroke-width:0.5" />
<path d="M85.176,40.98A2.5,2.5 0 1 1 80.176,40.98A2.5,2.5 0 1 1 85.176,40.98Z" style="fill:none;stroke:#F15A60;stroke-width:0.5" />
<path d="M86.553,40.98A2.5,2.5 0 1 1 81.553,40.98A2.5,2.5 0 1 1 86.553,40.98Z" style="fill:none;stroke:#F15A60;stroke-width:0.5" />
<path d="M87.929,40.98A2.5,2.5 0 1 1 82.929,40.98A2.5,2.5 0 1 1 87.929,40.98Z" style="fill:none;stroke:#F15A60;stroke-width:0.5" />
<path d="M89.305,40.98A2.5,2.5 0 1 1 84.305,40.98A2.5,2.5 0 1 1 89.305,40.98Z" style="fill:none;stroke:#F15A60;stroke-width:0.5" />
<path d="M90.681,40.98A2.5,2.5 0 1 1 85.681,40.98A2.5,2.5 0 1 1 90.681,40.98Z" style="fill:none;stroke:#F15A60;stroke-width:0.5" />
<path d="M92.058,40.98A2.5,2.5 0 1 1 87.058,40.98A2.5,2.5 0 1 1 92.058,40.98Z" style="fill:none;stroke:#F15A60;stroke-width:0.5" />
<path d="M93.434,40.98A2.5,2.5 0 1 1 88.434,40.98A2.5,2.5 0 1 1 93.434,40.98Z" style="fill:none;stroke:#F15A60;stroke-width:0.5" />
<path d="M94.81,40.98A2.5,2.5 0 1 1 89.81,40.98A2.5,2.5 0 1 1 94.81,40.98Z" style="fill:none;stroke:#F15A60;stroke-width:0.5" />
<path d="M96.187,40.98A2.5,2.5 0 1 1 91.187,40.98A2.5,2.5 0 1 1 96.187,40.98Z" style="fill:none;stroke:#F15A60;stroke-width:0.5" />
<path d="M97.563,40.98A2.5,2.5 0 1 1 92.563,40.98A2.5,2.5 0 1 1 97.563,40.98Z" style="fill:none;stroke:#F15A60;stroke-width:0.5" />
<path d="M98.939,41.136A2.5,2.5 0 1 1 93.939,41.136A2.5,2.5 0 1 1 98.939,41.136Z" style="fill:none;stroke:#F15A60;stroke-width:0.5" />
<path d="M100.32,43.583A2.5,2.5 0 1 1 95.315,43.583A2.5,2.5 0 1 1 100.32,43.583Z" style="fill:none;stroke:#F15A60;stroke-width:0.5" />
<path d="M101.69,45.629A2.5,2.5 0 1 1 96.692,45.629A2.5,2.5 0 1 1 101.69,45.629Z" style="fill:none;stroke:#F15A60;stroke-width:0.5" />
<path d="M103.07,46.926A2.5,2.5 0 1 1 98.068,46.926A2.5,2.5 0 1 1 103.07,46.926Z" style="fill:none;stroke:#F15A60;stroke-width:0.5" />
<path d="M104.44,48.276A2.5,2.5 0 1 1 99.444,48.276A2.5,2.5 0 1 1 104.44,48.276Z" style="fill:none;stroke:#F15A60;stroke-width:0.5" />
<path d="M105.82,49.618A2.5,2.5 0 1 1 100.82,49.618A2.5,2.5 0 1 1 105.82,49.618Z" style="fill:none;stroke:#F15A60;stroke-width:0.5" />
<path d="M107.2,50.923A2.5,2.5 0 1 1 102.2,50.923A2.5,2.5 0 1 1 107.2,50.923Z" style="fill:none;stroke:#F15A60;stroke-width:0.5" />
<path d="M108.57,52.168A2.5,2.5 0 1 1 103.57,52.168A2.5,2.5 0 1 1 108.57,52.168Z" style="fill:none;stroke:#F15A60;stroke-width:0.5" />
<path d="M109.95,53.354A2.5,2.5 0 1 1 104.95,53.354A2.5,2.5 0 1 1 109.95,53.354Z" style="fill:none;stroke:#F15A60;stroke-width:0.5" />
<path d="M111.33,54.644A2.5,2.5 0 1 1 106.33,54.644A2.5,2.5 0 1 1 111.33,54.644Z" style="fill:none;stroke:#F15A60;stroke-width:0.5" />
<path d="M112.7,55.905A2.5,2.5 0 1 1 107.7,55.905A2.5,2.5 0 1 1 112.7,55.905Z" style="fill:none;stroke:#F15A60;stroke-width:0.5" />
<path d="M114.08,57.269A2.5,2.5 0 1 1 109.08,57.269A2.5,2.5 0 1 1 114.08,57.269Z" style="fill:none;stroke:#F15A60;stroke-width:0.5" />
<path d="M115.45,58.692A2.5,2.5 0 1 1 110.45,58.692A2.5,2.5 0 1 1 115.45,58.692Z" style="fill:none;stroke:#F15A60;stroke-width:0.5" />
<path d="M116.83,60.086A2.5,2.5 0 1 1 111.83,60.086A2.5,2.5 0 1 1 116.83,60.086Z" style="fill:none;stroke:#F15A60;stroke-width:0.5" />
<path d="M118.21,61.428A2.5,2.5 0 1 1 113.21,61.428A2.5,2.5 0 1 1 118.21,61.428Z" style="fill:none;stroke:#F15A60;stroke-width:0.5" />
<path d="M119.58,62.829A2.5,2.5 0 1 1 114.58,62.829A2.5,2.5 0 1 1 119.58,62.829Z" style="fill:none;stroke:#F15A60;stroke-width:0.5" />
<path d="M120.96,64.067A2.5,2.5 0 1 1 115.96,64.067A2.5,2.5 0 1 1 120.96,64.067Z" style="fill:none;stroke:#F15A60;stroke-width:0.5" />
<path d="M122.34,65.172A2.5,2.5 0 1 1 117.34,65.172A2.5,2.5 0 1 1 122.34,65.172Z" style="fill:none;stroke:#F15A60;stroke-width:0.5" />
<path d="M123.71,66.499A2.5,2.5 0 1 1 118.71,66.499A2.5,2.5 0 1 1 123.71,66.499Z" style="fill:none;stroke:#F15A60;stroke-width:0.5" />
<path d="M125.09,67.685A2.5,2.5 0 1 1 120.09,67.685A2.5,2.5 0 1 1 125.09,67.685Z" style="fill:none;stroke:#F15A60;stroke-width:0.5" />
<path d="M126.46,69.02A2.5,2.5 0 1 1 121.46,69.02A2.5,2.5 0 1 1 126.46,69.02Z" style="fill:none;stroke:#F15A60;stroke-width:0.5" />
<path d="M127.84,70.273A2.5,2.5 0 1 1 122.84,70.273A2.5,2.5 0 1 1 127.84,70.273Z" style="fill:none;stroke:#F15A60;stroke-width:0.5" />
<path d="M129.22,71.518A2.5,2.5 0 1 1 124.22,71.518A2.5,2.5 0 1 1 129.22,71.518Z" style="fill:none;stroke:#F15A60;stroke-width:0.5" />
<path d="M130.59,72.927A2.5,2.5 0 1 1 125.59,72.927A2.5,2.5 0 1 1 130.59,72.927Z" style="fill:none;stroke:#F15A60;stroke-width:0.5" />
<path d="M131.97,74.158A2.5,2.5 0 1 1 126.97,74.158A2.5,2.5 0 1 1 131.97,74.158Z" style="fill:none;stroke:#F15A60;stroke-width:0.5" />
<path d="M133.35,75.663A2.5,2.5 0 1 1 128.35,75.663A2.5,2.5 0 1 1 133.35,75.663Z" style="fill:none;stroke:#F15A60;stroke-width:0.5" />
<path d="M134.72,76.716A2.5,2.5 0 1 1 129.72,76.716A2.5,2.5 0 1 1 134.72,76.716Z" style="fill:none;stroke:#F15A60;stroke-width:0.5" />
<path d="M136.1,77.939A2.5,2.5 0 1 1 131.1,77.939A2.5,2.5 0 1 1 136.1,77.939Z" style="fill:none;stroke:#F15A60;stroke-width:0.5" />
<path d="M137.48,79.221A2.5,2.5 0 1 1 132.48,79.221A2.5,2.5 0 1 1 137.48,79.221Z" style="fill:none;stroke:#F15A60;stroke-width:0.5" />
<path d="M138.85,80.467A2.5,2.5 0 1 1 133.85,80.467A2.5,2.5 0 1 1 138.85,80.467Z" style="fill:none;stroke:#F15A60;stroke-width:0.5" />
<path d="M140.23,81.802A2.5,2.5 0 1 1 135.23,81.802A2.5,2.5 0 1 1 140.23,81.802Z" style="fill:none;stroke:#F15A60;stroke-width:0.5" />
<path d="M141.6,83.188A2.5,2.5 0 1 1 136.6,83.188A2.5,2.5 0 1 1 141.6,83.188Z" style="fill:none;stroke:#F15A60;stroke-width:0.5" />
<path d="M142.98,84.5A2.5,2.5 0 1 1 137.98,84.5A2.5,2.5 0 1 1 142.98,84.5Z" style="fill:none;stroke:#F15A60;stroke-width:0.5" />
<path d="M144.36,85.761A2.5,2.5 0 1 1 139.36,85.761A2.5,2.5 0 1 1 144.36,85.761Z" style="fill:none;stroke:#F15A60;stroke-width:0.5" />
<path d="M145.73,86.954A2.5,2.5 0 1 1 140.73,86.954A2.5,2.5 0 1 1 145.73,86.954Z" style="fill:none;stroke:#F15A60;stroke-width:0.5" />
<path d="M147.11,88.266A2.5,2.5 0 1 1 142.11,88.266A2.5,2.5 0 1 1 147.11,88.266Z" style="fill:none;stroke:#F15A60;stroke-width:0.5" />
<path d="M148.49,89.519A2.5,2.5 0 1 1 143.49,89.519A2.5,2.5 0 1 1 148.49,89.519Z" style="fill:none;stroke:#F15A60;stroke-width:0.5" />
<path d="M149.86,89.742A2.5,2.5 0 1 1 144.86,89.742A2.5,2.5 0 1 1 149.86,89.742Z" style="fill:none;stroke:#F15A60;stroke-width:0.5" />
<path d="M151.24,91.084A2.5,2.5 0 1 1 146.24,91.084A2.5,2.5 0 1 1 151.24,91.084Z" style="fill:none;stroke:#F15A60;stroke-width:0.5" />
<path d="M152.61,92.529A2.5,2.5 0 1 1 147.61,92.529A2.5,2.5 0 1 1 152.61,92.529Z" style="fill:none;stroke:#F15A60;stroke-width:0.5" />
<path d="M153.99,93.471A2.5,2.5 0 1 1 148.99,93.471A2.5,2.5 0 1 1 153.99,93.471Z" style="fill:none;stroke:#F15A60;stroke-width:0.5" />
<path d="M155.37,94.168A2.5,2.5 0 1 1 150.37,94.168A2.5,2.5 0 1 1 155.37,94.168Z" style="fill:none;stroke:#F15A60;stroke-width:0.5" />
<path d="M156.74,94.294A2.5,2.5 0 1 1 151.74,94.294A2.5,2.5 0 1 1 156.74,94.294Z" style="fill:none;stroke:#F15A60;stroke-width:0.5" />
<path d="M158.12,94.694A2.5,2.5 0 1 1 153.12,94.694A2.5,2.5 0 1 1 158.12,94.694Z" style="fill:none;stroke:#F15A60;stroke-width:0.5" />
<path d="M159.5,95.287A2.5,2.5 0 1 1 154.5,95.287A2.5,2.5 0 1 1 159.5,95.287Z" style="fill:none;stroke:#F15A60;stroke-width:0.5" />
<path d="M160.87,95.643A2.5,2.5 0 1 1 155.87,95.643A2.5,2.5 0 1 1 160.87,95.643Z" style="fill:none;stroke:#F15A60;stroke-width:0.5" />
<path d="M162.25,95.873A2.5,2.5 0 1 1 157.25,95.873A2.5,2.5 0 1 1 162.25,95.873Z" style="fill:none;stroke:#F15A60;stroke-width:0.5" />
<path d="M163.62,97.111A2.5,2.5 0 1 1 158.62,97.111A2.5,2.5 0 1 1 163.62,97.111Z" style="fill:none;stroke:#F15A60;stroke-width:0.5" />
<path d="M165,97.816A2.5,2.5 0 1 1 160,97.816A2.5,2.5 0 1 1 165,97.816Z" style="fill:none;stroke:#F15A60;stroke-width:0.5" />
<path d="M166.38,99.009A2.5,2.5 0 1 1 161.38,99.009A2.5,2.5 0 1 1 166.38,99.009Z" style="fill:none;stroke:#F15A60;stroke-width:0.5" />
<path d="M167.75,99.691A2.5,2.5 0 1 1 162.75,99.691A2.5,2.5 0 1 1 167.75,99.691Z" style="fill:none;stroke:#F15A60;stroke-width:0.5" />
<path d="M169.13,100.81A2.5,2.5 0 1 1 164.13,100.81A2.5,2.5 0 1 1 169.13,100.81Z" style="fill:none;stroke:#F15A60;stroke-width:0.5" />
<path d="M170.51,106.82A2.5,2.5 0 1 1 165.51,106.82A2.5,2.5 0 1 1 170.51,106.82Z" style="fill:none;stroke:#F15A60;stroke-width:0.5" />
<path d="M171.88,111.69A2.5,2.5 0 1 1 166.88,111.69A2.5,2.5 0 1 1 171.88,111.69Z" style="fill:none;stroke:#F15A60;stroke-width:0.5" />
<path d="M173.26,114.98A2.5,2.5 0 1 1 168.26,114.98A2.5,2.5 0 1 1 173.26,114.98Z" style="fill:none;stroke:#F15A60;stroke-width:0.5" />
<path d="M174.63,117.13A2.5,2.5 0 1 1 169.63,117.13A2.5,2.5 0 1 1 174.63,117.13Z" style="fill:none;stroke:#F15A60;stroke-width:0.5" />
<path d="M176.01,119.43A2.5,2.5 0 1 1 171.01,119.43A2.5,2.5 0 1 1 176.01,119.43Z" style="fill:none;stroke:#F15A60;stroke-width:0.5" />
<path d="M177.39,121.06A2.5,2.5 0 1 1 172.39,121.06A2.5,2.5 0 1 1 177.39,121.06Z" style="fill:none;stroke:#F15A60;stroke-width:0.5" />
<path d="M178.76,123.36A2.5,2.5 0 1 1 173.76,123.36A2.5,2.5 0 1 1 178.76,123.36Z" style="fill:none;stroke:#F15A60;stroke-width:0.5" />
<path d="M180.14,124.86A2.5,2.5 0 1 1 175.14,124.86A2.5,2.5 0 1 1 180.14,124.86Z" style="fill:none;stroke:#F15A60;stroke-width:0.5" />
<path d="M181.52,125.99A2.5,2.5 0 1 1 176.52,125.99A2.5,2.5 0 1 1 181.52,125.99Z" style="fill:none;stroke:#F15A60;stroke-width:0.5" />
<path d="M182.89,127.31A2.5,2.5 0 1 1 177.89,127.31A2.5,2.5 0 1 1 182.89,127.31Z" style="fill:none;stroke:#F15A60;stroke-width:0.5" />
<path d="M184.27,128.12A2.5,2.5 0 1 1 179.27,128.12A2.5,2.5 0 1 1 184.27,128.12Z" style="fill:none;stroke:#F15A60;stroke-width:0.5" />
<path d="M185.65,129.95A2.5,2.5 0 1 1 180.65,129.95A2.5,2.5 0 1 1 185.65,129.95Z" style="fill:none;stroke:#F15A60;stroke-width:0.5" />
<path d="M187.02,130.41A2.5,2.5 0 1 1 182.02,130.41A2.5,2.5 0 1 1 187.02,130.41Z" style="fill:none;stroke:#F15A60;stroke-width:0.5" />
<path d="M188.4,131.91A2.5,2.5 0 1 1 183.4,131.91A2.5,2.5 0 1 1 188.4,131.91Z" style="fill:none;stroke:#F15A60;stroke-width:0.5" />
<path d="M189.77,135.09A2.5,2.5 0 1 1 184.77,135.09A2.5,2.5 0 1 1 189.77,135.09Z" style="fill:none;stroke:#F15A60;stroke-width:0.5" />
<path d="M191.15,136.51A2.5,2.5 0 1 1 186.15,136.51A2.5,2.5 0 1 1 191.15,136.51Z" style="fill:none;stroke:#F15A60;stroke-width:0.5" />
<path d="M192.53,137.84A2.5,2.5 0 1 1 187.53,137.84A2.5,2.5 0 1 1 192.53,137.84Z" style="fill:none;stroke:#F15A60;stroke-width:0.5" />
<path d="M193.9,139.85A2.5,2.5 0 1 1 188.9,139.85A2.5,2.5 0 1 1 193.9,139.85Z" style="fill:none;stroke:#F15A60;stroke-width:0.5" />
<path d="M195.28,140.65A2.5,2.5 0 1 1 190.28,140.65A2.5,2.5 0 1 1 195.28,140.65Z" style="fill:none;stroke:#F15A60;stroke-width:0.5" />
<path d="M196.66,142.54A2.5,2.5 0 1 1 191.66,142.54A2.5,2.5 0 1 1 196.66,142.54Z" style="fill:none;stroke:#F15A60;stroke-width:0.5" />
<path d="M198.03,143.67A2.5,2.5 0 1 1 193.03,143.67A2.5,2.5 0 1 1 198.03,143.67Z" style="fill:none;stroke:#F15A60;stroke-width:0.5" />
<path d="M199.41,145.48A2.5,2.5 0 1 1 194.41,145.48A2.5,2.5 0 1 1 199.41,145.48Z" style="fill:none;stroke:#F15A60;stroke-width:0.5" />
<path d="M200.78,147.29A2.5,2.5 0 1 1 195.78,147.29A2.5,2.5 0 1 1 200.78,147.29Z" style="fill:none;stroke:#F15A60;stroke-width:0.5" />
<path d="M202.16,148.95A2.5,2.5 0 1 1 197.16,148.95A2.5,2.5 0 1 1 202.16,148.95Z" style="fill:none;stroke:#F15A60;stroke-width:0.5" />
<path d="M203.54,150.28A2.5,2.5 0 1 1 198.54,150.28A2.5,2.5 0 1 1 203.54,150.28Z" style="fill:none;stroke:#F15A60;stroke-width:0.5" />
<path d="M204.91,151.26A2.5,2.5 0 1 1 199.91,151.26A2.5,2.5 0 1 1 204.91,151.26Z" style="fill:none;stroke:#F15A60;stroke-width:0.5" />
<path d="M206.29,152.78A2.5,2.5 0 1 1 201.29,152.78A2.5,2.5 0 1 1 206.29,152.78Z" style="fill:none;stroke:#F15A60;stroke-width:0.5" />
<path d="M207.67,154.2A2.5,2.5 0 1 1 202.67,154.2A2.5,2.5 0 1 1 207.67,154.2Z" style="fill:none;stroke:#F15A60;stroke-width:0.5" />
<path d="M209.04,155.74A2.5,2.5 0 1 1 204.04,155.74A2.5,2.5 0 1 1 209.04,155.74Z" style="fill:none;stroke:#F15A60;stroke-width:0.5" />
<path d="M210.42,157.16A2.5,2.5 0 1 1 205.42,157.16A2.5,2.5 0 1 1 210.42,157.16Z" style="fill:none;stroke:#F15A60;stroke-width:0.5" />
<path d="M211.79,158.68A2.5,2.5 0 1 1 206.79,158.68A2.5,2.5 0 1 1 211.79,158.68Z" style="fill:none;stroke:#F15A60;stroke-width:0.5" />
<path d="M213.17,159.91A2.5,2.5 0 1 1 208.17,159.91A2.5,2.5 0 1 1 213.17,159.91Z" style="fill:none;stroke:#F15A60;stroke-width:0.5" />
<path d="M214.55,161.57A2.5,2.5 0 1 1 209.55,161.57A2.5,2.5 0 1 1 214.55,161.57Z" style="fill:none;stroke:#F15A60;stroke-width:0.5" />
<path d="M215.92,163.01A2.5,2.5 0 1 1 210.92,163.01A2.5,2.5 0 1 1 215.92,163.01Z" style="fill:none;stroke:#F15A60;stroke-width:0.5" />
<path d="M217.3,164.24A2.5,2.5 0 1 1 212.3,164.24A2.5,2.5 0 1 1 217.3,164.24Z" style="fill:none;stroke:#F15A60;stroke-width:0.5" />
<path d="M218.68,165.67A2.5,2.5 0 1 1 213.68,165.67A2.5,2.5 0 1 1 218.68,165.67Z" style="fill:none;stroke:#F15A60;stroke-width:0.5" />
<path d="M220.05,167.14A2.5,2.5 0 1 1 215.05,167.14A2.5,2.5 0 1 1 220.05,167.14Z" style="fill:none;stroke:#F15A60;stroke-width:0.5" />
<path d="M221.43,168.61A2.5,2.5 0 1 1 216.43,168.61A2.5,2.5 0 1 1 221.43,168.61Z" style="fill:none;stroke:#F15A60;stroke-width:0.5" />
<path d="M222.8,169.97A2.5,2.5 0 1 1 217.8,169.97A2.5,2.5 0 1 1 222.8,169.97Z" style="fill:none;stroke:#F15A60;stroke-width:0.5" />
<path d="M224.18,171.42A2.5,2.5 0 1 1 219.18,171.42A2.5,2.5 0 1 1 224.18,171.42Z" style="fill:none;stroke:#F15A60;stroke-width:0.5" />
<path d="M225.56,172.75A2.5,2.5 0 1 1 220.56,172.75A2.5,2.5 0 1 1 225.56,172.75Z" style="fill:none;stroke:#F15A60;stroke-width:0.5" />
<path d="M226.93,174.39A2.5,2.5 0 1 1 221.93,174.39A2.5,2.5 0 1 1 226.93,174.39Z" style="fill:none;stroke:#F15A60;stroke-width:0.5" />
<path d="M228.31,175.71A2.5,2.5 0 1 1 223.31,175.71A2.5,2.5 0 1 1 228.31,175.71Z" style="fill:none;stroke:#F15A60;stroke-width:0.5" />
<path d="M229.69,177.03A2.5,2.5 0 1 1 224.69,177.03A2.5,2.5 0 1 1 229.69,177.03Z" style="fill:none;stroke:#F15A60;stroke-width:0.5" />
<path d="M231.06,178.49A2.5,2.5 0 1 1 226.06,178.49A2.5,2.5 0 1 1 231.06,178.49Z" style="fill:none;stroke:#F15A60;stroke-width:0.5" />
<path d="M232.44,179.94A2.5,2.5 0 1 1 227.44,179.94A2.5,2.5 0 1 1 232.44,179.94Z" style="fill:none;stroke:#F15A60;stroke-width:0.5" />
<path d="M233.82,181.25A2.5,2.5 0 1 1 228.82,181.25A2.5,2.5 0 1 1 233.82,181.25Z" style="fill:none;stroke:#F15A60;stroke-width:0.5" />
<path d="M235.19,182.68A2.5,2.5 0 1 1 230.19,182.68A2.5,2.5 0 1 1 235.19,182.68Z" style="fill:none;stroke:#F15A60;stroke-width:0.5" />
<path d="M236.57,184.21A2.5,2.5 0 1 1 231.57,184.21A2.5,2.5 0 1 1 236.57,184.21Z" style="fill:none;stroke:#F15A60;stroke-width:0.5" />
<path d="M237.94,185.34A2.5,2.5 0 1 1 232.94,185.34A2.5,2.5 0 1 1 237.94,185.34Z" style="fill:none;stroke:#F15A60;stroke-width:0.5" />
<path d="M239.32,186.91A2.5,2.5 0 1 1 234.32,186.91A2.5,2.5 0 1 1 239.32,186.91Z" style="fill:none;stroke:#F15A60;stroke-width:0.5" />
<path d="M240.7,188.54A2.5,2.5 0 1 1 235.7,188.54A2.5,2.5 0 1 1 240.7,188.54Z" style="fill:none;stroke:#F15A60;stroke-width:0.5" />
<path d="M242.07,189.89A2.5,2.5 0 1 1 237.07,189.89A2.5,2.5 0 1 1 242.07,189.89Z" style="fill:none;stroke:#F15A60;stroke-width:0.5" />
<path d="M243.45,190.86A2.5,2.5 0 1 1 238.45,190.86A2.5,2.5 0 1 1 243.45,190.86Z" style="fill:none;stroke:#F15A60;stroke-width:0.5" />
<path d="M244.83,192.37A2.5,2.5 0 1 1 239.83,192.37A2.5,2.5 0 1 1 244.83,192.37Z" style="fill:none;stroke:#F15A60;stroke-width:0.5" />
<path d="M246.2,193.79A2.5,2.5 0 1 1 241.2,193.79A2.5,2.5 0 1 1 246.2,193.79Z" style="fill:none;stroke:#F15A60;stroke-width:0.5" />
<path d="M247.58,195.19A2.5,2.5 0 1 1 242.58,195.19A2.5,2.5 0 1 1 247.58,195.19Z" style="fill:none;stroke:#F15A60;stroke-width:0.5" />
<path d="M248.95,196.66A2.5,2.5 0 1 1 243.95,196.66A2.5,2.5 0 1 1 248.95,196.66Z" style="fill:none;stroke:#F15A60;stroke-width:0.5" />
<path d="M250.33,198.22A2.5,2.5 0 1 1 245.33,198.22A2.5,2.5 0 1 1 250.33,198.22Z" style="fill:none;stroke:#F15A60;stroke-width:0.5" />
<path d="M251.71,199.65A2.5,2.5 0 1 1 246.71,199.65A2.5,2.5 0 1 1 251.71,199.65Z" style="fill:none;stroke:#F15A60;stroke-width:0.5" />
<path d="M253.08,201.27A2.5,2.5 0 1 1 248.08,201.27A2.5,2.5 0 1 1 253.08,201.27Z" style="fill:none;stroke:#F15A60;stroke-width:0.5" />
<path d="M254.46,202.36A2.5,2.5 0 1 1 249.46,202.36A2.5,2.5 0 1 1 254.46,202.36Z" style="fill:none;stroke:#F15A60;stroke-width:0.5" />
<path d="M255.84,204.03A2.5,2.5 0 1 1 250.84,204.03A2.5,2.5 0 1 1 255.84,204.03Z" style="fill:none;stroke:#F15A60;stroke-width:0.5" />
<path d="M257.21,205.44A2.5,2.5 0 1 1 252.21,205.44A2.5,2.5 0 1 1 257.21,205.44Z" style="fill:none;stroke:#F15A60;stroke-width:0.5" />
<path d="M258.59,206.91A2.5,2.5 0 1 1 253.59,206.91A2.5,2.5 0 1 1 258.59,206.91Z" style="fill:none;stroke:#F15A60;stroke-width:0.5" />
<path d="M259.96,208.36A2.5,2.5 0 1 1 254.96,208.36A2.5,2.5 0 1 1 259.96,208.36Z" style="fill:none;stroke:#F15A60;stroke-width:0.5" />
<path d="M261.34,210.18A2.5,2.5 0 1 1 256.34,210.18A2.5,2.5 0 1 1 261.34,210.18Z" style="fill:none;stroke:#F15A60;stroke-width:0.5" />
<path d="M262.72,211.64A2.5,2.5 0 1 1 257.72,211.64A2.5,2.5 0 1 1 262.72,211.64Z" style="fill:none;stroke:#F15A60;stroke-width:0.5" />
<path d="M264.09,213.08A2.5,2.5 0 1 1 259.09,213.08A2.5,2.5 0 1 1 264.09,213.08Z" style="fill:none;stroke:#F15A60;stroke-width:0.5" />
<path d="M265.47,214.55A2.5,2.5 0 1 1 260.47,214.55A2.5,2.5 0 1 1 265.47,214.55Z" style="fill:none;stroke:#F15A60;stroke-width:0.5" />
<path d="M266.85,216.02A2.5,2.5 0 1 1 261.85,216.02A2.5,2.5 0 1 1 266.85,216.02Z" style="fill:none;stroke:#F15A60;stroke-width:0.5" />
<path d="M268.22,217.75A2.5,2.5 0 1 1 263.22,217.75A2.5,2.5 0 1 1 268.22,217.75Z" style="fill:none;stroke:#F15A60;stroke-width:0.5" />
<path d="M269.6,219.24A2.5,2.5 0 1 1 264.6,219.24A2.5,2.5 0 1 1 269.6,219.24Z" style="fill:none;stroke:#F15A60;stroke-width:0.5" />
<path d="M270.97,220.53A2.5,2.5 0 1 1 265.97,220.53A2.5,2.5 0 1 1 270.97,220.53Z" style="fill:none;stroke:#F15A60;stroke-width:0.5" />
<path d="M272.35,222.17A2.5,2.5 0 1 1 267.35,222.17A2.5,2.5 0 1 1 272.35,222.17Z" style="fill:none;stroke:#F15A60;stroke-width:0.5" />
<path d="M273.73,223.57A2.5,2.5 0 1 1 268.73,223.57A2.5,2.5 0 1 1 273.73,223.57Z" style="fill:none;stroke:#F15A60;stroke-width:0.5" />
<path d="M275.1,225.06A2.5,2.5 0 1 1 270.1,225.06A2.5,2.5 0 1 1 275.1,225.06Z" style="fill:none;stroke:#F15A60;stroke-width:0.5" />
<path d="M276.48,226.76A2.5,2.5 0 1 1 271.48,226.76A2.5,2.5 0 1 1 276.48,226.76Z" style="fill:none;stroke:#F15A60;stroke-width:0.5" />
<path d="M277.86,228.55A2.5,2.5 0 1 1 272.86,228.55A2.5,2.5 0 1 1 277.86,228.55Z" style="fill:none;stroke:#F15A60;stroke-width:0.5" />
<path d="M279.23,229.84A2.5,2.5 0 1 1 274.23,229.84A2.5,2.5 0 1 1 279.23,229.84Z" style="fill:none;stroke:#F15A60;stroke-width:0.5" />
<path d="M280.61,231.5A2.5,2.5 0 1 1 275.61,231.5A2.5,2.5 0 1 1 280.61,231.5Z" style="fill:none;stroke:#F15A60;stroke-width:0.5" />
<path d="M281.98,233.1A2.5,2.5 0 1 1 276.98,233.1A2.5,2.5 0 1 1 281.98,233.1Z" style="fill:none;stroke:#F15A60;stroke-width:0.5" />
<path d="M283.36,234.66A2.5,2.5 0 1 1 278.36,234.66A2.5,2.5 0 1 1 283.36,234.66Z" style="fill:none;stroke:#F15A60;stroke-width:0.5" />
<path d="M284.74,235.66A2.5,2.5 0 1 1 279.74,235.66A2.5,2.5 0 1 1 284.74,235.66Z" style="fill:none;stroke:#F15A60;stroke-width:0.5" />
<path d="M286.11,237.26A2.5,2.5 0 1 1 281.11,237.26A2.5,2.5 0 1 1 286.11,237.26Z" style="fill:none;stroke:#F15A60;stroke-width:0.5" />
<path d="M287.49,238.69A2.5,2.5 0 1 1 282.49,238.69A2.5,2.5 0 1 1 287.49,238.69Z" style="fill:none;stroke:#F15A60;stroke-width:0.5" />
<path d="M288.87,240.21A2.5,2.5 0 1 1 283.87,240.21A2.5,2.5 0 1 1 288.87,240.21Z" style="fill:none;stroke:#F15A60;stroke-width:0.5" />
<path d="M290.24,241.76A2.5,2.5 0 1 1 285.24,241.76A2.5,2.5 0 1 1 290.24,241.76Z" style="fill:none;stroke:#F15A60;stroke-width:0.5" />
<path d="M291.62,243.55A2.5,2.5 0 1 1 286.62,243.55A2.5,2.5 0 1 1 291.62,243.55Z" style="fill:none;stroke:#F15A60;stroke-width:0.5" />
<path d="M293,244.94A2.5,2.5 0 1 1 288,244.94A2.5,2.5 0 1 1 293,244.94Z" style="fill:none;stroke:#F15A60;stroke-width:0.5" />
<path d="M294.37,245.93A2.5,2.5 0 1 1 289.37,245.93A2.5,2.5 0 1 1 294.37,245.93Z" style="fill:none;stroke:#F15A60;stroke-width:0.5" />
<path d="M295.75,247.44A2.5,2.5 0 1 1 290.75,247.44A2.5,2.5 0 1 1 295.75,247.44Z" style="fill:none;stroke:#F15A60;stroke-width:0.5" />
<path d="M297.12,248.93A2.5,2.5 0 1 1 292.12,248.93A2.5,2.5 0 1 1 297.12,248.93Z" style="fill:none;stroke:#F15A60;stroke-width:0.5" />
<path d="M298.5,250.65A2.5,2.5 0 1 1 293.5,250.65A2.5,2.5 0 1 1 298.5,250.65Z" style="fill:none;stroke:#F15A60;stroke-width:0.5" />
<path d="M299.88,251.94A2.5,2.5 0 1 1 294.88,251.94A2.5,2.5 0 1 1 299.88,251.94Z" style="fill:none;stroke:#F15A60;stroke-width:0.5" />
<path d="M301.25,253.37A2.5,2.5 0 1 1 296.25,253.37A2.5,2.5 0 1 1 301.25,253.37Z" style="fill:none;stroke:#F15A60;stroke-width:0.5" />
<path d="M302.63,255.15A2.5,2.5 0 1 1 297.63,255.15A2.5,2.5 0 1 1 302.63,255.15Z" style="fill:none;stroke:#F15A60;stroke-width:0.5" />
<path d="M304.01,256.63A2.5,2.5 0 1 1 299.01,256.63A2.5,2.5 0 1 1 304.01,256.63Z" style="fill:none;stroke:#F15A60;stroke-width:0.5" />
<path d="M305.38,258.05A2.5,2.5 0 1 1 300.38,258.05A2.5,2.5 0 1 1 305.38,258.05Z" style="fill:none;stroke:#F15A60;stroke-width:0.5" />
<path d="M306.76,259.87A2.5,2.5 0 1 1 301.76,259.87A2.5,2.5 0 1 1 306.76,259.87Z" style="fill:none;stroke:#F15A60;stroke-width:0.5" />
<path d="M308.13,261.26A2.5,2.5 0 1 1 303.13,261.26A2.5,2.5 0 1 1 308.13,261.26Z" style="fill:none;stroke:#F15A60;stroke-width:0.5" />
<path d="M309.51,263.09A2.5,2.5 0 1 1 304.51,263.09A2.5,2.5 0 1 1 309.51,263.09Z" style="fill:none;stroke:#F15A60;stroke-width:0.5" />
<path d="M310.89,264.27A2.5,2.5 0 1 1 305.89,264.27A2.5,2.5 0 1 1 310.89,264.27Z" style="fill:none;stroke:#F15A60;stroke-width:0.5" />
<path d="M312.26,265.79A2.5,2.5 0 1 1 307.26,265.79A2.5,2.5 0 1 1 312.26,265.79Z" style="fill:none;stroke:#F15A60;stroke-width:0.5" />
<path d="M313.64,267.56A2.5,2.5 0 1 1 308.64,267.56A2.5,2.5 0 1 1 313.64,267.56Z" style="fill:none;stroke:#F15A60;stroke-width:0.5" />
<path d="M315.02,269.14A2.5,2.5 0 1 1 310.02,269.14A2.5,2.5 0 1 1 315.02,269.14Z" style="fill:none;stroke:#F15A60;stroke-width:0.5" />
<path d="M316.39,270.29A2.5,2.5 0 1 1 311.39,270.29A2.5,2.5 0 1 1 316.39,270.29Z" style="fill:none;stroke:#F15A60;stroke-width:0.5" />
<path d="M317.77,272.17A2.5,2.5 0 1 1 312.77,272.17A2.5,2.5 0 1 1 317.77,272.17Z" style="fill:none;stroke:#F15A60;stroke-width:0.5" />
<path d="M319.14,273.87A2.5,2.5 0 1 1 314.14,273.87A2.5,2.5 0 1 1 319.14,273.87Z" style="fill:none;stroke:#F15A60;stroke-width:0.5" />
<path d="M320.52,275.16A2.5,2.5 0 1 1 315.52,275.16A2.5,2.5 0 1 1 320.52,275.16Z" style="fill:none;stroke:#F15A60;stroke-width:0.5" />
<path d="M321.9,277A2.5,2.5 0 1 1 316.9,277A2.5,2.5 0 1 1 321.9,277Z" style="fill:none;stroke:#F15A60;stroke-width:0.5" />
<path d="M323.27,278.61A2.5,2.5 0 1 1 318.27,278.61A2.5,2.5 0 1 1 323.27,278.61Z" style="fill:none;stroke:#F15A60;stroke-width:0.5" />
<path d="M324.65,280.21A2.5,2.5 0 1 1 319.65,280.21A2.5,2.5 0 1 1 324.65,280.21Z" style="fill:none;stroke:#F15A60;stroke-width:0.5" />
<path d="M326.03,281.6A2.5,2.5 0 1 1 321.03,281.6A2.5,2.5 0 1 1 326.03,281.6Z" style="fill:none;stroke:#F15A60;stroke-width:0.5" />
<path d="M327.4,283A2.5,2.5 0 1 1 322.4,283A2.5,2.5 0 1 1 327.4,283Z" style="fill:none;stroke:#F15A60;stroke-width:0.5" />
<path d="M328.78,284.53A2.5,2.5 0 1 1 323.78,284.53A2.5,2.5 0 1 1 328.78,284.53Z" style="fill:none;stroke:#F15A60;stroke-width:0.5" />
<path d="M330.15,286.33A2.5,2.5 0 1 1 325.15,286.33A2.5,2.5 0 1 1 330.15,286.33Z" style="fill:none;stroke:#F15A60;stroke-width:0.5" />
<path d="M331.53,287.74A2.5,2.5 0 1 1 326.53,287.74A2.5,2.5 0 1 1 331.53,287.74Z" style="fill:none;stroke:#F15A60;stroke-width:0.5" />
<path d="M332.91,289.37A2.5,2.5 0 1 1 327.91,289.37A2.5,2.5 0 1 1 332.91,289.37Z" style="fill:none;stroke:#F15A60;stroke-width:0.5" />
<path d="M334.28,291.06A2.5,2.5 0 1 1 329.28,291.06A2.5,2.5 0 1 1 334.28,291.06Z" style="fill:none;stroke:#F15A60;stroke-width:0.5" />
<path d="M335.66,292.76A2.5,2.5 0 1 1 330.66,292.76A2.5,2.5 0 1 1 335.66,292.76Z" style="fill:none;stroke:#F15A60;stroke-width:0.5" />
<path d="M337.04,294.22A2.5,2.5 0 1 1 332.04,294.22A2.5,2.5 0 1 1 337.04,294.22Z" style="fill:none;stroke:#F15A60;stroke-width:0.5" />
<path d="M338.41,295.73A2.5,2.5 0 1 1 333.41,295.73A2.5,2.5 0 1 1 338.41,295.73Z" style="fill:none;stroke:#F15A60;stroke-width:0.5" />
<path d="M339.79,297.95A2.5,2.5 0 1 1 334.79,297.95A2.5,2.5 0 1 1 339.79,297.95Z" style="fill:none;stroke:#F15A60;stroke-width:0.5" />
<path d="M341.17,299.53A2.5,2.5 0 1 1 336.17,299.53A2.5,2.5 0 1 1 341.17,299.53Z" style="fill:none;stroke:#F15A60;stroke-width:0.5" />
<path d="M342.54,300.88A2.5,2.5 0 1 1 337.54,300.88A2.5,2.5 0 1 1 342.54,300.88Z" style="fill:none;stroke:#F15A60;stroke-width:0.5" />
<path d="M343.92,302.56A2.5,2.5 0 1 1 338.92,302.56A2.5,2.5 0 1 1 343.92,302.56Z" style="fill:none;stroke:#F15A60;stroke-width:0.5" />
<path d="M345.29,304.12A2.5,2.5 0 1 1 340.29,304.12A2.5,2.5 0 1 1 345.29,304.12Z" style="fill:none;stroke:#F15A60;stroke-width:0.5" />
<path d="M346.67,306.01A2.5,2.5 0 1 1 341.67,306.01A2.5,2.5 0 1 1 346.67,306.01Z" style="fill:none;stroke:#F15A60;stroke-width:0.5" />
<path d="M348.05,307.71A2.5,2.5 0 1 1 343.05,307.71A2.5,2.5 0 1 1 348.05,307.71Z" style="fill:none;stroke:#F15A60;stroke-width:0.5" />
<path d="M349.42,309.49A2.5,2.5 0 1 1 344.42,309.49A2.5,2.5 0 1 1 349.42,309.49Z" style="fill:none;stroke:#F15A60;stroke-width:0.5" />
<path d="M350.8,311.17A2.5,2.5 0 1 1 345.8,311.17A2.5,2.5 0 1 1 350.8,311.17Z" style="fill:none;stroke:#F15A60;stroke-width:0.5" />
<path d="M352.18,312.7A2.5,2.5 0 1 1 347.18,312.7A2.5,2.5 0 1 1 352.18,312.7Z" style="fill:none;stroke:#F15A60;stroke-width:0.5" />
<path d="M353.55,314.54A2.5,2.5 0 1 1 348.55,314.54A2.5,2.5 0 1 1 353.55,314.54Z" style="fill:none;stroke:#F15A60;stroke-width:0.5" />
<path d="M354.93,316.27A2.5,2.5 0 1 1 349.93,316.27A2.5,2.5 0 1 1 354.93,316.27Z" style="fill:none;stroke:#F15A60;stroke-width:0.5" />
<path d="M356.3,317.82A2.5,2.5 0 1 1 351.3,317.82A2.5,2.5 0 1 1 356.3,317.82Z" style="fill:none;stroke:#F15A60;stroke-width:0.5" />
<path d="M357.68,319.58A2.5,2.5 0 1 1 352.68,319.58A2.5,2.5 0 1 1 357.68,319.58Z" style="fill:none;stroke:#F15A60;stroke-width:0.5" />
<path d="M359.06,321.06A2.5,2.5 0 1 1 354.06,321.06A2.5,2.5 0 1 1 359.06,321.06Z" style="fill:none;stroke:#F15A60;stroke-width:0.5" />
<path d="M360.43,322.6A2.5,2.5 0 1 1 355.43,322.6A2.5,2.5 0 1 1 360.43,322.6Z" style="fill:none;stroke:#F15A60;stroke-width:0.5" />
<path d="M361.81,324.27A2.5,2.5 0 1 1 356.81,324.27A2.5,2.5 0 1 1 361.81,324.27Z" style="fill:none;stroke:#F15A60;stroke-width:0.5" />
<path d="M363.19,326.05A2.5,2.5 0 1 1 358.19,326.05A2.5,2.5 0 1 1 363.19,326.05Z" style="fill:none;stroke:#F15A60;stroke-width:0.5" />
<path d="M364.56,327.86A2.5,2.5 0 1 1 359.56,327.86A2.5,2.5 0 1 1 364.56,327.86Z" style="fill:none;stroke:#F15A60;stroke-width:0.5" />
<path d="M365.94,329.58A2.5,2.5 0 1 1 360.94,329.58A2.5,2.5 0 1 1 365.94,329.58Z" style="fill:none;stroke:#F15A60;stroke-width:0.5" />
<path d="M367.31,331.16A2.5,2.5 0 1 1 362.31,331.16A2.5,2.5 0 1 1 367.31,331.16Z" style="fill:none;stroke:#F15A60;stroke-width:0.5" />
<path d="M368.69,333.07A2.5,2.5 0 1 1 363.69,333.07A2.5,2.5 0 1 1 368.69,333.07Z" style="fill:none;stroke:#F15A60;stroke-width:0.5" />
<path d="M370.07,334.81A2.5,2.5 0 1 1 365.07,334.81A2.5,2.5 0 1 1 370.07,334.81Z" style="fill:none;stroke:#F15A60;stroke-width:0.5" />
<path d="M371.44,336.45A2.5,2.5 0 1 1 366.44,336.45A2.5,2.5 0 1 1 371.44,336.45Z" style="fill:none;stroke:#F15A60;stroke-width:0.5" />
<path d="M372.82,338.27A2.5,2.5 0 1 1 367.82,338.27A2.5,2.5 0 1 1 372.82,338.27Z" style="fill:none;stroke:#F15A60;stroke-width:0.5" />
<path d="M374.2,339.72A2.5,2.5 0 1 1 369.2,339.72A2.5,2.5 0 1 1 374.2,339.72Z" style="fill:none;stroke:#F15A60;stroke-width:0.5" />
<path d="M375.57,341.46A2.5,2.5 0 1 1 370.57,341.46A2.5,2.5 0 1 1 375.57,341.46Z" style="fill:none;stroke:#F15A60;stroke-width:0.5" />
<path d="M376.95,343.11A2.5,2.5 0 1 1 371.95,343.11A2.5,2.5 0 1 1 376.95,343.11Z" style="fill:none;stroke:#F15A60;stroke-width:0.5" />
<path d="M378.32,345A2.5,2.5 0 1 1 373.32,345A2.5,2.5 0 1 1 378.32,345Z" style="fill:none;stroke:#F15A60;stroke-width:0.5" />
<path d="M379.7,346.72A2.5,2.5 0 1 1 374.7,346.72A2.5,2.5 0 1 1 379.7,346.72Z" style="fill:none;stroke:#F15A60;stroke-width:0.5" />
<path d="M381.08,348.63A2.5,2.5 0 1 1 376.08,348.63A2.5,2.5 0 1 1 381.08,348.63Z" style="fill:none;stroke:#F15A60;stroke-width:0.5" />
<path d="M382.45,350.17A2.5,2.5 0 1 1 377.45,350.17A2.5,2.5 0 1 1 382.45,350.17Z" style="fill:none;stroke:#F15A60;stroke-width:0.5" />
<path d="M383.83,352.03A2.5,2.5 0 1 1 378.83,352.03A2.5,2.5 0 1 1 383.83,352.03Z" style="fill:none;stroke:#F15A60;stroke-width:0.5" />
<path d="M385.21,353.88A2.5,2.5 0 1 1 380.21,353.88A2.5,2.5 0 1 1 385.21,353.88Z" style="fill:none;stroke:#F15A60;stroke-width:0.5" />
<path d="M386.58,355.52A2.5,2.5 0 1 1 381.58,355.52A2.5,2.5 0 1 1 386.58,355.52Z" style="fill:none;stroke:#F15A60;stroke-width:0.5" />
<path d="M387.96,357.04A2.5,2.5 0 1 1 382.96,357.04A2.5,2.5 0 1 1 387.96,357.04Z" style="fill:none;stroke:#F15A60;stroke-width:0.5" />
<path d="M389.34,359.51A2.5,2.5 0 1 1 384.34,359.51A2.5,2.5 0 1 1 389.34,359.51Z" style="fill:none;stroke:#F15A60;stroke-width:0.5" />
<path d="M390.71,361A2.5,2.5 0 1 1 385.71,361A2.5,2.5 0 1 1 390.71,361Z" style="fill:none;stroke:#F15A60;stroke-width:0.5" />
<path d="M392.09,362.46A2.5,2.5 0 1 1 387.09,362.46A2.5,2.5 0 1 1 392.09,362.46Z" style="fill:none;stroke:#F15A60;stroke-width:0.5" />
<path d="M393.46,364.09A2.5,2.5 0 1 1 388.46,364.09A2.5,2.5 0 1 1 393.46,364.09Z" style="fill:none;stroke:#F15A60;stroke-width:0.5" />
<path d="M394.84,366.02A2.5,2.5 0 1 1 389.84,366.02A2.5,2.5 0 1 1 394.84,366.02Z" style="fill:none;stroke:#F15A60;stroke-width:0.5" />
<path d="M396.22,367.88A2.5,2.5 0 1 1 391.22,367.88A2.5,2.5 0 1 1 396.22,367.88Z" style="fill:none;stroke:#F15A60;stroke-width:0.5" />
<path d="M397.59,369.51A2.5,2.5 0 1 1 392.59,369.51A2.5,2.5 0 1 1 397.59,369.51Z" style="fill:none;stroke:#F15A60;stroke-width:0.5" />
<path d="M398.97,371.44A2.5,2.5 0 1 1 393.97,371.44A2.5,2.5 0 1 1 398.97,371.44Z" style="fill:none;stroke:#F15A60;stroke-width:0.5" />
<path d="M400.35,373.45A2.5,2.5 0 1 1 395.35,373.45A2.5,2.5 0 1 1 400.35,373.45Z" style="fill:none;stroke:#F15A60;stroke-width:0.5" />
<path d="M401.72,375.09A2.5,2.5 0 1 1 396.72,375.09A2.5,2.5 0 1 1 401.72,375.09Z" style="fill:none;stroke:#F15A60;stroke-width:0.5" />
<path d="M403.1,376.76A2.5,2.5 0 1 1 398.1,376.76A2.5,2.5 0 1 1 403.1,376.76Z" style="fill:none;stroke:#F15A60;stroke-width:0.5" />
<path d="M404.47,378.83A2.5,2.5 0 1 1 399.47,378.83A2.5,2.5 0 1 1 404.47,378.83Z" style="fill:none;stroke:#F15A60;stroke-width:0.5" />
<path d="M405.85,380.6A2.5,2.5 0 1 1 400.85,380.6A2.5,2.5 0 1 1 405.85,380.6Z" style="fill:none;stroke:#F15A60;stroke-width:0.5" />
<path d="M407.23,381.68A2.5,2.5 0 1 1 402.23,381.68A2.5,2.5 0 1 1 407.23,381.68Z" style="fill:none;stroke:#F15A60;stroke-width:0.5" />
<path d="M408.6,383.54A2.5,2.5 0 1 1 403.6,383.54A2.5,2.5 0 1 1 408.6,383.54Z" style="fill:none;stroke:#F15A60;stroke-width:0.5" />
<path d="M409.98,385.52A2.5,2.5 0 1 1 404.98,385.52A2.5,2.5 0 1 1 409.98,385.52Z" style="fill:none;stroke:#F15A60;stroke-width:0.5" />
<path d="M411.36,387.3A2.5,2.5 0 1 1 406.36,387.3A2.5,2.5 0 1 1 411.36,387.3Z" style="fill:none;stroke:#F15A60;stroke-width:0.5" />
<path d="M412.73,389.16A2.5,2.5 0 1 1 407.73,389.16A2.5,2.5 0 1 1 412.73,389.16Z" style="fill:none;stroke:#F15A60;stroke-width:0.5" />
<path d="M414.11,390.95A2.5,2.5 0 1 1 409.11,390.95A2.5,2.5 0 1 1 414.11,390.95Z" style="fill:none;stroke:#F15A60;stroke-width:0.5" />
<path d="M415.48,392.81A2.5,2.5 0 1 1 410.48,392.81A2.5,2.5 0 1 1 415.48,392.81Z" style="fill:none;stroke:#F15A60;stroke-width:0.5" />
<path d="M416.86,394.5A2.5,2.5 0 1 1 411.86,394.5A2.5,2.5 0 1 1 416.86,394.5Z" style="fill:none;stroke:#F15A60;stroke-width:0.5" />
<path d="M418.24,396.41A2.5,2.5 0 1 1 413.24,396.41A2.5,2.5 0 1 1 418.24,396.41Z" style="fill:none;stroke:#F15A60;stroke-width:0.5" />
<path d="M419.61,398.25A2.5,2.5 0 1 1 414.61,398.25A2.5,2.5 0 1 1 419.61,398.25Z" style="fill:none;stroke:#F15A60;stroke-width:0.5" />
<path d="M420.99,400.19A2.5,2.5 0 1 1 415.99,400.19A2.5,2.5 0 1 1 420.99,400.19Z" style="fill:none;stroke:#F15A60;stroke-width:0.5" />
<path d="M422.37,401.08A2.5,2.5 0 1 1 417.37,401.08A2.5,2.5 0 1 1 422.37,401.08Z" style="fill:none;stroke:#F15A60;stroke-width:0.5" />
<path d="M423.74,403.14A2.5,2.5 0 1 1 418.74,403.14A2.5,2.5 0 1 1 423.74,403.14Z" style="fill:none;stroke:#F15A60;stroke-width:0.5" />
<path d="M425.12,404.9A2.5,2.5 0 1 1 420.12,404.9A2.5,2.5 0 1 1 425.12,404.9Z" style="fill:none;stroke:#F15A60;stroke-width:0.5" />
<path d="M426.49,406.86A2.5,2.5 0 1 1 421.49,406.86A2.5,2.5 0 1 1 426.49,406.86Z" style="fill:none;stroke:#F15A60;stroke-width:0.5" />
<path d="M427.87,408.51A2.5,2.5 0 1 1 422.87,408.51A2.5,2.5 0 1 1 427.87,408.51Z" style="fill:none;stroke:#F15A60;stroke-width:0.5" />
<path d="M429.25,410.18A2.5,2.5 0 1 1 424.25,410.18A2.5,2.5 0 1 1 429.25,410.18Z" style="fill:none;stroke:#F15A60;stroke-width:0.5" />
<path d="M430.62,411.66A2.5,2.5 0 1 1 425.62,411.66A2.5,2.5 0 1 1 430.62,411.66Z" style="fill:none;stroke:#F15A60;stroke-width:0.5" />
<path d="M432,411.68A2.5,2.5 0 1 1 427,411.68A2.5,2.5 0 1 1 432,411.68Z" style="fill:none;stroke:#F15A60;stroke-width:0.5" />
<path d="M412,44.369L432,44.369" style="fill:none;stroke:#F15A60" />
<path d="M424.5,44.369A2.5,2.5 0 1 1 419.5,44.369A2.5,2.5 0 1 1 424.5,44.369Z" style="fill:none;stroke:#F15A60;stroke-width:0.5" />
<text x="365.67" y="-38.703" transform="scale(1, -1)"
	style="font-family:Times;font-weight:normal;font-style:normal;font-size:12px">yunikorn</text>
</g>
</svg>
