<?xml version="1.0"?>
<!-- Generated by SVGo and Plotinum VG -->
<svg width="432pt" height="432pt" viewBox="0 0 432 432"
	xmlns="http://www.w3.org/2000/svg"
	xmlns:xlink="http://www.w3.org/1999/xlink">
<g transform="scale(1, -1) translate(0, -432)">
<path d="M0,0L432,0L432,432L0,432Z" style="fill:#FFFFFF" />
<text x="159.28" y="-420.45" transform="scale(1, -1)"
	style="font-family:Times;font-weight:normal;font-style:normal;font-size:12px">Scheduling Throughput</text>
<text x="224.33" y="-3.8613" transform="scale(1, -1)"
	style="font-family:Times;font-weight:normal;font-style:normal;font-size:12px">Seconds</text>
<text x="56.666" y="-15.602" transform="scale(1, -1)"
	style="font-family:Times;font-weight:normal;font-style:normal;font-size:10px">0</text>
<text x="144.71" y="-15.602" transform="scale(1, -1)"
	style="font-family:Times;font-weight:normal;font-style:normal;font-size:10px">100</text>
<text x="237.76" y="-15.602" transform="scale(1, -1)"
	style="font-family:Times;font-weight:normal;font-style:normal;font-size:10px">200</text>
<text x="330.81" y="-15.602" transform="scale(1, -1)"
	style="font-family:Times;font-weight:normal;font-style:normal;font-size:10px">300</text>
<path d="M59.166,25.23L59.166,33.23" style="fill:none;stroke:#000000;stroke-width:0.5" />
<path d="M152.21,25.23L152.21,33.23" style="fill:none;stroke:#000000;stroke-width:0.5" />
<path d="M245.26,25.23L245.26,33.23" style="fill:none;stroke:#000000;stroke-width:0.5" />
<path d="M338.31,25.23L338.31,33.23" style="fill:none;stroke:#000000;stroke-width:0.5" />
<path d="M77.776,29.23L77.776,33.23" style="fill:none;stroke:#000000;stroke-width:0.5" />
<path d="M96.386,29.23L96.386,33.23" style="fill:none;stroke:#000000;stroke-width:0.5" />
<path d="M115,29.23L115,33.23" style="fill:none;stroke:#000000;stroke-width:0.5" />
<path d="M133.61,29.23L133.61,33.23" style="fill:none;stroke:#000000;stroke-width:0.5" />
<path d="M170.82,29.23L170.82,33.23" style="fill:none;stroke:#000000;stroke-width:0.5" />
<path d="M189.43,29.23L189.43,33.23" style="fill:none;stroke:#000000;stroke-width:0.5" />
<path d="M208.04,29.23L208.04,33.23" style="fill:none;stroke:#000000;stroke-width:0.5" />
<path d="M226.65,29.23L226.65,33.23" style="fill:none;stroke:#000000;stroke-width:0.5" />
<path d="M263.87,29.23L263.87,33.23" style="fill:none;stroke:#000000;stroke-width:0.5" />
<path d="M282.48,29.23L282.48,33.23" style="fill:none;stroke:#000000;stroke-width:0.5" />
<path d="M301.09,29.23L301.09,33.23" style="fill:none;stroke:#000000;stroke-width:0.5" />
<path d="M319.7,29.23L319.7,33.23" style="fill:none;stroke:#000000;stroke-width:0.5" />
<path d="M356.92,29.23L356.92,33.23" style="fill:none;stroke:#000000;stroke-width:0.5" />
<path d="M375.53,29.23L375.53,33.23" style="fill:none;stroke:#000000;stroke-width:0.5" />
<path d="M394.14,29.23L394.14,33.23" style="fill:none;stroke:#000000;stroke-width:0.5" />
<path d="M412.75,29.23L412.75,33.23" style="fill:none;stroke:#000000;stroke-width:0.5" />
<path d="M59.166,33.23L429.5,33.23" style="fill:none;stroke:#000000;stroke-width:0.5" />
<g transform="rotate(90)">
<text x="187" y="11.555" transform="scale(1, -1)"
	style="font-family:Times;font-weight:normal;font-style:normal;font-size:12px">Number of Pods</text>
</g>
<text x="35.416" y="-36.259" transform="scale(1, -1)"
	style="font-family:Times;font-weight:normal;font-style:normal;font-size:10px">0</text>
<text x="15.416" y="-221.61" transform="scale(1, -1)"
	style="font-family:Times;font-weight:normal;font-style:normal;font-size:10px">10000</text>
<text x="15.416" y="-406.96" transform="scale(1, -1)"
	style="font-family:Times;font-weight:normal;font-style:normal;font-size:10px">20000</text>
<path d="M42.916,40.98L50.916,40.98" style="fill:none;stroke:#000000;stroke-width:0.5" />
<path d="M42.916,226.33L50.916,226.33" style="fill:none;stroke:#000000;stroke-width:0.5" />
<path d="M42.916,411.68L50.916,411.68" style="fill:none;stroke:#000000;stroke-width:0.5" />
<path d="M46.916,78.05L50.916,78.05" style="fill:none;stroke:#000000;stroke-width:0.5" />
<path d="M46.916,115.12L50.916,115.12" style="fill:none;stroke:#000000;stroke-width:0.5" />
<path d="M46.916,152.19L50.916,152.19" style="fill:none;stroke:#000000;stroke-width:0.5" />
<path d="M46.916,189.26L50.916,189.26" style="fill:none;stroke:#000000;stroke-width:0.5" />
<path d="M46.916,263.4L50.916,263.4" style="fill:none;stroke:#000000;stroke-width:0.5" />
<path d="M46.916,300.47L50.916,300.47" style="fill:none;stroke:#000000;stroke-width:0.5" />
<path d="M46.916,337.54L50.916,337.54" style="fill:none;stroke:#000000;stroke-width:0.5" />
<path d="M46.916,374.61L50.916,374.61" style="fill:none;stroke:#000000;stroke-width:0.5" />
<path d="M50.916,40.98L50.916,411.68" style="fill:none;stroke:#000000;stroke-width:0.5" />
<path d="M59.166,40.98L60.097,45.966L61.027,58.329L61.957,70.247L62.888,76.771L63.818,82.332L64.749,86.984L65.679,92.322L66.61,109.97L67.54,117.44L68.471,123.16L69.401,126.56L70.332,129.97L71.262,135.32L72.193,140.7L73.123,153.19L74.054,159.73L74.984,166.35L75.915,169.56L76.845,175.64L77.776,186.16L78.706,189.04L79.637,197.54L80.567,206.33L81.498,212.45L82.428,219.9L83.359,228.83L84.289,230.78L85.22,241.16L86.15,247.35L87.081,253.07L88.011,260.43L88.942,267.61L89.872,268.66L90.803,269.66L91.733,269.83L92.664,269.98L93.594,271.57L94.525,272.52L95.455,273.5L96.386,274.22L97.316,274.89L98.246,275.76L99.177,276.22L100.11,276.39L101.04,277.17L101.97,277.43L102.9,278.17L103.83,278.36L104.76,278.63L105.69,278.63L106.62,279.86L107.55,281.21L108.48,282.53L109.41,283.21L110.34,284.4L111.27,285.77L112.2,285.94L113.13,286.1L114.06,286.46L115,287.51L115.93,291.53L116.86,303.95L117.79,315.87L118.72,321.75L119.65,323.6L120.58,327.6L121.51,337.19L122.44,342.45L123.37,346.92L124.3,352.87L125.23,363.69L126.16,366.9L127.09,367.73L128.02,368.03L128.95,373.22L129.88,383.91L130.81,390.7L131.74,395.11L132.67,400.96L133.61,410.06L134.54,411.68" style="fill:none;stroke:#F15A60" />
<path d="M61.666,40.98A2.5,2.5 0 1 1 56.666,40.98A2.5,2.5 0 1 1 61.666,40.98Z" style="fill:none;stroke:#F15A60;stroke-width:0.5" />
<path d="M62.597,45.966A2.5,2.5 0 1 1 57.597,45.966A2.5,2.5 0 1 1 62.597,45.966Z" style="fill:none;stroke:#F15A60;stroke-width:0.5" />
<path d="M63.527,58.329A2.5,2.5 0 1 1 58.527,58.329A2.5,2.5 0 1 1 63.527,58.329Z" style="fill:none;stroke:#F15A60;stroke-width:0.5" />
<path d="M64.457,70.247A2.5,2.5 0 1 1 59.457,70.247A2.5,2.5 0 1 1 64.457,70.247Z" style="fill:none;stroke:#F15A60;stroke-width:0.5" />
<path d="M65.388,76.771A2.5,2.5 0 1 1 60.388,76.771A2.5,2.5 0 1 1 65.388,76.771Z" style="fill:none;stroke:#F15A60;stroke-width:0.5" />
<path d="M66.318,82.332A2.5,2.5 0 1 1 61.318,82.332A2.5,2.5 0 1 1 66.318,82.332Z" style="fill:none;stroke:#F15A60;stroke-width:0.5" />
<path d="M67.249,86.984A2.5,2.5 0 1 1 62.249,86.984A2.5,2.5 0 1 1 67.249,86.984Z" style="fill:none;stroke:#F15A60;stroke-width:0.5" />
<path d="M68.179,92.322A2.5,2.5 0 1 1 63.179,92.322A2.5,2.5 0 1 1 68.179,92.322Z" style="fill:none;stroke:#F15A60;stroke-width:0.5" />
<path d="M69.11,109.97A2.5,2.5 0 1 1 64.11,109.97A2.5,2.5 0 1 1 69.11,109.97Z" style="fill:none;stroke:#F15A60;stroke-width:0.5" />
<path d="M70.04,117.44A2.5,2.5 0 1 1 65.04,117.44A2.5,2.5 0 1 1 70.04,117.44Z" style="fill:none;stroke:#F15A60;stroke-width:0.5" />
<path d="M70.971,123.16A2.5,2.5 0 1 1 65.971,123.16A2.5,2.5 0 1 1 70.971,123.16Z" style="fill:none;stroke:#F15A60;stroke-width:0.5" />
<path d="M71.901,126.56A2.5,2.5 0 1 1 66.901,126.56A2.5,2.5 0 1 1 71.901,126.56Z" style="fill:none;stroke:#F15A60;stroke-width:0.5" />
<path d="M72.832,129.97A2.5,2.5 0 1 1 67.832,129.97A2.5,2.5 0 1 1 72.832,129.97Z" style="fill:none;stroke:#F15A60;stroke-width:0.5" />
<path d="M73.762,135.32A2.5,2.5 0 1 1 68.762,135.32A2.5,2.5 0 1 1 73.762,135.32Z" style="fill:none;stroke:#F15A60;stroke-width:0.5" />
<path d="M74.693,140.7A2.5,2.5 0 1 1 69.693,140.7A2.5,2.5 0 1 1 74.693,140.7Z" style="fill:none;stroke:#F15A60;stroke-width:0.5" />
<path d="M75.623,153.19A2.5,2.5 0 1 1 70.623,153.19A2.5,2.5 0 1 1 75.623,153.19Z" style="fill:none;stroke:#F15A60;stroke-width:0.5" />
<path d="M76.554,159.73A2.5,2.5 0 1 1 71.554,159.73A2.5,2.5 0 1 1 76.554,159.73Z" style="fill:none;stroke:#F15A60;stroke-width:0.5" />
<path d="M77.484,166.35A2.5,2.5 0 1 1 72.484,166.35A2.5,2.5 0 1 1 77.484,166.35Z" style="fill:none;stroke:#F15A60;stroke-width:0.5" />
<path d="M78.415,169.56A2.5,2.5 0 1 1 73.415,169.56A2.5,2.5 0 1 1 78.415,169.56Z" style="fill:none;stroke:#F15A60;stroke-width:0.5" />
<path d="M79.345,175.64A2.5,2.5 0 1 1 74.345,175.64A2.5,2.5 0 1 1 79.345,175.64Z" style="fill:none;stroke:#F15A60;stroke-width:0.5" />
<path d="M80.276,186.16A2.5,2.5 0 1 1 75.276,186.16A2.5,2.5 0 1 1 80.276,186.16Z" style="fill:none;stroke:#F15A60;stroke-width:0.5" />
<path d="M81.206,189.04A2.5,2.5 0 1 1 76.206,189.04A2.5,2.5 0 1 1 81.206,189.04Z" style="fill:none;stroke:#F15A60;stroke-width:0.5" />
<path d="M82.137,197.54A2.5,2.5 0 1 1 77.137,197.54A2.5,2.5 0 1 1 82.137,197.54Z" style="fill:none;stroke:#F15A60;stroke-width:0.5" />
<path d="M83.067,206.33A2.5,2.5 0 1 1 78.067,206.33A2.5,2.5 0 1 1 83.067,206.33Z" style="fill:none;stroke:#F15A60;stroke-width:0.5" />
<path d="M83.998,212.45A2.5,2.5 0 1 1 78.998,212.45A2.5,2.5 0 1 1 83.998,212.45Z" style="fill:none;stroke:#F15A60;stroke-width:0.5" />
<path d="M84.928,219.9A2.5,2.5 0 1 1 79.928,219.9A2.5,2.5 0 1 1 84.928,219.9Z" style="fill:none;stroke:#F15A60;stroke-width:0.5" />
<path d="M85.859,228.83A2.5,2.5 0 1 1 80.859,228.83A2.5,2.5 0 1 1 85.859,228.83Z" style="fill:none;stroke:#F15A60;stroke-width:0.5" />
<path d="M86.789,230.78A2.5,2.5 0 1 1 81.789,230.78A2.5,2.5 0 1 1 86.789,230.78Z" style="fill:none;stroke:#F15A60;stroke-width:0.5" />
<path d="M87.72,241.16A2.5,2.5 0 1 1 82.72,241.16A2.5,2.5 0 1 1 87.72,241.16Z" style="fill:none;stroke:#F15A60;stroke-width:0.5" />
<path d="M88.65,247.35A2.5,2.5 0 1 1 83.65,247.35A2.5,2.5 0 1 1 88.65,247.35Z" style="fill:none;stroke:#F15A60;stroke-width:0.5" />
<path d="M89.581,253.07A2.5,2.5 0 1 1 84.581,253.07A2.5,2.5 0 1 1 89.581,253.07Z" style="fill:none;stroke:#F15A60;stroke-width:0.5" />
<path d="M90.511,260.43A2.5,2.5 0 1 1 85.511,260.43A2.5,2.5 0 1 1 90.511,260.43Z" style="fill:none;stroke:#F15A60;stroke-width:0.5" />
<path d="M91.442,267.61A2.5,2.5 0 1 1 86.442,267.61A2.5,2.5 0 1 1 91.442,267.61Z" style="fill:none;stroke:#F15A60;stroke-width:0.5" />
<path d="M92.372,268.66A2.5,2.5 0 1 1 87.372,268.66A2.5,2.5 0 1 1 92.372,268.66Z" style="fill:none;stroke:#F15A60;stroke-width:0.5" />
<path d="M93.303,269.66A2.5,2.5 0 1 1 88.303,269.66A2.5,2.5 0 1 1 93.303,269.66Z" style="fill:none;stroke:#F15A60;stroke-width:0.5" />
<path d="M94.233,269.83A2.5,2.5 0 1 1 89.233,269.83A2.5,2.5 0 1 1 94.233,269.83Z" style="fill:none;stroke:#F15A60;stroke-width:0.5" />
<path d="M95.164,269.98A2.5,2.5 0 1 1 90.164,269.98A2.5,2.5 0 1 1 95.164,269.98Z" style="fill:none;stroke:#F15A60;stroke-width:0.5" />
<path d="M96.094,271.57A2.5,2.5 0 1 1 91.094,271.57A2.5,2.5 0 1 1 96.094,271.57Z" style="fill:none;stroke:#F15A60;stroke-width:0.5" />
<path d="M97.025,272.52A2.5,2.5 0 1 1 92.025,272.52A2.5,2.5 0 1 1 97.025,272.52Z" style="fill:none;stroke:#F15A60;stroke-width:0.5" />
<path d="M97.955,273.5A2.5,2.5 0 1 1 92.955,273.5A2.5,2.5 0 1 1 97.955,273.5Z" style="fill:none;stroke:#F15A60;stroke-width:0.5" />
<path d="M98.886,274.22A2.5,2.5 0 1 1 93.886,274.22A2.5,2.5 0 1 1 98.886,274.22Z" style="fill:none;stroke:#F15A60;stroke-width:0.5" />
<path d="M99.816,274.89A2.5,2.5 0 1 1 94.816,274.89A2.5,2.5 0 1 1 99.816,274.89Z" style="fill:none;stroke:#F15A60;stroke-width:0.5" />
<path d="M100.75,275.76A2.5,2.5 0 1 1 95.746,275.76A2.5,2.5 0 1 1 100.75,275.76Z" style="fill:none;stroke:#F15A60;stroke-width:0.5" />
<path d="M101.68,276.22A2.5,2.5 0 1 1 96.677,276.22A2.5,2.5 0 1 1 101.68,276.22Z" style="fill:none;stroke:#F15A60;stroke-width:0.5" />
<path d="M102.61,276.39A2.5,2.5 0 1 1 97.607,276.39A2.5,2.5 0 1 1 102.61,276.39Z" style="fill:none;stroke:#F15A60;stroke-width:0.5" />
<path d="M103.54,277.17A2.5,2.5 0 1 1 98.538,277.17A2.5,2.5 0 1 1 103.54,277.17Z" style="fill:none;stroke:#F15A60;stroke-width:0.5" />
<path d="M104.47,277.43A2.5,2.5 0 1 1 99.468,277.43A2.5,2.5 0 1 1 104.47,277.43Z" style="fill:none;stroke:#F15A60;stroke-width:0.5" />
<path d="M105.4,278.17A2.5,2.5 0 1 1 100.4,278.17A2.5,2.5 0 1 1 105.4,278.17Z" style="fill:none;stroke:#F15A60;stroke-width:0.5" />
<path d="M106.33,278.36A2.5,2.5 0 1 1 101.33,278.36A2.5,2.5 0 1 1 106.33,278.36Z" style="fill:none;stroke:#F15A60;stroke-width:0.5" />
<path d="M107.26,278.63A2.5,2.5 0 1 1 102.26,278.63A2.5,2.5 0 1 1 107.26,278.63Z" style="fill:none;stroke:#F15A60;stroke-width:0.5" />
<path d="M108.19,278.63A2.5,2.5 0 1 1 103.19,278.63A2.5,2.5 0 1 1 108.19,278.63Z" style="fill:none;stroke:#F15A60;stroke-width:0.5" />
<path d="M109.12,279.86A2.5,2.5 0 1 1 104.12,279.86A2.5,2.5 0 1 1 109.12,279.86Z" style="fill:none;stroke:#F15A60;stroke-width:0.5" />
<path d="M110.05,281.21A2.5,2.5 0 1 1 105.05,281.21A2.5,2.5 0 1 1 110.05,281.21Z" style="fill:none;stroke:#F15A60;stroke-width:0.5" />
<path d="M110.98,282.53A2.5,2.5 0 1 1 105.98,282.53A2.5,2.5 0 1 1 110.98,282.53Z" style="fill:none;stroke:#F15A60;stroke-width:0.5" />
<path d="M111.91,283.21A2.5,2.5 0 1 1 106.91,283.21A2.5,2.5 0 1 1 111.91,283.21Z" style="fill:none;stroke:#F15A60;stroke-width:0.5" />
<path d="M112.84,284.4A2.5,2.5 0 1 1 107.84,284.4A2.5,2.5 0 1 1 112.84,284.4Z" style="fill:none;stroke:#F15A60;stroke-width:0.5" />
<path d="M113.77,285.77A2.5,2.5 0 1 1 108.77,285.77A2.5,2.5 0 1 1 113.77,285.77Z" style="fill:none;stroke:#F15A60;stroke-width:0.5" />
<path d="M114.7,285.94A2.5,2.5 0 1 1 109.7,285.94A2.5,2.5 0 1 1 114.7,285.94Z" style="fill:none;stroke:#F15A60;stroke-width:0.5" />
<path d="M115.63,286.1A2.5,2.5 0 1 1 110.63,286.1A2.5,2.5 0 1 1 115.63,286.1Z" style="fill:none;stroke:#F15A60;stroke-width:0.5" />
<path d="M116.56,286.46A2.5,2.5 0 1 1 111.56,286.46A2.5,2.5 0 1 1 116.56,286.46Z" style="fill:none;stroke:#F15A60;stroke-width:0.5" />
<path d="M117.5,287.51A2.5,2.5 0 1 1 112.5,287.51A2.5,2.5 0 1 1 117.5,287.51Z" style="fill:none;stroke:#F15A60;stroke-width:0.5" />
<path d="M118.43,291.53A2.5,2.5 0 1 1 113.43,291.53A2.5,2.5 0 1 1 118.43,291.53Z" style="fill:none;stroke:#F15A60;stroke-width:0.5" />
<path d="M119.36,303.95A2.5,2.5 0 1 1 114.36,303.95A2.5,2.5 0 1 1 119.36,303.95Z" style="fill:none;stroke:#F15A60;stroke-width:0.5" />
<path d="M120.29,315.87A2.5,2.5 0 1 1 115.29,315.87A2.5,2.5 0 1 1 120.29,315.87Z" style="fill:none;stroke:#F15A60;stroke-width:0.5" />
<path d="M121.22,321.75A2.5,2.5 0 1 1 116.22,321.75A2.5,2.5 0 1 1 121.22,321.75Z" style="fill:none;stroke:#F15A60;stroke-width:0.5" />
<path d="M122.15,323.6A2.5,2.5 0 1 1 117.15,323.6A2.5,2.5 0 1 1 122.15,323.6Z" style="fill:none;stroke:#F15A60;stroke-width:0.5" />
<path d="M123.08,327.6A2.5,2.5 0 1 1 118.08,327.6A2.5,2.5 0 1 1 123.08,327.6Z" style="fill:none;stroke:#F15A60;stroke-width:0.5" />
<path d="M124.01,337.19A2.5,2.5 0 1 1 119.01,337.19A2.5,2.5 0 1 1 124.01,337.19Z" style="fill:none;stroke:#F15A60;stroke-width:0.5" />
<path d="M124.94,342.45A2.5,2.5 0 1 1 119.94,342.45A2.5,2.5 0 1 1 124.94,342.45Z" style="fill:none;stroke:#F15A60;stroke-width:0.5" />
<path d="M125.87,346.92A2.5,2.5 0 1 1 120.87,346.92A2.5,2.5 0 1 1 125.87,346.92Z" style="fill:none;stroke:#F15A60;stroke-width:0.5" />
<path d="M126.8,352.87A2.5,2.5 0 1 1 121.8,352.87A2.5,2.5 0 1 1 126.8,352.87Z" style="fill:none;stroke:#F15A60;stroke-width:0.5" />
<path d="M127.73,363.69A2.5,2.5 0 1 1 122.73,363.69A2.5,2.5 0 1 1 127.73,363.69Z" style="fill:none;stroke:#F15A60;stroke-width:0.5" />
<path d="M128.66,366.9A2.5,2.5 0 1 1 123.66,366.9A2.5,2.5 0 1 1 128.66,366.9Z" style="fill:none;stroke:#F15A60;stroke-width:0.5" />
<path d="M129.59,367.73A2.5,2.5 0 1 1 124.59,367.73A2.5,2.5 0 1 1 129.59,367.73Z" style="fill:none;stroke:#F15A60;stroke-width:0.5" />
<path d="M130.52,368.03A2.5,2.5 0 1 1 125.52,368.03A2.5,2.5 0 1 1 130.52,368.03Z" style="fill:none;stroke:#F15A60;stroke-width:0.5" />
<path d="M131.45,373.22A2.5,2.5 0 1 1 126.45,373.22A2.5,2.5 0 1 1 131.45,373.22Z" style="fill:none;stroke:#F15A60;stroke-width:0.5" />
<path d="M132.38,383.91A2.5,2.5 0 1 1 127.38,383.91A2.5,2.5 0 1 1 132.38,383.91Z" style="fill:none;stroke:#F15A60;stroke-width:0.5" />
<path d="M133.31,390.7A2.5,2.5 0 1 1 128.31,390.7A2.5,2.5 0 1 1 133.31,390.7Z" style="fill:none;stroke:#F15A60;stroke-width:0.5" />
<path d="M134.24,395.11A2.5,2.5 0 1 1 129.24,395.11A2.5,2.5 0 1 1 134.24,395.11Z" style="fill:none;stroke:#F15A60;stroke-width:0.5" />
<path d="M135.17,400.96A2.5,2.5 0 1 1 130.17,400.96A2.5,2.5 0 1 1 135.17,400.96Z" style="fill:none;stroke:#F15A60;stroke-width:0.5" />
<path d="M136.11,410.06A2.5,2.5 0 1 1 131.11,410.06A2.5,2.5 0 1 1 136.11,410.06Z" style="fill:none;stroke:#F15A60;stroke-width:0.5" />
<path d="M137.04,411.68A2.5,2.5 0 1 1 132.04,411.68A2.5,2.5 0 1 1 137.04,411.68Z" style="fill:none;stroke:#F15A60;stroke-width:0.5" />
<path d="M59.166,41.963L60.097,44.168L61.027,44.836L61.957,45.874L62.888,46.856L63.818,47.634L64.749,48.598L65.679,49.599L66.61,50.433L67.54,51.434L68.471,52.287L69.401,53.38L70.332,54.363L71.262,55.289L72.193,56.16L73.123,57.161L74.054,58.088L74.984,58.978L75.915,59.923L76.845,60.831L77.776,61.721L78.706,62.685L79.637,63.611L80.567,64.464L81.498,65.502L82.428,66.373L83.359,67.337L84.289,68.264L85.22,69.172L86.15,70.136L87.081,71.025L88.011,71.971L88.942,72.897L89.872,73.806L90.803,74.658L91.733,75.604L92.664,76.604L93.594,77.494L94.525,78.439L95.455,79.385L96.386,80.293L97.316,81.257L98.246,82.146L99.177,83.092L100.11,84.018L101.04,84.927L101.97,85.89L102.9,86.743L103.83,87.725L104.76,88.652L105.69,89.597L106.62,90.468L107.55,91.377L108.48,92.378L109.41,93.193L110.34,94.231L111.27,95.139L112.2,96.084L113.13,96.919L114.06,97.753L115,98.698L115.93,99.773L116.86,100.68L117.79,101.61L118.72,102.53L119.65,103.42L120.58,104.39L121.51,105.35L122.44,106.28L123.37,107.21L124.3,108.1L125.23,109.04L126.16,109.99L127.09,110.89L128.02,111.82L128.95,112.77L129.88,113.6L130.81,114.6L131.74,115.51L132.67,116.45L133.61,117.34L134.54,118.31L135.47,119.22L136.4,120.07L137.33,121.11L138.26,122.01L139.19,122.94L140.12,123.89L141.05,124.81L141.98,125.67L142.91,126.61L143.84,127.54L144.77,128.5L145.7,129.45L146.63,130.32L147.56,131.3L148.49,132.19L149.42,133.15L150.35,134.08L151.28,134.95L152.21,135.92L153.15,136.84L154.08,137.77L155.01,138.62L155.94,139.62L156.87,140.57L157.8,141.44L158.73,142.4L159.66,143.33L160.59,144.24L161.52,145.09L162.45,146.04L163.38,147L164.31,147.96L165.24,148.87L166.17,149.82L167.1,150.67L168.03,151.52L168.96,152.6L169.89,153.49L170.82,154.47L171.75,155.38L172.69,156.29L173.62,157.21L174.55,158.16L175.48,159.03L176.41,159.96L177.34,160.96L178.27,161.83L179.2,162.75L180.13,163.7L181.06,164.64L181.99,165.48L182.92,166.52L183.85,167.37L184.78,168.35L185.71,169.3L186.64,170.19L187.57,171.11L188.5,172.02L189.43,172.86L190.36,173.86L191.3,174.76L192.23,175.65L193.16,176.66L194.09,177.64L195.02,178.55L195.95,179.49L196.88,180.42L197.81,181.31L198.74,182.25L199.67,183.18L200.6,184.07L201.53,185L202.46,185.77L203.39,186.83L204.32,187L205.25,187.18L206.18,187.22L207.11,187.24L208.04,189.82L208.97,190.72L209.9,190.72L210.84,190.96L211.77,192.3L212.7,193.52L213.63,195.19L214.56,195.67L215.49,196.45L216.42,197.51L217.35,198.8L218.28,199.6L219.21,200.16L220.14,201.45L221.07,203.53L222,204.11L222.93,204.74L223.86,206.33L224.79,207.24L225.72,208.31L226.65,208.83L227.58,210.52L228.51,211.48L229.45,212.8L230.38,213.76L231.31,214.65L232.24,215.62L233.17,216.58L234.1,217.43L235.03,218.4L235.96,219.29L236.89,220.29L237.82,221.18L238.75,222.1L239.68,222.97L240.61,223.97L241.54,224.88L242.47,225.83L243.4,226.74L244.33,227.64L245.26,228.53L246.19,229.52L247.12,230.46L248.05,231.35L248.99,232.3L249.92,233.24L250.85,234.13L251.78,235.04L252.71,236L253.64,236.91L254.57,237.88L255.5,238.65L256.43,239.73L257.36,240.56L258.29,241.58L259.22,242.51L260.15,243.4L261.08,244.34L262.01,245.27L262.94,246.18L263.87,247.12L264.8,248L265.73,248.94L266.66,249.85L267.6,250.48L268.53,251.74L269.46,252.67L270.39,253.59L271.32,254.48L272.25,255.47L273.18,256.39L274.11,257.34L275.04,258.23L275.97,259.06L276.9,260.06L277.83,261.03L278.76,261.9L279.69,262.88L280.62,263.82L281.55,264.7L282.48,265.59L283.41,266.6L284.34,267.44L285.27,268.4L286.2,269.35L287.14,270.31L288.07,271.22L289,272.17L289.93,273.09L290.86,274.02L291.79,274.93L292.72,275.85L293.65,276.8L294.58,277.65L295.51,278.67L296.44,279.41L297.37,280.45L298.3,281.38L299.23,282.34L300.16,283.23L301.09,284.1L302.02,285.12L302.95,285.99L303.88,286.88L304.81,287.9L305.75,288.83L306.68,289.72L307.61,290.66L308.54,291.53L309.47,292.48L310.4,293.37L311.33,294.41L312.26,295.32L313.19,296.22L314.12,297.15L315.05,298.06L315.98,298.97L316.91,299.99L317.84,300.89L318.77,301.8L319.7,302.71L320.63,303.62L321.56,304.62L322.49,305.49L323.42,306.4L324.35,307.36L325.29,308.31L326.22,309.23L327.15,310.14L328.08,311.09L329.01,311.94L329.94,312.89L330.87,313.85L331.8,314.7L332.73,315.7L333.66,316.59L334.59,317.58L335.52,318.43L336.45,319.39L337.38,320.26L338.31,321.26L339.24,322.19L340.17,323.06L341.1,324.04L342.03,324.99L342.96,325.92L343.9,326.81L344.83,327.71L345.76,328.68L346.69,329.6L347.62,330.42L348.55,331.38L349.48,332.31L350.41,333.31L351.34,334.24L352.27,335.09L353.2,336.09L354.13,337.04L355.06,337.95L355.99,338.85L356.92,339.74L357.85,340.69L358.78,341.65L359.71,342.52L360.64,343.47L361.57,344.43L362.5,345.38L363.44,346.25L364.37,347.23L365.3,348.16L366.23,348.99L367.16,349.94L368.09,350.94L369.02,351.85L369.95,352.79L370.88,353.63L371.81,354.65L372.74,355.53L373.67,356.46L374.6,357.39L375.53,358.33L376.46,359.24L377.39,360.09L378.32,361.08L379.25,361.98L380.18,362.97L381.11,363.89L382.05,364.75L382.98,365.77L383.91,366.47L384.84,367.56L385.77,368.53L386.7,369.36L387.63,370.36L388.56,371.31L389.49,372.23L390.42,373.18L391.35,374.05L392.28,375.03L393.21,375.94L394.14,376.87L395.07,377.78L396,378.72L396.93,379.67L397.86,380.59L398.79,381.48L399.72,382.45L400.65,383.37L401.59,384.3L402.52,385.23L403.45,386.15L404.38,387.04L405.31,387.99L406.24,388.84L407.17,389.81L408.1,390.77L409.03,391.71L409.96,392.57L410.89,393.49L411.82,394.46L412.75,395.38L413.68,396.29L414.61,397.28L415.54,398.16L416.47,399.11L417.4,400.06L418.33,400.96L419.26,401.89L420.2,402.8L421.13,403.76L422.06,404.69L422.99,405.58L423.92,406.51L424.85,407.43L425.78,408.32L426.71,409.27L427.64,410.25L428.57,411.18L429.5,411.68" style="fill:none;stroke:#7AC36A;stroke-dasharray:6,2" />
<path d="M57.032,39.829L61.3,39.829L61.3,44.097L57.032,44.097Z" style="fill:none;stroke:#7AC36A;stroke-width:0.5" />
<path d="M57.963,42.035L62.23,42.035L62.23,46.302L57.963,46.302Z" style="fill:none;stroke:#7AC36A;stroke-width:0.5" />
<path d="M58.893,42.702L63.161,42.702L63.161,46.97L58.893,46.97Z" style="fill:none;stroke:#7AC36A;stroke-width:0.5" />
<path d="M59.824,43.74L64.091,43.74L64.091,48.008L59.824,48.008Z" style="fill:none;stroke:#7AC36A;stroke-width:0.5" />
<path d="M60.754,44.722L65.022,44.722L65.022,48.99L60.754,48.99Z" style="fill:none;stroke:#7AC36A;stroke-width:0.5" />
<path d="M61.685,45.501L65.952,45.501L65.952,49.768L61.685,49.768Z" style="fill:none;stroke:#7AC36A;stroke-width:0.5" />
<path d="M62.615,46.464L66.883,46.464L66.883,50.732L62.615,50.732Z" style="fill:none;stroke:#7AC36A;stroke-width:0.5" />
<path d="M63.546,47.465L67.813,47.465L67.813,51.733L63.546,51.733Z" style="fill:none;stroke:#7AC36A;stroke-width:0.5" />
<path d="M64.476,48.299L68.744,48.299L68.744,52.567L64.476,52.567Z" style="fill:none;stroke:#7AC36A;stroke-width:0.5" />
<path d="M65.407,49.3L69.674,49.3L69.674,53.568L65.407,53.568Z" style="fill:none;stroke:#7AC36A;stroke-width:0.5" />
<path d="M66.337,50.153L70.605,50.153L70.605,54.421L66.337,54.421Z" style="fill:none;stroke:#7AC36A;stroke-width:0.5" />
<path d="M67.267,51.246L71.535,51.246L71.535,55.514L67.267,55.514Z" style="fill:none;stroke:#7AC36A;stroke-width:0.5" />
<path d="M68.198,52.229L72.466,52.229L72.466,56.496L68.198,56.496Z" style="fill:none;stroke:#7AC36A;stroke-width:0.5" />
<path d="M69.128,53.155L73.396,53.155L73.396,57.423L69.128,57.423Z" style="fill:none;stroke:#7AC36A;stroke-width:0.5" />
<path d="M70.059,54.027L74.327,54.027L74.327,58.294L70.059,58.294Z" style="fill:none;stroke:#7AC36A;stroke-width:0.5" />
<path d="M70.989,55.027L75.257,55.027L75.257,59.295L70.989,59.295Z" style="fill:none;stroke:#7AC36A;stroke-width:0.5" />
<path d="M71.92,55.954L76.188,55.954L76.188,60.222L71.92,60.222Z" style="fill:none;stroke:#7AC36A;stroke-width:0.5" />
<path d="M72.85,56.844L77.118,56.844L77.118,61.112L72.85,61.112Z" style="fill:none;stroke:#7AC36A;stroke-width:0.5" />
<path d="M73.781,57.789L78.049,57.789L78.049,62.057L73.781,62.057Z" style="fill:none;stroke:#7AC36A;stroke-width:0.5" />
<path d="M74.711,58.697L78.979,58.697L78.979,62.965L74.711,62.965Z" style="fill:none;stroke:#7AC36A;stroke-width:0.5" />
<path d="M75.642,59.587L79.91,59.587L79.91,63.855L75.642,63.855Z" style="fill:none;stroke:#7AC36A;stroke-width:0.5" />
<path d="M76.572,60.551L80.84,60.551L80.84,64.819L76.572,64.819Z" style="fill:none;stroke:#7AC36A;stroke-width:0.5" />
<path d="M77.503,61.478L81.771,61.478L81.771,65.745L77.503,65.745Z" style="fill:none;stroke:#7AC36A;stroke-width:0.5" />
<path d="M78.433,62.33L82.701,62.33L82.701,66.598L78.433,66.598Z" style="fill:none;stroke:#7AC36A;stroke-width:0.5" />
<path d="M79.364,63.368L83.632,63.368L83.632,67.636L79.364,67.636Z" style="fill:none;stroke:#7AC36A;stroke-width:0.5" />
<path d="M80.294,64.239L84.562,64.239L84.562,68.507L80.294,68.507Z" style="fill:none;stroke:#7AC36A;stroke-width:0.5" />
<path d="M81.225,65.203L85.493,65.203L85.493,69.471L81.225,69.471Z" style="fill:none;stroke:#7AC36A;stroke-width:0.5" />
<path d="M82.155,66.13L86.423,66.13L86.423,70.398L82.155,70.398Z" style="fill:none;stroke:#7AC36A;stroke-width:0.5" />
<path d="M83.086,67.038L87.354,67.038L87.354,71.306L83.086,71.306Z" style="fill:none;stroke:#7AC36A;stroke-width:0.5" />
<path d="M84.016,68.002L88.284,68.002L88.284,72.27L84.016,72.27Z" style="fill:none;stroke:#7AC36A;stroke-width:0.5" />
<path d="M84.947,68.892L89.215,68.892L89.215,73.159L84.947,73.159Z" style="fill:none;stroke:#7AC36A;stroke-width:0.5" />
<path d="M85.877,69.837L90.145,69.837L90.145,74.105L85.877,74.105Z" style="fill:none;stroke:#7AC36A;stroke-width:0.5" />
<path d="M86.808,70.764L91.075,70.764L91.075,75.031L86.808,75.031Z" style="fill:none;stroke:#7AC36A;stroke-width:0.5" />
<path d="M87.738,71.672L92.006,71.672L92.006,75.94L87.738,75.94Z" style="fill:none;stroke:#7AC36A;stroke-width:0.5" />
<path d="M88.669,72.524L92.936,72.524L92.936,76.792L88.669,76.792Z" style="fill:none;stroke:#7AC36A;stroke-width:0.5" />
<path d="M89.599,73.47L93.867,73.47L93.867,77.737L89.599,77.737Z" style="fill:none;stroke:#7AC36A;stroke-width:0.5" />
<path d="M90.53,74.47L94.797,74.47L94.797,78.738L90.53,78.738Z" style="fill:none;stroke:#7AC36A;stroke-width:0.5" />
<path d="M91.46,75.36L95.728,75.36L95.728,79.628L91.46,79.628Z" style="fill:none;stroke:#7AC36A;stroke-width:0.5" />
<path d="M92.391,76.305L96.658,76.305L96.658,80.573L92.391,80.573Z" style="fill:none;stroke:#7AC36A;stroke-width:0.5" />
<path d="M93.321,77.251L97.589,77.251L97.589,81.518L93.321,81.518Z" style="fill:none;stroke:#7AC36A;stroke-width:0.5" />
<path d="M94.252,78.159L98.519,78.159L98.519,82.427L94.252,82.427Z" style="fill:none;stroke:#7AC36A;stroke-width:0.5" />
<path d="M95.182,79.123L99.45,79.123L99.45,83.391L95.182,83.391Z" style="fill:none;stroke:#7AC36A;stroke-width:0.5" />
<path d="M96.113,80.012L100.38,80.012L100.38,84.28L96.113,84.28Z" style="fill:none;stroke:#7AC36A;stroke-width:0.5" />
<path d="M97.043,80.958L101.31,80.958L101.31,85.225L97.043,85.225Z" style="fill:none;stroke:#7AC36A;stroke-width:0.5" />
<path d="M97.974,81.884L102.24,81.884L102.24,86.152L97.974,86.152Z" style="fill:none;stroke:#7AC36A;stroke-width:0.5" />
<path d="M98.904,82.793L103.17,82.793L103.17,87.06L98.904,87.06Z" style="fill:none;stroke:#7AC36A;stroke-width:0.5" />
<path d="M99.835,83.756L104.1,83.756L104.1,88.024L99.835,88.024Z" style="fill:none;stroke:#7AC36A;stroke-width:0.5" />
<path d="M100.77,84.609L105.03,84.609L105.03,88.877L100.77,88.877Z" style="fill:none;stroke:#7AC36A;stroke-width:0.5" />
<path d="M101.7,85.591L105.96,85.591L105.96,89.859L101.7,89.859Z" style="fill:none;stroke:#7AC36A;stroke-width:0.5" />
<path d="M102.63,86.518L106.89,86.518L106.89,90.786L102.63,90.786Z" style="fill:none;stroke:#7AC36A;stroke-width:0.5" />
<path d="M103.56,87.463L107.82,87.463L107.82,91.731L103.56,91.731Z" style="fill:none;stroke:#7AC36A;stroke-width:0.5" />
<path d="M104.49,88.335L108.75,88.335L108.75,92.602L104.49,92.602Z" style="fill:none;stroke:#7AC36A;stroke-width:0.5" />
<path d="M105.42,89.243L109.69,89.243L109.69,93.511L105.42,93.511Z" style="fill:none;stroke:#7AC36A;stroke-width:0.5" />
<path d="M106.35,90.244L110.62,90.244L110.62,94.511L106.35,94.511Z" style="fill:none;stroke:#7AC36A;stroke-width:0.5" />
<path d="M107.28,91.059L111.55,91.059L111.55,95.327L107.28,95.327Z" style="fill:none;stroke:#7AC36A;stroke-width:0.5" />
<path d="M108.21,92.097L112.48,92.097L112.48,96.365L108.21,96.365Z" style="fill:none;stroke:#7AC36A;stroke-width:0.5" />
<path d="M109.14,93.005L113.41,93.005L113.41,97.273L109.14,97.273Z" style="fill:none;stroke:#7AC36A;stroke-width:0.5" />
<path d="M110.07,93.951L114.34,93.951L114.34,98.218L110.07,98.218Z" style="fill:none;stroke:#7AC36A;stroke-width:0.5" />
<path d="M111,94.785L115.27,94.785L115.27,99.052L111,99.052Z" style="fill:none;stroke:#7AC36A;stroke-width:0.5" />
<path d="M111.93,95.619L116.2,95.619L116.2,99.886L111.93,99.886Z" style="fill:none;stroke:#7AC36A;stroke-width:0.5" />
<path d="M112.86,96.564L117.13,96.564L117.13,100.83L112.86,100.83Z" style="fill:none;stroke:#7AC36A;stroke-width:0.5" />
<path d="M113.79,97.639L118.06,97.639L118.06,101.91L113.79,101.91Z" style="fill:none;stroke:#7AC36A;stroke-width:0.5" />
<path d="M114.72,98.547L118.99,98.547L118.99,102.81L114.72,102.81Z" style="fill:none;stroke:#7AC36A;stroke-width:0.5" />
<path d="M115.65,99.474L119.92,99.474L119.92,103.74L115.65,103.74Z" style="fill:none;stroke:#7AC36A;stroke-width:0.5" />
<path d="M116.58,100.4L120.85,100.4L120.85,104.67L116.58,104.67Z" style="fill:none;stroke:#7AC36A;stroke-width:0.5" />
<path d="M117.51,101.29L121.78,101.29L121.78,105.56L117.51,105.56Z" style="fill:none;stroke:#7AC36A;stroke-width:0.5" />
<path d="M118.44,102.25L122.71,102.25L122.71,106.52L118.44,106.52Z" style="fill:none;stroke:#7AC36A;stroke-width:0.5" />
<path d="M119.37,103.22L123.64,103.22L123.64,107.49L119.37,107.49Z" style="fill:none;stroke:#7AC36A;stroke-width:0.5" />
<path d="M120.31,104.14L124.57,104.14L124.57,108.41L120.31,108.41Z" style="fill:none;stroke:#7AC36A;stroke-width:0.5" />
<path d="M121.24,105.07L125.5,105.07L125.5,109.34L121.24,109.34Z" style="fill:none;stroke:#7AC36A;stroke-width:0.5" />
<path d="M122.17,105.96L126.43,105.96L126.43,110.23L122.17,110.23Z" style="fill:none;stroke:#7AC36A;stroke-width:0.5" />
<path d="M123.1,106.91L127.36,106.91L127.36,111.17L123.1,111.17Z" style="fill:none;stroke:#7AC36A;stroke-width:0.5" />
<path d="M124.03,107.85L128.29,107.85L128.29,112.12L124.03,112.12Z" style="fill:none;stroke:#7AC36A;stroke-width:0.5" />
<path d="M124.96,108.76L129.23,108.76L129.23,113.03L124.96,113.03Z" style="fill:none;stroke:#7AC36A;stroke-width:0.5" />
<path d="M125.89,109.69L130.16,109.69L130.16,113.95L125.89,113.95Z" style="fill:none;stroke:#7AC36A;stroke-width:0.5" />
<path d="M126.82,110.63L131.09,110.63L131.09,114.9L126.82,114.9Z" style="fill:none;stroke:#7AC36A;stroke-width:0.5" />
<path d="M127.75,111.47L132.02,111.47L132.02,115.73L127.75,115.73Z" style="fill:none;stroke:#7AC36A;stroke-width:0.5" />
<path d="M128.68,112.47L132.95,112.47L132.95,116.73L128.68,116.73Z" style="fill:none;stroke:#7AC36A;stroke-width:0.5" />
<path d="M129.61,113.38L133.88,113.38L133.88,117.64L129.61,117.64Z" style="fill:none;stroke:#7AC36A;stroke-width:0.5" />
<path d="M130.54,114.32L134.81,114.32L134.81,118.59L130.54,118.59Z" style="fill:none;stroke:#7AC36A;stroke-width:0.5" />
<path d="M131.47,115.21L135.74,115.21L135.74,119.48L131.47,119.48Z" style="fill:none;stroke:#7AC36A;stroke-width:0.5" />
<path d="M132.4,116.17L136.67,116.17L136.67,120.44L132.4,120.44Z" style="fill:none;stroke:#7AC36A;stroke-width:0.5" />
<path d="M133.33,117.08L137.6,117.08L137.6,121.35L133.33,121.35Z" style="fill:none;stroke:#7AC36A;stroke-width:0.5" />
<path d="M134.26,117.93L138.53,117.93L138.53,122.2L134.26,122.2Z" style="fill:none;stroke:#7AC36A;stroke-width:0.5" />
<path d="M135.19,118.97L139.46,118.97L139.46,123.24L135.19,123.24Z" style="fill:none;stroke:#7AC36A;stroke-width:0.5" />
<path d="M136.12,119.88L140.39,119.88L140.39,124.15L136.12,124.15Z" style="fill:none;stroke:#7AC36A;stroke-width:0.5" />
<path d="M137.05,120.81L141.32,120.81L141.32,125.08L137.05,125.08Z" style="fill:none;stroke:#7AC36A;stroke-width:0.5" />
<path d="M137.98,121.75L142.25,121.75L142.25,126.02L137.98,126.02Z" style="fill:none;stroke:#7AC36A;stroke-width:0.5" />
<path d="M138.92,122.68L143.18,122.68L143.18,126.95L138.92,126.95Z" style="fill:none;stroke:#7AC36A;stroke-width:0.5" />
<path d="M139.85,123.53L144.11,123.53L144.11,127.8L139.85,127.8Z" style="fill:none;stroke:#7AC36A;stroke-width:0.5" />
<path d="M140.78,124.48L145.04,124.48L145.04,128.75L140.78,128.75Z" style="fill:none;stroke:#7AC36A;stroke-width:0.5" />
<path d="M141.71,125.4L145.97,125.4L145.97,129.67L141.71,129.67Z" style="fill:none;stroke:#7AC36A;stroke-width:0.5" />
<path d="M142.64,126.37L146.9,126.37L146.9,130.64L142.64,130.64Z" style="fill:none;stroke:#7AC36A;stroke-width:0.5" />
<path d="M143.57,127.31L147.84,127.31L147.84,131.58L143.57,131.58Z" style="fill:none;stroke:#7AC36A;stroke-width:0.5" />
<path d="M144.5,128.18L148.77,128.18L148.77,132.45L144.5,132.45Z" style="fill:none;stroke:#7AC36A;stroke-width:0.5" />
<path d="M145.43,129.17L149.7,129.17L149.7,133.43L145.43,133.43Z" style="fill:none;stroke:#7AC36A;stroke-width:0.5" />
<path d="M146.36,130.06L150.63,130.06L150.63,134.32L146.36,134.32Z" style="fill:none;stroke:#7AC36A;stroke-width:0.5" />
<path d="M147.29,131.02L151.56,131.02L151.56,135.29L147.29,135.29Z" style="fill:none;stroke:#7AC36A;stroke-width:0.5" />
<path d="M148.22,131.95L152.49,131.95L152.49,136.21L148.22,136.21Z" style="fill:none;stroke:#7AC36A;stroke-width:0.5" />
<path d="M149.15,132.82L153.42,132.82L153.42,137.09L149.15,137.09Z" style="fill:none;stroke:#7AC36A;stroke-width:0.5" />
<path d="M150.08,133.78L154.35,133.78L154.35,138.05L150.08,138.05Z" style="fill:none;stroke:#7AC36A;stroke-width:0.5" />
<path d="M151.01,134.71L155.28,134.71L155.28,138.98L151.01,138.98Z" style="fill:none;stroke:#7AC36A;stroke-width:0.5" />
<path d="M151.94,135.64L156.21,135.64L156.21,139.9L151.94,139.9Z" style="fill:none;stroke:#7AC36A;stroke-width:0.5" />
<path d="M152.87,136.49L157.14,136.49L157.14,140.76L152.87,140.76Z" style="fill:none;stroke:#7AC36A;stroke-width:0.5" />
<path d="M153.8,137.49L158.07,137.49L158.07,141.76L153.8,141.76Z" style="fill:none;stroke:#7AC36A;stroke-width:0.5" />
<path d="M154.73,138.43L159,138.43L159,142.7L154.73,142.7Z" style="fill:none;stroke:#7AC36A;stroke-width:0.5" />
<path d="M155.66,139.31L159.93,139.31L159.93,143.57L155.66,143.57Z" style="fill:none;stroke:#7AC36A;stroke-width:0.5" />
<path d="M156.59,140.27L160.86,140.27L160.86,144.54L156.59,144.54Z" style="fill:none;stroke:#7AC36A;stroke-width:0.5" />
<path d="M157.52,141.2L161.79,141.2L161.79,145.46L157.52,145.46Z" style="fill:none;stroke:#7AC36A;stroke-width:0.5" />
<path d="M158.46,142.1L162.72,142.1L162.72,146.37L158.46,146.37Z" style="fill:none;stroke:#7AC36A;stroke-width:0.5" />
<path d="M159.39,142.96L163.65,142.96L163.65,147.22L159.39,147.22Z" style="fill:none;stroke:#7AC36A;stroke-width:0.5" />
<path d="M160.32,143.9L164.58,143.9L164.58,148.17L160.32,148.17Z" style="fill:none;stroke:#7AC36A;stroke-width:0.5" />
<path d="M161.25,144.87L165.51,144.87L165.51,149.13L161.25,149.13Z" style="fill:none;stroke:#7AC36A;stroke-width:0.5" />
<path d="M162.18,145.83L166.44,145.83L166.44,150.1L162.18,150.1Z" style="fill:none;stroke:#7AC36A;stroke-width:0.5" />
<path d="M163.11,146.74L167.38,146.74L167.38,151.01L163.11,151.01Z" style="fill:none;stroke:#7AC36A;stroke-width:0.5" />
<path d="M164.04,147.68L168.31,147.68L168.31,151.95L164.04,151.95Z" style="fill:none;stroke:#7AC36A;stroke-width:0.5" />
<path d="M164.97,148.54L169.24,148.54L169.24,152.8L164.97,152.8Z" style="fill:none;stroke:#7AC36A;stroke-width:0.5" />
<path d="M165.9,149.39L170.17,149.39L170.17,153.66L165.9,153.66Z" style="fill:none;stroke:#7AC36A;stroke-width:0.5" />
<path d="M166.83,150.46L171.1,150.46L171.1,154.73L166.83,154.73Z" style="fill:none;stroke:#7AC36A;stroke-width:0.5" />
<path d="M167.76,151.35L172.03,151.35L172.03,155.62L167.76,155.62Z" style="fill:none;stroke:#7AC36A;stroke-width:0.5" />
<path d="M168.69,152.34L172.96,152.34L172.96,156.6L168.69,156.6Z" style="fill:none;stroke:#7AC36A;stroke-width:0.5" />
<path d="M169.62,153.24L173.89,153.24L173.89,157.51L169.62,157.51Z" style="fill:none;stroke:#7AC36A;stroke-width:0.5" />
<path d="M170.55,154.15L174.82,154.15L174.82,158.42L170.55,158.42Z" style="fill:none;stroke:#7AC36A;stroke-width:0.5" />
<path d="M171.48,155.08L175.75,155.08L175.75,159.35L171.48,159.35Z" style="fill:none;stroke:#7AC36A;stroke-width:0.5" />
<path d="M172.41,156.02L176.68,156.02L176.68,160.29L172.41,160.29Z" style="fill:none;stroke:#7AC36A;stroke-width:0.5" />
<path d="M173.34,156.89L177.61,156.89L177.61,161.16L173.34,161.16Z" style="fill:none;stroke:#7AC36A;stroke-width:0.5" />
<path d="M174.27,157.82L178.54,157.82L178.54,162.09L174.27,162.09Z" style="fill:none;stroke:#7AC36A;stroke-width:0.5" />
<path d="M175.2,158.82L179.47,158.82L179.47,163.09L175.2,163.09Z" style="fill:none;stroke:#7AC36A;stroke-width:0.5" />
<path d="M176.13,159.69L180.4,159.69L180.4,163.96L176.13,163.96Z" style="fill:none;stroke:#7AC36A;stroke-width:0.5" />
<path d="M177.07,160.62L181.33,160.62L181.33,164.89L177.07,164.89Z" style="fill:none;stroke:#7AC36A;stroke-width:0.5" />
<path d="M178,161.57L182.26,161.57L182.26,165.83L178,165.83Z" style="fill:none;stroke:#7AC36A;stroke-width:0.5" />
<path d="M178.93,162.51L183.19,162.51L183.19,166.78L178.93,166.78Z" style="fill:none;stroke:#7AC36A;stroke-width:0.5" />
<path d="M179.86,163.34L184.12,163.34L184.12,167.61L179.86,167.61Z" style="fill:none;stroke:#7AC36A;stroke-width:0.5" />
<path d="M180.79,164.38L185.05,164.38L185.05,168.65L180.79,168.65Z" style="fill:none;stroke:#7AC36A;stroke-width:0.5" />
<path d="M181.72,165.24L185.99,165.24L185.99,169.5L181.72,169.5Z" style="fill:none;stroke:#7AC36A;stroke-width:0.5" />
<path d="M182.65,166.22L186.92,166.22L186.92,170.49L182.65,170.49Z" style="fill:none;stroke:#7AC36A;stroke-width:0.5" />
<path d="M183.58,167.16L187.85,167.16L187.85,171.43L183.58,171.43Z" style="fill:none;stroke:#7AC36A;stroke-width:0.5" />
<path d="M184.51,168.05L188.78,168.05L188.78,172.32L184.51,172.32Z" style="fill:none;stroke:#7AC36A;stroke-width:0.5" />
<path d="M185.44,168.98L189.71,168.98L189.71,173.25L185.44,173.25Z" style="fill:none;stroke:#7AC36A;stroke-width:0.5" />
<path d="M186.37,169.89L190.64,169.89L190.64,174.16L186.37,174.16Z" style="fill:none;stroke:#7AC36A;stroke-width:0.5" />
<path d="M187.3,170.72L191.57,170.72L191.57,174.99L187.3,174.99Z" style="fill:none;stroke:#7AC36A;stroke-width:0.5" />
<path d="M188.23,171.72L192.5,171.72L192.5,175.99L188.23,175.99Z" style="fill:none;stroke:#7AC36A;stroke-width:0.5" />
<path d="M189.16,172.63L193.43,172.63L193.43,176.9L189.16,176.9Z" style="fill:none;stroke:#7AC36A;stroke-width:0.5" />
<path d="M190.09,173.52L194.36,173.52L194.36,177.79L190.09,177.79Z" style="fill:none;stroke:#7AC36A;stroke-width:0.5" />
<path d="M191.02,174.52L195.29,174.52L195.29,178.79L191.02,178.79Z" style="fill:none;stroke:#7AC36A;stroke-width:0.5" />
<path d="M191.95,175.5L196.22,175.5L196.22,179.77L191.95,179.77Z" style="fill:none;stroke:#7AC36A;stroke-width:0.5" />
<path d="M192.88,176.41L197.15,176.41L197.15,180.68L192.88,180.68Z" style="fill:none;stroke:#7AC36A;stroke-width:0.5" />
<path d="M193.81,177.36L198.08,177.36L198.08,181.63L193.81,181.63Z" style="fill:none;stroke:#7AC36A;stroke-width:0.5" />
<path d="M194.74,178.28L199.01,178.28L199.01,182.55L194.74,182.55Z" style="fill:none;stroke:#7AC36A;stroke-width:0.5" />
<path d="M195.67,179.17L199.94,179.17L199.94,183.44L195.67,183.44Z" style="fill:none;stroke:#7AC36A;stroke-width:0.5" />
<path d="M196.61,180.12L200.87,180.12L200.87,184.39L196.61,184.39Z" style="fill:none;stroke:#7AC36A;stroke-width:0.5" />
<path d="M197.54,181.05L201.8,181.05L201.8,185.31L197.54,185.31Z" style="fill:none;stroke:#7AC36A;stroke-width:0.5" />
<path d="M198.47,181.94L202.73,181.94L202.73,186.2L198.47,186.2Z" style="fill:none;stroke:#7AC36A;stroke-width:0.5" />
<path d="M199.4,182.86L203.66,182.86L203.66,187.13L199.4,187.13Z" style="fill:none;stroke:#7AC36A;stroke-width:0.5" />
<path d="M200.33,183.64L204.59,183.64L204.59,187.91L200.33,187.91Z" style="fill:none;stroke:#7AC36A;stroke-width:0.5" />
<path d="M201.26,184.7L205.53,184.7L205.53,188.96L201.26,188.96Z" style="fill:none;stroke:#7AC36A;stroke-width:0.5" />
<path d="M202.19,184.86L206.46,184.86L206.46,189.13L202.19,189.13Z" style="fill:none;stroke:#7AC36A;stroke-width:0.5" />
<path d="M203.12,185.05L207.39,185.05L207.39,189.32L203.12,189.32Z" style="fill:none;stroke:#7AC36A;stroke-width:0.5" />
<path d="M204.05,185.09L208.32,185.09L208.32,189.35L204.05,189.35Z" style="fill:none;stroke:#7AC36A;stroke-width:0.5" />
<path d="M204.98,185.1L209.25,185.1L209.25,189.37L204.98,189.37Z" style="fill:none;stroke:#7AC36A;stroke-width:0.5" />
<path d="M205.91,187.68L210.18,187.68L210.18,191.95L205.91,191.95Z" style="fill:none;stroke:#7AC36A;stroke-width:0.5" />
<path d="M206.84,188.59L211.11,188.59L211.11,192.86L206.84,192.86Z" style="fill:none;stroke:#7AC36A;stroke-width:0.5" />
<path d="M207.77,188.59L212.04,188.59L212.04,192.86L207.77,192.86Z" style="fill:none;stroke:#7AC36A;stroke-width:0.5" />
<path d="M208.7,188.83L212.97,188.83L212.97,193.1L208.7,193.1Z" style="fill:none;stroke:#7AC36A;stroke-width:0.5" />
<path d="M209.63,190.16L213.9,190.16L213.9,194.43L209.63,194.43Z" style="fill:none;stroke:#7AC36A;stroke-width:0.5" />
<path d="M210.56,191.39L214.83,191.39L214.83,195.66L210.56,195.66Z" style="fill:none;stroke:#7AC36A;stroke-width:0.5" />
<path d="M211.49,193.06L215.76,193.06L215.76,197.32L211.49,197.32Z" style="fill:none;stroke:#7AC36A;stroke-width:0.5" />
<path d="M212.42,193.54L216.69,193.54L216.69,197.81L212.42,197.81Z" style="fill:none;stroke:#7AC36A;stroke-width:0.5" />
<path d="M213.35,194.32L217.62,194.32L217.62,198.58L213.35,198.58Z" style="fill:none;stroke:#7AC36A;stroke-width:0.5" />
<path d="M214.28,195.37L218.55,195.37L218.55,199.64L214.28,199.64Z" style="fill:none;stroke:#7AC36A;stroke-width:0.5" />
<path d="M215.21,196.67L219.48,196.67L219.48,200.94L215.21,200.94Z" style="fill:none;stroke:#7AC36A;stroke-width:0.5" />
<path d="M216.15,197.47L220.41,197.47L220.41,201.74L216.15,201.74Z" style="fill:none;stroke:#7AC36A;stroke-width:0.5" />
<path d="M217.08,198.02L221.34,198.02L221.34,202.29L217.08,202.29Z" style="fill:none;stroke:#7AC36A;stroke-width:0.5" />
<path d="M218.01,199.32L222.27,199.32L222.27,203.59L218.01,203.59Z" style="fill:none;stroke:#7AC36A;stroke-width:0.5" />
<path d="M218.94,201.4L223.2,201.4L223.2,205.66L218.94,205.66Z" style="fill:none;stroke:#7AC36A;stroke-width:0.5" />
<path d="M219.87,201.97L224.14,201.97L224.14,206.24L219.87,206.24Z" style="fill:none;stroke:#7AC36A;stroke-width:0.5" />
<path d="M220.8,202.6L225.07,202.6L225.07,206.87L220.8,206.87Z" style="fill:none;stroke:#7AC36A;stroke-width:0.5" />
<path d="M221.73,204.2L226,204.2L226,208.46L221.73,208.46Z" style="fill:none;stroke:#7AC36A;stroke-width:0.5" />
<path d="M222.66,205.1L226.93,205.1L226.93,209.37L222.66,209.37Z" style="fill:none;stroke:#7AC36A;stroke-width:0.5" />
<path d="M223.59,206.18L227.86,206.18L227.86,210.45L223.59,210.45Z" style="fill:none;stroke:#7AC36A;stroke-width:0.5" />
<path d="M224.52,206.7L228.79,206.7L228.79,210.97L224.52,210.97Z" style="fill:none;stroke:#7AC36A;stroke-width:0.5" />
<path d="M225.45,208.38L229.72,208.38L229.72,212.65L225.45,212.65Z" style="fill:none;stroke:#7AC36A;stroke-width:0.5" />
<path d="M226.38,209.35L230.65,209.35L230.65,213.62L226.38,213.62Z" style="fill:none;stroke:#7AC36A;stroke-width:0.5" />
<path d="M227.31,210.66L231.58,210.66L231.58,214.93L227.31,214.93Z" style="fill:none;stroke:#7AC36A;stroke-width:0.5" />
<path d="M228.24,211.63L232.51,211.63L232.51,215.9L228.24,215.9Z" style="fill:none;stroke:#7AC36A;stroke-width:0.5" />
<path d="M229.17,212.52L233.44,212.52L233.44,216.79L229.17,216.79Z" style="fill:none;stroke:#7AC36A;stroke-width:0.5" />
<path d="M230.1,213.48L234.37,213.48L234.37,217.75L230.1,217.75Z" style="fill:none;stroke:#7AC36A;stroke-width:0.5" />
<path d="M231.03,214.45L235.3,214.45L235.3,218.71L231.03,218.71Z" style="fill:none;stroke:#7AC36A;stroke-width:0.5" />
<path d="M231.96,215.3L236.23,215.3L236.23,219.57L231.96,219.57Z" style="fill:none;stroke:#7AC36A;stroke-width:0.5" />
<path d="M232.89,216.26L237.16,216.26L237.16,220.53L232.89,220.53Z" style="fill:none;stroke:#7AC36A;stroke-width:0.5" />
<path d="M233.82,217.15L238.09,217.15L238.09,221.42L233.82,221.42Z" style="fill:none;stroke:#7AC36A;stroke-width:0.5" />
<path d="M234.76,218.15L239.02,218.15L239.02,222.42L234.76,222.42Z" style="fill:none;stroke:#7AC36A;stroke-width:0.5" />
<path d="M235.69,219.04L239.95,219.04L239.95,223.31L235.69,223.31Z" style="fill:none;stroke:#7AC36A;stroke-width:0.5" />
<path d="M236.62,219.97L240.88,219.97L240.88,224.24L236.62,224.24Z" style="fill:none;stroke:#7AC36A;stroke-width:0.5" />
<path d="M237.55,220.84L241.81,220.84L241.81,225.11L237.55,225.11Z" style="fill:none;stroke:#7AC36A;stroke-width:0.5" />
<path d="M238.48,221.84L242.74,221.84L242.74,226.11L238.48,226.11Z" style="fill:none;stroke:#7AC36A;stroke-width:0.5" />
<path d="M239.41,222.75L243.68,222.75L243.68,227.02L239.41,227.02Z" style="fill:none;stroke:#7AC36A;stroke-width:0.5" />
<path d="M240.34,223.69L244.61,223.69L244.61,227.96L240.34,227.96Z" style="fill:none;stroke:#7AC36A;stroke-width:0.5" />
<path d="M241.27,224.6L245.54,224.6L245.54,228.87L241.27,228.87Z" style="fill:none;stroke:#7AC36A;stroke-width:0.5" />
<path d="M242.2,225.51L246.47,225.51L246.47,229.78L242.2,229.78Z" style="fill:none;stroke:#7AC36A;stroke-width:0.5" />
<path d="M243.13,226.4L247.4,226.4L247.4,230.67L243.13,230.67Z" style="fill:none;stroke:#7AC36A;stroke-width:0.5" />
<path d="M244.06,227.38L248.33,227.38L248.33,231.65L244.06,231.65Z" style="fill:none;stroke:#7AC36A;stroke-width:0.5" />
<path d="M244.99,228.33L249.26,228.33L249.26,232.6L244.99,232.6Z" style="fill:none;stroke:#7AC36A;stroke-width:0.5" />
<path d="M245.92,229.22L250.19,229.22L250.19,233.49L245.92,233.49Z" style="fill:none;stroke:#7AC36A;stroke-width:0.5" />
<path d="M246.85,230.16L251.12,230.16L251.12,234.43L246.85,234.43Z" style="fill:none;stroke:#7AC36A;stroke-width:0.5" />
<path d="M247.78,231.11L252.05,231.11L252.05,235.38L247.78,235.38Z" style="fill:none;stroke:#7AC36A;stroke-width:0.5" />
<path d="M248.71,232L252.98,232L252.98,236.27L248.71,236.27Z" style="fill:none;stroke:#7AC36A;stroke-width:0.5" />
<path d="M249.64,232.91L253.91,232.91L253.91,237.17L249.64,237.17Z" style="fill:none;stroke:#7AC36A;stroke-width:0.5" />
<path d="M250.57,233.87L254.84,233.87L254.84,238.14L250.57,238.14Z" style="fill:none;stroke:#7AC36A;stroke-width:0.5" />
<path d="M251.5,234.78L255.77,234.78L255.77,239.05L251.5,239.05Z" style="fill:none;stroke:#7AC36A;stroke-width:0.5" />
<path d="M252.43,235.74L256.7,235.74L256.7,240.01L252.43,240.01Z" style="fill:none;stroke:#7AC36A;stroke-width:0.5" />
<path d="M253.36,236.52L257.63,236.52L257.63,240.79L253.36,240.79Z" style="fill:none;stroke:#7AC36A;stroke-width:0.5" />
<path d="M254.3,237.6L258.56,237.6L258.56,241.86L254.3,241.86Z" style="fill:none;stroke:#7AC36A;stroke-width:0.5" />
<path d="M255.23,238.43L259.49,238.43L259.49,242.7L255.23,242.7Z" style="fill:none;stroke:#7AC36A;stroke-width:0.5" />
<path d="M256.16,239.45L260.42,239.45L260.42,243.72L256.16,243.72Z" style="fill:none;stroke:#7AC36A;stroke-width:0.5" />
<path d="M257.09,240.38L261.35,240.38L261.35,244.64L257.09,244.64Z" style="fill:none;stroke:#7AC36A;stroke-width:0.5" />
<path d="M258.02,241.27L262.29,241.27L262.29,245.53L258.02,245.53Z" style="fill:none;stroke:#7AC36A;stroke-width:0.5" />
<path d="M258.95,242.21L263.22,242.21L263.22,246.48L258.95,246.48Z" style="fill:none;stroke:#7AC36A;stroke-width:0.5" />
<path d="M259.88,243.14L264.15,243.14L264.15,247.41L259.88,247.41Z" style="fill:none;stroke:#7AC36A;stroke-width:0.5" />
<path d="M260.81,244.05L265.08,244.05L265.08,248.31L260.81,248.31Z" style="fill:none;stroke:#7AC36A;stroke-width:0.5" />
<path d="M261.74,244.99L266.01,244.99L266.01,249.26L261.74,249.26Z" style="fill:none;stroke:#7AC36A;stroke-width:0.5" />
<path d="M262.67,245.86L266.94,245.86L266.94,250.13L262.67,250.13Z" style="fill:none;stroke:#7AC36A;stroke-width:0.5" />
<path d="M263.6,246.81L267.87,246.81L267.87,251.07L263.6,251.07Z" style="fill:none;stroke:#7AC36A;stroke-width:0.5" />
<path d="M264.53,247.72L268.8,247.72L268.8,251.98L264.53,251.98Z" style="fill:none;stroke:#7AC36A;stroke-width:0.5" />
<path d="M265.46,248.35L269.73,248.35L269.73,252.61L265.46,252.61Z" style="fill:none;stroke:#7AC36A;stroke-width:0.5" />
<path d="M266.39,249.61L270.66,249.61L270.66,253.87L266.39,253.87Z" style="fill:none;stroke:#7AC36A;stroke-width:0.5" />
<path d="M267.32,250.53L271.59,250.53L271.59,254.8L267.32,254.8Z" style="fill:none;stroke:#7AC36A;stroke-width:0.5" />
<path d="M268.25,251.46L272.52,251.46L272.52,255.73L268.25,255.73Z" style="fill:none;stroke:#7AC36A;stroke-width:0.5" />
<path d="M269.18,252.35L273.45,252.35L273.45,256.62L269.18,256.62Z" style="fill:none;stroke:#7AC36A;stroke-width:0.5" />
<path d="M270.11,253.33L274.38,253.33L274.38,257.6L270.11,257.6Z" style="fill:none;stroke:#7AC36A;stroke-width:0.5" />
<path d="M271.04,254.26L275.31,254.26L275.31,258.53L271.04,258.53Z" style="fill:none;stroke:#7AC36A;stroke-width:0.5" />
<path d="M271.97,255.2L276.24,255.2L276.24,259.47L271.97,259.47Z" style="fill:none;stroke:#7AC36A;stroke-width:0.5" />
<path d="M272.91,256.09L277.17,256.09L277.17,260.36L272.91,260.36Z" style="fill:none;stroke:#7AC36A;stroke-width:0.5" />
<path d="M273.84,256.93L278.1,256.93L278.1,261.19L273.84,261.19Z" style="fill:none;stroke:#7AC36A;stroke-width:0.5" />
<path d="M274.77,257.93L279.03,257.93L279.03,262.2L274.77,262.2Z" style="fill:none;stroke:#7AC36A;stroke-width:0.5" />
<path d="M275.7,258.89L279.96,258.89L279.96,263.16L275.7,263.16Z" style="fill:none;stroke:#7AC36A;stroke-width:0.5" />
<path d="M276.63,259.76L280.89,259.76L280.89,264.03L276.63,264.03Z" style="fill:none;stroke:#7AC36A;stroke-width:0.5" />
<path d="M277.56,260.75L281.83,260.75L281.83,265.01L277.56,265.01Z" style="fill:none;stroke:#7AC36A;stroke-width:0.5" />
<path d="M278.49,261.69L282.76,261.69L282.76,265.96L278.49,265.96Z" style="fill:none;stroke:#7AC36A;stroke-width:0.5" />
<path d="M279.42,262.56L283.69,262.56L283.69,266.83L279.42,266.83Z" style="fill:none;stroke:#7AC36A;stroke-width:0.5" />
<path d="M280.35,263.45L284.62,263.45L284.62,267.72L280.35,267.72Z" style="fill:none;stroke:#7AC36A;stroke-width:0.5" />
<path d="M281.28,264.47L285.55,264.47L285.55,268.74L281.28,268.74Z" style="fill:none;stroke:#7AC36A;stroke-width:0.5" />
<path d="M282.21,265.3L286.48,265.3L286.48,269.57L282.21,269.57Z" style="fill:none;stroke:#7AC36A;stroke-width:0.5" />
<path d="M283.14,266.27L287.41,266.27L287.41,270.54L283.14,270.54Z" style="fill:none;stroke:#7AC36A;stroke-width:0.5" />
<path d="M284.07,267.21L288.34,267.21L288.34,271.48L284.07,271.48Z" style="fill:none;stroke:#7AC36A;stroke-width:0.5" />
<path d="M285,268.18L289.27,268.18L289.27,272.45L285,272.45Z" style="fill:none;stroke:#7AC36A;stroke-width:0.5" />
<path d="M285.93,269.09L290.2,269.09L290.2,273.35L285.93,273.35Z" style="fill:none;stroke:#7AC36A;stroke-width:0.5" />
<path d="M286.86,270.03L291.13,270.03L291.13,274.3L286.86,274.3Z" style="fill:none;stroke:#7AC36A;stroke-width:0.5" />
<path d="M287.79,270.96L292.06,270.96L292.06,275.23L287.79,275.23Z" style="fill:none;stroke:#7AC36A;stroke-width:0.5" />
<path d="M288.72,271.88L292.99,271.88L292.99,276.15L288.72,276.15Z" style="fill:none;stroke:#7AC36A;stroke-width:0.5" />
<path d="M289.65,272.79L293.92,272.79L293.92,277.06L289.65,277.06Z" style="fill:none;stroke:#7AC36A;stroke-width:0.5" />
<path d="M290.58,273.72L294.85,273.72L294.85,277.99L290.58,277.99Z" style="fill:none;stroke:#7AC36A;stroke-width:0.5" />
<path d="M291.51,274.67L295.78,274.67L295.78,278.93L291.51,278.93Z" style="fill:none;stroke:#7AC36A;stroke-width:0.5" />
<path d="M292.45,275.52L296.71,275.52L296.71,279.79L292.45,279.79Z" style="fill:none;stroke:#7AC36A;stroke-width:0.5" />
<path d="M293.38,276.54L297.64,276.54L297.64,280.8L293.38,280.8Z" style="fill:none;stroke:#7AC36A;stroke-width:0.5" />
<path d="M294.31,277.28L298.57,277.28L298.57,281.55L294.31,281.55Z" style="fill:none;stroke:#7AC36A;stroke-width:0.5" />
<path d="M295.24,278.32L299.5,278.32L299.5,282.58L295.24,282.58Z" style="fill:none;stroke:#7AC36A;stroke-width:0.5" />
<path d="M296.17,279.24L300.44,279.24L300.44,283.51L296.17,283.51Z" style="fill:none;stroke:#7AC36A;stroke-width:0.5" />
<path d="M297.1,280.21L301.37,280.21L301.37,284.47L297.1,284.47Z" style="fill:none;stroke:#7AC36A;stroke-width:0.5" />
<path d="M298.03,281.1L302.3,281.1L302.3,285.36L298.03,285.36Z" style="fill:none;stroke:#7AC36A;stroke-width:0.5" />
<path d="M298.96,281.97L303.23,281.97L303.23,286.24L298.96,286.24Z" style="fill:none;stroke:#7AC36A;stroke-width:0.5" />
<path d="M299.89,282.99L304.16,282.99L304.16,287.25L299.89,287.25Z" style="fill:none;stroke:#7AC36A;stroke-width:0.5" />
<path d="M300.82,283.86L305.09,283.86L305.09,288.13L300.82,288.13Z" style="fill:none;stroke:#7AC36A;stroke-width:0.5" />
<path d="M301.75,284.75L306.02,284.75L306.02,289.02L301.75,289.02Z" style="fill:none;stroke:#7AC36A;stroke-width:0.5" />
<path d="M302.68,285.77L306.95,285.77L306.95,290.04L302.68,290.04Z" style="fill:none;stroke:#7AC36A;stroke-width:0.5" />
<path d="M303.61,286.69L307.88,286.69L307.88,290.96L303.61,290.96Z" style="fill:none;stroke:#7AC36A;stroke-width:0.5" />
<path d="M304.54,287.58L308.81,287.58L308.81,291.85L304.54,291.85Z" style="fill:none;stroke:#7AC36A;stroke-width:0.5" />
<path d="M305.47,288.53L309.74,288.53L309.74,292.8L305.47,292.8Z" style="fill:none;stroke:#7AC36A;stroke-width:0.5" />
<path d="M306.4,289.4L310.67,289.4L310.67,293.67L306.4,293.67Z" style="fill:none;stroke:#7AC36A;stroke-width:0.5" />
<path d="M307.33,290.35L311.6,290.35L311.6,294.61L307.33,294.61Z" style="fill:none;stroke:#7AC36A;stroke-width:0.5" />
<path d="M308.26,291.24L312.53,291.24L312.53,295.5L308.26,295.5Z" style="fill:none;stroke:#7AC36A;stroke-width:0.5" />
<path d="M309.19,292.27L313.46,292.27L313.46,296.54L309.19,296.54Z" style="fill:none;stroke:#7AC36A;stroke-width:0.5" />
<path d="M310.12,293.18L314.39,293.18L314.39,297.45L310.12,297.45Z" style="fill:none;stroke:#7AC36A;stroke-width:0.5" />
<path d="M311.06,294.09L315.32,294.09L315.32,298.36L311.06,298.36Z" style="fill:none;stroke:#7AC36A;stroke-width:0.5" />
<path d="M311.99,295.02L316.25,295.02L316.25,299.28L311.99,299.28Z" style="fill:none;stroke:#7AC36A;stroke-width:0.5" />
<path d="M312.92,295.92L317.18,295.92L317.18,300.19L312.92,300.19Z" style="fill:none;stroke:#7AC36A;stroke-width:0.5" />
<path d="M313.85,296.83L318.11,296.83L318.11,301.1L313.85,301.1Z" style="fill:none;stroke:#7AC36A;stroke-width:0.5" />
<path d="M314.78,297.85L319.04,297.85L319.04,302.12L314.78,302.12Z" style="fill:none;stroke:#7AC36A;stroke-width:0.5" />
<path d="M315.71,298.76L319.98,298.76L319.98,303.03L315.71,303.03Z" style="fill:none;stroke:#7AC36A;stroke-width:0.5" />
<path d="M316.64,299.67L320.91,299.67L320.91,303.94L316.64,303.94Z" style="fill:none;stroke:#7AC36A;stroke-width:0.5" />
<path d="M317.57,300.58L321.84,300.58L321.84,304.84L317.57,304.84Z" style="fill:none;stroke:#7AC36A;stroke-width:0.5" />
<path d="M318.5,301.48L322.77,301.48L322.77,305.75L318.5,305.75Z" style="fill:none;stroke:#7AC36A;stroke-width:0.5" />
<path d="M319.43,302.49L323.7,302.49L323.7,306.75L319.43,306.75Z" style="fill:none;stroke:#7AC36A;stroke-width:0.5" />
<path d="M320.36,303.36L324.63,303.36L324.63,307.62L320.36,307.62Z" style="fill:none;stroke:#7AC36A;stroke-width:0.5" />
<path d="M321.29,304.27L325.56,304.27L325.56,308.53L321.29,308.53Z" style="fill:none;stroke:#7AC36A;stroke-width:0.5" />
<path d="M322.22,305.23L326.49,305.23L326.49,309.5L322.22,309.5Z" style="fill:none;stroke:#7AC36A;stroke-width:0.5" />
<path d="M323.15,306.17L327.42,306.17L327.42,310.44L323.15,310.44Z" style="fill:none;stroke:#7AC36A;stroke-width:0.5" />
<path d="M324.08,307.1L328.35,307.1L328.35,311.37L324.08,311.37Z" style="fill:none;stroke:#7AC36A;stroke-width:0.5" />
<path d="M325.01,308.01L329.28,308.01L329.28,312.28L325.01,312.28Z" style="fill:none;stroke:#7AC36A;stroke-width:0.5" />
<path d="M325.94,308.95L330.21,308.95L330.21,313.22L325.94,313.22Z" style="fill:none;stroke:#7AC36A;stroke-width:0.5" />
<path d="M326.87,309.81L331.14,309.81L331.14,314.07L326.87,314.07Z" style="fill:none;stroke:#7AC36A;stroke-width:0.5" />
<path d="M327.8,310.75L332.07,310.75L332.07,315.02L327.8,315.02Z" style="fill:none;stroke:#7AC36A;stroke-width:0.5" />
<path d="M328.73,311.72L333,311.72L333,315.98L328.73,315.98Z" style="fill:none;stroke:#7AC36A;stroke-width:0.5" />
<path d="M329.66,312.57L333.93,312.57L333.93,316.84L329.66,316.84Z" style="fill:none;stroke:#7AC36A;stroke-width:0.5" />
<path d="M330.6,313.57L334.86,313.57L334.86,317.84L330.6,317.84Z" style="fill:none;stroke:#7AC36A;stroke-width:0.5" />
<path d="M331.53,314.46L335.79,314.46L335.79,318.73L331.53,318.73Z" style="fill:none;stroke:#7AC36A;stroke-width:0.5" />
<path d="M332.46,315.44L336.72,315.44L336.72,319.71L332.46,319.71Z" style="fill:none;stroke:#7AC36A;stroke-width:0.5" />
<path d="M333.39,316.29L337.65,316.29L337.65,320.56L333.39,320.56Z" style="fill:none;stroke:#7AC36A;stroke-width:0.5" />
<path d="M334.32,317.26L338.59,317.26L338.59,321.53L334.32,321.53Z" style="fill:none;stroke:#7AC36A;stroke-width:0.5" />
<path d="M335.25,318.13L339.52,318.13L339.52,322.4L335.25,322.4Z" style="fill:none;stroke:#7AC36A;stroke-width:0.5" />
<path d="M336.18,319.13L340.45,319.13L340.45,323.4L336.18,323.4Z" style="fill:none;stroke:#7AC36A;stroke-width:0.5" />
<path d="M337.11,320.06L341.38,320.06L341.38,324.32L337.11,324.32Z" style="fill:none;stroke:#7AC36A;stroke-width:0.5" />
<path d="M338.04,320.93L342.31,320.93L342.31,325.2L338.04,325.2Z" style="fill:none;stroke:#7AC36A;stroke-width:0.5" />
<path d="M338.97,321.91L343.24,321.91L343.24,326.18L338.97,326.18Z" style="fill:none;stroke:#7AC36A;stroke-width:0.5" />
<path d="M339.9,322.86L344.17,322.86L344.17,327.12L339.9,327.12Z" style="fill:none;stroke:#7AC36A;stroke-width:0.5" />
<path d="M340.83,323.78L345.1,323.78L345.1,328.05L340.83,328.05Z" style="fill:none;stroke:#7AC36A;stroke-width:0.5" />
<path d="M341.76,324.67L346.03,324.67L346.03,328.94L341.76,328.94Z" style="fill:none;stroke:#7AC36A;stroke-width:0.5" />
<path d="M342.69,325.58L346.96,325.58L346.96,329.85L342.69,329.85Z" style="fill:none;stroke:#7AC36A;stroke-width:0.5" />
<path d="M343.62,326.54L347.89,326.54L347.89,330.81L343.62,330.81Z" style="fill:none;stroke:#7AC36A;stroke-width:0.5" />
<path d="M344.55,327.47L348.82,327.47L348.82,331.74L344.55,331.74Z" style="fill:none;stroke:#7AC36A;stroke-width:0.5" />
<path d="M345.48,328.29L349.75,328.29L349.75,332.55L345.48,332.55Z" style="fill:none;stroke:#7AC36A;stroke-width:0.5" />
<path d="M346.41,329.25L350.68,329.25L350.68,333.52L346.41,333.52Z" style="fill:none;stroke:#7AC36A;stroke-width:0.5" />
<path d="M347.34,330.18L351.61,330.18L351.61,334.44L347.34,334.44Z" style="fill:none;stroke:#7AC36A;stroke-width:0.5" />
<path d="M348.27,331.18L352.54,331.18L352.54,335.45L348.27,335.45Z" style="fill:none;stroke:#7AC36A;stroke-width:0.5" />
<path d="M349.21,332.1L353.47,332.1L353.47,336.37L349.21,336.37Z" style="fill:none;stroke:#7AC36A;stroke-width:0.5" />
<path d="M350.14,332.96L354.4,332.96L354.4,337.22L350.14,337.22Z" style="fill:none;stroke:#7AC36A;stroke-width:0.5" />
<path d="M351.07,333.96L355.33,333.96L355.33,338.23L351.07,338.23Z" style="fill:none;stroke:#7AC36A;stroke-width:0.5" />
<path d="M352,334.9L356.26,334.9L356.26,339.17L352,339.17Z" style="fill:none;stroke:#7AC36A;stroke-width:0.5" />
<path d="M352.93,335.81L357.19,335.81L357.19,340.08L352.93,340.08Z" style="fill:none;stroke:#7AC36A;stroke-width:0.5" />
<path d="M353.86,336.72L358.13,336.72L358.13,340.99L353.86,340.99Z" style="fill:none;stroke:#7AC36A;stroke-width:0.5" />
<path d="M354.79,337.61L359.06,337.61L359.06,341.88L354.79,341.88Z" style="fill:none;stroke:#7AC36A;stroke-width:0.5" />
<path d="M355.72,338.55L359.99,338.55L359.99,342.82L355.72,342.82Z" style="fill:none;stroke:#7AC36A;stroke-width:0.5" />
<path d="M356.65,339.52L360.92,339.52L360.92,343.79L356.65,343.79Z" style="fill:none;stroke:#7AC36A;stroke-width:0.5" />
<path d="M357.58,340.39L361.85,340.39L361.85,344.66L357.58,344.66Z" style="fill:none;stroke:#7AC36A;stroke-width:0.5" />
<path d="M358.51,341.33L362.78,341.33L362.78,345.6L358.51,345.6Z" style="fill:none;stroke:#7AC36A;stroke-width:0.5" />
<path d="M359.44,342.3L363.71,342.3L363.71,346.57L359.44,346.57Z" style="fill:none;stroke:#7AC36A;stroke-width:0.5" />
<path d="M360.37,343.24L364.64,343.24L364.64,347.51L360.37,347.51Z" style="fill:none;stroke:#7AC36A;stroke-width:0.5" />
<path d="M361.3,344.11L365.57,344.11L365.57,348.38L361.3,348.38Z" style="fill:none;stroke:#7AC36A;stroke-width:0.5" />
<path d="M362.23,345.1L366.5,345.1L366.5,349.37L362.23,349.37Z" style="fill:none;stroke:#7AC36A;stroke-width:0.5" />
<path d="M363.16,346.02L367.43,346.02L367.43,350.29L363.16,350.29Z" style="fill:none;stroke:#7AC36A;stroke-width:0.5" />
<path d="M364.09,346.86L368.36,346.86L368.36,351.13L364.09,351.13Z" style="fill:none;stroke:#7AC36A;stroke-width:0.5" />
<path d="M365.02,347.8L369.29,347.8L369.29,352.07L365.02,352.07Z" style="fill:none;stroke:#7AC36A;stroke-width:0.5" />
<path d="M365.95,348.8L370.22,348.8L370.22,353.07L365.95,353.07Z" style="fill:none;stroke:#7AC36A;stroke-width:0.5" />
<path d="M366.88,349.71L371.15,349.71L371.15,353.98L366.88,353.98Z" style="fill:none;stroke:#7AC36A;stroke-width:0.5" />
<path d="M367.81,350.66L372.08,350.66L372.08,354.93L367.81,354.93Z" style="fill:none;stroke:#7AC36A;stroke-width:0.5" />
<path d="M368.75,351.49L373.01,351.49L373.01,355.76L368.75,355.76Z" style="fill:none;stroke:#7AC36A;stroke-width:0.5" />
<path d="M369.68,352.51L373.94,352.51L373.94,356.78L369.68,356.78Z" style="fill:none;stroke:#7AC36A;stroke-width:0.5" />
<path d="M370.61,353.4L374.87,353.4L374.87,357.67L370.61,357.67Z" style="fill:none;stroke:#7AC36A;stroke-width:0.5" />
<path d="M371.54,354.33L375.8,354.33L375.8,358.6L371.54,358.6Z" style="fill:none;stroke:#7AC36A;stroke-width:0.5" />
<path d="M372.47,355.25L376.74,355.25L376.74,359.52L372.47,359.52Z" style="fill:none;stroke:#7AC36A;stroke-width:0.5" />
<path d="M373.4,356.2L377.67,356.2L377.67,360.47L373.4,360.47Z" style="fill:none;stroke:#7AC36A;stroke-width:0.5" />
<path d="M374.33,357.11L378.6,357.11L378.6,361.38L374.33,361.38Z" style="fill:none;stroke:#7AC36A;stroke-width:0.5" />
<path d="M375.26,357.96L379.53,357.96L379.53,362.23L375.26,362.23Z" style="fill:none;stroke:#7AC36A;stroke-width:0.5" />
<path d="M376.19,358.94L380.46,358.94L380.46,363.21L376.19,363.21Z" style="fill:none;stroke:#7AC36A;stroke-width:0.5" />
<path d="M377.12,359.85L381.39,359.85L381.39,364.12L377.12,364.12Z" style="fill:none;stroke:#7AC36A;stroke-width:0.5" />
<path d="M378.05,360.83L382.32,360.83L382.32,365.1L378.05,365.1Z" style="fill:none;stroke:#7AC36A;stroke-width:0.5" />
<path d="M378.98,361.76L383.25,361.76L383.25,366.03L378.98,366.03Z" style="fill:none;stroke:#7AC36A;stroke-width:0.5" />
<path d="M379.91,362.61L384.18,362.61L384.18,366.88L379.91,366.88Z" style="fill:none;stroke:#7AC36A;stroke-width:0.5" />
<path d="M380.84,363.63L385.11,363.63L385.11,367.9L380.84,367.9Z" style="fill:none;stroke:#7AC36A;stroke-width:0.5" />
<path d="M381.77,364.34L386.04,364.34L386.04,368.6L381.77,368.6Z" style="fill:none;stroke:#7AC36A;stroke-width:0.5" />
<path d="M382.7,365.43L386.97,365.43L386.97,369.7L382.7,369.7Z" style="fill:none;stroke:#7AC36A;stroke-width:0.5" />
<path d="M383.63,366.39L387.9,366.39L387.9,370.66L383.63,370.66Z" style="fill:none;stroke:#7AC36A;stroke-width:0.5" />
<path d="M384.56,367.23L388.83,367.23L388.83,371.5L384.56,371.5Z" style="fill:none;stroke:#7AC36A;stroke-width:0.5" />
<path d="M385.49,368.23L389.76,368.23L389.76,372.5L385.49,372.5Z" style="fill:none;stroke:#7AC36A;stroke-width:0.5" />
<path d="M386.42,369.17L390.69,369.17L390.69,373.44L386.42,373.44Z" style="fill:none;stroke:#7AC36A;stroke-width:0.5" />
<path d="M387.36,370.1L391.62,370.1L391.62,374.37L387.36,374.37Z" style="fill:none;stroke:#7AC36A;stroke-width:0.5" />
<path d="M388.29,371.05L392.55,371.05L392.55,375.31L388.29,375.31Z" style="fill:none;stroke:#7AC36A;stroke-width:0.5" />
<path d="M389.22,371.92L393.48,371.92L393.48,376.18L389.22,376.18Z" style="fill:none;stroke:#7AC36A;stroke-width:0.5" />
<path d="M390.15,372.9L394.41,372.9L394.41,377.17L390.15,377.17Z" style="fill:none;stroke:#7AC36A;stroke-width:0.5" />
<path d="M391.08,373.81L395.34,373.81L395.34,378.08L391.08,378.08Z" style="fill:none;stroke:#7AC36A;stroke-width:0.5" />
<path d="M392.01,374.73L396.28,374.73L396.28,379L392.01,379Z" style="fill:none;stroke:#7AC36A;stroke-width:0.5" />
<path d="M392.94,375.64L397.21,375.64L397.21,379.91L392.94,379.91Z" style="fill:none;stroke:#7AC36A;stroke-width:0.5" />
<path d="M393.87,376.59L398.14,376.59L398.14,380.86L393.87,380.86Z" style="fill:none;stroke:#7AC36A;stroke-width:0.5" />
<path d="M394.8,377.53L399.07,377.53L399.07,381.8L394.8,381.8Z" style="fill:none;stroke:#7AC36A;stroke-width:0.5" />
<path d="M395.73,378.46L400,378.46L400,382.73L395.73,382.73Z" style="fill:none;stroke:#7AC36A;stroke-width:0.5" />
<path d="M396.66,379.35L400.93,379.35L400.93,383.62L396.66,383.62Z" style="fill:none;stroke:#7AC36A;stroke-width:0.5" />
<path d="M397.59,380.31L401.86,380.31L401.86,384.58L397.59,384.58Z" style="fill:none;stroke:#7AC36A;stroke-width:0.5" />
<path d="M398.52,381.24L402.79,381.24L402.79,385.51L398.52,385.51Z" style="fill:none;stroke:#7AC36A;stroke-width:0.5" />
<path d="M399.45,382.17L403.72,382.17L403.72,386.43L399.45,386.43Z" style="fill:none;stroke:#7AC36A;stroke-width:0.5" />
<path d="M400.38,383.09L404.65,383.09L404.65,387.36L400.38,387.36Z" style="fill:none;stroke:#7AC36A;stroke-width:0.5" />
<path d="M401.31,384.02L405.58,384.02L405.58,388.29L401.31,388.29Z" style="fill:none;stroke:#7AC36A;stroke-width:0.5" />
<path d="M402.24,384.91L406.51,384.91L406.51,389.18L402.24,389.18Z" style="fill:none;stroke:#7AC36A;stroke-width:0.5" />
<path d="M403.17,385.86L407.44,385.86L407.44,390.12L403.17,390.12Z" style="fill:none;stroke:#7AC36A;stroke-width:0.5" />
<path d="M404.1,386.71L408.37,386.71L408.37,390.98L404.1,390.98Z" style="fill:none;stroke:#7AC36A;stroke-width:0.5" />
<path d="M405.03,387.67L409.3,387.67L409.3,391.94L405.03,391.94Z" style="fill:none;stroke:#7AC36A;stroke-width:0.5" />
<path d="M405.96,388.64L410.23,388.64L410.23,392.9L405.96,392.9Z" style="fill:none;stroke:#7AC36A;stroke-width:0.5" />
<path d="M406.9,389.58L411.16,389.58L411.16,393.85L406.9,393.85Z" style="fill:none;stroke:#7AC36A;stroke-width:0.5" />
<path d="M407.83,390.43L412.09,390.43L412.09,394.7L407.83,394.7Z" style="fill:none;stroke:#7AC36A;stroke-width:0.5" />
<path d="M408.76,391.36L413.02,391.36L413.02,395.63L408.76,395.63Z" style="fill:none;stroke:#7AC36A;stroke-width:0.5" />
<path d="M409.69,392.32L413.95,392.32L413.95,396.59L409.69,396.59Z" style="fill:none;stroke:#7AC36A;stroke-width:0.5" />
<path d="M410.62,393.25L414.89,393.25L414.89,397.52L410.62,397.52Z" style="fill:none;stroke:#7AC36A;stroke-width:0.5" />
<path d="M411.55,394.16L415.82,394.16L415.82,398.43L411.55,398.43Z" style="fill:none;stroke:#7AC36A;stroke-width:0.5" />
<path d="M412.48,395.14L416.75,395.14L416.75,399.41L412.48,399.41Z" style="fill:none;stroke:#7AC36A;stroke-width:0.5" />
<path d="M413.41,396.03L417.68,396.03L417.68,400.3L413.41,400.3Z" style="fill:none;stroke:#7AC36A;stroke-width:0.5" />
<path d="M414.34,396.98L418.61,396.98L418.61,401.24L414.34,401.24Z" style="fill:none;stroke:#7AC36A;stroke-width:0.5" />
<path d="M415.27,397.92L419.54,397.92L419.54,402.19L415.27,402.19Z" style="fill:none;stroke:#7AC36A;stroke-width:0.5" />
<path d="M416.2,398.83L420.47,398.83L420.47,403.1L416.2,403.1Z" style="fill:none;stroke:#7AC36A;stroke-width:0.5" />
<path d="M417.13,399.76L421.4,399.76L421.4,404.02L417.13,404.02Z" style="fill:none;stroke:#7AC36A;stroke-width:0.5" />
<path d="M418.06,400.66L422.33,400.66L422.33,404.93L418.06,404.93Z" style="fill:none;stroke:#7AC36A;stroke-width:0.5" />
<path d="M418.99,401.63L423.26,401.63L423.26,405.9L418.99,405.9Z" style="fill:none;stroke:#7AC36A;stroke-width:0.5" />
<path d="M419.92,402.56L424.19,402.56L424.19,406.82L419.92,406.82Z" style="fill:none;stroke:#7AC36A;stroke-width:0.5" />
<path d="M420.85,403.44L425.12,403.44L425.12,407.71L420.85,407.71Z" style="fill:none;stroke:#7AC36A;stroke-width:0.5" />
<path d="M421.78,404.37L426.05,404.37L426.05,408.64L421.78,408.64Z" style="fill:none;stroke:#7AC36A;stroke-width:0.5" />
<path d="M422.71,405.3L426.98,405.3L426.98,409.57L422.71,409.57Z" style="fill:none;stroke:#7AC36A;stroke-width:0.5" />
<path d="M423.64,406.19L427.91,406.19L427.91,410.46L423.64,410.46Z" style="fill:none;stroke:#7AC36A;stroke-width:0.5" />
<path d="M424.57,407.13L428.84,407.13L428.84,411.4L424.57,411.4Z" style="fill:none;stroke:#7AC36A;stroke-width:0.5" />
<path d="M425.51,408.12L429.77,408.12L429.77,412.38L425.51,412.38Z" style="fill:none;stroke:#7AC36A;stroke-width:0.5" />
<path d="M426.44,409.04L430.7,409.04L430.7,413.31L426.44,413.31Z" style="fill:none;stroke:#7AC36A;stroke-width:0.5" />
<path d="M427.37,409.54L431.63,409.54L431.63,413.81L427.37,413.81Z" style="fill:none;stroke:#7AC36A;stroke-width:0.5" />
<path d="M412,56.146L432,56.146" style="fill:none;stroke:#F15A60" />
<path d="M424.5,56.146A2.5,2.5 0 1 1 419.5,56.146A2.5,2.5 0 1 1 424.5,56.146Z" style="fill:none;stroke:#F15A60;stroke-width:0.5" />
<text x="365.67" y="-50.48" transform="scale(1, -1)"
	style="font-family:Times;font-weight:normal;font-style:normal;font-size:12px">yunikorn</text>
<path d="M412,44.369L432,44.369" style="fill:none;stroke:#7AC36A;stroke-dasharray:6,2" />
<path d="M419.87,42.235L424.13,42.235L424.13,46.503L419.87,46.503Z" style="fill:none;stroke:#7AC36A;stroke-width:0.5" />
<text x="392.33" y="-38.703" transform="scale(1, -1)"
	style="font-family:Times;font-weight:normal;font-style:normal;font-size:12px">k8s</text>
</g>
</svg>
