<?xml version="1.0"?>
<!-- Generated by SVGo and Plotinum VG -->
<svg width="432pt" height="432pt" viewBox="0 0 432 432"
	xmlns="http://www.w3.org/2000/svg"
	xmlns:xlink="http://www.w3.org/1999/xlink">
<g transform="scale(1, -1) translate(0, -432)">
<path d="M0,0L432,0L432,432L0,432Z" style="fill:#FFFFFF" />
<text x="159.28" y="-420.45" transform="scale(1, -1)"
	style="font-family:Times;font-weight:normal;font-style:normal;font-size:12px">Scheduling Throughput</text>
<text x="224.33" y="-3.8613" transform="scale(1, -1)"
	style="font-family:Times;font-weight:normal;font-style:normal;font-size:12px">Seconds</text>
<text x="56.666" y="-15.602" transform="scale(1, -1)"
	style="font-family:Times;font-weight:normal;font-style:normal;font-size:10px">0</text>
<text x="217.55" y="-15.602" transform="scale(1, -1)"
	style="font-family:Times;font-weight:normal;font-style:normal;font-size:10px">30</text>
<text x="380.93" y="-15.602" transform="scale(1, -1)"
	style="font-family:Times;font-weight:normal;font-style:normal;font-size:10px">60</text>
<path d="M59.166,25.23L59.166,33.23" style="fill:none;stroke:#000000;stroke-width:0.5" />
<path d="M222.55,25.23L222.55,33.23" style="fill:none;stroke:#000000;stroke-width:0.5" />
<path d="M385.93,25.23L385.93,33.23" style="fill:none;stroke:#000000;stroke-width:0.5" />
<path d="M113.63,29.23L113.63,33.23" style="fill:none;stroke:#000000;stroke-width:0.5" />
<path d="M168.09,29.23L168.09,33.23" style="fill:none;stroke:#000000;stroke-width:0.5" />
<path d="M277.01,29.23L277.01,33.23" style="fill:none;stroke:#000000;stroke-width:0.5" />
<path d="M331.47,29.23L331.47,33.23" style="fill:none;stroke:#000000;stroke-width:0.5" />
<path d="M59.166,33.23L429.5,33.23" style="fill:none;stroke:#000000;stroke-width:0.5" />
<g transform="rotate(90)">
<text x="187" y="11.555" transform="scale(1, -1)"
	style="font-family:Times;font-weight:normal;font-style:normal;font-size:12px">Number of Pods</text>
</g>
<text x="20.416" y="-109.55" transform="scale(1, -1)"
	style="font-family:Times;font-weight:normal;font-style:normal;font-size:10px">4000</text>
<text x="15.416" y="-258.25" transform="scale(1, -1)"
	style="font-family:Times;font-weight:normal;font-style:normal;font-size:10px">12000</text>
<text x="15.416" y="-406.96" transform="scale(1, -1)"
	style="font-family:Times;font-weight:normal;font-style:normal;font-size:10px">20000</text>
<path d="M42.916,114.27L50.916,114.27" style="fill:none;stroke:#000000;stroke-width:0.5" />
<path d="M42.916,262.97L50.916,262.97" style="fill:none;stroke:#000000;stroke-width:0.5" />
<path d="M42.916,411.68L50.916,411.68" style="fill:none;stroke:#000000;stroke-width:0.5" />
<path d="M46.916,188.62L50.916,188.62" style="fill:none;stroke:#000000;stroke-width:0.5" />
<path d="M46.916,337.33L50.916,337.33" style="fill:none;stroke:#000000;stroke-width:0.5" />
<path d="M50.916,40.98L50.916,411.68" style="fill:none;stroke:#000000;stroke-width:0.5" />
<path d="M59.166,40.98L64.612,50.981L70.058,62.04L75.504,66.093L80.95,70.907L86.396,77.673L91.843,81.948L97.289,86.837L102.73,92.543L108.18,98.138L113.63,101L119.07,112L124.52,116.19L129.97,120.02L135.41,122.62L140.86,128.06L146.3,130.29L151.75,136.41L157.2,137.82L162.64,146.86L168.09,148.46L173.53,152.86L178.98,157.01L184.43,165.09L189.87,168.07L195.32,177.86L200.76,182.73L206.21,193.85L211.66,195.59L217.1,199.87L222.55,209.48L227.99,210.74L233.44,218.49L238.89,226.65L244.33,232.68L249.78,235.76L255.23,240.04L260.67,252.44L266.12,258.68L271.56,264.94L277.01,272.18L282.46,277.99L287.9,286.8L293.35,294.89L298.79,300.93L304.24,308.25L309.69,322.72L315.13,325.67L320.58,328.79L326.02,337.12L331.47,342.34L336.92,347.08L342.36,359.84L347.81,363.11L353.25,370.36L358.7,375.82L364.15,382.62L369.59,389.78L375.04,396.16L380.49,404.67L385.93,406.79L391.38,407.07L396.82,407.07L402.27,407.1L407.72,407.1L413.16,407.4L418.61,407.48L424.05,410.51L429.5,411.68" style="fill:none;stroke:#F15A60" />
<path d="M61.666,40.98A2.5,2.5 0 1 1 56.666,40.98A2.5,2.5 0 1 1 61.666,40.98Z" style="fill:none;stroke:#F15A60;stroke-width:0.5" />
<path d="M67.112,50.981A2.5,2.5 0 1 1 62.112,50.981A2.5,2.5 0 1 1 67.112,50.981Z" style="fill:none;stroke:#F15A60;stroke-width:0.5" />
<path d="M72.558,62.04A2.5,2.5 0 1 1 67.558,62.04A2.5,2.5 0 1 1 72.558,62.04Z" style="fill:none;stroke:#F15A60;stroke-width:0.5" />
<path d="M78.004,66.093A2.5,2.5 0 1 1 73.004,66.093A2.5,2.5 0 1 1 78.004,66.093Z" style="fill:none;stroke:#F15A60;stroke-width:0.5" />
<path d="M83.45,70.907A2.5,2.5 0 1 1 78.45,70.907A2.5,2.5 0 1 1 83.45,70.907Z" style="fill:none;stroke:#F15A60;stroke-width:0.5" />
<path d="M88.896,77.673A2.5,2.5 0 1 1 83.896,77.673A2.5,2.5 0 1 1 88.896,77.673Z" style="fill:none;stroke:#F15A60;stroke-width:0.5" />
<path d="M94.343,81.948A2.5,2.5 0 1 1 89.343,81.948A2.5,2.5 0 1 1 94.343,81.948Z" style="fill:none;stroke:#F15A60;stroke-width:0.5" />
<path d="M99.789,86.837A2.5,2.5 0 1 1 94.789,86.837A2.5,2.5 0 1 1 99.789,86.837Z" style="fill:none;stroke:#F15A60;stroke-width:0.5" />
<path d="M105.23,92.543A2.5,2.5 0 1 1 100.23,92.543A2.5,2.5 0 1 1 105.23,92.543Z" style="fill:none;stroke:#F15A60;stroke-width:0.5" />
<path d="M110.68,98.138A2.5,2.5 0 1 1 105.68,98.138A2.5,2.5 0 1 1 110.68,98.138Z" style="fill:none;stroke:#F15A60;stroke-width:0.5" />
<path d="M116.13,101A2.5,2.5 0 1 1 111.13,101A2.5,2.5 0 1 1 116.13,101Z" style="fill:none;stroke:#F15A60;stroke-width:0.5" />
<path d="M121.57,112A2.5,2.5 0 1 1 116.57,112A2.5,2.5 0 1 1 121.57,112Z" style="fill:none;stroke:#F15A60;stroke-width:0.5" />
<path d="M127.02,116.19A2.5,2.5 0 1 1 122.02,116.19A2.5,2.5 0 1 1 127.02,116.19Z" style="fill:none;stroke:#F15A60;stroke-width:0.5" />
<path d="M132.47,120.02A2.5,2.5 0 1 1 127.47,120.02A2.5,2.5 0 1 1 132.47,120.02Z" style="fill:none;stroke:#F15A60;stroke-width:0.5" />
<path d="M137.91,122.62A2.5,2.5 0 1 1 132.91,122.62A2.5,2.5 0 1 1 137.91,122.62Z" style="fill:none;stroke:#F15A60;stroke-width:0.5" />
<path d="M143.36,128.06A2.5,2.5 0 1 1 138.36,128.06A2.5,2.5 0 1 1 143.36,128.06Z" style="fill:none;stroke:#F15A60;stroke-width:0.5" />
<path d="M148.8,130.29A2.5,2.5 0 1 1 143.8,130.29A2.5,2.5 0 1 1 148.8,130.29Z" style="fill:none;stroke:#F15A60;stroke-width:0.5" />
<path d="M154.25,136.41A2.5,2.5 0 1 1 149.25,136.41A2.5,2.5 0 1 1 154.25,136.41Z" style="fill:none;stroke:#F15A60;stroke-width:0.5" />
<path d="M159.7,137.82A2.5,2.5 0 1 1 154.7,137.82A2.5,2.5 0 1 1 159.7,137.82Z" style="fill:none;stroke:#F15A60;stroke-width:0.5" />
<path d="M165.14,146.86A2.5,2.5 0 1 1 160.14,146.86A2.5,2.5 0 1 1 165.14,146.86Z" style="fill:none;stroke:#F15A60;stroke-width:0.5" />
<path d="M170.59,148.46A2.5,2.5 0 1 1 165.59,148.46A2.5,2.5 0 1 1 170.59,148.46Z" style="fill:none;stroke:#F15A60;stroke-width:0.5" />
<path d="M176.03,152.86A2.5,2.5 0 1 1 171.03,152.86A2.5,2.5 0 1 1 176.03,152.86Z" style="fill:none;stroke:#F15A60;stroke-width:0.5" />
<path d="M181.48,157.01A2.5,2.5 0 1 1 176.48,157.01A2.5,2.5 0 1 1 181.48,157.01Z" style="fill:none;stroke:#F15A60;stroke-width:0.5" />
<path d="M186.93,165.09A2.5,2.5 0 1 1 181.93,165.09A2.5,2.5 0 1 1 186.93,165.09Z" style="fill:none;stroke:#F15A60;stroke-width:0.5" />
<path d="M192.37,168.07A2.5,2.5 0 1 1 187.37,168.07A2.5,2.5 0 1 1 192.37,168.07Z" style="fill:none;stroke:#F15A60;stroke-width:0.5" />
<path d="M197.82,177.86A2.5,2.5 0 1 1 192.82,177.86A2.5,2.5 0 1 1 197.82,177.86Z" style="fill:none;stroke:#F15A60;stroke-width:0.5" />
<path d="M203.26,182.73A2.5,2.5 0 1 1 198.26,182.73A2.5,2.5 0 1 1 203.26,182.73Z" style="fill:none;stroke:#F15A60;stroke-width:0.5" />
<path d="M208.71,193.85A2.5,2.5 0 1 1 203.71,193.85A2.5,2.5 0 1 1 208.71,193.85Z" style="fill:none;stroke:#F15A60;stroke-width:0.5" />
<path d="M214.16,195.59A2.5,2.5 0 1 1 209.16,195.59A2.5,2.5 0 1 1 214.16,195.59Z" style="fill:none;stroke:#F15A60;stroke-width:0.5" />
<path d="M219.6,199.87A2.5,2.5 0 1 1 214.6,199.87A2.5,2.5 0 1 1 219.6,199.87Z" style="fill:none;stroke:#F15A60;stroke-width:0.5" />
<path d="M225.05,209.48A2.5,2.5 0 1 1 220.05,209.48A2.5,2.5 0 1 1 225.05,209.48Z" style="fill:none;stroke:#F15A60;stroke-width:0.5" />
<path d="M230.49,210.74A2.5,2.5 0 1 1 225.49,210.74A2.5,2.5 0 1 1 230.49,210.74Z" style="fill:none;stroke:#F15A60;stroke-width:0.5" />
<path d="M235.94,218.49A2.5,2.5 0 1 1 230.94,218.49A2.5,2.5 0 1 1 235.94,218.49Z" style="fill:none;stroke:#F15A60;stroke-width:0.5" />
<path d="M241.39,226.65A2.5,2.5 0 1 1 236.39,226.65A2.5,2.5 0 1 1 241.39,226.65Z" style="fill:none;stroke:#F15A60;stroke-width:0.5" />
<path d="M246.83,232.68A2.5,2.5 0 1 1 241.83,232.68A2.5,2.5 0 1 1 246.83,232.68Z" style="fill:none;stroke:#F15A60;stroke-width:0.5" />
<path d="M252.28,235.76A2.5,2.5 0 1 1 247.28,235.76A2.5,2.5 0 1 1 252.28,235.76Z" style="fill:none;stroke:#F15A60;stroke-width:0.5" />
<path d="M257.73,240.04A2.5,2.5 0 1 1 252.73,240.04A2.5,2.5 0 1 1 257.73,240.04Z" style="fill:none;stroke:#F15A60;stroke-width:0.5" />
<path d="M263.17,252.44A2.5,2.5 0 1 1 258.17,252.44A2.5,2.5 0 1 1 263.17,252.44Z" style="fill:none;stroke:#F15A60;stroke-width:0.5" />
<path d="M268.62,258.68A2.5,2.5 0 1 1 263.62,258.68A2.5,2.5 0 1 1 268.62,258.68Z" style="fill:none;stroke:#F15A60;stroke-width:0.5" />
<path d="M274.06,264.94A2.5,2.5 0 1 1 269.06,264.94A2.5,2.5 0 1 1 274.06,264.94Z" style="fill:none;stroke:#F15A60;stroke-width:0.5" />
<path d="M279.51,272.18A2.5,2.5 0 1 1 274.51,272.18A2.5,2.5 0 1 1 279.51,272.18Z" style="fill:none;stroke:#F15A60;stroke-width:0.5" />
<path d="M284.96,277.99A2.5,2.5 0 1 1 279.96,277.99A2.5,2.5 0 1 1 284.96,277.99Z" style="fill:none;stroke:#F15A60;stroke-width:0.5" />
<path d="M290.4,286.8A2.5,2.5 0 1 1 285.4,286.8A2.5,2.5 0 1 1 290.4,286.8Z" style="fill:none;stroke:#F15A60;stroke-width:0.5" />
<path d="M295.85,294.89A2.5,2.5 0 1 1 290.85,294.89A2.5,2.5 0 1 1 295.85,294.89Z" style="fill:none;stroke:#F15A60;stroke-width:0.5" />
<path d="M301.29,300.93A2.5,2.5 0 1 1 296.29,300.93A2.5,2.5 0 1 1 301.29,300.93Z" style="fill:none;stroke:#F15A60;stroke-width:0.5" />
<path d="M306.74,308.25A2.5,2.5 0 1 1 301.74,308.25A2.5,2.5 0 1 1 306.74,308.25Z" style="fill:none;stroke:#F15A60;stroke-width:0.5" />
<path d="M312.19,322.72A2.5,2.5 0 1 1 307.19,322.72A2.5,2.5 0 1 1 312.19,322.72Z" style="fill:none;stroke:#F15A60;stroke-width:0.5" />
<path d="M317.63,325.67A2.5,2.5 0 1 1 312.63,325.67A2.5,2.5 0 1 1 317.63,325.67Z" style="fill:none;stroke:#F15A60;stroke-width:0.5" />
<path d="M323.08,328.79A2.5,2.5 0 1 1 318.08,328.79A2.5,2.5 0 1 1 323.08,328.79Z" style="fill:none;stroke:#F15A60;stroke-width:0.5" />
<path d="M328.52,337.12A2.5,2.5 0 1 1 323.52,337.12A2.5,2.5 0 1 1 328.52,337.12Z" style="fill:none;stroke:#F15A60;stroke-width:0.5" />
<path d="M333.97,342.34A2.5,2.5 0 1 1 328.97,342.34A2.5,2.5 0 1 1 333.97,342.34Z" style="fill:none;stroke:#F15A60;stroke-width:0.5" />
<path d="M339.42,347.08A2.5,2.5 0 1 1 334.42,347.08A2.5,2.5 0 1 1 339.42,347.08Z" style="fill:none;stroke:#F15A60;stroke-width:0.5" />
<path d="M344.86,359.84A2.5,2.5 0 1 1 339.86,359.84A2.5,2.5 0 1 1 344.86,359.84Z" style="fill:none;stroke:#F15A60;stroke-width:0.5" />
<path d="M350.31,363.11A2.5,2.5 0 1 1 345.31,363.11A2.5,2.5 0 1 1 350.31,363.11Z" style="fill:none;stroke:#F15A60;stroke-width:0.5" />
<path d="M355.75,370.36A2.5,2.5 0 1 1 350.75,370.36A2.5,2.5 0 1 1 355.75,370.36Z" style="fill:none;stroke:#F15A60;stroke-width:0.5" />
<path d="M361.2,375.82A2.5,2.5 0 1 1 356.2,375.82A2.5,2.5 0 1 1 361.2,375.82Z" style="fill:none;stroke:#F15A60;stroke-width:0.5" />
<path d="M366.65,382.62A2.5,2.5 0 1 1 361.65,382.62A2.5,2.5 0 1 1 366.65,382.62Z" style="fill:none;stroke:#F15A60;stroke-width:0.5" />
<path d="M372.09,389.78A2.5,2.5 0 1 1 367.09,389.78A2.5,2.5 0 1 1 372.09,389.78Z" style="fill:none;stroke:#F15A60;stroke-width:0.5" />
<path d="M377.54,396.16A2.5,2.5 0 1 1 372.54,396.16A2.5,2.5 0 1 1 377.54,396.16Z" style="fill:none;stroke:#F15A60;stroke-width:0.5" />
<path d="M382.99,404.67A2.5,2.5 0 1 1 377.99,404.67A2.5,2.5 0 1 1 382.99,404.67Z" style="fill:none;stroke:#F15A60;stroke-width:0.5" />
<path d="M388.43,406.79A2.5,2.5 0 1 1 383.43,406.79A2.5,2.5 0 1 1 388.43,406.79Z" style="fill:none;stroke:#F15A60;stroke-width:0.5" />
<path d="M393.88,407.07A2.5,2.5 0 1 1 388.88,407.07A2.5,2.5 0 1 1 393.88,407.07Z" style="fill:none;stroke:#F15A60;stroke-width:0.5" />
<path d="M399.32,407.07A2.5,2.5 0 1 1 394.32,407.07A2.5,2.5 0 1 1 399.32,407.07Z" style="fill:none;stroke:#F15A60;stroke-width:0.5" />
<path d="M404.77,407.1A2.5,2.5 0 1 1 399.77,407.1A2.5,2.5 0 1 1 404.77,407.1Z" style="fill:none;stroke:#F15A60;stroke-width:0.5" />
<path d="M410.22,407.1A2.5,2.5 0 1 1 405.22,407.1A2.5,2.5 0 1 1 410.22,407.1Z" style="fill:none;stroke:#F15A60;stroke-width:0.5" />
<path d="M415.66,407.4A2.5,2.5 0 1 1 410.66,407.4A2.5,2.5 0 1 1 415.66,407.4Z" style="fill:none;stroke:#F15A60;stroke-width:0.5" />
<path d="M421.11,407.48A2.5,2.5 0 1 1 416.11,407.48A2.5,2.5 0 1 1 421.11,407.48Z" style="fill:none;stroke:#F15A60;stroke-width:0.5" />
<path d="M426.55,410.51A2.5,2.5 0 1 1 421.55,410.51A2.5,2.5 0 1 1 426.55,410.51Z" style="fill:none;stroke:#F15A60;stroke-width:0.5" />
<path d="M432,411.68A2.5,2.5 0 1 1 427,411.68A2.5,2.5 0 1 1 432,411.68Z" style="fill:none;stroke:#F15A60;stroke-width:0.5" />
<path d="M412,44.369L432,44.369" style="fill:none;stroke:#F15A60" />
<path d="M424.5,44.369A2.5,2.5 0 1 1 419.5,44.369A2.5,2.5 0 1 1 424.5,44.369Z" style="fill:none;stroke:#F15A60;stroke-width:0.5" />
<text x="365.67" y="-38.703" transform="scale(1, -1)"
	style="font-family:Times;font-weight:normal;font-style:normal;font-size:12px">yunikorn</text>
</g>
</svg>
