<?xml version="1.0"?>
<!-- Generated by SVGo and Plotinum VG -->
<svg width="432pt" height="432pt" viewBox="0 0 432 432"
	xmlns="http://www.w3.org/2000/svg"
	xmlns:xlink="http://www.w3.org/1999/xlink">
<g transform="scale(1, -1) translate(0, -432)">
<path d="M0,0L432,0L432,432L0,432Z" style="fill:#FFFFFF" />
<text x="159.28" y="-420.45" transform="scale(1, -1)"
	style="font-family:Times;font-weight:normal;font-style:normal;font-size:12px">Scheduling Throughput</text>
<text x="230.58" y="-3.8613" transform="scale(1, -1)"
	style="font-family:Times;font-weight:normal;font-style:normal;font-size:12px">Seconds</text>
<text x="69.166" y="-15.602" transform="scale(1, -1)"
	style="font-family:Times;font-weight:normal;font-style:normal;font-size:10px">0</text>
<text x="173.48" y="-15.602" transform="scale(1, -1)"
	style="font-family:Times;font-weight:normal;font-style:normal;font-size:10px">40</text>
<text x="280.3" y="-15.602" transform="scale(1, -1)"
	style="font-family:Times;font-weight:normal;font-style:normal;font-size:10px">80</text>
<text x="384.61" y="-15.602" transform="scale(1, -1)"
	style="font-family:Times;font-weight:normal;font-style:normal;font-size:10px">120</text>
<path d="M71.666,25.23L71.666,33.23" style="fill:none;stroke:#000000;stroke-width:0.5" />
<path d="M178.48,25.23L178.48,33.23" style="fill:none;stroke:#000000;stroke-width:0.5" />
<path d="M285.3,25.23L285.3,33.23" style="fill:none;stroke:#000000;stroke-width:0.5" />
<path d="M392.11,25.23L392.11,33.23" style="fill:none;stroke:#000000;stroke-width:0.5" />
<path d="M98.37,29.23L98.37,33.23" style="fill:none;stroke:#000000;stroke-width:0.5" />
<path d="M125.07,29.23L125.07,33.23" style="fill:none;stroke:#000000;stroke-width:0.5" />
<path d="M151.78,29.23L151.78,33.23" style="fill:none;stroke:#000000;stroke-width:0.5" />
<path d="M205.19,29.23L205.19,33.23" style="fill:none;stroke:#000000;stroke-width:0.5" />
<path d="M231.89,29.23L231.89,33.23" style="fill:none;stroke:#000000;stroke-width:0.5" />
<path d="M258.59,29.23L258.59,33.23" style="fill:none;stroke:#000000;stroke-width:0.5" />
<path d="M312,29.23L312,33.23" style="fill:none;stroke:#000000;stroke-width:0.5" />
<path d="M338.71,29.23L338.71,33.23" style="fill:none;stroke:#000000;stroke-width:0.5" />
<path d="M365.41,29.23L365.41,33.23" style="fill:none;stroke:#000000;stroke-width:0.5" />
<path d="M418.82,29.23L418.82,33.23" style="fill:none;stroke:#000000;stroke-width:0.5" />
<path d="M71.666,33.23L429.5,33.23" style="fill:none;stroke:#000000;stroke-width:0.5" />
<g transform="rotate(90)">
<text x="187" y="11.555" transform="scale(1, -1)"
	style="font-family:Times;font-weight:normal;font-style:normal;font-size:12px">Number of Pods</text>
</g>
<text x="35.416" y="-36.259" transform="scale(1, -1)"
	style="font-family:Times;font-weight:normal;font-style:normal;font-size:10px">0.00</text>
<text x="15.416" y="-221.61" transform="scale(1, -1)"
	style="font-family:Times;font-weight:normal;font-style:normal;font-size:10px">25000.00</text>
<text x="15.416" y="-406.96" transform="scale(1, -1)"
	style="font-family:Times;font-weight:normal;font-style:normal;font-size:10px">50000.00</text>
<path d="M55.416,40.98L63.416,40.98" style="fill:none;stroke:#000000;stroke-width:0.5" />
<path d="M55.416,226.33L63.416,226.33" style="fill:none;stroke:#000000;stroke-width:0.5" />
<path d="M55.416,411.68L63.416,411.68" style="fill:none;stroke:#000000;stroke-width:0.5" />
<path d="M59.416,78.05L63.416,78.05" style="fill:none;stroke:#000000;stroke-width:0.5" />
<path d="M59.416,115.12L63.416,115.12" style="fill:none;stroke:#000000;stroke-width:0.5" />
<path d="M59.416,152.19L63.416,152.19" style="fill:none;stroke:#000000;stroke-width:0.5" />
<path d="M59.416,189.26L63.416,189.26" style="fill:none;stroke:#000000;stroke-width:0.5" />
<path d="M59.416,263.4L63.416,263.4" style="fill:none;stroke:#000000;stroke-width:0.5" />
<path d="M59.416,300.47L63.416,300.47" style="fill:none;stroke:#000000;stroke-width:0.5" />
<path d="M59.416,337.54L63.416,337.54" style="fill:none;stroke:#000000;stroke-width:0.5" />
<path d="M59.416,374.61L63.416,374.61" style="fill:none;stroke:#000000;stroke-width:0.5" />
<path d="M63.416,40.98L63.416,411.68" style="fill:none;stroke:#000000;stroke-width:0.5" />
<path d="M71.666,40.98L74.336,40.98L77.007,40.98L79.677,40.98L82.348,40.98L85.018,40.98L87.688,40.98L90.359,40.98L93.029,40.98L95.7,40.98L98.37,40.98L101.04,40.98L103.71,40.98L106.38,40.98L109.05,40.98L111.72,40.98L114.39,40.98L117.06,40.98L119.73,40.98L122.4,42.018L125.07,46.875L127.74,48.654L130.41,51.894L133.09,55.193L135.76,57.165L138.43,60.234L141.1,63.23L143.77,65.572L146.44,67.952L149.11,70.102L151.78,73.661L154.45,76.501L157.12,78.614L159.79,81.802L162.46,84.278L165.13,87.666L167.8,90.224L170.47,92.099L173.14,94.487L175.81,97.697L178.48,100.37L181.15,103.58L183.82,105.96L186.49,108.35L189.16,110.94L191.83,113.59L194.5,117.06L197.17,119.33L199.85,122.79L202.52,124.6L205.19,127.35L207.86,130.47L210.53,133.44L213.2,136.26L215.87,139.39L218.54,141.8L221.21,144.3L223.88,147.61L226.55,151.19L229.22,153.67L231.89,156.87L234.56,158.74L237.23,161.65L239.9,165.41L242.57,167.51L245.24,171.64L247.91,174.02L250.58,176.58L253.25,179.67L255.92,183.26L258.59,185.7L261.26,189.22L263.94,191.99L266.61,194.86L269.28,198.32L271.95,201.88L274.62,205.75L277.29,209.62L279.96,213.5L282.63,214.13L285.3,215.55L287.97,221.49L290.64,227.22L293.31,231.5L295.98,235.6L298.65,238.58L301.32,241.71L303.99,245.25L306.66,250.25L309.33,254.52L312,258.42L314.67,263.61L317.34,267.08L320.01,270.27L322.68,274.57L325.35,280.44L328.02,284.08L330.7,290.59L333.37,295.26L336.04,298.4L338.71,301.19L341.38,305.61L344.05,312.03L346.72,316.47L349.39,321.86L352.06,326.38L354.73,333.36L357.4,338.89L360.07,344.26L362.74,351.24L365.41,355.72L368.08,359.62L370.75,369.51L373.42,375.42L376.09,382.96L378.76,388.78L381.43,396.54L384.1,405.06L386.77,408.67L389.44,410.74L392.11,411.12L394.78,411.42L397.46,411.48L400.13,411.48L402.8,411.48L405.47,411.48L408.14,411.48L410.81,411.48L413.48,411.48L416.15,411.48L418.82,411.48L421.49,411.48L424.16,411.54L426.83,411.54L429.5,411.68" style="fill:none;stroke:#F15A60" />
<path d="M74.166,40.98A2.5,2.5 0 1 1 69.166,40.98A2.5,2.5 0 1 1 74.166,40.98Z" style="fill:none;stroke:#F15A60;stroke-width:0.5" />
<path d="M76.836,40.98A2.5,2.5 0 1 1 71.836,40.98A2.5,2.5 0 1 1 76.836,40.98Z" style="fill:none;stroke:#F15A60;stroke-width:0.5" />
<path d="M79.507,40.98A2.5,2.5 0 1 1 74.507,40.98A2.5,2.5 0 1 1 79.507,40.98Z" style="fill:none;stroke:#F15A60;stroke-width:0.5" />
<path d="M82.177,40.98A2.5,2.5 0 1 1 77.177,40.98A2.5,2.5 0 1 1 82.177,40.98Z" style="fill:none;stroke:#F15A60;stroke-width:0.5" />
<path d="M84.848,40.98A2.5,2.5 0 1 1 79.848,40.98A2.5,2.5 0 1 1 84.848,40.98Z" style="fill:none;stroke:#F15A60;stroke-width:0.5" />
<path d="M87.518,40.98A2.5,2.5 0 1 1 82.518,40.98A2.5,2.5 0 1 1 87.518,40.98Z" style="fill:none;stroke:#F15A60;stroke-width:0.5" />
<path d="M90.188,40.98A2.5,2.5 0 1 1 85.188,40.98A2.5,2.5 0 1 1 90.188,40.98Z" style="fill:none;stroke:#F15A60;stroke-width:0.5" />
<path d="M92.859,40.98A2.5,2.5 0 1 1 87.859,40.98A2.5,2.5 0 1 1 92.859,40.98Z" style="fill:none;stroke:#F15A60;stroke-width:0.5" />
<path d="M95.529,40.98A2.5,2.5 0 1 1 90.529,40.98A2.5,2.5 0 1 1 95.529,40.98Z" style="fill:none;stroke:#F15A60;stroke-width:0.5" />
<path d="M98.2,40.98A2.5,2.5 0 1 1 93.2,40.98A2.5,2.5 0 1 1 98.2,40.98Z" style="fill:none;stroke:#F15A60;stroke-width:0.5" />
<path d="M100.87,40.98A2.5,2.5 0 1 1 95.87,40.98A2.5,2.5 0 1 1 100.87,40.98Z" style="fill:none;stroke:#F15A60;stroke-width:0.5" />
<path d="M103.54,40.98A2.5,2.5 0 1 1 98.54,40.98A2.5,2.5 0 1 1 103.54,40.98Z" style="fill:none;stroke:#F15A60;stroke-width:0.5" />
<path d="M106.21,40.98A2.5,2.5 0 1 1 101.21,40.98A2.5,2.5 0 1 1 106.21,40.98Z" style="fill:none;stroke:#F15A60;stroke-width:0.5" />
<path d="M108.88,40.98A2.5,2.5 0 1 1 103.88,40.98A2.5,2.5 0 1 1 108.88,40.98Z" style="fill:none;stroke:#F15A60;stroke-width:0.5" />
<path d="M111.55,40.98A2.5,2.5 0 1 1 106.55,40.98A2.5,2.5 0 1 1 111.55,40.98Z" style="fill:none;stroke:#F15A60;stroke-width:0.5" />
<path d="M114.22,40.98A2.5,2.5 0 1 1 109.22,40.98A2.5,2.5 0 1 1 114.22,40.98Z" style="fill:none;stroke:#F15A60;stroke-width:0.5" />
<path d="M116.89,40.98A2.5,2.5 0 1 1 111.89,40.98A2.5,2.5 0 1 1 116.89,40.98Z" style="fill:none;stroke:#F15A60;stroke-width:0.5" />
<path d="M119.56,40.98A2.5,2.5 0 1 1 114.56,40.98A2.5,2.5 0 1 1 119.56,40.98Z" style="fill:none;stroke:#F15A60;stroke-width:0.5" />
<path d="M122.23,40.98A2.5,2.5 0 1 1 117.23,40.98A2.5,2.5 0 1 1 122.23,40.98Z" style="fill:none;stroke:#F15A60;stroke-width:0.5" />
<path d="M124.9,42.018A2.5,2.5 0 1 1 119.9,42.018A2.5,2.5 0 1 1 124.9,42.018Z" style="fill:none;stroke:#F15A60;stroke-width:0.5" />
<path d="M127.57,46.875A2.5,2.5 0 1 1 122.57,46.875A2.5,2.5 0 1 1 127.57,46.875Z" style="fill:none;stroke:#F15A60;stroke-width:0.5" />
<path d="M130.24,48.654A2.5,2.5 0 1 1 125.24,48.654A2.5,2.5 0 1 1 130.24,48.654Z" style="fill:none;stroke:#F15A60;stroke-width:0.5" />
<path d="M132.91,51.894A2.5,2.5 0 1 1 127.91,51.894A2.5,2.5 0 1 1 132.91,51.894Z" style="fill:none;stroke:#F15A60;stroke-width:0.5" />
<path d="M135.59,55.193A2.5,2.5 0 1 1 130.59,55.193A2.5,2.5 0 1 1 135.59,55.193Z" style="fill:none;stroke:#F15A60;stroke-width:0.5" />
<path d="M138.26,57.165A2.5,2.5 0 1 1 133.26,57.165A2.5,2.5 0 1 1 138.26,57.165Z" style="fill:none;stroke:#F15A60;stroke-width:0.5" />
<path d="M140.93,60.234A2.5,2.5 0 1 1 135.93,60.234A2.5,2.5 0 1 1 140.93,60.234Z" style="fill:none;stroke:#F15A60;stroke-width:0.5" />
<path d="M143.6,63.23A2.5,2.5 0 1 1 138.6,63.23A2.5,2.5 0 1 1 143.6,63.23Z" style="fill:none;stroke:#F15A60;stroke-width:0.5" />
<path d="M146.27,65.572A2.5,2.5 0 1 1 141.27,65.572A2.5,2.5 0 1 1 146.27,65.572Z" style="fill:none;stroke:#F15A60;stroke-width:0.5" />
<path d="M148.94,67.952A2.5,2.5 0 1 1 143.94,67.952A2.5,2.5 0 1 1 148.94,67.952Z" style="fill:none;stroke:#F15A60;stroke-width:0.5" />
<path d="M151.61,70.102A2.5,2.5 0 1 1 146.61,70.102A2.5,2.5 0 1 1 151.61,70.102Z" style="fill:none;stroke:#F15A60;stroke-width:0.5" />
<path d="M154.28,73.661A2.5,2.5 0 1 1 149.28,73.661A2.5,2.5 0 1 1 154.28,73.661Z" style="fill:none;stroke:#F15A60;stroke-width:0.5" />
<path d="M156.95,76.501A2.5,2.5 0 1 1 151.95,76.501A2.5,2.5 0 1 1 156.95,76.501Z" style="fill:none;stroke:#F15A60;stroke-width:0.5" />
<path d="M159.62,78.614A2.5,2.5 0 1 1 154.62,78.614A2.5,2.5 0 1 1 159.62,78.614Z" style="fill:none;stroke:#F15A60;stroke-width:0.5" />
<path d="M162.29,81.802A2.5,2.5 0 1 1 157.29,81.802A2.5,2.5 0 1 1 162.29,81.802Z" style="fill:none;stroke:#F15A60;stroke-width:0.5" />
<path d="M164.96,84.278A2.5,2.5 0 1 1 159.96,84.278A2.5,2.5 0 1 1 164.96,84.278Z" style="fill:none;stroke:#F15A60;stroke-width:0.5" />
<path d="M167.63,87.666A2.5,2.5 0 1 1 162.63,87.666A2.5,2.5 0 1 1 167.63,87.666Z" style="fill:none;stroke:#F15A60;stroke-width:0.5" />
<path d="M170.3,90.224A2.5,2.5 0 1 1 165.3,90.224A2.5,2.5 0 1 1 170.3,90.224Z" style="fill:none;stroke:#F15A60;stroke-width:0.5" />
<path d="M172.97,92.099A2.5,2.5 0 1 1 167.97,92.099A2.5,2.5 0 1 1 172.97,92.099Z" style="fill:none;stroke:#F15A60;stroke-width:0.5" />
<path d="M175.64,94.487A2.5,2.5 0 1 1 170.64,94.487A2.5,2.5 0 1 1 175.64,94.487Z" style="fill:none;stroke:#F15A60;stroke-width:0.5" />
<path d="M178.31,97.697A2.5,2.5 0 1 1 173.31,97.697A2.5,2.5 0 1 1 178.31,97.697Z" style="fill:none;stroke:#F15A60;stroke-width:0.5" />
<path d="M180.98,100.37A2.5,2.5 0 1 1 175.98,100.37A2.5,2.5 0 1 1 180.98,100.37Z" style="fill:none;stroke:#F15A60;stroke-width:0.5" />
<path d="M183.65,103.58A2.5,2.5 0 1 1 178.65,103.58A2.5,2.5 0 1 1 183.65,103.58Z" style="fill:none;stroke:#F15A60;stroke-width:0.5" />
<path d="M186.32,105.96A2.5,2.5 0 1 1 181.32,105.96A2.5,2.5 0 1 1 186.32,105.96Z" style="fill:none;stroke:#F15A60;stroke-width:0.5" />
<path d="M188.99,108.35A2.5,2.5 0 1 1 183.99,108.35A2.5,2.5 0 1 1 188.99,108.35Z" style="fill:none;stroke:#F15A60;stroke-width:0.5" />
<path d="M191.66,110.94A2.5,2.5 0 1 1 186.66,110.94A2.5,2.5 0 1 1 191.66,110.94Z" style="fill:none;stroke:#F15A60;stroke-width:0.5" />
<path d="M194.33,113.59A2.5,2.5 0 1 1 189.33,113.59A2.5,2.5 0 1 1 194.33,113.59Z" style="fill:none;stroke:#F15A60;stroke-width:0.5" />
<path d="M197,117.06A2.5,2.5 0 1 1 192,117.06A2.5,2.5 0 1 1 197,117.06Z" style="fill:none;stroke:#F15A60;stroke-width:0.5" />
<path d="M199.67,119.33A2.5,2.5 0 1 1 194.67,119.33A2.5,2.5 0 1 1 199.67,119.33Z" style="fill:none;stroke:#F15A60;stroke-width:0.5" />
<path d="M202.35,122.79A2.5,2.5 0 1 1 197.35,122.79A2.5,2.5 0 1 1 202.35,122.79Z" style="fill:none;stroke:#F15A60;stroke-width:0.5" />
<path d="M205.02,124.6A2.5,2.5 0 1 1 200.02,124.6A2.5,2.5 0 1 1 205.02,124.6Z" style="fill:none;stroke:#F15A60;stroke-width:0.5" />
<path d="M207.69,127.35A2.5,2.5 0 1 1 202.69,127.35A2.5,2.5 0 1 1 207.69,127.35Z" style="fill:none;stroke:#F15A60;stroke-width:0.5" />
<path d="M210.36,130.47A2.5,2.5 0 1 1 205.36,130.47A2.5,2.5 0 1 1 210.36,130.47Z" style="fill:none;stroke:#F15A60;stroke-width:0.5" />
<path d="M213.03,133.44A2.5,2.5 0 1 1 208.03,133.44A2.5,2.5 0 1 1 213.03,133.44Z" style="fill:none;stroke:#F15A60;stroke-width:0.5" />
<path d="M215.7,136.26A2.5,2.5 0 1 1 210.7,136.26A2.5,2.5 0 1 1 215.7,136.26Z" style="fill:none;stroke:#F15A60;stroke-width:0.5" />
<path d="M218.37,139.39A2.5,2.5 0 1 1 213.37,139.39A2.5,2.5 0 1 1 218.37,139.39Z" style="fill:none;stroke:#F15A60;stroke-width:0.5" />
<path d="M221.04,141.8A2.5,2.5 0 1 1 216.04,141.8A2.5,2.5 0 1 1 221.04,141.8Z" style="fill:none;stroke:#F15A60;stroke-width:0.5" />
<path d="M223.71,144.3A2.5,2.5 0 1 1 218.71,144.3A2.5,2.5 0 1 1 223.71,144.3Z" style="fill:none;stroke:#F15A60;stroke-width:0.5" />
<path d="M226.38,147.61A2.5,2.5 0 1 1 221.38,147.61A2.5,2.5 0 1 1 226.38,147.61Z" style="fill:none;stroke:#F15A60;stroke-width:0.5" />
<path d="M229.05,151.19A2.5,2.5 0 1 1 224.05,151.19A2.5,2.5 0 1 1 229.05,151.19Z" style="fill:none;stroke:#F15A60;stroke-width:0.5" />
<path d="M231.72,153.67A2.5,2.5 0 1 1 226.72,153.67A2.5,2.5 0 1 1 231.72,153.67Z" style="fill:none;stroke:#F15A60;stroke-width:0.5" />
<path d="M234.39,156.87A2.5,2.5 0 1 1 229.39,156.87A2.5,2.5 0 1 1 234.39,156.87Z" style="fill:none;stroke:#F15A60;stroke-width:0.5" />
<path d="M237.06,158.74A2.5,2.5 0 1 1 232.06,158.74A2.5,2.5 0 1 1 237.06,158.74Z" style="fill:none;stroke:#F15A60;stroke-width:0.5" />
<path d="M239.73,161.65A2.5,2.5 0 1 1 234.73,161.65A2.5,2.5 0 1 1 239.73,161.65Z" style="fill:none;stroke:#F15A60;stroke-width:0.5" />
<path d="M242.4,165.41A2.5,2.5 0 1 1 237.4,165.41A2.5,2.5 0 1 1 242.4,165.41Z" style="fill:none;stroke:#F15A60;stroke-width:0.5" />
<path d="M245.07,167.51A2.5,2.5 0 1 1 240.07,167.51A2.5,2.5 0 1 1 245.07,167.51Z" style="fill:none;stroke:#F15A60;stroke-width:0.5" />
<path d="M247.74,171.64A2.5,2.5 0 1 1 242.74,171.64A2.5,2.5 0 1 1 247.74,171.64Z" style="fill:none;stroke:#F15A60;stroke-width:0.5" />
<path d="M250.41,174.02A2.5,2.5 0 1 1 245.41,174.02A2.5,2.5 0 1 1 250.41,174.02Z" style="fill:none;stroke:#F15A60;stroke-width:0.5" />
<path d="M253.08,176.58A2.5,2.5 0 1 1 248.08,176.58A2.5,2.5 0 1 1 253.08,176.58Z" style="fill:none;stroke:#F15A60;stroke-width:0.5" />
<path d="M255.75,179.67A2.5,2.5 0 1 1 250.75,179.67A2.5,2.5 0 1 1 255.75,179.67Z" style="fill:none;stroke:#F15A60;stroke-width:0.5" />
<path d="M258.42,183.26A2.5,2.5 0 1 1 253.42,183.26A2.5,2.5 0 1 1 258.42,183.26Z" style="fill:none;stroke:#F15A60;stroke-width:0.5" />
<path d="M261.09,185.7A2.5,2.5 0 1 1 256.09,185.7A2.5,2.5 0 1 1 261.09,185.7Z" style="fill:none;stroke:#F15A60;stroke-width:0.5" />
<path d="M263.76,189.22A2.5,2.5 0 1 1 258.76,189.22A2.5,2.5 0 1 1 263.76,189.22Z" style="fill:none;stroke:#F15A60;stroke-width:0.5" />
<path d="M266.44,191.99A2.5,2.5 0 1 1 261.44,191.99A2.5,2.5 0 1 1 266.44,191.99Z" style="fill:none;stroke:#F15A60;stroke-width:0.5" />
<path d="M269.11,194.86A2.5,2.5 0 1 1 264.11,194.86A2.5,2.5 0 1 1 269.11,194.86Z" style="fill:none;stroke:#F15A60;stroke-width:0.5" />
<path d="M271.78,198.32A2.5,2.5 0 1 1 266.78,198.32A2.5,2.5 0 1 1 271.78,198.32Z" style="fill:none;stroke:#F15A60;stroke-width:0.5" />
<path d="M274.45,201.88A2.5,2.5 0 1 1 269.45,201.88A2.5,2.5 0 1 1 274.45,201.88Z" style="fill:none;stroke:#F15A60;stroke-width:0.5" />
<path d="M277.12,205.75A2.5,2.5 0 1 1 272.12,205.75A2.5,2.5 0 1 1 277.12,205.75Z" style="fill:none;stroke:#F15A60;stroke-width:0.5" />
<path d="M279.79,209.62A2.5,2.5 0 1 1 274.79,209.62A2.5,2.5 0 1 1 279.79,209.62Z" style="fill:none;stroke:#F15A60;stroke-width:0.5" />
<path d="M282.46,213.5A2.5,2.5 0 1 1 277.46,213.5A2.5,2.5 0 1 1 282.46,213.5Z" style="fill:none;stroke:#F15A60;stroke-width:0.5" />
<path d="M285.13,214.13A2.5,2.5 0 1 1 280.13,214.13A2.5,2.5 0 1 1 285.13,214.13Z" style="fill:none;stroke:#F15A60;stroke-width:0.5" />
<path d="M287.8,215.55A2.5,2.5 0 1 1 282.8,215.55A2.5,2.5 0 1 1 287.8,215.55Z" style="fill:none;stroke:#F15A60;stroke-width:0.5" />
<path d="M290.47,221.49A2.5,2.5 0 1 1 285.47,221.49A2.5,2.5 0 1 1 290.47,221.49Z" style="fill:none;stroke:#F15A60;stroke-width:0.5" />
<path d="M293.14,227.22A2.5,2.5 0 1 1 288.14,227.22A2.5,2.5 0 1 1 293.14,227.22Z" style="fill:none;stroke:#F15A60;stroke-width:0.5" />
<path d="M295.81,231.5A2.5,2.5 0 1 1 290.81,231.5A2.5,2.5 0 1 1 295.81,231.5Z" style="fill:none;stroke:#F15A60;stroke-width:0.5" />
<path d="M298.48,235.6A2.5,2.5 0 1 1 293.48,235.6A2.5,2.5 0 1 1 298.48,235.6Z" style="fill:none;stroke:#F15A60;stroke-width:0.5" />
<path d="M301.15,238.58A2.5,2.5 0 1 1 296.15,238.58A2.5,2.5 0 1 1 301.15,238.58Z" style="fill:none;stroke:#F15A60;stroke-width:0.5" />
<path d="M303.82,241.71A2.5,2.5 0 1 1 298.82,241.71A2.5,2.5 0 1 1 303.82,241.71Z" style="fill:none;stroke:#F15A60;stroke-width:0.5" />
<path d="M306.49,245.25A2.5,2.5 0 1 1 301.49,245.25A2.5,2.5 0 1 1 306.49,245.25Z" style="fill:none;stroke:#F15A60;stroke-width:0.5" />
<path d="M309.16,250.25A2.5,2.5 0 1 1 304.16,250.25A2.5,2.5 0 1 1 309.16,250.25Z" style="fill:none;stroke:#F15A60;stroke-width:0.5" />
<path d="M311.83,254.52A2.5,2.5 0 1 1 306.83,254.52A2.5,2.5 0 1 1 311.83,254.52Z" style="fill:none;stroke:#F15A60;stroke-width:0.5" />
<path d="M314.5,258.42A2.5,2.5 0 1 1 309.5,258.42A2.5,2.5 0 1 1 314.5,258.42Z" style="fill:none;stroke:#F15A60;stroke-width:0.5" />
<path d="M317.17,263.61A2.5,2.5 0 1 1 312.17,263.61A2.5,2.5 0 1 1 317.17,263.61Z" style="fill:none;stroke:#F15A60;stroke-width:0.5" />
<path d="M319.84,267.08A2.5,2.5 0 1 1 314.84,267.08A2.5,2.5 0 1 1 319.84,267.08Z" style="fill:none;stroke:#F15A60;stroke-width:0.5" />
<path d="M322.51,270.27A2.5,2.5 0 1 1 317.51,270.27A2.5,2.5 0 1 1 322.51,270.27Z" style="fill:none;stroke:#F15A60;stroke-width:0.5" />
<path d="M325.18,274.57A2.5,2.5 0 1 1 320.18,274.57A2.5,2.5 0 1 1 325.18,274.57Z" style="fill:none;stroke:#F15A60;stroke-width:0.5" />
<path d="M327.85,280.44A2.5,2.5 0 1 1 322.85,280.44A2.5,2.5 0 1 1 327.85,280.44Z" style="fill:none;stroke:#F15A60;stroke-width:0.5" />
<path d="M330.52,284.08A2.5,2.5 0 1 1 325.52,284.08A2.5,2.5 0 1 1 330.52,284.08Z" style="fill:none;stroke:#F15A60;stroke-width:0.5" />
<path d="M333.2,290.59A2.5,2.5 0 1 1 328.2,290.59A2.5,2.5 0 1 1 333.2,290.59Z" style="fill:none;stroke:#F15A60;stroke-width:0.5" />
<path d="M335.87,295.26A2.5,2.5 0 1 1 330.87,295.26A2.5,2.5 0 1 1 335.87,295.26Z" style="fill:none;stroke:#F15A60;stroke-width:0.5" />
<path d="M338.54,298.4A2.5,2.5 0 1 1 333.54,298.4A2.5,2.5 0 1 1 338.54,298.4Z" style="fill:none;stroke:#F15A60;stroke-width:0.5" />
<path d="M341.21,301.19A2.5,2.5 0 1 1 336.21,301.19A2.5,2.5 0 1 1 341.21,301.19Z" style="fill:none;stroke:#F15A60;stroke-width:0.5" />
<path d="M343.88,305.61A2.5,2.5 0 1 1 338.88,305.61A2.5,2.5 0 1 1 343.88,305.61Z" style="fill:none;stroke:#F15A60;stroke-width:0.5" />
<path d="M346.55,312.03A2.5,2.5 0 1 1 341.55,312.03A2.5,2.5 0 1 1 346.55,312.03Z" style="fill:none;stroke:#F15A60;stroke-width:0.5" />
<path d="M349.22,316.47A2.5,2.5 0 1 1 344.22,316.47A2.5,2.5 0 1 1 349.22,316.47Z" style="fill:none;stroke:#F15A60;stroke-width:0.5" />
<path d="M351.89,321.86A2.5,2.5 0 1 1 346.89,321.86A2.5,2.5 0 1 1 351.89,321.86Z" style="fill:none;stroke:#F15A60;stroke-width:0.5" />
<path d="M354.56,326.38A2.5,2.5 0 1 1 349.56,326.38A2.5,2.5 0 1 1 354.56,326.38Z" style="fill:none;stroke:#F15A60;stroke-width:0.5" />
<path d="M357.23,333.36A2.5,2.5 0 1 1 352.23,333.36A2.5,2.5 0 1 1 357.23,333.36Z" style="fill:none;stroke:#F15A60;stroke-width:0.5" />
<path d="M359.9,338.89A2.5,2.5 0 1 1 354.9,338.89A2.5,2.5 0 1 1 359.9,338.89Z" style="fill:none;stroke:#F15A60;stroke-width:0.5" />
<path d="M362.57,344.26A2.5,2.5 0 1 1 357.57,344.26A2.5,2.5 0 1 1 362.57,344.26Z" style="fill:none;stroke:#F15A60;stroke-width:0.5" />
<path d="M365.24,351.24A2.5,2.5 0 1 1 360.24,351.24A2.5,2.5 0 1 1 365.24,351.24Z" style="fill:none;stroke:#F15A60;stroke-width:0.5" />
<path d="M367.91,355.72A2.5,2.5 0 1 1 362.91,355.72A2.5,2.5 0 1 1 367.91,355.72Z" style="fill:none;stroke:#F15A60;stroke-width:0.5" />
<path d="M370.58,359.62A2.5,2.5 0 1 1 365.58,359.62A2.5,2.5 0 1 1 370.58,359.62Z" style="fill:none;stroke:#F15A60;stroke-width:0.5" />
<path d="M373.25,369.51A2.5,2.5 0 1 1 368.25,369.51A2.5,2.5 0 1 1 373.25,369.51Z" style="fill:none;stroke:#F15A60;stroke-width:0.5" />
<path d="M375.92,375.42A2.5,2.5 0 1 1 370.92,375.42A2.5,2.5 0 1 1 375.92,375.42Z" style="fill:none;stroke:#F15A60;stroke-width:0.5" />
<path d="M378.59,382.96A2.5,2.5 0 1 1 373.59,382.96A2.5,2.5 0 1 1 378.59,382.96Z" style="fill:none;stroke:#F15A60;stroke-width:0.5" />
<path d="M381.26,388.78A2.5,2.5 0 1 1 376.26,388.78A2.5,2.5 0 1 1 381.26,388.78Z" style="fill:none;stroke:#F15A60;stroke-width:0.5" />
<path d="M383.93,396.54A2.5,2.5 0 1 1 378.93,396.54A2.5,2.5 0 1 1 383.93,396.54Z" style="fill:none;stroke:#F15A60;stroke-width:0.5" />
<path d="M386.6,405.06A2.5,2.5 0 1 1 381.6,405.06A2.5,2.5 0 1 1 386.6,405.06Z" style="fill:none;stroke:#F15A60;stroke-width:0.5" />
<path d="M389.27,408.67A2.5,2.5 0 1 1 384.27,408.67A2.5,2.5 0 1 1 389.27,408.67Z" style="fill:none;stroke:#F15A60;stroke-width:0.5" />
<path d="M391.94,410.74A2.5,2.5 0 1 1 386.94,410.74A2.5,2.5 0 1 1 391.94,410.74Z" style="fill:none;stroke:#F15A60;stroke-width:0.5" />
<path d="M394.61,411.12A2.5,2.5 0 1 1 389.61,411.12A2.5,2.5 0 1 1 394.61,411.12Z" style="fill:none;stroke:#F15A60;stroke-width:0.5" />
<path d="M397.28,411.42A2.5,2.5 0 1 1 392.28,411.42A2.5,2.5 0 1 1 397.28,411.42Z" style="fill:none;stroke:#F15A60;stroke-width:0.5" />
<path d="M399.96,411.48A2.5,2.5 0 1 1 394.96,411.48A2.5,2.5 0 1 1 399.96,411.48Z" style="fill:none;stroke:#F15A60;stroke-width:0.5" />
<path d="M402.63,411.48A2.5,2.5 0 1 1 397.63,411.48A2.5,2.5 0 1 1 402.63,411.48Z" style="fill:none;stroke:#F15A60;stroke-width:0.5" />
<path d="M405.3,411.48A2.5,2.5 0 1 1 400.3,411.48A2.5,2.5 0 1 1 405.3,411.48Z" style="fill:none;stroke:#F15A60;stroke-width:0.5" />
<path d="M407.97,411.48A2.5,2.5 0 1 1 402.97,411.48A2.5,2.5 0 1 1 407.97,411.48Z" style="fill:none;stroke:#F15A60;stroke-width:0.5" />
<path d="M410.64,411.48A2.5,2.5 0 1 1 405.64,411.48A2.5,2.5 0 1 1 410.64,411.48Z" style="fill:none;stroke:#F15A60;stroke-width:0.5" />
<path d="M413.31,411.48A2.5,2.5 0 1 1 408.31,411.48A2.5,2.5 0 1 1 413.31,411.48Z" style="fill:none;stroke:#F15A60;stroke-width:0.5" />
<path d="M415.98,411.48A2.5,2.5 0 1 1 410.98,411.48A2.5,2.5 0 1 1 415.98,411.48Z" style="fill:none;stroke:#F15A60;stroke-width:0.5" />
<path d="M418.65,411.48A2.5,2.5 0 1 1 413.65,411.48A2.5,2.5 0 1 1 418.65,411.48Z" style="fill:none;stroke:#F15A60;stroke-width:0.5" />
<path d="M421.32,411.48A2.5,2.5 0 1 1 416.32,411.48A2.5,2.5 0 1 1 421.32,411.48Z" style="fill:none;stroke:#F15A60;stroke-width:0.5" />
<path d="M423.99,411.48A2.5,2.5 0 1 1 418.99,411.48A2.5,2.5 0 1 1 423.99,411.48Z" style="fill:none;stroke:#F15A60;stroke-width:0.5" />
<path d="M426.66,411.54A2.5,2.5 0 1 1 421.66,411.54A2.5,2.5 0 1 1 426.66,411.54Z" style="fill:none;stroke:#F15A60;stroke-width:0.5" />
<path d="M429.33,411.54A2.5,2.5 0 1 1 424.33,411.54A2.5,2.5 0 1 1 429.33,411.54Z" style="fill:none;stroke:#F15A60;stroke-width:0.5" />
<path d="M432,411.68A2.5,2.5 0 1 1 427,411.68A2.5,2.5 0 1 1 432,411.68Z" style="fill:none;stroke:#F15A60;stroke-width:0.5" />
<path d="M412,44.369L432,44.369" style="fill:none;stroke:#F15A60" />
<path d="M424.5,44.369A2.5,2.5 0 1 1 419.5,44.369A2.5,2.5 0 1 1 424.5,44.369Z" style="fill:none;stroke:#F15A60;stroke-width:0.5" />
<text x="365.67" y="-38.703" transform="scale(1, -1)"
	style="font-family:Times;font-weight:normal;font-style:normal;font-size:12px">yunikorn</text>
</g>
</svg>
